<?xml version="1.0" encoding="UTF-8"?>
<svg version="1.1" xmlns="http://www.w3.org/2000/svg" width="180" height="180">
<path d="M0 0 C59.4 0 118.8 0 180 0 C180 59.4 180 118.8 180 180 C120.6 180 61.2 180 0 180 C0 120.6 0 61.2 0 0 Z " fill="#C5CBD1" transform="translate(0,0)"/>
<path d="M0 0 C59.4 0 118.8 0 180 0 C180 59.4 180 118.8 180 180 C120.6 180 61.2 180 0 180 C0 120.6 0 61.2 0 0 Z M99.85818481 3.10244751 C87.09663913 7.9911902 74.62047818 7.76645792 61.125 7.625 C57.73735558 7.60088179 54.35058582 7.58576741 50.96286011 7.59457397 C48.8759956 7.59912433 46.78897494 7.58465703 44.7024231 7.54824829 C40.32836316 7.54988962 37.71695321 7.58537241 33.87182617 9.80908203 C31.23213459 12.89876408 31.29893716 15.23826231 31.1875 19.25 C31.13980469 20.51328125 31.09210937 21.7765625 31.04296875 23.078125 C31.02169922 24.52445313 31.02169922 24.52445313 31 26 C29.81921875 26.37511719 28.6384375 26.75023438 27.421875 27.13671875 C25.8642974 27.65278362 24.30702119 28.16975881 22.75 28.6875 C21.58404297 29.05391602 21.58404297 29.05391602 20.39453125 29.42773438 C15.64244491 31.03207122 12.46736999 32.3637322 10 37 C9.70237837 41.81196653 10.24157164 45.57882923 11.80078125 50.12109375 C12.19595947 51.28447266 12.5911377 52.44785156 12.99829102 53.64648438 C13.31916183 54.56820435 13.31916183 54.56820435 13.64651489 55.50854492 C14.33381034 57.49922314 14.99502704 59.49720399 15.65209961 61.49804688 C17.84883721 68.12308227 20.17781644 74.55171679 23.078125 80.91015625 C32.17393083 101.91801175 32.12415792 122.63307017 31.79559994 145.14152145 C31.76642573 147.18752854 31.74554449 149.23348071 31.72624207 151.27960205 C31.69581013 153.82391572 31.64195143 156.36808542 31.5617218 158.91131592 C31.54634872 160.05014221 31.53097565 161.18896851 31.51513672 162.36230469 C31.47536209 163.8563382 31.47536209 163.8563382 31.43478394 165.3805542 C31.79669774 168.23308703 31.79669774 168.23308703 34.39729309 170.32397461 C37.03694577 172.0237914 38.14125264 172.48423656 41.20703125 172.390625 C41.95791016 172.37773437 42.70878906 172.36484375 43.48242188 172.3515625 C44.25134766 172.31804687 45.02027344 172.28453125 45.8125 172.25 C46.60076172 172.23195312 47.38902344 172.21390625 48.20117188 172.1953125 C50.13464261 172.14844048 52.06748285 172.0767041 54 172 C54.268125 172.78375 54.53625 173.5675 54.8125 174.375 C55.84814432 177.28114923 55.84814432 177.28114923 59 179 C65.28063091 179.94794664 70.32702729 178.41297176 76.0625 176.0625 C83.67577977 173.15519514 90.39411048 172.69829474 98.5 172.75 C106.19431605 172.88531888 106.19431605 172.88531888 113.08203125 169.9765625 C114.57613747 168.23387468 116.02456435 166.4510274 117.42578125 164.6328125 C122.96957734 158.96282985 131.5877225 157.30508977 139 155 C141.50476541 154.21575728 144.00834597 153.42891319 146.5078125 152.62792969 C148.04153261 152.14010039 149.58048594 151.66831467 151.125 151.21582031 C155.8617636 149.73667412 158.98134909 148.14347141 162 144 C163.33379742 137.76007536 162.72348696 133.66344004 160.53515625 127.75 C160.26647736 126.9817691 159.99779846 126.21353821 159.72097778 125.42202759 C158.85012362 122.94229933 157.95649783 120.47146688 157.0625 118 C156.46020194 116.29669433 155.85970557 114.59275053 155.26098633 112.88818359 C154.07062412 109.50227248 152.87329532 106.11895931 151.67089844 102.73730469 C149.42378955 96.39491085 147.29573336 90.01485191 145.1875 83.625 C144.69165405 82.13033203 144.69165405 82.13033203 144.18579102 80.60546875 C143.45555634 78.4041816 142.72685417 76.20240509 142 74 C142.66 74.33 143.32 74.66 144 75 C151.25532878 75.5003675 156.4245513 74.07874924 162.6875 70.4375 C167.39544706 65.47506932 170.27895242 59.70707932 170.5 52.8125 C170.07768546 45.51901378 167.13534762 40.13534762 162 35 C156.33758853 30.91750245 150.85133525 30.2576706 144 31 C143.01 31.33 142.02 31.66 141 32 C141.02618408 31.41508789 141.05236816 30.83017578 141.0793457 30.22753906 C141.18349756 27.56863434 141.24837772 24.91015856 141.3125 22.25 C141.35439453 21.32960938 141.39628906 20.40921875 141.43945312 19.4609375 C141.5694265 14.02898624 141.5694265 14.02898624 139.03125 9.375 C134.95218201 7.52470112 131.60558621 7.55742625 127.1875 7.75 C126.39923828 7.76804687 125.61097656 7.78609375 124.79882812 7.8046875 C122.86535739 7.85155952 120.93251715 7.9232959 119 8 C118.69320312 7.37609375 118.38640625 6.7521875 118.0703125 6.109375 C116.54827408 3.10950513 116.54827408 3.10950513 114 1 C108.64746428 0.60796076 104.83441244 1.19122152 99.85818481 3.10244751 Z " fill="#FBFBFB" transform="translate(0,0)"/>
<path d="M0 0 C0 3.94522928 -0.35327181 4.73178083 -2 8 C-2.78778935 13.62706678 -2.20098795 18.19851807 1 23 C4.08932281 25.8065946 6.65922155 26.55440333 10.75 27.1875 C12.22726563 27.42533203 12.22726563 27.42533203 13.734375 27.66796875 C14.48203125 27.77753906 15.2296875 27.88710938 16 28 C15.01 30.475 15.01 30.475 14 33 C13.05125 32.95875 12.1025 32.9175 11.125 32.875 C7.89755144 32.65026182 7.89755144 32.65026182 6 35 C8.64 35.33 11.28 35.66 14 36 C11.52561558 37.2866799 9.12205249 38.32923032 6.5 39.3125 C2.20219361 41.38465665 0.1125747 43.7748506 -2 48 C-2.09611752 49.62268991 -2.12982352 51.24947306 -2.125 52.875 C-2.12757812 53.73867187 -2.13015625 54.60234375 -2.1328125 55.4921875 C-2.00754048 57.85761802 -1.86141363 59.79200875 -1 62 C-0.01 62.33 0.98 62.66 2 63 C3 64 4 65 5 66 C8.70251647 67.23417216 12.14717863 67.4515025 16 67 C18.81780534 65.61114752 18.81780534 65.61114752 21 64 C21.66 64 22.32 64 23 64 C23.2475 63.360625 23.495 62.72125 23.75 62.0625 C25 60 25 60 27.125 59.25 C27.74375 59.1675 28.3625 59.085 29 59 C28.01 59.495 28.01 59.495 27 60 C27.99 60 28.98 60 30 60 C42 60 54 60 66 60 C66 59.34 66 58.68 66 58 C47.685 57.505 47.685 57.505 29 57 C29 56.34 29 55.68 29 55 C29.66 54.67 30.32 54.34 31 54 C30.505 50.04 30.505 50.04 30 46 C30.66 46.66 31.32 47.32 32 48 C34.22196327 48.33069425 34.22196327 48.33069425 36.81689453 48.31884766 C37.81778107 48.33871735 38.8186676 48.35858704 39.84988403 48.37905884 C41.47493362 48.39638565 41.47493362 48.39638565 43.1328125 48.4140625 C44.23978485 48.43342865 45.3467572 48.4527948 46.48727417 48.4727478 C50.03310369 48.53266754 53.57896545 48.57897873 57.125 48.625 C59.52475397 48.66316835 61.92449408 48.70221939 64.32421875 48.7421875 C70.21602302 48.83837916 76.10791036 48.92339015 82 49 C82.33 49.99 82.66 50.98 83 52 C86.14061025 53.34513424 86.14061025 53.34513424 90 52 C90 62.89 90 73.78 90 85 C89.01 85 88.02 85 87 85 C87 84.34 87 83.68 87 83 C85.515 83.495 85.515 83.495 84 84 C82.29716578 84.08770177 80.59107252 84.11765393 78.88598633 84.11352539 C77.84513382 84.11344986 76.80428131 84.11337433 75.73188782 84.11329651 C74.60993515 84.10813522 73.48798248 84.10297394 72.33203125 84.09765625 C71.18208176 84.0962413 70.03213226 84.09482635 68.84733582 84.09336853 C65.16903092 84.08776429 61.49078655 84.07521104 57.8125 84.0625 C55.32096442 84.05748555 52.82942789 84.05292255 50.33789062 84.04882812 C44.22523971 84.03779347 38.11262418 84.02105118 32 84 C32 85.65 32 87.3 32 89 C48.5 89 65 89 82 89 C81.01 89.495 81.01 89.495 80 90 C80 96.6 80 103.2 80 110 C76.484375 110.09765625 72.96875 110.1953125 69.453125 110.29296875 C65.91665 110.68897923 65.91665 110.68897923 63.82226562 113.15820312 C61.71120033 116.45037891 61.46704796 118.29731582 61.390625 122.17578125 C61.35839844 123.33271484 61.32617188 124.48964844 61.29296875 125.68164062 C61.27878906 126.87982422 61.26460938 128.07800781 61.25 129.3125 C61.22035156 130.53001953 61.19070312 131.74753906 61.16015625 133.00195312 C61.08958177 136.00136833 61.03682136 139.0000117 61 142 C51.89040835 142.02312545 42.78082674 142.04091612 33.6712122 142.05181217 C29.44168629 142.05704056 25.2121804 142.0641374 20.98266602 142.07543945 C16.90431457 142.08626991 12.82598243 142.09227717 8.74761772 142.09487724 C7.18822361 142.09673121 5.6288306 142.10035127 4.06944466 142.10573006 C1.89270838 142.11294262 -0.28394714 142.11399085 -2.46069336 142.11352539 C-4.32267616 142.11685631 -4.32267616 142.11685631 -6.22227478 142.12025452 C-9 142 -9 142 -10 141 C-10.09646028 139.16505514 -10.12187344 137.32635413 -10.12025452 135.48887634 C-10.12162918 134.2926918 -10.12300385 133.09650726 -10.12442017 131.86407471 C-10.12088057 130.52648901 -10.11724575 129.18890356 -10.11352539 127.85131836 C-10.11324352 126.45217389 -10.11340125 125.05302927 -10.1139679 123.65388489 C-10.11425588 119.84413541 -10.10835898 116.03441714 -10.10139394 112.22467494 C-10.09516059 108.24748691 -10.09455662 104.27029824 -10.09336853 100.29310608 C-10.09025516 92.75661461 -10.08204169 85.22013757 -10.07201904 77.68365246 C-10.06085808 69.10580172 -10.0553475 60.5279503 -10.05032361 51.9500941 C-10.03985908 34.30005454 -10.02225953 16.65002843 -10 -1 C-6.06204091 -2.22419163 -3.83887763 -1.48320272 0 0 Z " fill="#E7F0F6" transform="translate(46,26)"/>
<path d="M0 0 C3 2.375 3 2.375 5 5 C5 5.66 5 6.32 5 7 C6.16917969 6.95359375 7.33835937 6.9071875 8.54296875 6.859375 C10.0911202 6.82184406 11.63929939 6.78544531 13.1875 6.75 C13.95642578 6.71648438 14.72535156 6.68296875 15.51757812 6.6484375 C19.2157088 6.58495028 21.62193663 6.82850734 25.03125 8.375 C28.08561758 12.44749011 27.53736047 16.30998843 27.3125 21.25 C27.27866211 22.65378906 27.27866211 22.65378906 27.24414062 24.0859375 C27.18530595 26.39225674 27.10317146 28.69530838 27 31 C27.99 30.67 28.98 30.34 30 30 C36.46494843 29.18312926 41.39522928 29.91219056 46.953125 33.37109375 C52.30846272 37.63287969 55.4422812 42.45857545 56.2734375 49.2265625 C56.56522805 56.11730866 55.16320237 61.4266807 51 67 C44.29314067 72.8834193 38.69215592 74.28039213 30 74 C29.34 73.67 28.68 73.34 28 73 C28.26531021 73.75897583 28.53062042 74.51795166 28.80397034 75.29992676 C31.30812793 82.47318972 33.79598907 89.65180334 36.26599216 96.83689117 C37.5362473 100.53014732 38.81257081 104.2210608 40.10327148 107.90722656 C41.34995324 111.4684148 42.58002583 115.03495339 43.7990551 118.60569763 C44.26567209 119.96317939 44.73811786 121.31867276 45.21661568 122.67201233 C50.08867461 136.47516519 50.08867461 136.47516519 48 143 C44.57271886 147.66801913 40.51602053 149.25102058 35.13671875 150.8671875 C33.59434433 151.36570999 32.05202845 151.86441364 30.50976562 152.36328125 C28.10253103 153.12155403 25.69339576 153.87317459 23.2824707 154.61962891 C13.03875228 157.81757564 4.858971 160.50033749 -1.8046875 169.4140625 C-5.70000922 172.22812054 -10.46401841 171.41578765 -15.125 171.375 C-24.11941633 171.48816715 -31.6862292 172.50323529 -40.02587891 175.91748047 C-44.97184328 177.90720851 -49.65840251 178.90231463 -55 178 C-58.0625 175.625 -58.0625 175.625 -60 173 C-60 172.34 -60 171.68 -60 171 C-61.16917969 171.04640625 -62.33835938 171.0928125 -63.54296875 171.140625 C-65.0911202 171.17815594 -66.63929939 171.21455469 -68.1875 171.25 C-68.95642578 171.28351563 -69.72535156 171.31703125 -70.51757812 171.3515625 C-71.26845703 171.36445313 -72.01933594 171.37734375 -72.79296875 171.390625 C-73.4789917 171.41157227 -74.16501465 171.43251953 -74.87182617 171.45410156 C-78.41992564 170.69702172 -79.66905271 169.85615639 -82 167 C-82.62805715 162.82416593 -82.38398625 158.69703048 -82.21484375 154.48828125 C-82.16646505 151.88606222 -82.12253763 149.28375752 -82.08251953 146.68139648 C-82.06948319 146.00300846 -82.05644686 145.32462044 -82.04301548 144.6256752 C-81.5121381 116.9619661 -84.2242098 93.68205109 -95.31054688 67.98876953 C-97.64617474 62.55734532 -99.5323097 56.98958932 -101.375 51.375 C-101.79386475 50.19345337 -101.79386475 50.19345337 -102.22119141 48.98803711 C-103.75663929 44.52104928 -104.59319057 40.7119477 -104 36 C-101.13180014 30.61055995 -96.7501855 29.41599942 -91.25 27.6875 C-90.45722656 27.42388672 -89.66445312 27.16027344 -88.84765625 26.88867188 C-86.90323914 26.24443729 -84.95221881 25.62019178 -83 25 C-82.97873047 23.55367187 -82.97873047 23.55367187 -82.95703125 22.078125 C-82.88548828 20.18320312 -82.88548828 20.18320312 -82.8125 18.25 C-82.77769531 16.99703125 -82.74289063 15.7440625 -82.70703125 14.453125 C-82 11 -82 11 -80.12817383 8.80908203 C-75.5336088 6.15195826 -71.457089 6.51056646 -66.2421875 6.6015625 C-64.06640519 6.59681826 -61.89062388 6.59159355 -59.71484375 6.5859375 C-56.31670145 6.60053224 -52.91898347 6.62453897 -49.52099609 6.66015625 C-36.10836422 6.77056451 -24.62208654 6.1276185 -12.02783203 1.29052734 C-7.83463807 -0.22608417 -4.44602745 -0.40472301 0 0 Z M-79 13 C-79.45480112 15.73233479 -79.45480112 15.73233479 -79.3742218 18.99755859 C-79.38123611 20.27636902 -79.38825043 21.55517944 -79.39547729 22.8727417 C-79.38804889 24.29797519 -79.38031772 25.72320712 -79.37231445 27.1484375 C-79.37474128 28.64300795 -79.37845954 30.13757678 -79.38337708 31.63214111 C-79.39280473 35.69822921 -79.38334505 39.76407739 -79.37004495 43.83014679 C-79.35875327 48.07865957 -79.36283618 52.32716013 -79.36479187 56.57568359 C-79.36567557 63.71130304 -79.35457859 70.84682762 -79.33618164 77.98242188 C-79.31501283 86.24058822 -79.31150367 94.49861553 -79.3177436 102.75680351 C-79.32343185 110.69004025 -79.31779797 118.62322786 -79.30657005 126.55645752 C-79.3019169 129.93761094 -79.3010533 133.31873438 -79.3031559 136.69989014 C-79.30503505 140.67910228 -79.29696383 144.65817226 -79.2810955 148.63735199 C-79.27684113 150.10070966 -79.27600981 151.56408171 -79.27878571 153.02744293 C-79.28199146 155.01911564 -79.27173043 157.01079669 -79.26069641 159.00244141 C-79.25864354 160.11890045 -79.25659067 161.2353595 -79.25447559 162.38565063 C-79.26389044 165.15962688 -79.26389044 165.15962688 -77 167 C-73.96300567 167.29400563 -73.96300567 167.29400563 -70.34716797 167.22705078 C-69.66412598 167.22734283 -68.98108398 167.22763489 -68.27734375 167.22793579 C-66.01549659 167.22654039 -63.75397724 167.21096967 -61.4921875 167.1953125 C-59.92563049 167.19158311 -58.35907116 167.18873579 -56.79251099 167.18673706 C-52.66605203 167.17909476 -48.53973349 167.15944124 -44.41333008 167.1373291 C-40.20395813 167.11688346 -35.99456352 167.1077381 -31.78515625 167.09765625 C-23.523373 167.07619583 -15.26170396 167.04205279 -7 167 C-6.9906543 166.23333008 -6.98130859 165.46666016 -6.97167969 164.67675781 C-6.91797227 161.20051897 -6.83432424 157.72562526 -6.75 154.25 C-6.73582031 153.0434375 -6.72164063 151.836875 -6.70703125 150.59375 C-6.67480469 149.43359375 -6.64257812 148.2734375 -6.609375 147.078125 C-6.58842773 146.00981445 -6.56748047 144.94150391 -6.54589844 143.84082031 C-5.85963607 140.26955516 -4.95643259 139.09342057 -2 137 C0.84082031 136.45410156 0.84082031 136.45410156 4.078125 136.390625 C5.23828125 136.35839844 6.3984375 136.32617188 7.59375 136.29296875 C8.8003125 136.27878906 10.006875 136.26460938 11.25 136.25 C12.47203125 136.22035156 13.6940625 136.19070312 14.953125 136.16015625 C17.96881644 136.08947598 20.9837355 136.03676825 24 136 C24.16245102 127.6288521 24.28669719 119.25836648 24.3626852 110.8860302 C24.39916319 106.99799665 24.44860766 103.11104416 24.52807617 99.22363281 C24.6043398 95.4693458 24.64603117 91.71609593 24.6641407 87.9610939 C24.67703923 86.5312683 24.70222944 85.10149724 24.7401104 83.67211533 C25.21101818 75.84902254 25.21101818 75.84902254 22.44984436 68.83268738 C20.70341035 67.34562907 18.94967931 66.19544069 17 65 C13.66379253 60.05839947 12.25699449 54.94404409 13 49 C14.05084383 43.74578084 15.35823118 40.29183052 19.58984375 36.8984375 C22.66910414 33.93207135 23.51128796 32.02931447 23.71875 27.7578125 C23.68191356 25.87915412 23.60822501 24.00090021 23.5 22.125 C23.47679687 21.16335937 23.45359375 20.20171875 23.4296875 19.2109375 C23.66241204 14.76528031 23.66241204 14.76528031 22 11 C18.97198625 10.89402399 15.9666566 10.85322482 12.93798828 10.85473633 C11.98681122 10.85137772 11.03563416 10.8480191 10.05563354 10.84455872 C6.89384678 10.83501668 3.73211279 10.83310392 0.5703125 10.83203125 C-1.61825584 10.8288207 -3.80682397 10.82545679 -5.99539185 10.82194519 C-10.5905202 10.81594561 -15.18562972 10.81410612 -19.78076172 10.81469727 C-25.67808348 10.81479888 -31.57528483 10.80115065 -37.47257805 10.78392506 C-41.99521442 10.77282292 -46.51782152 10.77077751 -51.04047012 10.77130699 C-53.21504252 10.77012402 -55.3896156 10.7656846 -57.56417465 10.75797462 C-60.60260263 10.74821165 -63.64076729 10.75103828 -66.67919922 10.75708008 C-67.58321472 10.75146057 -68.48723022 10.74584106 -69.41864014 10.74005127 C-70.24590607 10.74424576 -71.073172 10.74844025 -71.92550659 10.75276184 C-72.64412809 10.75221707 -73.3627496 10.75167231 -74.10314751 10.75111103 C-76.33051734 10.90131102 -76.33051734 10.90131102 -79 13 Z " fill="#070607" transform="translate(114,1)"/>
<path d="M0 0 C0 3.94522928 -0.35327181 4.73178083 -2 8 C-2.78778935 13.62706678 -2.20098795 18.19851807 1 23 C4.08932281 25.8065946 6.65922155 26.55440333 10.75 27.1875 C12.22726563 27.42533203 12.22726563 27.42533203 13.734375 27.66796875 C14.48203125 27.77753906 15.2296875 27.88710938 16 28 C15.01 30.475 15.01 30.475 14 33 C13.05125 32.95875 12.1025 32.9175 11.125 32.875 C7.89755144 32.65026182 7.89755144 32.65026182 6 35 C8.64 35.33 11.28 35.66 14 36 C11.52561558 37.2866799 9.12205249 38.32923032 6.5 39.3125 C2.20219361 41.38465665 0.1125747 43.7748506 -2 48 C-2.09611752 49.62268991 -2.12982352 51.24947306 -2.125 52.875 C-2.12757812 53.73867187 -2.13015625 54.60234375 -2.1328125 55.4921875 C-2.00754048 57.85761802 -1.86141363 59.79200875 -1 62 C-0.01 62.33 0.98 62.66 2 63 C3 64 4 65 5 66 C8.70251647 67.23417216 12.14717863 67.4515025 16 67 C18.81780534 65.61114752 18.81780534 65.61114752 21 64 C21.66 64 22.32 64 23 64 C23.2475 63.360625 23.495 62.72125 23.75 62.0625 C25 60 25 60 27.125 59.25 C27.74375 59.1675 28.3625 59.085 29 59 C28.01 59.495 28.01 59.495 27 60 C27.99 60 28.98 60 30 60 C42 60 54 60 66 60 C66 59.34 66 58.68 66 58 C47.685 57.505 47.685 57.505 29 57 C29 56.34 29 55.68 29 55 C29.66 54.67 30.32 54.34 31 54 C30.505 50.04 30.505 50.04 30 46 C30.66 46.66 31.32 47.32 32 48 C34.22196327 48.33069425 34.22196327 48.33069425 36.81689453 48.31884766 C37.81778107 48.33871735 38.8186676 48.35858704 39.84988403 48.37905884 C41.47493362 48.39638565 41.47493362 48.39638565 43.1328125 48.4140625 C44.23978485 48.43342865 45.3467572 48.4527948 46.48727417 48.4727478 C50.03310369 48.53266754 53.57896545 48.57897873 57.125 48.625 C59.52475397 48.66316835 61.92449408 48.70221939 64.32421875 48.7421875 C70.21602302 48.83837916 76.10791036 48.92339015 82 49 C82.33 49.99 82.66 50.98 83 52 C86.14061025 53.34513424 86.14061025 53.34513424 90 52 C90 62.89 90 73.78 90 85 C89.01 85 88.02 85 87 85 C87 84.34 87 83.68 87 83 C85.515 83.495 85.515 83.495 84 84 C82.29716578 84.08770177 80.59107252 84.11765393 78.88598633 84.11352539 C77.84513382 84.11344986 76.80428131 84.11337433 75.73188782 84.11329651 C74.60993515 84.10813522 73.48798248 84.10297394 72.33203125 84.09765625 C71.18208176 84.0962413 70.03213226 84.09482635 68.84733582 84.09336853 C65.16903092 84.08776429 61.49078655 84.07521104 57.8125 84.0625 C55.32096442 84.05748555 52.82942789 84.05292255 50.33789062 84.04882812 C44.22523971 84.03779347 38.11262418 84.02105118 32 84 C31.67 83.01 31.34 82.02 31 81 C30.34 81.99 29.68 82.98 29 84 C28.34 84 27.68 84 27 84 C27 83.34 27 82.68 27 82 C26.34 82 25.68 82 25 82 C24.34 81.01 23.68 80.02 23 79 C16.59236342 78.11971766 7.40596985 77.07292083 1.8125 80.9375 C-3.14239864 86.38522458 -4.90440685 95.10680347 -7 102 C-7.33 102 -7.66 102 -8 102 C-8.06058594 101.07316406 -8.12117188 100.14632812 -8.18359375 99.19140625 C-8.26738281 97.99386719 -8.35117187 96.79632813 -8.4375 95.5625 C-8.51871094 94.36753906 -8.59992187 93.17257813 -8.68359375 91.94140625 C-8.67656114 89.11429756 -8.67656114 89.11429756 -10 88 C-10.09517803 85.23061034 -10.12554265 82.48622841 -10.11352539 79.71655273 C-10.11367142 78.84833893 -10.11381744 77.98012512 -10.1139679 77.08560181 C-10.11326846 74.20157414 -10.10547463 71.3176102 -10.09765625 68.43359375 C-10.09579218 66.43962133 -10.09436823 64.44564845 -10.09336853 62.45167542 C-10.08954248 57.19254298 -10.07971145 51.93343797 -10.06866455 46.67431641 C-10.0584523 41.31217825 -10.05387131 35.95003569 -10.04882812 30.58789062 C-10.03808926 20.05858167 -10.0210118 9.52929311 -10 -1 C-6.06204091 -2.22419163 -3.83887763 -1.48320272 0 0 Z " fill="#E8F0F6" transform="translate(46,26)"/>
<path d="M0 0 C0.82726593 -0.00419449 1.65453186 -0.00838898 2.50686646 -0.01271057 C3.41088196 -0.00709106 4.31489746 -0.00147156 5.24630737 0.00431824 C6.20098907 0.00241989 7.15567078 0.00052155 8.13928223 -0.00143433 C11.29987762 -0.00514395 14.46024407 0.00556348 17.62081909 0.01676941 C19.81131971 0.01796105 22.00182085 0.01841441 24.19232178 0.01815796 C28.7839172 0.01972306 33.37543468 0.02801593 37.9670105 0.04142761 C43.86668555 0.05843748 49.76627505 0.06224141 55.66597176 0.06148243 C60.18852563 0.06175368 64.71106063 0.06722735 69.23360825 0.07448387 C71.409828 0.0776763 73.58604991 0.07963928 75.76227188 0.08037758 C78.79605037 0.08253395 81.82973614 0.09126227 84.86349487 0.10197449 C85.77155884 0.1015213 86.6796228 0.10106812 87.61520386 0.1006012 C93.81103158 0.13276315 93.81103158 0.13276315 94.92550659 1.24723816 C95.31687721 4.61047309 95.34388502 7.98947766 95.42550659 11.37223816 C95.47964722 12.31067566 95.53378784 13.24911316 95.58956909 14.21598816 C95.72456077 21.10056395 95.72456077 21.10056395 93.43722534 24.38298035 C91.67870941 26.14242182 89.86827929 27.69669552 87.92550659 29.24723816 C86.91371555 30.23530642 85.90969849 31.23167609 84.92550659 32.24723816 C84.92550659 29.60723816 84.92550659 26.96723816 84.92550659 24.24723816 C68.75550659 24.24723816 52.58550659 24.24723816 35.92550659 24.24723816 C35.92550659 23.91723816 35.92550659 23.58723816 35.92550659 23.24723816 C61.17050659 22.75223816 61.17050659 22.75223816 86.92550659 22.24723816 C87.42050659 20.76223816 87.42050659 20.76223816 87.92550659 19.24723816 C70.76550659 19.57723816 53.60550659 19.90723816 35.92550659 20.24723816 C35.43050659 21.73223816 35.43050659 21.73223816 34.92550659 23.24723816 C34.26550659 23.24723816 33.60550659 23.24723816 32.92550659 23.24723816 C32.75535034 23.98329285 32.58519409 24.71934753 32.40988159 25.47770691 C29.85845065 35.75128789 29.85845065 35.75128789 25.92550659 39.24723816 C21.12756513 41.87252688 17.37396521 42.84161546 11.92550659 42.24723816 C7.24380392 40.50307442 4.71301468 38.37687977 1.92550659 34.24723816 C0.579525 30.20929339 0.47168453 26.47299111 0.92550659 22.24723816 C2.48800659 19.37223816 2.48800659 19.37223816 3.92550659 17.24723816 C3.59550659 16.25723816 3.26550659 15.26723816 2.92550659 14.24723816 C-0.04449341 13.91723816 -3.01449341 13.58723816 -6.07449341 13.24723816 C-6.07449341 59.77723816 -6.07449341 106.30723816 -6.07449341 154.24723816 C-6.40449341 154.24723816 -6.73449341 154.24723816 -7.07449341 154.24723816 C-7.14449721 134.46346492 -7.19743917 114.67971672 -7.22992992 94.89584541 C-7.24541525 85.71036266 -7.26653646 76.52495675 -7.30081177 67.33952332 C-7.33066328 59.33582315 -7.35005628 51.33217862 -7.35675889 43.32842433 C-7.36067839 39.08837237 -7.36992403 34.84847961 -7.39168358 30.60847855 C-7.41198179 26.62108379 -7.41834083 22.63391444 -7.41381645 18.64647293 C-7.41464466 17.17987342 -7.42065001 15.7132667 -7.43210983 14.24671173 C-7.44694797 12.25061436 -7.44167973 10.25439719 -7.43525696 8.258255 C-7.43802234 7.13919832 -7.44078772 6.02014164 -7.44363689 4.86717415 C-7.32181954 4.00259527 -7.20000219 3.1380164 -7.07449341 2.24723816 C-4.01827818 0.20976134 -3.43276028 -0.00260228 0 0 Z " fill="#C9CFD5" transform="translate(42.074493408203125,11.752761840820313)"/>
<path d="M0 0 C3 2.375 3 2.375 5 5 C5 5.66 5 6.32 5 7 C6.16917969 6.95359375 7.33835937 6.9071875 8.54296875 6.859375 C10.0911202 6.82184406 11.63929939 6.78544531 13.1875 6.75 C13.95642578 6.71648438 14.72535156 6.68296875 15.51757812 6.6484375 C19.2157088 6.58495028 21.62193663 6.82850734 25.03125 8.375 C28.08561758 12.44749011 27.53736047 16.30998843 27.3125 21.25 C27.28994141 22.18585937 27.26738281 23.12171875 27.24414062 24.0859375 C27.18530595 26.39225674 27.10317146 28.69530838 27 31 C27.99 30.67 28.98 30.34 30 30 C36.46494843 29.18312926 41.39522928 29.91219056 46.953125 33.37109375 C52.30846272 37.63287969 55.4422812 42.45857545 56.2734375 49.2265625 C56.56522805 56.11730866 55.16320237 61.4266807 51 67 C44.29314067 72.8834193 38.69215592 74.28039213 30 74 C29.34 73.67 28.68 73.34 28 73 C28.3609375 73.94101563 28.721875 74.88203125 29.09375 75.8515625 C29.56301181 77.10918415 30.03173319 78.36700754 30.5 79.625 C31.19609375 81.46964844 31.19609375 81.46964844 31.90625 83.3515625 C32.94316919 86.81042866 33.22019382 89.42185036 33 93 C32.01 93 31.02 93 30 93 C29.34 91.02 28.68 89.04 28 87 C27.67 103.83 27.34 120.66 27 138 C26.34 138 25.68 138 25 138 C24.67 138.99 24.34 139.98 24 141 C21.9375 142.6875 21.9375 142.6875 20 144 C19.67 143.34 19.34 142.68 19 142 C19.33 141.34 19.66 140.68 20 140 C12.74 140.33 5.48 140.66 -2 141 C-3.6498007 144.29960141 -3.38258361 147.99127884 -3.5625 151.625 C-3.62727539 152.82769531 -3.62727539 152.82769531 -3.69335938 154.0546875 C-3.79951457 156.0362511 -3.90026855 158.01810271 -4 160 C-4.99 160 -5.98 160 -7 160 C-7.13530844 156.93601549 -7.2342407 153.87802874 -7.3125 150.8125 C-7.35439453 149.94818359 -7.39628906 149.08386719 -7.43945312 148.19335938 C-7.45556641 147.35224609 -7.47167969 146.51113281 -7.48828125 145.64453125 C-7.51446533 144.87471924 -7.54064941 144.10490723 -7.56762695 143.31176758 C-6.61331658 139.42515902 -5.33946237 138.25487177 -2 136 C2.45219846 135.38340084 6.82895427 135.53073267 11.3125 135.6875 C12.53001953 135.71005859 13.74753906 135.73261719 15.00195312 135.75585938 C18.00255482 135.8146947 21.00064797 135.8968586 24 136 C24.03152431 127.62821652 24.02534843 119.25765825 23.97153378 110.8860302 C23.94771666 106.99829466 23.93670624 103.11141511 23.95532227 99.22363281 C23.97282413 95.46887934 23.95621662 91.71566078 23.91632271 87.9610939 C23.90705508 86.53146128 23.90991325 85.10169512 23.92530632 83.67211533 C24.26632784 75.83810524 24.26632784 75.83810524 21.43641663 68.83268738 C19.69388678 67.34914451 17.94278994 66.19676277 16 65 C12.66379253 60.05839947 11.25699449 54.94404409 12 49 C13.51029763 41.44851184 16.19661585 38.80338415 22 33 C22 26.07 22 19.14 22 12 C3.52 11.67 -14.96 11.34 -34 11 C-34 10.34 -34 9.68 -34 9 C-48.19 8.67 -62.38 8.34 -77 8 C-77 7.67 -77 7.34 -77 7 C-76.41578781 7.00079559 -75.83157562 7.00159119 -75.22966003 7.00241089 C-69.04638935 7.00488391 -62.86434271 6.96493386 -56.68139648 6.90234375 C-54.38620716 6.88438126 -52.09091153 6.87657862 -49.7956543 6.87988281 C-36.32856287 6.89165217 -24.65836843 6.12500161 -12.0168457 1.28173828 C-7.82925695 -0.2274093 -4.43829397 -0.40270178 0 0 Z " fill="#1C0F0D" transform="translate(114,1)"/>
<path d="M0 0 C0.33 0.99 0.66 1.98 1 3 C1.99 3 2.98 3 4 3 C4.495 4.98 4.495 4.98 5 7 C16.55 7.33 28.1 7.66 40 8 C40 8.33 40 8.66 40 9 C28.45 9 16.9 9 5 9 C5 10.32 5 11.64 5 13 C5.71285156 12.94199219 6.42570312 12.88398437 7.16015625 12.82421875 C12.17219362 12.58812009 15.96906905 12.41515441 20.1875 15.375 C21.115625 16.24125 22.04375 17.1075 23 18 C23 18.66 23 19.32 23 20 C23.66 20 24.32 20 25 20 C29 25.41176471 29 25.41176471 29 28 C29.66 28 30.32 28 31 28 C31 28.66 31 29.32 31 30 C31.66 30 32.32 30 33 30 C33 30.66 33 31.32 33 32 C33.66 32 34.32 32 35 32 C35 32.99 35 33.98 35 35 C42.26 35 49.52 35 57 35 C57 35.66 57 36.32 57 37 C39.84 37 22.68 37 5 37 C4.04095144 40.83619425 4.08107884 42.32431536 5 46 C4.01 46.33 3.02 46.66 2 47 C2 47.66 2 48.32 2 49 C14.21 49 26.42 49 39 49 C39 50.32 39 51.64 39 53 C37.92516357 52.99476318 36.85032715 52.98952637 35.74291992 52.98413086 C31.75660026 52.96603599 27.77028424 52.95455154 23.78393555 52.94506836 C22.0583434 52.94003842 20.33275552 52.93321374 18.60717773 52.92456055 C16.1274307 52.91243639 13.64774 52.90675831 11.16796875 52.90234375 C10.39599655 52.89718246 9.62402435 52.89202118 8.82865906 52.88670349 C5.6169772 52.88636682 3.06979734 52.97673422 0 54 C-0.33 53.34 -0.66 52.68 -1 52 C-1.721875 52.763125 -2.44375 53.52625 -3.1875 54.3125 C-7.15882838 58.10732489 -9.38299819 59.84599983 -14.9375 60.375 C-18.89793955 60.20345554 -21.65343517 59.20569046 -25 57 C-29.44571029 52.07367238 -30.35626128 49.04629143 -30.28125 42.5390625 C-29.73538851 37.61114631 -27.00526425 34.92986943 -23.5 31.6875 C-21.21731291 30.14668622 -19.69270763 29.39891965 -17 29 C-18.65 28.67 -20.3 28.34 -22 28 C-20.9375 26.0625 -20.9375 26.0625 -19 24 C-15.3125 23.25 -15.3125 23.25 -12 23 C-12 21.68 -12 20.36 -12 19 C-10.9275 18.649375 -9.855 18.29875 -8.75 17.9375 C-5.23996766 16.40985435 -3.46340197 14.54822102 -1.7109375 11.05078125 C-0.46187497 7.44771627 -0.17190177 3.7904341 0 0 Z " fill="#E8EFF5" transform="translate(73,34)"/>
<path d="M0 0 C0.920728 0.00022659 1.84145599 0.00045319 2.79008484 0.00068665 C3.78079483 0.0161705 4.77150482 0.03165436 5.79223633 0.04760742 C6.80900955 0.05185226 7.82578278 0.05609711 8.87336731 0.06047058 C12.1239357 0.0772762 15.37388628 0.11493235 18.62426758 0.15307617 C20.82673259 0.16812055 23.02920731 0.18180938 25.23168945 0.1940918 C30.6335933 0.22718581 36.0351363 0.27740394 41.43676758 0.34057617 C41.10676758 1.33057617 40.77676758 2.32057617 40.43676758 3.34057617 C39.17493652 3.36563232 37.91310547 3.39068848 36.61303711 3.41650391 C31.94268189 3.51049724 27.27247821 3.61073749 22.60229492 3.71289062 C20.57889342 3.75627012 18.55545459 3.79794295 16.53198242 3.83789062 C13.62773373 3.89552025 10.72367347 3.95923557 7.81958008 4.02416992 C6.91120392 4.04088242 6.00282776 4.05759491 5.06692505 4.07481384 C4.22620453 4.09475906 3.38548401 4.11470428 2.51928711 4.13525391 C1.77760284 4.15079819 1.03591858 4.16634247 0.27175903 4.18235779 C-1.65997347 4.23531113 -1.65997347 4.23531113 -3.56323242 5.34057617 C-3.89323242 55.50057617 -4.22323242 105.66057617 -4.56323242 157.34057617 C-5.55323242 157.67057617 -6.54323242 158.00057617 -7.56323242 158.34057617 C-7.54467194 157.6674086 -7.52611145 156.99424103 -7.50698853 156.30067444 C-6.63621405 122.12770536 -7.16470141 92.26192023 -20.8737793 60.34545898 C-23.20251889 54.90622107 -25.09275139 49.33410821 -26.93823242 43.71557617 C-27.21747559 42.92795898 -27.49671875 42.1403418 -27.78442383 41.32885742 C-29.31974042 36.86174486 -30.15643539 33.05262237 -29.56323242 28.34057617 C-26.69503256 22.95113612 -22.31341792 21.7565756 -16.81323242 20.02807617 C-16.02045898 19.76446289 -15.22768555 19.50084961 -14.41088867 19.22924805 C-12.46647156 18.58501346 -10.51545123 17.96076795 -8.56323242 17.34057617 C-8.52584961 16.36475586 -8.4884668 15.38893555 -8.44995117 14.38354492 C-8.38420898 13.11124023 -8.3184668 11.83893555 -8.25073242 10.52807617 C-8.19272461 9.26350586 -8.1347168 7.99893555 -8.07495117 6.69604492 C-7.26687975 1.39731708 -5.25029916 -0.04315314 0 0 Z " fill="#030204" transform="translate(39.563232421875,8.659423828125)"/>
<path d="M0 0 C4.43429058 2.21714529 7.69557523 5.31792668 11 9 C12.87894454 14.63683363 12.74720942 20.75837174 10.875 26.375 C7.58237427 30.98467602 3.54058204 34.54889518 -2 36 C-8.26552533 36.61628118 -12.85817098 35.77946407 -18 32 C-21.65695007 28.01718309 -23.82038826 24.29004966 -24.25 18.8125 C-23.82933195 12.39731218 -22.39888884 7.8917506 -17.5 3.5625 C-12.21832541 -0.68832144 -6.54581735 -0.67618199 0 0 Z " fill="#EC524E" transform="translate(154,35)"/>
<path d="M0 0 C4.33589521 2.31746123 7.1438396 5.45412569 9 10 C9.84632439 15.32397085 9.32547012 19.96398367 6.32421875 24.4921875 C3.4608395 27.75255443 0.26656543 29.61420163 -4.01953125 30.34375 C-8.74115922 30.56042126 -12.09214812 29.57562965 -16 27 C-20.44571029 22.07367238 -21.35626128 19.04629143 -21.28125 12.5390625 C-20.86866805 8.81436433 -19.45081269 6.78200359 -17 4 C-16.34 3.21625 -15.68 2.4325 -15 1.625 C-10.1492458 -1.00249186 -5.3758786 -0.95286737 0 0 Z " fill="#238B51" transform="translate(64,64)"/>
<path d="M0 0 C5.35755096 1.92063148 8.45837216 4.91674432 11 10 C11.81197272 16.5357148 10.83631462 20.67178525 7 26 C3.39272087 29.38182419 0.46147882 29.89174231 -4.375 30.25 C-9.66691202 29.88504055 -12.71523023 28.38894029 -16.3125 24.5 C-19.42262982 19.89240027 -19.65638658 15.39901074 -19 10 C-14.96099355 1.7666407 -8.84592308 -1.30227234 0 0 Z " fill="#E18E3F" transform="translate(62,24)"/>
<path d="M0 0 C4.34156704 2.33199887 7.12584464 5.44972514 9 10 C9.45304906 15.61780838 9.21244804 19.18132794 6 24 C2.37283469 27.57880311 -0.52938064 29.87537124 -5.6875 30.3125 C-10.28105807 30.22913234 -13.50695575 28.9889847 -17 26 C-20.68849231 21.8001238 -21.60593589 17.58071537 -21.31640625 12.0703125 C-20.59779666 7.36829912 -17.69788015 3.86377341 -14 0.9609375 C-9.54658947 -1.17878709 -4.75620169 -0.91049109 0 0 Z " fill="#DB8777" transform="translate(64,104)"/>
<path d="M0 0 C2.07940929 2.07940929 2.50454891 3.04876998 3.37280273 5.77197266 C3.62323837 6.54683014 3.87367401 7.32168762 4.13169861 8.12002563 C4.39632401 8.9595578 4.6609494 9.79908997 4.93359375 10.6640625 C5.21219742 11.53010101 5.49080109 12.39613953 5.77784729 13.28842163 C6.67017214 16.06546926 7.5542004 18.84506988 8.4375 21.625 C9.31865041 24.38302733 10.20155847 27.14047618 11.08644104 29.89730835 C11.6365742 31.61283913 12.18434977 33.32912837 12.72935486 35.04629517 C13.94999939 38.86710815 15.22235828 42.64320532 16.66040039 46.38818359 C17.99930095 49.99811523 18.68836723 52.21398021 18 56 C14.68826652 59.09706689 11.61101641 60.75658629 7.33203125 62.17578125 C6.27435547 62.52833984 5.21667969 62.88089844 4.12695312 63.24414062 C3.03318359 63.59669922 1.93941406 63.94925781 0.8125 64.3125 C-0.29287109 64.68439453 -1.39824219 65.05628906 -2.53710938 65.43945312 C-10.73563815 68.13218092 -10.73563815 68.13218092 -13 67 C-12.14825195 66.46149414 -11.29650391 65.92298828 -10.41894531 65.36816406 C-5.56138301 61.79212633 -1.74381365 58.11398487 -0.30493164 52.09008789 C0.70649239 43.67298278 0.43148172 35.20876611 0.25 26.75 C0.23801146 24.15496744 0.23144987 21.55990381 0.23046875 18.96484375 C0.21634013 12.64151365 0.13475284 6.3218496 0 0 Z " fill="#CABB97" transform="translate(141,86)"/>
<path d="M0 0 C0 21.12 0 42.24 0 64 C-2 63 -2 63 -2.85058594 60.70678711 C-3.14223633 59.6781958 -3.43388672 58.64960449 -3.734375 57.58984375 C-5.37073043 52.03336968 -7.13759563 46.54577281 -9.015625 41.06640625 C-9.54966964 39.49550745 -10.08352177 37.92454319 -10.6171875 36.35351562 C-11.43803751 33.94060183 -12.2616336 31.52877535 -13.09277344 29.11938477 C-13.90872745 26.75030943 -14.71309647 24.37755758 -15.515625 22.00390625 C-15.76556213 21.28819962 -16.01549927 20.57249298 -16.27301025 19.83509827 C-17.63681581 15.76576323 -18.36782024 12.2916381 -18 8 C-15.82070869 4.58655805 -12.10499585 3.67705432 -8.4375 2.3125 C-6.70306641 1.65701172 -6.70306641 1.65701172 -4.93359375 0.98828125 C-2 0 -2 0 0 0 Z " fill="#EBDAB4" transform="translate(32,30)"/>
<path d="M0 0 C2.43847451 0.11397544 4.87513174 0.24070974 7.3125 0.375 C8.00279297 0.4059375 8.69308594 0.436875 9.40429688 0.46875 C13.06990789 0.68124919 14.87900792 0.91933861 18 3 C19.32 2.67 20.64 2.34 22 2 C22 12.89 22 23.78 22 35 C21.01 35 20.02 35 19 35 C19 34.34 19 33.68 19 33 C16.03 33 13.06 33 10 33 C8.5216774 30.04335481 8.93967217 27.25770263 9 24 C8.34 24 7.68 24 7 24 C6.91363281 23.41734375 6.82726562 22.8346875 6.73828125 22.234375 C5.64895292 15.87829413 3.6471408 10.35312504 1.0234375 4.46875 C0 2 0 2 0 0 Z " fill="#CBD3D9" transform="translate(114,76)"/>
<path d="M0 0 C5.875 4.625 5.875 4.625 7 8 C7.5079081 14.22187421 7.75354356 19.74503901 4 25 C-1.25617464 30.02764531 -5.47922684 32.47658616 -12.86328125 32.3359375 C-16.6260786 31.74434596 -19.75940649 29.93056635 -23 28 C-23 24 -23 24 -22 22 C-19.4375 21.375 -19.4375 21.375 -17 21 C-17.33 19.68 -17.66 18.36 -18 17 C-17.01 17.66 -16.02 18.32 -15 19 C-11.46143204 18.70335358 -9.73134577 17.11205617 -7.3125 14.625 C-6.71050781 14.01914062 -6.10851562 13.41328125 -5.48828125 12.7890625 C-3.78559408 10.96278 -3.78559408 10.96278 -3 8 C-3.99 7.67 -4.98 7.34 -6 7 C-4.02 6.67 -2.04 6.34 0 6 C0 4.02 0 2.04 0 0 Z " fill="#F04C46" transform="translate(159,39)"/>
<path d="M0 0 C0.66 0 1.32 0 2 0 C2.79211929 1.89564426 3.58367576 3.79152371 4.375 5.6875 C4.81585938 6.74324219 5.25671875 7.79898438 5.7109375 8.88671875 C6.13632813 9.91410156 6.56171875 10.94148438 7 12 C7.3815625 12.886875 7.763125 13.77375 8.15625 14.6875 C9.19966592 17.54723253 9.14043511 19.98064517 9 23 C8.01 23 7.02 23 6 23 C5.34 21.02 4.68 19.04 4 17 C3.67 33.83 3.34 50.66 3 68 C2.34 68 1.68 68 1 68 C0.67 68.99 0.34 69.98 0 71 C-2.0625 72.6875 -2.0625 72.6875 -4 74 C-4.495 73.01 -4.495 73.01 -5 72 C-4.67 71.34 -4.34 70.68 -4 70 C-14.89 70.495 -14.89 70.495 -26 71 C-27.6498007 74.29960141 -27.38258361 77.99127884 -27.5625 81.625 C-27.60568359 82.42679687 -27.64886719 83.22859375 -27.69335938 84.0546875 C-27.79951457 86.0362511 -27.90026855 88.01810271 -28 90 C-28.99 90 -29.98 90 -31 90 C-31.13530844 86.93601549 -31.2342407 83.87802874 -31.3125 80.8125 C-31.35439453 79.94818359 -31.39628906 79.08386719 -31.43945312 78.19335938 C-31.45556641 77.35224609 -31.47167969 76.51113281 -31.48828125 75.64453125 C-31.51446533 74.87471924 -31.54064941 74.10490723 -31.56762695 73.31176758 C-31 71 -31 71 -26 66 C-17.42 66 -8.84 66 0 66 C0 44.22 0 22.44 0 0 Z " fill="#070405" transform="translate(138,71)"/>
<path d="M0 0 C3 2.375 3 2.375 5 5 C5 5.66 5 6.32 5 7 C10.61 7 16.22 7 22 7 C22 8.32 22 9.64 22 11 C3.52 11 -14.96 11 -34 11 C-34 10.34 -34 9.68 -34 9 C-48.19 8.67 -62.38 8.34 -77 8 C-77 7.67 -77 7.34 -77 7 C-76.41578781 7.00079559 -75.83157562 7.00159119 -75.22966003 7.00241089 C-69.04638935 7.00488391 -62.86434271 6.96493386 -56.68139648 6.90234375 C-54.38620716 6.88438126 -52.09091153 6.87657862 -49.7956543 6.87988281 C-36.32856287 6.89165217 -24.65836843 6.12500161 -12.0168457 1.28173828 C-7.82925695 -0.2274093 -4.43829397 -0.40270178 0 0 Z " fill="#242324" transform="translate(114,1)"/>
<path d="M0 0 C1.56681519 0.04543945 1.56681519 0.04543945 3.1652832 0.09179688 C7.03978244 0.20404801 10.91429783 0.31573273 14.78881836 0.42724609 C16.46590616 0.47559399 18.14298954 0.5240956 19.82006836 0.57275391 C22.23029452 0.64265688 24.64053604 0.7120075 27.05078125 0.78125 C28.17592888 0.81406067 28.17592888 0.81406067 29.32380676 0.84753418 C32.21716296 0.93022824 35.10527988 1 38 1 C48 1 58 1 68 1 C68 2.65 68 4.3 68 6 C68.99 6.495 68.99 6.495 70 7 C46.9 7 23.8 7 0 7 C-0.33 5.68 -0.66 4.36 -1 3 C-0.67 2.67 -0.34 2.34 0 2 C0 1.34 0 0.68 0 0 Z " fill="#EBF1F6" transform="translate(37,161)"/>
<path d="M0 0 C4.33589521 2.31746123 7.1438396 5.45412569 9 10 C9.84632439 15.32397085 9.32547012 19.96398367 6.32421875 24.4921875 C3.4608395 27.75255443 0.26656543 29.61420163 -4.01953125 30.34375 C-8.74115922 30.56042126 -12.09214812 29.57562965 -16 27 C-20.44571029 22.07367238 -21.35626128 19.04629143 -21.28125 12.5390625 C-20.86866805 8.81436433 -19.45081269 6.78200359 -17 4 C-16.34 3.21625 -15.68 2.4325 -15 1.625 C-10.1492458 -1.00249186 -5.3758786 -0.95286737 0 0 Z M-16 8 C-17.16297973 10.32595946 -17.16600691 11.78723231 -17.1875 14.375 C-17.20167969 15.14585938 -17.21585938 15.91671875 -17.23046875 16.7109375 C-16.85992182 20.39128501 -15.71491438 22.41124698 -12.875 24.75 C-9.12592932 26.38003073 -6.02765958 26.74193729 -2 26 C1.43823122 23.9071636 3.81169353 21.889003 5 18 C5.56934492 12.19538843 5.56934492 12.19538843 3.1875 7.0625 C-0.43769684 3.64445727 -4.02430752 3.66835755 -8.7734375 3.70703125 C-12.06805697 4.14053381 -13.76517216 5.62549542 -16 8 Z " fill="#0A1D10" transform="translate(64,64)"/>
<path d="M0 0 C5.35755096 1.92063148 8.45837216 4.91674432 11 10 C11.81197272 16.5357148 10.83631462 20.67178525 7 26 C3.39272087 29.38182419 0.46147882 29.89174231 -4.375 30.25 C-9.66691202 29.88504055 -12.71523023 28.38894029 -16.3125 24.5 C-19.42262982 19.89240027 -19.65638658 15.39901074 -19 10 C-14.96099355 1.7666407 -8.84592308 -1.30227234 0 0 Z M-14 8 C-15.7246216 11.4492432 -15.36610104 15.22131431 -15 19 C-13.7671112 21.89728868 -12.7754988 23.39683427 -10.3125 25.3125 C-6.81765067 26.35150926 -3.56777412 26.69164143 0 26 C3.02089981 24.2524257 5.41608883 22.16782234 7 19 C7.40310513 14.16273845 7.47543282 11.90168293 5.1875 7.5625 C2.806317 4.7731142 1.50666724 4.17210993 -2.0859375 3.76171875 C-7.37021971 3.59038537 -10.19011575 3.95199798 -14 8 Z " fill="#1D0F0B" transform="translate(62,24)"/>
<path d="M0 0 C4.34156704 2.33199887 7.12584464 5.44972514 9 10 C9.45304906 15.61780838 9.21244804 19.18132794 6 24 C2.37283469 27.57880311 -0.52938064 29.87537124 -5.6875 30.3125 C-10.28105807 30.22913234 -13.50695575 28.9889847 -17 26 C-20.68849231 21.8001238 -21.60593589 17.58071537 -21.31640625 12.0703125 C-20.59779666 7.36829912 -17.69788015 3.86377341 -14 0.9609375 C-9.54658947 -1.17878709 -4.75620169 -0.91049109 0 0 Z M-11.625 4.8125 C-12.51058594 5.31716797 -12.51058594 5.31716797 -13.4140625 5.83203125 C-15.69864642 7.5145204 -16.8656355 9.25745937 -17.37109375 12.05078125 C-17.48825157 16.04103887 -17.40915997 19.15803252 -15.0625 22.5 C-11.10812799 25.72805879 -8.04688957 26.394575 -3 26 C0.2336518 24.73465799 1.61414247 23.46569012 3.8125 20.8125 C5.3842216 17.09000147 5.72544438 13.98188358 5 10 C2.6657162 6.02307205 0.43833789 4.22054292 -4 3 C-7.75334166 3 -8.6308388 3.05161665 -11.625 4.8125 Z " fill="#130708" transform="translate(64,104)"/>
<path d="M0 0 C0.33 0 0.66 0 1 0 C1 28.71 1 57.42 1 87 C-0.485 87.495 -0.485 87.495 -2 88 C-2.00546844 86.89365204 -2.00546844 86.89365204 -2.01104736 85.76495361 C-2.04914756 78.76353697 -2.1062457 71.76258082 -2.18390274 64.76150894 C-2.22316428 61.16341766 -2.25545567 57.56556328 -2.27099609 53.96728516 C-2.2863054 50.48508474 -2.3209963 47.00353663 -2.36830902 43.52162933 C-2.39004407 41.56784555 -2.39246139 39.61387691 -2.39434814 37.65997314 C-2.51268514 30.33625483 -3.46843277 24.40511589 -6.24407959 17.60296631 C-7.10137157 14.65093312 -6.83650318 12.92326381 -6 10 C-5.34 10.33 -4.68 10.66 -4 11 C-3.67 11.99 -3.34 12.98 -3 14 C-2.95101563 13.15695313 -2.90203125 12.31390625 -2.8515625 11.4453125 C-2.73941406 9.80175781 -2.73941406 9.80175781 -2.625 8.125 C-2.55539063 7.03445312 -2.48578125 5.94390625 -2.4140625 4.8203125 C-2 2 -2 2 0 0 Z " fill="#020203" transform="translate(34,79)"/>
<path d="M0 0 C0.91644287 0.00523682 1.83288574 0.01047363 2.77709961 0.01586914 C3.76645508 0.0190918 4.75581055 0.02231445 5.77514648 0.02563477 C6.81606445 0.03401367 7.85698242 0.04239258 8.92944336 0.05102539 C10.49662109 0.05779297 10.49662109 0.05779297 12.09545898 0.06469727 C14.68600996 0.07652627 17.27644895 0.0930085 19.86694336 0.11352539 C19.86694336 0.77352539 19.86694336 1.43352539 19.86694336 2.11352539 C18.22342879 3.47529461 16.5517168 4.80314605 14.86694336 6.11352539 C13.18453423 7.76429948 11.52047317 9.43382461 9.86694336 11.11352539 C7.78598167 13.22004924 5.70176327 15.323321 3.61694336 17.42602539 C2.80483398 18.25070313 2.80483398 18.25070313 1.97631836 19.09204102 C0.62532439 20.45147869 -0.75160824 21.78504663 -2.13305664 23.11352539 C-2.46305664 23.11352539 -2.79305664 23.11352539 -3.13305664 23.11352539 C-3.16193176 19.46770852 -3.17981249 15.82192076 -3.19555664 12.17602539 C-3.20393555 11.13510742 -3.21231445 10.09418945 -3.22094727 9.02172852 C-3.22578125 7.53769531 -3.22578125 7.53769531 -3.23071289 6.02368164 C-3.23594971 5.10723877 -3.24118652 4.1907959 -3.24658203 3.24658203 C-3.09288428 0.35871702 -2.88786501 0.15369775 0 0 Z " fill="#ADB9DA" transform="translate(114.133056640625,140.886474609375)"/>
<path d="M0 0 C-2.38125464 2.38125464 -4.33857567 3.00186241 -7.5 4.125 C-8.96953125 4.65480469 -8.96953125 4.65480469 -10.46875 5.1953125 C-13 6 -13 6 -15 6 C-15.27332034 12.04186266 -14.48941433 16.63052245 -12.48046875 22.3046875 C-12.22123123 23.0687088 -11.96199371 23.8327301 -11.69490051 24.61990356 C-10.87044132 27.04232908 -10.02961553 29.45866275 -9.1875 31.875 C-8.36145419 34.2803719 -7.53884446 36.68689903 -6.71658325 39.09356689 C-6.18928929 40.63601608 -5.66056973 42.17797874 -5.13034058 43.71942139 C-3.28236692 49.1071305 -1.55124152 54.51842869 0 60 C-1.98 60.495 -1.98 60.495 -4 61 C-5.95747677 55.27092989 -7.91466228 49.5417604 -9.87158203 43.8125 C-10.5368672 41.86488172 -11.2022309 39.91729027 -11.86767578 37.96972656 C-12.82605479 35.1647847 -13.78414811 32.35974538 -14.7421875 29.5546875 C-15.18605301 28.25590164 -15.18605301 28.25590164 -15.6388855 26.93087769 C-16.18700503 25.32569161 -16.73387868 23.72007932 -17.27923584 22.11395264 C-17.90404562 20.28142772 -18.54101577 18.45305752 -19.18017578 16.62548828 C-20.58188143 12.13652387 -20.77181188 8.58037672 -18.6875 4.3125 C-13.27084064 -0.34834642 -6.68565974 -3.40956513 0 0 Z " fill="#14110E" transform="translate(30,30)"/>
<path d="M0 0 C2.80580222 2.80580222 3.55220544 6.1654229 4.75 9.859375 C5.0087793 10.64137268 5.26755859 11.42337036 5.53417969 12.22906494 C6.36176604 14.73422325 7.18099121 17.2420259 8 19.75 C8.55153122 21.4246611 9.10360826 23.09914255 9.65625 24.7734375 C10.89959049 28.5432976 12.13810935 32.31469008 13.36973572 36.08839417 C13.9538068 37.85989497 14.55726376 39.62497224 15.16235352 41.3894043 C16.38982669 45.21492765 16.16139449 48.18398954 15 52 C11.04440707 58.21593175 3.73191644 59.23570565 -3 61 C-3 60.01 -3 59.02 -3 58 C-3.66 57.67 -4.32 57.34 -5 57 C-4.01257813 56.66226563 -3.02515625 56.32453125 -2.0078125 55.9765625 C-0.71343623 55.52634467 0.58082887 55.07580716 1.875 54.625 C2.52597656 54.40328125 3.17695313 54.1815625 3.84765625 53.953125 C6.76550545 52.93037374 8.78556651 52.21443349 11 50 C11.23681446 43.90601466 9.27348156 38.02674522 7.27734375 32.3515625 C7.01240616 31.57235443 6.74746857 30.79314636 6.47450256 29.99032593 C5.63748165 27.53215445 4.78838939 25.07840177 3.9375 22.625 C3.08472102 20.14965565 2.23465089 17.67346101 1.38978577 15.19540405 C0.86615611 13.66116168 0.33772234 12.1285485 -0.19606018 10.59780884 C-1.22139848 7.60655082 -2 5.18608563 -2 2 C-1.34 2 -0.68 2 0 2 C0 1.34 0 0.68 0 0 Z " fill="#171310" transform="translate(147,92)"/>
<path d="M0 0 C0.53971436 0.32218506 1.07942871 0.64437012 1.63549805 0.97631836 C4.49607159 2.21476801 6.71882351 2.30271143 9.83203125 2.37890625 C10.96060547 2.41306641 12.08917969 2.44722656 13.25195312 2.48242188 C14.42693359 2.50884766 15.60191406 2.53527344 16.8125 2.5625 C30.51592252 2.91932042 30.51592252 2.91932042 37 4 C38.66628955 4.03545297 40.33409803 4.05048188 42 4 C42 5.32 42 6.64 42 8 C41.01257813 8.26554688 40.02515625 8.53109375 39.0078125 8.8046875 C37.71344502 9.16110753 36.41917941 9.51789766 35.125 9.875 C34.47402344 10.04902344 33.82304688 10.22304687 33.15234375 10.40234375 C29.1931563 11.49529579 29.1931563 11.49529579 26 14 C24.29115995 12.37660195 22.62553283 10.70680947 21 9 C21 8.34 21 7.68 21 7 C19.83082031 7.05800781 18.66164063 7.11601562 17.45703125 7.17578125 C15.9088942 7.22269449 14.36071383 7.26819298 12.8125 7.3125 C12.04357422 7.35439453 11.27464844 7.39628906 10.48242188 7.43945312 C6.03371827 7.53491887 4.52445124 7.43312555 0.94921875 4.48046875 C0.30597656 3.66191406 -0.33726563 2.84335938 -1 2 C-0.67 1.34 -0.34 0.68 0 0 Z " fill="#050507" transform="translate(33,165)"/>
<path d="M0 0 C14.52 0 29.04 0 44 0 C44.495 1.485 44.495 1.485 45 3 C42.24294591 4.37852705 39.65362001 4.09735418 36.62597656 4.13891602 C27.44756699 4.30872854 19.64481117 5.53362972 11.08984375 8.91674805 C6.14603022 10.8375965 2.31417562 11.28000701 -3 11 C-2.67 10.01 -2.34 9.02 -2 8 C0.14453125 7.05078125 0.14453125 7.05078125 2.8125 6.3125 C3.68519531 6.06113281 4.55789062 5.80976563 5.45703125 5.55078125 C8 5 8 5 12 5 C11.67 4.01 11.34 3.02 11 2 C7.37 1.67 3.74 1.34 0 1 C0 0.67 0 0.34 0 0 Z " fill="#0B0C0B" transform="translate(63,168)"/>
<path d="M0 0 C17.16 0 34.32 0 52 0 C51.67 1.32 51.34 2.64 51 4 C34.17 4 17.34 4 0 4 C0 2.68 0 1.36 0 0 Z " fill="#17191C" transform="translate(78,31)"/>
<path d="M0 0 C6.625 -0.25 6.625 -0.25 10 2 C10.66 2 11.32 2 12 2 C13.10844919 5.32534757 12.84454356 7.62182575 12 11 C11.34 11 10.68 11 10 11 C10 12.32 10 13.64 10 15 C9.34 15 8.68 15 8 15 C8 15.66 8 16.32 8 17 C3.05 17.495 3.05 17.495 -2 18 C-2.66 17.01 -3.32 16.02 -4 15 C-3.34 14.34 -2.68 13.68 -2 13 C-2.66 12.34 -3.32 11.68 -4 11 C-4 10.01 -4 9.02 -4 8 C-0.535 7.505 -0.535 7.505 3 7 C2.01 4.69 1.02 2.38 0 0 Z " fill="#D87F6F" transform="translate(56,110)"/>
<path d="M0 0 C0.66 0 1.32 0 2 0 C2 21.12 2 42.24 2 64 C0 63 0 63 -1 60.33984375 C-1.33 59.21707031 -1.66 58.09429687 -2 56.9375 C-2.34546875 55.76703125 -2.6909375 54.5965625 -3.046875 53.390625 C-4.11024578 49.60781421 -5.10006152 45.82473855 -6 42 C-5.34 42 -4.68 42 -4 42 C-4 41.34 -4 40.68 -4 40 C-3.34 40 -2.68 40 -2 40 C-2 29.77 -2 19.54 -2 9 C-1.34 9 -0.68 9 0 9 C0 6.03 0 3.06 0 0 Z " fill="#BAAF8E" transform="translate(30,30)"/>
<path d="M0 0 C1.91423658 0.81210037 3.52072017 1.52072017 5 3 C5.08669432 4.4887186 5.10703494 5.981445 5.09765625 7.47265625 C5.09443359 8.37177734 5.09121094 9.27089844 5.08789062 10.19726562 C5.07951172 11.14279297 5.07113281 12.08832031 5.0625 13.0625 C5.05798828 14.01189453 5.05347656 14.96128906 5.04882812 15.93945312 C5.0370011 18.29303065 5.02052025 20.64648477 5 23 C5.99 22.67 6.98 22.34 8 22 C14.91482452 21.2625799 19.28711799 22.02582121 25 26 C24.67 26.99 24.34 27.98 24 29 C23.236875 28.67 22.47375 28.34 21.6875 28 C14.77232871 26.12469931 7.64529319 26.1263597 1 29 C1 28.34 1 27.68 1 27 C0.34 26.67 -0.32 26.34 -1 26 C-0.67 25.67 -0.34 25.34 0 25 C0.08713831 23.29227642 0.10700007 21.58101351 0.09765625 19.87109375 C0.09443359 18.83662109 0.09121094 17.80214844 0.08789062 16.73632812 C0.07951172 15.64771484 0.07113281 14.55910156 0.0625 13.4375 C0.05798828 12.34501953 0.05347656 11.25253906 0.04882812 10.12695312 C0.03699826 7.41791505 0.02051543 4.70898401 0 2 C-0.66 1.67 -1.32 1.34 -2 1 C-1.34 0.67 -0.68 0.34 0 0 Z " fill="#191110" transform="translate(136,9)"/>
<path d="M0 0 C3.125 1.0625 3.125 1.0625 5 3 C5.8125 6.6875 5.8125 6.6875 6 10 C5.360625 10.2475 4.72125 10.495 4.0625 10.75 C3.381875 11.1625 2.70125 11.575 2 12 C1.87109375 12.59683594 1.7421875 13.19367187 1.609375 13.80859375 C0.79440343 16.73935688 -0.68912111 18.15760529 -2.8125 20.3125 C-3.49957031 21.03050781 -4.18664062 21.74851562 -4.89453125 22.48828125 C-7 24 -7 24 -9.15234375 23.828125 C-11.26713947 22.8802673 -12.48777091 21.73906345 -14 20 C-13.34 18.68 -12.68 17.36 -12 16 C-10.35 16.33 -8.7 16.66 -7 17 C-7 16.34 -7 15.68 -7 15 C-6.34 15 -5.68 15 -5 15 C-4.938125 14.2575 -4.87625 13.515 -4.8125 12.75 C-3.75812 9.18132923 -1.92604058 8.17577376 1 6 C1 5.34 1 4.68 1 4 C0.34 4 -0.32 4 -1 4 C-1 3.34 -1 2.68 -1 2 C-5.29 2 -9.58 2 -14 2 C-9.5262134 -0.9825244 -5.2431225 -0.47525379 0 0 Z " fill="#EB5152" transform="translate(154,35)"/>
<path d="M0 0 C17.16 0 34.32 0 52 0 C52 0.99 52 1.98 52 3 C34.84 3 17.68 3 0 3 C0 2.01 0 1.02 0 0 Z " fill="#010305" transform="translate(78,111)"/>
<path d="M0 0 C17.16 0 34.32 0 52 0 C52 0.99 52 1.98 52 3 C34.84 3 17.68 3 0 3 C0 2.01 0 1.02 0 0 Z " fill="#020306" transform="translate(78,71)"/>
<path d="M0 0 C1.03125 0.433125 2.0625 0.86625 3.125 1.3125 C0.93016417 2.77572389 -1.19462 4.05680366 -3.5 5.3125 C-6.90320196 6.9176726 -6.90320196 6.9176726 -7.875 9.3125 C-8.42612923 13.91126684 -8.49253151 17.29037887 -6.0625 21.3125 C-3.95467048 23.51191932 -3.95467048 23.51191932 -0.875 24.3125 C-0.875 24.9725 -0.875 25.6325 -0.875 26.3125 C-0.215 26.3125 0.445 26.3125 1.125 26.3125 C1.125 26.9725 1.125 27.6325 1.125 28.3125 C2.775 28.3125 4.425 28.3125 6.125 28.3125 C6.125 28.6425 6.125 28.9725 6.125 29.3125 C0.05549808 29.73842996 -4.13942579 29.36471287 -8.875 25.3125 C-12.56349231 21.1126238 -13.48093589 16.89321537 -13.19140625 11.3828125 C-12.5260305 7.02911931 -10.14409833 4.38602587 -7.125 1.375 C-3.875 -0.6875 -3.875 -0.6875 0 0 Z " fill="#1F0E10" transform="translate(55.875,104.6875)"/>
<path d="M0 0 C1.32 0 2.64 0 4 0 C4.50432107 5.2953712 3.28757779 7.86704506 0 12 C-3.70297544 14.46865029 -6.70451031 14.56100937 -11 14 C-15.56944444 11.86111111 -15.56944444 11.86111111 -17 9 C-17.04022391 6.6670134 -17.04320247 4.33293334 -17 2 C-16.01 2 -15.02 2 -14 2 C-13.773125 2.804375 -13.54625 3.60875 -13.3125 4.4375 C-12.25795178 7.20957326 -12.25795178 7.20957326 -9.625 7.875 C-7.13345783 7.99364487 -5.35176707 7.78392236 -3 7 C-2.87625 6.401875 -2.7525 5.80375 -2.625 5.1875 C-2 3 -2 3 0 0 Z " fill="#1E9952" transform="translate(65,76)"/>
<path d="M0 0 C0.33 1.32 0.66 2.64 1 4 C0.195625 4.391875 -0.60875 4.78375 -1.4375 5.1875 C-4.23064738 6.76948191 -4.23064738 6.76948191 -4.8125 9.6875 C-4.9053125 10.8321875 -4.9053125 10.8321875 -5 12 C-6.65 12.33 -8.3 12.66 -10 13 C-10 13.66 -10 14.32 -10 15 C-9.34 15 -8.68 15 -8 15 C-8 15.99 -8 16.98 -8 18 C-9.65 18 -11.3 18 -13 18 C-13 18.99 -13 19.98 -13 21 C-9.37 21 -5.74 21 -2 21 C-5.72801358 23.48534239 -8.68052183 23.65747809 -13 23 C-15.81627654 21.90026553 -18.40481193 20.54606949 -21 19 C-21 15 -21 15 -20 13 C-17.4375 12.375 -17.4375 12.375 -15 12 C-15.33 10.68 -15.66 9.36 -16 8 C-15.01 8.66 -14.02 9.32 -13 10 C-8.9363618 9.80689323 -6.9455137 7.25193343 -4.25 4.4375 C-3.45078125 3.61121094 -2.6515625 2.78492188 -1.828125 1.93359375 C-1.22484375 1.29550781 -0.6215625 0.65742187 0 0 Z " fill="#EA5043" transform="translate(157,48)"/>
<path d="M0 0 C1.21751953 0.02255859 2.43503906 0.04511719 3.68945312 0.06835938 C6.69005482 0.1271947 9.68814797 0.2093586 12.6875 0.3125 C12.6875 0.6425 12.6875 0.9725 12.6875 1.3125 C10.3775 1.3125 8.0675 1.3125 5.6875 1.3125 C5.6875 1.9725 5.6875 2.6325 5.6875 3.3125 C1.33204167 4.76431944 -3.12672741 4.66761593 -7.68359375 4.83007812 C-9.56456812 4.92120394 -11.44030752 5.10936502 -13.3125 5.3125 C-14.9623007 8.61210141 -14.69508361 12.30377884 -14.875 15.9375 C-14.91818359 16.73929688 -14.96136719 17.54109375 -15.00585938 18.3671875 C-15.11201457 20.3487511 -15.21276855 22.33060271 -15.3125 24.3125 C-16.3025 24.3125 -17.2925 24.3125 -18.3125 24.3125 C-18.44780844 21.24851549 -18.5467407 18.19052874 -18.625 15.125 C-18.66689453 14.26068359 -18.70878906 13.39636719 -18.75195312 12.50585938 C-18.83093631 8.38293704 -18.62621052 5.88763596 -16.625 2.21875 C-11.30631005 -0.84200554 -6.00998349 -0.21013928 0 0 Z " fill="#15151C" transform="translate(125.3125,136.6875)"/>
<path d="M0 0 C0.33 0.99 0.66 1.98 1 3 C1.99 3.33 2.98 3.66 4 4 C3.67 6.64 3.34 9.28 3 12 C1.35 12.33 -0.3 12.66 -2 13 C-1.67 11.68 -1.34 10.36 -1 9 C-2.65 10.65 -4.3 12.3 -6 14 C-7.9375 13.25 -7.9375 13.25 -10 12 C-10.75 9.875 -10.75 9.875 -11 8 C-10.236875 8.0825 -9.47375 8.165 -8.6875 8.25 C-5.85416667 8.29166667 -5.85416667 8.29166667 -4.1875 6 C-3.795625 5.34 -3.40375 4.68 -3 4 C-3.99 4 -4.98 4 -6 4 C-6 4.99 -6 5.98 -6 7 C-7.65 6.67 -9.3 6.34 -11 6 C-11.33 4.68 -11.66 3.36 -12 2 C-7.72424275 -1.23921004 -5.16347713 -1.11369115 0 0 Z " fill="#F3841B" transform="translate(63,30)"/>
<path d="M0 0 C11.22 0 22.44 0 34 0 C34 1.32 34 2.64 34 4 C22.78 4 11.56 4 0 4 C0 2.68 0 1.36 0 0 Z " fill="#14171A" transform="translate(78,123)"/>
<path d="M0 0 C11.22 0 22.44 0 34 0 C34 1.32 34 2.64 34 4 C22.78 4 11.56 4 0 4 C0 2.68 0 1.36 0 0 Z " fill="#0F1318" transform="translate(78,83)"/>
<path d="M0 0 C0.99 0.33 1.98 0.66 3 1 C2.01 2.98 1.02 4.96 0 7 C-0.66 7 -1.32 7 -2 7 C-2.29209024 12.64707788 -2.0637112 16.05092807 1 21 C1.66 21.66 2.32 22.32 3 23 C0 24 0 24 -3 23 C-3.33 23.99 -3.66 24.98 -4 26 C-4.66 26 -5.32 26 -6 26 C-8.04446708 19.99437795 -9.67539896 13.76320382 -6.984375 7.71875 C-4.9150739 4.27822528 -3.38737592 2.25825061 0 0 Z " fill="#EA4F48" transform="translate(140,38)"/>
<path d="M0 0 C11.22 0 22.44 0 34 0 C34 1.32 34 2.64 34 4 C22.78 4 11.56 4 0 4 C0 2.68 0 1.36 0 0 Z " fill="#0C0F12" transform="translate(78,43)"/>
<path d="M0 0 C1.08081848 0.02009628 2.16163696 0.04019257 3.27520752 0.06089783 C5.01601593 0.10145042 5.01601593 0.10145042 6.79199219 0.14282227 C8.58138214 0.17823875 8.58138214 0.17823875 10.40692139 0.21437073 C14.21769265 0.29095355 18.02825796 0.37500157 21.83886719 0.45922852 C24.42219044 0.51245455 27.00552374 0.56519492 29.58886719 0.61743164 C35.922328 0.74656151 42.25563579 0.88182117 48.58886719 1.02172852 C48.58886719 1.35172852 48.58886719 1.68172852 48.58886719 2.02172852 C31.75886719 2.02172852 14.92886719 2.02172852 -2.41113281 2.02172852 C-3.37018137 5.85792277 -3.33005397 7.34604387 -2.41113281 11.02172852 C-3.40113281 11.35172852 -4.39113281 11.68172852 -5.41113281 12.02172852 C-5.41113281 12.68172852 -5.41113281 13.34172852 -5.41113281 14.02172852 C-4.42113281 14.02172852 -3.43113281 14.02172852 -2.41113281 14.02172852 C-2.41113281 15.01172852 -2.41113281 16.00172852 -2.41113281 17.02172852 C-4.06113281 17.68172852 -5.71113281 18.34172852 -7.41113281 19.02172852 C-8.44394946 15.019564 -8.4622336 11.30205052 -8.34863281 7.20532227 C-8.41176893 4.99950422 -8.79776424 3.13497493 -9.41113281 1.02172852 C-6.18979668 0.05513246 -3.355233 -0.07055396 0 0 Z " fill="#CFD2D7" transform="translate(80.4111328125,68.978271484375)"/>
<path d="M0 0 C0.33 0 0.66 0 1 0 C1.33 6.27 1.66 12.54 2 19 C5.3 15.7 8.6 12.4 12 9 C12 12.51716303 11.17554415 13.37121748 9 16 C9.99 16.33 10.98 16.66 12 17 C11.46890625 17.45890625 10.9378125 17.9178125 10.390625 18.390625 C9.68421875 19.00421875 8.9778125 19.6178125 8.25 20.25 C7.5178125 20.88421875 6.785625 21.5184375 6.03125 22.171875 C3.88802083 24.03645833 3.88802083 24.03645833 1.75 26.5 C1.1725 26.995 0.595 27.49 0 28 C-2.25 27.75 -2.25 27.75 -4 27 C-3.67 26.67 -3.34 26.34 -3 26 C-2.92820036 24.48071962 -2.91607993 22.95832518 -2.9375 21.4375 C-2.94652344 20.61121094 -2.95554687 19.78492188 -2.96484375 18.93359375 C-2.97644531 18.29550781 -2.98804687 17.65742188 -3 17 C-2.34 16.67 -1.68 16.34 -1 16 C-0.68758545 13.28553021 -0.48663408 10.66090639 -0.375 7.9375 C-0.33632812 7.17888672 -0.29765625 6.42027344 -0.2578125 5.63867188 C-0.16326438 3.75952805 -0.08053244 1.87979664 0 0 Z " fill="#1F1F25" transform="translate(110,144)"/>
<path d="M0 0 C1.47968324 0.14049518 2.95874516 0.28754826 4.4375 0.4375 C5.67306641 0.55931641 5.67306641 0.55931641 6.93359375 0.68359375 C9 1 9 1 10 2 C10.5 4.625 10.5 4.625 10 8 C7.90760132 10.61549835 5.53305546 12.81588585 3 15 C1.046875 14.1328125 1.046875 14.1328125 -1 13 C-1.75 10.875 -1.75 10.875 -2 9 C-0.35 9.33 1.3 9.66 3 10 C3 9.01 3 8.02 3 7 C0.03 6.505 0.03 6.505 -3 6 C-3.33 5.01 -3.66 4.02 -4 3 C-2.68 3.33 -1.36 3.66 0 4 C0 2.68 0 1.36 0 0 Z " fill="#139B4E" transform="translate(54,69)"/>
<path d="M0 0 C-0.61650192 4.00726246 -2.78576371 6.67864556 -5 10 C-7.29726971 15.93461341 -5.86059438 22.86826503 -5 29 C-8 28 -8 28 -9.6875 24.875 C-12.06979015 18.67348278 -11.19073825 13.19618187 -8.98828125 7.08984375 C-7.00467363 2.89525846 -4.75084984 0 0 0 Z " fill="#140909" transform="translate(137,36)"/>
<path d="M0 0 C5.875 4.625 5.875 4.625 7 8 C7.5079081 14.22187421 7.75354356 19.74503901 4 25 C2.08143284 26.83557571 0.126391 28.39339347 -2 30 C-3.32 29.34 -4.64 28.68 -6 28 C-3.25 22.125 -3.25 22.125 -1 21 C-1 21.66 -1 22.32 -1 23 C-0.34 23 0.32 23 1 23 C1.33 22.01 1.66 21.02 2 20 C2.66 20 3.32 20 4 20 C4 15.05 4 10.1 4 5 C3.01 5 2.02 5 1 5 C0.67 3.35 0.34 1.7 0 0 Z " fill="#E45655" transform="translate(159,39)"/>
<path d="M0 0 C6.52307692 -0.36923077 6.52307692 -0.36923077 8.9375 1.5 C9.288125 1.995 9.63875 2.49 10 3 C9.21625 3.556875 8.4325 4.11375 7.625 4.6875 C4.91295142 7.07668565 4.03866457 8.60073413 3 12 C2.34 12 1.68 12 1 12 C1 12.66 1 13.32 1 14 C0.01 14 -0.98 14 -2 14 C-2 13.34 -2 12.68 -2 12 C-3.32 12.33 -4.64 12.66 -6 13 C-6 12.34 -6 11.68 -6 11 C-5.34 11 -4.68 11 -4 11 C-3.731875 10.030625 -3.46375 9.06125 -3.1875 8.0625 C-2.5996875 6.5465625 -2.5996875 6.5465625 -2 5 C-1.01 4.67 -0.02 4.34 1 4 C0.67 2.68 0.34 1.36 0 0 Z " fill="#F14B48" transform="translate(146,38)"/>
<path d="M0 0 C0.66 0.66 1.32 1.32 2 2 C2.99 1.67 3.98 1.34 5 1 C6.4216319 4.3171411 7.39009109 7.44219804 8 11 C11.62885324 11.15149298 11.62885324 11.15149298 15 10 C15.66 10.33 16.32 10.66 17 11 C17 10.34 17 9.68 17 9 C17.66 9 18.32 9 19 9 C19 7.68 19 6.36 19 5 C19.66 5 20.32 5 21 5 C21 3.35 21 1.7 21 0 C21.33 0 21.66 0 22 0 C21.66257669 7.89570552 21.66257669 7.89570552 19.5 11.5 C15.80030588 13.71981647 12.28792896 14.19943856 8 14 C4.31184206 12.47663042 1.87093389 10.54492737 0 7 C-0.1875 3.25 -0.1875 3.25 0 0 Z " fill="#D48D7E" transform="translate(47,116)"/>
<path d="M0 0 C5.02898754 1.43685358 6.95677502 3.94236669 10 8 C11.16983345 10.3396669 11.1661241 11.83391527 11.1875 14.4375 C11.20167969 15.21996094 11.21585938 16.00242187 11.23046875 16.80859375 C11 19 11 19 9 22 C8.67 21.34 8.34 20.68 8 20 C7.34 20 6.68 20 6 20 C6.03480469 19.32453125 6.06960937 18.6490625 6.10546875 17.953125 C6.13253906 17.06109375 6.15960938 16.1690625 6.1875 15.25 C6.22230469 14.36828125 6.25710937 13.4865625 6.29296875 12.578125 C5.93590904 9.43599956 5.26935139 8.19109789 3 6 C0.5170581 5.09438854 0.5170581 5.09438854 -2.1875 4.75 C-3.08855469 4.60046875 -3.98960938 4.4509375 -4.91796875 4.296875 C-5.60503906 4.19890625 -6.29210938 4.1009375 -7 4 C-7 3.67 -7 3.34 -7 3 C-4.36 3 -1.72 3 1 3 C0.67 2.01 0.34 1.02 0 0 Z " fill="#0F1D15" transform="translate(62,64)"/>
<path d="M0 0 C0.33 0.99 0.66 1.98 1 3 C0.00419922 3.12955078 0.00419922 3.12955078 -1.01171875 3.26171875 C-6.83349466 4.18810353 -10.31979692 5.05472711 -14 10 C-14.67966676 11.66140763 -15.34938905 13.32700041 -16 15 C-16.99 15.33 -17.98 15.66 -19 16 C-19.50657287 10.68098483 -18.32610043 8.13515188 -15 4 C-10.58692261 -0.93226296 -6.18223323 -0.43215611 0 0 Z " fill="#0C140D" transform="translate(62,64)"/>
<path d="M0 0 C6.6 0 13.2 0 20 0 C20 0.66 20 1.32 20 2 C18.51886719 2.39832031 18.51886719 2.39832031 17.0078125 2.8046875 C15.71344502 3.16110753 14.41917941 3.51789766 13.125 3.875 C12.14853516 4.13603516 12.14853516 4.13603516 11.15234375 4.40234375 C7.1931563 5.49529579 7.1931563 5.49529579 4 8 C2.35 6.35 0.7 4.7 -1 3 C-0.67 2.01 -0.34 1.02 0 0 Z " fill="#282420" transform="translate(55,171)"/>
<path d="M0 0 C2.86697492 1.28519565 4.97607712 2.57129254 7 5 C7 5.66 7 6.32 7 7 C4.11734851 7.96088383 2.32337729 8.11670941 -0.66796875 8.09765625 C-1.56064453 8.09443359 -2.45332031 8.09121094 -3.37304688 8.08789062 C-4.76620117 8.07532227 -4.76620117 8.07532227 -6.1875 8.0625 C-7.59805664 8.05573242 -7.59805664 8.05573242 -9.03710938 8.04882812 C-11.35813712 8.03704626 -13.67903644 8.02059558 -16 8 C-13.34072316 5.34072316 -10.40591734 4.8189086 -6.875 3.875 C-6.21628906 3.69324219 -5.55757812 3.51148438 -4.87890625 3.32421875 C-3.25423544 2.87684563 -1.62732107 2.43763465 0 2 C0 1.34 0 0.68 0 0 Z " fill="#322D25" transform="translate(112,1)"/>
<path d="M0 0 C1.16781006 0.00523682 2.33562012 0.01047363 3.53881836 0.01586914 C4.79887695 0.0190918 6.05893555 0.02231445 7.35717773 0.02563477 C8.6976732 0.03399136 10.03816799 0.04245632 11.37866211 0.05102539 C12.72306153 0.05603879 14.06746271 0.06060197 15.41186523 0.06469727 C18.71334151 0.07653051 22.01473014 0.09301568 25.31616211 0.11352539 C25.31616211 1.76352539 25.31616211 3.41352539 25.31616211 5.11352539 C24.82116211 4.61852539 24.32616211 4.12352539 23.81616211 3.61352539 C19.81327537 1.21179335 15.51937743 1.64757124 11.07202148 2.58813477 C8.80046334 3.21158406 6.55917888 3.89436057 4.31616211 4.61352539 C3.54143555 4.85200195 2.76670898 5.09047852 1.96850586 5.33618164 C0.08128453 5.91865736 -1.8017474 6.51467842 -3.68383789 7.11352539 C-3.72638145 5.11397793 -3.72464572 3.11310903 -3.68383789 1.11352539 C-2.68383789 0.11352539 -2.68383789 0.11352539 0 0 Z " fill="#F4F6F4" transform="translate(92.683837890625,-0.113525390625)"/>
<path d="M0 0 C1.125 1.75 1.125 1.75 2 4 C0.99659644 7.01021068 -0.67503273 8.88639339 -3 11 C-3 8.36 -3 5.72 -3 3 C-19.17 3 -35.34 3 -52 3 C-52 2.67 -52 2.34 -52 2 C-51.04493309 1.9845388 -51.04493309 1.9845388 -50.0705719 1.96876526 C-43.46873202 1.86093669 -36.86703522 1.74632039 -30.26538086 1.62768555 C-27.79861431 1.58426057 -25.33181622 1.54259128 -22.86499023 1.50268555 C-19.32786534 1.44516555 -15.79090034 1.38141925 -12.25390625 1.31640625 C-11.14350479 1.29969376 -10.03310333 1.28298126 -8.88905334 1.26576233 C-7.86807053 1.24581711 -6.84708771 1.22587189 -5.79516602 1.20532227 C-4.43948265 1.18200584 -4.43948265 1.18200584 -3.05641174 1.15821838 C-1.00805899 1.22498543 -1.00805899 1.22498543 0 0 Z " fill="#DBDCE3" transform="translate(130,33)"/>
<path d="M0 0 C0.93779297 0.00322266 1.87558594 0.00644531 2.84179688 0.00976562 C4.30649414 0.02233398 4.30649414 0.02233398 5.80078125 0.03515625 C6.78884766 0.03966797 7.77691406 0.04417969 8.79492188 0.04882812 C11.23443599 0.06061322 13.67382814 0.07706614 16.11328125 0.09765625 C16.44328125 0.75765625 16.77328125 1.41765625 17.11328125 2.09765625 C14.7907767 3.25890852 13.27129309 3.28115912 10.68359375 3.37890625 C9.80574219 3.41628906 8.92789063 3.45367187 8.0234375 3.4921875 C7.10433594 3.52699219 6.18523437 3.56179687 5.23828125 3.59765625 C3.42823663 3.66678101 1.61832723 3.73956544 -0.19140625 3.81640625 C-0.99562012 3.84669922 -1.79983398 3.87699219 -2.62841797 3.90820312 C-4.81475085 4.09161873 -6.77905953 4.501843 -8.88671875 5.09765625 C-8.57421875 3.16015625 -8.57421875 3.16015625 -7.88671875 1.09765625 C-4.94539984 0.11721661 -3.0617021 -0.01855577 0 0 Z " fill="#121315" transform="translate(90.88671875,168.90234375)"/>
<path d="M0 0 C0.53625 0.2475 1.0725 0.495 1.625 0.75 C0.305 1.08 -1.015 1.41 -2.375 1.75 C-2.4575 2.3275 -2.54 2.905 -2.625 3.5 C-3.375 5.75 -3.375 5.75 -5.3125 7.375 C-8.44733765 10.98481305 -8.70263366 15.11421099 -9.375 19.75 C-9.705 18.76 -10.035 17.77 -10.375 16.75 C-11.035 16.75 -11.695 16.75 -12.375 16.75 C-12.83263495 11.02956317 -12.09153644 8.15116157 -8.375 3.75 C-3.32840502 -0.35035842 -3.32840502 -0.35035842 0 0 Z " fill="#180F0F" transform="translate(55.375,24.25)"/>
<path d="M0 0 C-0.57053665 3.77235429 -2.16643421 5.62716051 -4.8125 8.3125 C-5.49957031 9.03050781 -6.18664062 9.74851562 -6.89453125 10.48828125 C-9 12 -9 12 -11.15234375 11.828125 C-13.26713947 10.8802673 -14.48777091 9.73906345 -16 8 C-15.67 7.01 -15.34 6.02 -15 5 C-12.525 5.99 -12.525 5.99 -10 7 C-9.52949219 6.4946875 -9.05898437 5.989375 -8.57421875 5.46875 C-7.95160156 4.8190625 -7.32898438 4.169375 -6.6875 3.5 C-6.07261719 2.8503125 -5.45773438 2.200625 -4.82421875 1.53125 C-3 0 -3 0 0 0 Z " fill="#260301" transform="translate(156,47)"/>
<path d="M0 0 C0.33 0 0.66 0 1 0 C0.09065156 9.09348442 0.09065156 9.09348442 -2 12 C-4.3828125 12.609375 -4.3828125 12.609375 -7.125 12.75 C-8.03507812 12.80671875 -8.94515625 12.8634375 -9.8828125 12.921875 C-10.58148438 12.94765625 -11.28015625 12.9734375 -12 13 C-12.33 12.01 -12.66 11.02 -13 10 C-15.00016466 8.79117904 -15.00016466 8.79117904 -17 8 C-15 7 -15 7 -11.5 7.5625 C-10.345 7.706875 -9.19 7.85125 -8 8 C-7.34 7.34 -6.68 6.68 -6 6 C-3.375 5.875 -3.375 5.875 -1 6 C-0.67 4.02 -0.34 2.04 0 0 Z " fill="#EC8B2A" transform="translate(67,36)"/>
<path d="M0 0 C4.80245754 3.50449604 7.46354139 6.41524486 8.6875 12.3125 C8.790625 13.199375 8.89375 14.08625 9 15 C8.34 14.67 7.68 14.34 7 14 C6.67 17.96 6.34 21.92 6 26 C5.34 25.67 4.68 25.34 4 25 C4.05220703 23.67935547 4.05220703 23.67935547 4.10546875 22.33203125 C4.13253906 21.17058594 4.15960938 20.00914063 4.1875 18.8125 C4.23970703 17.08966797 4.23970703 17.08966797 4.29296875 15.33203125 C3.84019979 10.1825389 1.09540402 6.97980517 -2 3 C-1.34 2.01 -0.68 1.02 0 0 Z " fill="#360E0F" transform="translate(161,35)"/>
<path d="M0 0 C4.05914466 0.05162664 6.56640989 0.54877203 9.75 3.25 C12.11263285 6.28767081 12.15553867 9.61312713 12.0859375 13.34375 C11.57688375 16.23233409 10.03218629 17.53836028 7.75 19.25 C8.100625 18.404375 8.45125 17.55875 8.8125 16.6875 C9.91058981 12.66117069 9.86569778 10.26651201 8.75 6.25 C6.35194801 3.65211034 4.77943166 2.46116547 1.3125 1.75 C-2.46194627 2.48647732 -4.39507291 3.64884421 -7.25 6.25 C-8.32419124 9.20784412 -8.86368291 12.13282074 -9.25 15.25 C-9.58 15.25 -9.91 15.25 -10.25 15.25 C-11.03734859 7.21904441 -11.03734859 7.21904441 -7.8125 3.25 C-6.966875 2.59 -6.12125 1.93 -5.25 1.25 C-3.68966377 -0.31033623 -2.16052864 0.04292441 0 0 Z " fill="#D38F4F" transform="translate(57.25,27.75)"/>
<path d="M0 0 C0.33 0 0.66 0 1 0 C1.10957031 0.61488281 1.21914063 1.22976562 1.33203125 1.86328125 C1.49058594 2.67152344 1.64914063 3.47976562 1.8125 4.3125 C1.96332031 5.11300781 2.11414062 5.91351563 2.26953125 6.73828125 C3.09378833 9.29039274 3.90725641 10.35316788 6 12 C6.99 12.33 7.98 12.66 9 13 C9 13.66 9 14.32 9 15 C9.66 15 10.32 15 11 15 C11 15.66 11 16.32 11 17 C12.65 17 14.3 17 16 17 C16 17.33 16 17.66 16 18 C9.54541095 18.45295362 6.31235401 17.74989695 1 14 C-1.4814871 11.35841695 -2 10.66826173 -2 7 C-1.34 7 -0.68 7 0 7 C0 4.69 0 2.38 0 0 Z " fill="#271514" transform="translate(46,116)"/>
<path d="M0 0 C0.33 0 0.66 0 1 0 C1.13277344 0.61488281 1.26554687 1.22976562 1.40234375 1.86328125 C1.57894531 2.67152344 1.75554688 3.47976562 1.9375 4.3125 C2.19853516 5.51326172 2.19853516 5.51326172 2.46484375 6.73828125 C2.99886159 9.145401 2.99886159 9.145401 4 12 C7.3 12.66 10.6 13.32 14 14 C14 14.33 14 14.66 14 15 C11.00410107 16.04523585 8.17648485 16.81345277 5 17 C0.93670484 14.70977909 -1.06838266 12.60296549 -2.375 8.1875 C-2.58125 7.135625 -2.7875 6.08375 -3 5 C-2.34 5 -1.68 5 -1 5 C-0.67 3.35 -0.34 1.7 0 0 Z " fill="#2E180D" transform="translate(46,36)"/>
<path d="M0 0 C0.99 0 1.98 0 3 0 C3 5.61 3 11.22 3 17 C4.98 17 6.96 17 9 17 C9 17.33 9 17.66 9 18 C6.69 18 4.38 18 2 18 C2 18.66 2 19.32 2 20 C1.34 20 0.68 20 0 20 C0 13.4 0 6.8 0 0 Z " fill="#010305" transform="translate(138,15)"/>
<path d="M0 0 C3.47244094 4.62992126 3.47244094 4.62992126 3 9 C2.67 9.33 2.34 9.66 2 10 C1.93614612 12.71560078 1.93374953 15.40641218 1.97265625 18.12109375 C1.98530252 19.79491981 1.99766348 21.46874804 2.00976562 23.14257812 C2.03461208 25.79376916 2.06259246 28.44484908 2.09594727 31.09594727 C2.12607071 33.64600353 2.14390126 36.19591677 2.16015625 38.74609375 C2.17361588 39.54196396 2.1870755 40.33783417 2.20094299 41.15782166 C2.20987123 43.10634555 2.11386686 45.0547855 2 47 C1.34 47.66 0.68 48.32 0 49 C0 32.83 0 16.66 0 0 Z " fill="#D5CCAC" transform="translate(142,90)"/>
<path d="M0 0 C0.99 0 1.98 0 3 0 C5.58588245 2.58588245 5.61025382 4.35683763 6.1875 7.9375 C6.36667969 8.99839844 6.54585937 10.05929688 6.73046875 11.15234375 C7 14 7 14 6 17 C5.34 16.67 4.68 16.34 4 16 C3.375 12.9375 3.375 12.9375 3 10 C2.34 10 1.68 10 1 10 C-0.60725635 6.78548731 -0.05748185 3.56387464 0 0 Z " fill="#DCEAF4" transform="translate(38,35)"/>
<path d="M0 0 C0.66 0.66 1.32 1.32 2 2 C1.67 2.66 1.34 3.32 1 4 C0.76725791 6.87910588 0.58027243 9.74146495 0.4375 12.625 C0.39431641 13.42679688 0.35113281 14.22859375 0.30664062 15.0546875 C0.20048543 17.0362511 0.09973145 19.01810271 0 21 C-0.99 21 -1.98 21 -3 21 C-3.08107646 18.24940619 -3.14052813 15.50120979 -3.1875 12.75 C-3.21263672 11.97269531 -3.23777344 11.19539062 -3.26367188 10.39453125 C-3.33834499 4.57002825 -3.33834499 4.57002825 -1.48828125 1.453125 C-0.99714844 0.97359375 -0.50601563 0.4940625 0 0 Z " fill="#000206" transform="translate(110,140)"/>
<path d="M0 0 C0.99 0.33 1.98 0.66 3 1 C1.44499019 4.81684226 -1.03595495 7.19195732 -4 10 C-5.9375 9.25 -5.9375 9.25 -8 8 C-8.75 5.875 -8.75 5.875 -9 4 C-6.525 4.495 -6.525 4.495 -4 5 C-3.67 4.01 -3.34 3.02 -3 2 C-2.01 1.34 -1.02 0.68 0 0 Z " fill="#002008" transform="translate(61,74)"/>
<path d="M0 0 C0.99 0.33 1.98 0.66 3 1 C1.55754029 4.36573933 -0.083468 6.75010389 -3 9 C-5.75 8.75 -5.75 8.75 -8 8 C-8.33 6.68 -8.66 5.36 -9 4 C-7.88625 3.71125 -6.7725 3.4225 -5.625 3.125 C-1.99708908 2.30758671 -1.99708908 2.30758671 0 0 Z " fill="#260D08" transform="translate(61,114)"/>
<path d="M0 0 C0.99 0.66 1.98 1.32 3 2 C3.77793542 8.44575063 2.28076269 12.49300548 -1 18 C-1.99 18 -2.98 18 -4 18 C-3.625 15.5625 -3.625 15.5625 -3 13 C-2.34 12.67 -1.68 12.34 -1 12 C-0.53101037 9.1840151 -0.53101037 9.1840151 -0.375 5.9375 C-0.30023438 4.83277344 -0.22546875 3.72804687 -0.1484375 2.58984375 C-0.09945312 1.73519531 -0.05046875 0.88054688 0 0 Z " fill="#140504" transform="translate(167,48)"/>
<path d="M0 0 C-1.0454563 3.13636891 -1.76188957 3.76188957 -4 6 C-7.5733999 10.49983691 -7.42373202 14.51074432 -7 20 C-6.71818839 22.0079077 -6.40743184 24.0137698 -6 26 C-9.12242942 23.14908618 -9.914186 21.09412856 -10.25 16.8125 C-9.85478237 10.78543118 -8.37336953 6.60784725 -4.4375 2 C-2 0 -2 0 0 0 Z " fill="#CA5558" transform="translate(140,37)"/>
<path d="M0 0 C0.99 0.33 1.98 0.66 3 1 C1.44499019 4.81684226 -1.03595495 7.19195732 -4 10 C-5.9375 9.25 -5.9375 9.25 -8 8 C-8.75 5.875 -8.75 5.875 -9 4 C-8.2575 4.0825 -7.515 4.165 -6.75 4.25 C-3.21842973 3.92894816 -2.23369636 2.64734383 0 0 Z " fill="#230901" transform="translate(61,34)"/>
<path d="M0 0 C0.66 0.33 1.32 0.66 2 1 C-0.05043368 5.56549764 -3.06120735 8.93179886 -7 12 C-9.9375 12.4375 -9.9375 12.4375 -12 12 C-10.19587357 8.73539027 -9.16605307 7.11070205 -6 5 C-5.34 5 -4.68 5 -4 5 C-3.01 4.67 -2.02 4.34 -1 4 C-0.26676204 1.98491642 -0.26676204 1.98491642 0 0 Z M-15 13 C-14.34 13.33 -13.68 13.66 -13 14 C-13.99 14 -14.98 14 -16 14 C-15.67 13.67 -15.34 13.34 -15 13 Z " fill="#1B1C1E" transform="translate(139,138)"/>
<path d="M0 0 C5.875 4.625 5.875 4.625 7 8 C7.11829437 9.8514445 7.17514861 11.70732138 7.1875 13.5625 C7.20167969 14.53316406 7.21585938 15.50382812 7.23046875 16.50390625 C7 19 7 19 5 21 C4 20 4 20 3.90234375 16.62109375 C3.90901631 15.22652923 3.92097468 13.83198257 3.9375 12.4375 C3.94201172 11.72658203 3.94652344 11.01566406 3.95117188 10.28320312 C3.96299136 8.52209987 3.98092737 6.76103964 4 5 C3.01 5 2.02 5 1 5 C0.67 3.35 0.34 1.7 0 0 Z " fill="#DB595E" transform="translate(159,39)"/>
<path d="M0 0 C1.98608946 2.97913419 3.06830564 5.57133543 4.25 8.9375 C4.62640625 9.97777344 5.0028125 11.01804687 5.390625 12.08984375 C6 15 6 15 5.109375 17.37890625 C4.56023437 18.18134766 4.56023437 18.18134766 4 19 C2.11608215 15.73454239 1.50712033 12.71888239 1 9 C0.01 8.67 -0.98 8.34 -2 8 C-2.20086443 4.28400809 -2.1519437 3.22791555 0 0 Z " fill="#C5BA9F" transform="translate(145,97)"/>
<path d="M0 0 C5.61 0 11.22 0 17 0 C17 0.99 17 1.98 17 3 C10.73 3 4.46 3 -2 3 C-1.34 2.67 -0.68 2.34 0 2 C0 1.34 0 0.68 0 0 Z " fill="#010002" transform="translate(119,9)"/>
<path d="M0 0 C0.33 1.32 0.66 2.64 1 4 C0.195625 4.391875 -0.60875 4.78375 -1.4375 5.1875 C-4.23064738 6.76948191 -4.23064738 6.76948191 -4.8125 9.6875 C-4.874375 10.450625 -4.93625 11.21375 -5 12 C-9.455 12.495 -9.455 12.495 -14 13 C-14.66 11.35 -15.32 9.7 -16 8 C-14.515 8.99 -14.515 8.99 -13 10 C-8.9363618 9.80689323 -6.9455137 7.25193343 -4.25 4.4375 C-3.45078125 3.61121094 -2.6515625 2.78492188 -1.828125 1.93359375 C-1.22484375 1.29550781 -0.6215625 0.65742187 0 0 Z " fill="#CD5552" transform="translate(157,48)"/>
<path d="M0 0 C0.33 0.66 0.66 1.32 1 2 C1.66 2 2.32 2 3 2 C3.33 1.34 3.66 0.68 4 0 C4 0.99 4 1.98 4 3 C4.66 3 5.32 3 6 3 C5.34 4.32 4.68 5.64 4 7 C2.02 7 0.04 7 -2 7 C-2.33 7.66 -2.66 8.32 -3 9 C-3.625 6.125 -3.625 6.125 -4 3 C-2 1 -2 1 0 0 Z " fill="#DB766C" transform="translate(51,111)"/>
<path d="M0 0 C0.33 0.99 0.66 1.98 1 3 C-0.98 3.33 -2.96 3.66 -5 4 C-5 4.66 -5 5.32 -5 6 C-5.99 6.495 -5.99 6.495 -7 7 C-7.65772428 10.02934491 -7.65772428 10.02934491 -8 13 C-10 11 -10 11 -10.3125 8.0625 C-10 5 -10 5 -8.8125 3.25 C-6.07060526 1.35903811 -3.36902632 0 0 0 Z " fill="#DFD2B9" transform="translate(24,33)"/>
<path d="M0 0 C0 3.51716303 -0.82445585 4.37121748 -3 7 C-2.01 7.33 -1.02 7.66 0 8 C-2.31 9.65 -4.62 11.3 -7 13 C-7.99 12.01 -8.98 11.02 -10 10 C-6.7 6.7 -3.4 3.4 0 0 Z " fill="#23242E" transform="translate(122,153)"/>
<path d="M0 0 C0.66 0.66 1.32 1.32 2 2 C2.99 1.67 3.98 1.34 5 1 C6.25664978 3.90600261 7 5.79604584 7 9 C5.35 9.33 3.7 9.66 2 10 C-0.4294516 6.3558226 -0.16179575 4.28758728 0 0 Z " fill="#D88271" transform="translate(47,116)"/>
<path d="M0 0 C1.32 0.66 2.64 1.32 4 2 C3.67 2.33 3.34 2.66 3 3 C6.66447432 4.64800856 9.81203466 5.33580973 13.8125 5.625 C14.78832031 5.69976562 15.76414063 5.77453125 16.76953125 5.8515625 C17.50558594 5.90054688 18.24164063 5.94953125 19 6 C15.27198642 8.48534239 12.31947817 8.65747809 8 8 C5.18372346 6.90026553 2.59518807 5.54606949 0 4 C0 2.68 0 1.36 0 0 Z " fill="#D15C5D" transform="translate(136,63)"/>
<path d="M0 0 C2.125 0.9375 2.125 0.9375 4 2 C4 2.66 4 3.32 4 4 C5.32 4 6.64 4 8 4 C8.66 3.34 9.32 2.68 10 2 C11 3 11 3 11.0625 6.5625 C11.041875 7.696875 11.02125 8.83125 11 10 C10.401875 9.67 9.80375 9.34 9.1875 9 C6.94613529 7.79212012 6.94613529 7.79212012 4 8 C1.9375 5.625 1.9375 5.625 0 3 C-0.66 2.34 -1.32 1.68 -2 1 C-1.34 0.67 -0.68 0.34 0 0 Z " fill="#E0E6EE" transform="translate(67,104)"/>
<path d="M0 0 C2.0625 0.6875 2.0625 0.6875 4 2 C4.75 4.125 4.75 4.125 5 6 C4.01 6 3.02 6 2 6 C2 12.27 2 18.54 2 25 C1.67 25 1.34 25 1 25 C0.67 17.41 0.34 9.82 0 2 C-0.66 1.67 -1.32 1.34 -2 1 C-1.34 0.67 -0.68 0.34 0 0 Z " fill="#434548" transform="translate(136,9)"/>
<path d="M0 0 C0.99 0.33 1.98 0.66 3 1 C2.01 2.98 1.02 4.96 0 7 C-0.66 7 -1.32 7 -2 7 C-2.33 8.32 -2.66 9.64 -3 11 C-3.66 10.34 -4.32 9.68 -5 9 C-4.85013589 5.47819346 -4.60848008 3.62876275 -2.125 1.0625 C-1.42375 0.711875 -0.7225 0.36125 0 0 Z " fill="#F54A46" transform="translate(140,38)"/>
<path d="M0 0 C0.61875 0.804375 1.2375 1.60875 1.875 2.4375 C3.74164041 5.03874519 3.74164041 5.03874519 6 6 C5.67 7.32 5.34 8.64 5 10 C5.66 10.33 6.32 10.66 7 11 C7 11.99 7 12.98 7 14 C6.34 14 5.68 14 5 14 C5 15.98 5 17.96 5 20 C4.67 20 4.34 20 4 20 C3.81824219 18.75283203 3.81824219 18.75283203 3.6328125 17.48046875 C3.46523437 16.39378906 3.29765625 15.30710937 3.125 14.1875 C2.96257812 13.10855469 2.80015625 12.02960937 2.6328125 10.91796875 C2.14867662 7.82678207 2.14867662 7.82678207 0 5 C-0.125 2.3125 -0.125 2.3125 0 0 Z " fill="#E5EDEC" transform="translate(166,36)"/>
<path d="M0 0 C0.66 0.33 1.32 0.66 2 1 C2 1.66 2 2.32 2 3 C3.65 3.33 5.3 3.66 7 4 C6.67 2.68 6.34 1.36 6 0 C7.65 0.33 9.3 0.66 11 1 C9.68 2.65 8.36 4.3 7 6 C4.69 5.34 2.38 4.68 0 4 C0 4.99 0 5.98 0 7 C-0.66 7 -1.32 7 -2 7 C-1.125 1.125 -1.125 1.125 0 0 Z " fill="#ED8526" transform="translate(50,33)"/>
<path d="M0 0 C5.28 0 10.56 0 16 0 C12.1123016 2.59179893 9.55762332 4.0916249 4.8125 3.8125 C2 3 2 3 0 0 Z " fill="#D2CAB4" transform="translate(58,172)"/>
<path d="M0 0 C4.95 0 9.9 0 15 0 C14.67 1.32 14.34 2.64 14 4 C8.32723489 4.29341888 5.00932754 4.00559652 0 1 C0 0.67 0 0.34 0 0 Z " fill="#181A1A" transform="translate(48,90)"/>
<path d="M0 0 C0.66 0.99 1.32 1.98 2 3 C-3.28 3 -8.56 3 -14 3 C-9.07691645 -0.2820557 -5.87684248 -1.69775449 0 0 Z " fill="#D0C6B4" transform="translate(113,5)"/>
<path d="M0 0 C0.66 0 1.32 0 2 0 C2 0.99 2 1.98 2 3 C2.99 3 3.98 3 5 3 C5 3.66 5 4.32 5 5 C1.04 5.99 -2.92 6.98 -7 8 C-1.125 1.125 -1.125 1.125 0 0 Z " fill="#D8CCB2" transform="translate(135,146)"/>
<path d="M0 0 C2.16874252 0.50603992 3.99967627 0.99983813 6 2 C6 2.99 6 3.98 6 5 C6.5775 4.649375 7.155 4.29875 7.75 3.9375 C10.35801776 2.85082593 11.39417629 3.06934867 14 4 C14 4.66 14 5.32 14 6 C12.41705218 6.05437607 10.83355744 6.09296271 9.25 6.125 C8.36828125 6.14820312 7.4865625 6.17140625 6.578125 6.1953125 C3.8864142 5.99139502 2.30095026 5.36551721 0 4 C0 2.68 0 1.36 0 0 Z " fill="#DADFE4" transform="translate(50,98)"/>
<path d="M0 0 C0.33 0 0.66 0 1 0 C1.9546751 3.32201132 2.75739133 6.54546347 3 10 C1.125 13.125 1.125 13.125 -1 15 C-1.91457003 9.43842552 -2.32086397 5.324335 0 0 Z " fill="#DDEBEE" transform="translate(42,117)"/>
<path d="M0 0 C1.051875 0.5878125 1.051875 0.5878125 2.125 1.1875 C1 3.1875 1 3.1875 -0.875 5.1875 C-3.9375 5.625 -3.9375 5.625 -6.875 5.1875 C-7.535 4.1975 -8.195 3.2075 -8.875 2.1875 C-3.58269231 -1.0125 -3.58269231 -1.0125 0 0 Z " fill="#D87764" transform="translate(60.875,122.8125)"/>
<path d="M0 0 C1.9375 0.8125 1.9375 0.8125 4 2 C4.33 2.99 4.66 3.98 5 5 C10.28 5.33 15.56 5.66 21 6 C21 6.33 21 6.66 21 7 C18.26916098 7.13548815 15.54508193 7.23429855 12.8125 7.3125 C12.04357422 7.35439453 11.27464844 7.39628906 10.48242188 7.43945312 C6.03371827 7.53491887 4.52445124 7.43312555 0.94921875 4.48046875 C0.30597656 3.66191406 -0.33726563 2.84335938 -1 2 C-0.67 1.34 -0.34 0.68 0 0 Z " fill="#262727" transform="translate(33,165)"/>
<path d="M0 0 C1.32 0.33 2.64 0.66 4 1 C4.33 5.62 4.66 10.24 5 15 C3.39282229 12.58923344 2.38457485 10.71900755 1.375 8.0625 C0.98441406 7.05896484 0.98441406 7.05896484 0.5859375 6.03515625 C0 4 0 4 0 0 Z " fill="#E4D8BB" transform="translate(26,76)"/>
<path d="M0 0 C0.86625 0.4640625 0.86625 0.4640625 1.75 0.9375 C3.84294184 1.92583364 5.74535275 2.5168613 8 3 C7.34 4.32 6.68 5.64 6 7 C2.73045798 6.43628586 1.17424117 5.50037734 -1 3 C-0.67 2.01 -0.34 1.02 0 0 Z " fill="#360503" transform="translate(141,52)"/>
<path d="M0 0 C2.31 0 4.62 0 7 0 C7 1.32 7 2.64 7 4 C5 5.75 5 5.75 3 7 C2.67 6.34 2.34 5.68 2 5 C2.33 4.34 2.66 3.68 3 3 C1.02 3 -0.96 3 -3 3 C-2.01 2.67 -1.02 2.34 0 2 C0 1.34 0 0.68 0 0 Z " fill="#07080D" transform="translate(131,138)"/>
<path d="M0 0 C0 0.99 0 1.98 0 3 C-1.26839526 3.50615298 -2.53983102 4.00469099 -3.8125 4.5 C-4.87404297 4.91765625 -4.87404297 4.91765625 -5.95703125 5.34375 C-8 6 -8 6 -11 6 C-10.67 5.01 -10.34 4.02 -10 3 C-9.01 3.33 -8.02 3.66 -7 4 C-6.67 3.01 -6.34 2.02 -6 1 C-4 0 -4 0 0 0 Z " fill="#0E0604" transform="translate(144,150)"/>
<path d="M0 0 C0.66 0.33 1.32 0.66 2 1 C1.75 2.875 1.75 2.875 1 5 C-1.49840595 6.87380446 -2.63319166 7.05001932 -5.75 6.625 C-6.4925 6.41875 -7.235 6.2125 -8 6 C-8 5.34 -8 4.68 -8 4 C-5.36 3.34 -2.72 2.68 0 2 C0 1.34 0 0.68 0 0 Z " fill="#079C46" transform="translate(62,81)"/>
<path d="M0 0 C0.94746094 -0.01675781 1.89492187 -0.03351562 2.87109375 -0.05078125 C5.5625 0.3125 5.5625 0.3125 9.5625 3.3125 C3.6225 2.9825 -2.3175 2.6525 -8.4375 2.3125 C-5.11533762 0.09772508 -3.88716677 0.01582293 0 0 Z " fill="#C65654" transform="translate(148.4375,34.6875)"/>
<path d="M0 0 C0.495 0.165 0.99 0.33 1.5 0.5 C6.6979446 1.53958892 11.87822809 1.28044298 17 0 C16.67 0.66 16.34 1.32 16 2 C13.3828125 2.5625 13.3828125 2.5625 10.125 3 C6.24901883 3.52302397 4.29600553 3.80266298 1 6 C0.67 4.02 0.34 2.04 0 0 Z " fill="#360D0D" transform="translate(140,69)"/>
<path d="M0 0 C0.66 1.32 1.32 2.64 2 4 C-0.31 6.31 -2.62 8.62 -5 11 C-6.32 9.68 -7.64 8.36 -9 7 C-6.525 7.495 -6.525 7.495 -4 8 C-4 7.34 -4 6.68 -4 6 C-3.34 6 -2.68 6 -2 6 C-1.855625 5.195625 -1.71125 4.39125 -1.5625 3.5625 C-1 1 -1 1 0 0 Z " fill="#C35758" transform="translate(151,44)"/>
<path d="M0 0 C0.33 0 0.66 0 1 0 C0.67 4.29 0.34 8.58 0 13 C-0.33 12.01 -0.66 11.02 -1 10 C-1.66 10 -2.32 10 -3 10 C-3 7.69 -3 5.38 -3 3 C-2.01 2.67 -1.02 2.34 0 2 C0 1.34 0 0.68 0 0 Z " fill="#130605" transform="translate(46,31)"/>
<path d="M0 0 C0 0.99 0 1.98 0 3 C-2 5 -2 5 -4.625 5.125 C-5.40875 5.08375 -6.1925 5.0425 -7 5 C-7 4.34 -7 3.68 -7 3 C-8.32 2.67 -9.64 2.34 -11 2 C-7.36576791 -0.32590854 -4.22911669 -0.16265833 0 0 Z " fill="#C3CED3" transform="translate(62,19)"/>
<path d="M0 0 C0.99 0 1.98 0 3 0 C3 0.66 3 1.32 3 2 C6.65079826 3.61064629 10.0507432 4.44894091 14 5 C14 5.33 14 5.66 14 6 C4.81380417 6.31139647 4.81380417 6.31139647 1 4 C0.1875 1.875 0.1875 1.875 0 0 Z " fill="#011606" transform="translate(46,85)"/>
<path d="M0 0 C0.33 0.99 0.66 1.98 1 3 C1.99 3 2.98 3 4 3 C3.979375 3.721875 3.95875 4.44375 3.9375 5.1875 C3.99820559 7.91925138 4.39258535 10.34256091 5 13 C4.01 13 3.02 13 2 13 C1.67 10.69 1.34 8.38 1 6 C0.67 6 0.34 6 0 6 C0 4.02 0 2.04 0 0 Z " fill="#E2E6ED" transform="translate(73,34)"/>
<path d="M0 0 C0.99 0 1.98 0 3 0 C4.25664978 2.90600261 5 4.79604584 5 8 C4.34 7.67 3.68 7.34 3 7 C2.34 7.66 1.68 8.32 1 9 C-0.4783226 6.04335481 -0.06032783 3.25770263 0 0 Z " fill="#15934B" transform="translate(48,78)"/>
<path d="M0 0 C1.65 0 3.3 0 5 0 C3.25 4.875 3.25 4.875 1 6 C-0.13350534 8.01669827 -0.13350534 8.01669827 -1 10 C-1.33 7.36 -1.66 4.72 -2 2 C-1.34 2 -0.68 2 0 2 C0 1.34 0 0.68 0 0 Z " fill="#E9E8EF" transform="translate(41,69)"/>
<path d="M0 0 C2.00841268 0.01421885 4.01537247 0.13420475 6.01953125 0.265625 C6.01953125 1.255625 6.01953125 2.245625 6.01953125 3.265625 C2.3454234 4.44133951 -1.14976058 4.33929246 -4.98046875 4.265625 C-3.72152968 1.74774686 -2.88459378 0.38688832 0 0 Z " fill="#DDF2FA" transform="translate(55.98046875,57.734375)"/>
<path d="M0 0 C6.4 0.49230769 6.4 0.49230769 9.4375 3.0625 C10.2109375 4.0215625 10.2109375 4.0215625 11 5 C10.01 5 9.02 5 8 5 C7.67 4.67 7.34 4.34 7 4 C5.48530552 3.76807135 3.96245438 3.58784762 2.4375 3.4375 C1.61121094 3.35371094 0.78492188 3.26992187 -0.06640625 3.18359375 C-0.70449219 3.12300781 -1.34257813 3.06242187 -2 3 C-1.34 2.01 -0.68 1.02 0 0 Z " fill="#C47E73" transform="translate(56,107)"/>
<path d="M0 0 C0.66 0.33 1.32 0.66 2 1 C-0.55274874 3.45605371 -1.85890643 3.98802939 -5.453125 4.29296875 C-6.70609375 4.25816406 -7.9590625 4.22335938 -9.25 4.1875 C-10.51328125 4.16042969 -11.7765625 4.13335937 -13.078125 4.10546875 C-14.52445313 4.05326172 -14.52445313 4.05326172 -16 4 C-15.67 3.34 -15.34 2.68 -15 2 C-14.41992188 2.02320313 -13.83984375 2.04640625 -13.2421875 2.0703125 C-8.33373905 2.183709 -4.66058357 1.70509155 0 0 Z " fill="#D1D1D0" transform="translate(74,176)"/>
<path d="M0 0 C0.66 0.33 1.32 0.66 2 1 C2.36923077 6.53846154 2.36923077 6.53846154 0.5 8.875 C-0.2425 9.431875 -0.2425 9.431875 -1 10 C-1.66 9.67 -2.32 9.34 -3 9 C-2.67 8.67 -2.34 8.34 -2 8 C-1.80850919 4.36805359 -1.80850919 4.36805359 -3 1 C-2.01 0.67 -1.02 0.34 0 0 Z " fill="#DBCEB5" transform="translate(157,135)"/>
<path d="M0 0 C0.33 0.99 0.66 1.98 1 3 C-3.455 3.495 -3.455 3.495 -8 4 C-8.33 3.01 -8.66 2.02 -9 1 C-5.8035914 -0.06546953 -3.34252724 -0.07427838 0 0 Z " fill="#060302" transform="translate(112,1)"/>
<path d="M0 0 C2.97 0 5.94 0 9 0 C9 0.66 9 1.32 9 2 C5.78548731 3.60725635 2.56387464 3.05748185 -1 3 C-0.67 2.01 -0.34 1.02 0 0 Z " fill="#060504" transform="translate(61,176)"/>
<path d="M0 0 C-0.33 0.66 -0.66 1.32 -1 2 C-0.01 2.33 0.98 2.66 2 3 C-0.64 3.66 -3.28 4.32 -6 5 C-6 4.01 -6 3.02 -6 2 C-6.66 1.67 -7.32 1.34 -8 1 C-2.25 -1.125 -2.25 -1.125 0 0 Z " fill="#241D1A" transform="translate(150,148)"/>
<path d="M0 0 C0 0.66 0 1.32 0 2 C-0.99 2.495 -0.99 2.495 -2 3 C-1.67 3.66 -1.34 4.32 -1 5 C-1.99 5 -2.98 5 -4 5 C-4.33 5.66 -4.66 6.32 -5 7 C-6.65 6.67 -8.3 6.34 -10 6 C-9.01 5.34 -8.02 4.68 -7 4 C-6.34 3.29875 -5.68 2.5975 -5 1.875 C-3 0 -3 0 0 0 Z " fill="#E8E8EC" transform="translate(164,144)"/>
<path d="M0 0 C2.97 0.33 5.94 0.66 9 1 C9.33 2.65 9.66 4.3 10 6 C9.401875 5.67 8.80375 5.34 8.1875 5 C5.94613529 3.79212012 5.94613529 3.79212012 3 4 C1.3125 2 1.3125 2 0 0 Z " fill="#0A9644" transform="translate(54,69)"/>
<path d="M0 0 C0.66 0 1.32 0 2 0 C3.59138085 4.17737474 4.21278058 7.53160785 4 12 C3.34 12 2.68 12 2 12 C0.70756464 7.8803623 -0.26252625 4.33168317 0 0 Z " fill="#F8494A" transform="translate(132,52)"/>
<path d="M0 0 C1.48831242 0.00667405 2.97660807 0.01863442 4.46484375 0.03515625 C5.22345703 0.03966797 5.98207031 0.04417969 6.76367188 0.04882812 C8.64326246 0.06064945 10.52281274 0.07858547 12.40234375 0.09765625 C12.40234375 0.42765625 12.40234375 0.75765625 12.40234375 1.09765625 C11.15517578 1.29681641 11.15517578 1.29681641 9.8828125 1.5 C8.79613281 1.67660156 7.70945313 1.85320313 6.58984375 2.03515625 C5.51089844 2.20917969 4.43195313 2.38320313 3.3203125 2.5625 C0.35301019 3.03637546 0.35301019 3.03637546 -2.59765625 4.09765625 C-2.59765625 3.43765625 -2.59765625 2.77765625 -2.59765625 2.09765625 C-3.25765625 1.76765625 -3.91765625 1.43765625 -4.59765625 1.09765625 C-3.59765625 0.09765625 -3.59765625 0.09765625 0 0 Z " fill="#290707" transform="translate(139.59765625,33.90234375)"/>
<path d="M0 0 C2.475 0.495 2.475 0.495 5 1 C5 1.66 5 2.32 5 3 C5.66 3.33 6.32 3.66 7 4 C7 4.66 7 5.32 7 6 C4.625 5.8125 4.625 5.8125 2 5 C0.6875 2.4375 0.6875 2.4375 0 0 Z " fill="#F3F1EE" transform="translate(32,170)"/>
<path d="M0 0 C0.33 0 0.66 0 1 0 C1.06058594 1.04800781 1.12117188 2.09601563 1.18359375 3.17578125 C1.26801738 4.55470048 1.35266447 5.93360605 1.4375 7.3125 C1.47681641 8.00279297 1.51613281 8.69308594 1.55664062 9.40429688 C1.74927415 12.47161535 2.02322717 15.06968152 3 18 C2.01 18.66 1.02 19.32 0 20 C0 13.4 0 6.8 0 0 Z " fill="#C4C7DD" transform="translate(111,144)"/>
<path d="M0 0 C1.65 0 3.3 0 5 0 C5 0.66 5 1.32 5 2 C3.46875 3.2890625 3.46875 3.2890625 1.5 4.625 C0.8503125 5.07101563 0.200625 5.51703125 -0.46875 5.9765625 C-0.9740625 6.31429687 -1.479375 6.65203125 -2 7 C-2.33 5.68 -2.66 4.36 -3 3 C-2.34 3 -1.68 3 -1 3 C-0.67 2.01 -0.34 1.02 0 0 Z " fill="#C0C4E0" transform="translate(129,141)"/>
<path d="M0 0 C1.98 0.99 1.98 0.99 4 2 C3.67 3.98 3.34 5.96 3 8 C2.01 8 1.02 8 0 8 C0 5.36 0 2.72 0 0 Z " fill="#0A0605" transform="translate(159,136)"/>
<path d="M0 0 C4.875 1.75 4.875 1.75 6 4 C1.37078475 5.0161692 -2.34462607 4.83796731 -7 4 C-7 3.67 -7 3.34 -7 3 C-4.36 3 -1.72 3 1 3 C0.67 2.01 0.34 1.02 0 0 Z " fill="#13311F" transform="translate(62,64)"/>
<path d="M0 0 C-0.33 1.65 -0.66 3.3 -1 5 C-2.65 5.33 -4.3 5.66 -6 6 C-5.6875 4.125 -5.6875 4.125 -5 2 C-2 0 -2 0 0 0 Z " fill="#F84948" transform="translate(158,52)"/>
<path d="M0 0 C0.70125 0.639375 1.4025 1.27875 2.125 1.9375 C5.22841233 4.16386102 7.24620139 4.65080943 11 5 C11 5.33 11 5.66 11 6 C3.61538462 6.36923077 3.61538462 6.36923077 0.5 4.5 C0.005 4.005 -0.49 3.51 -1 3 C-0.67 2.01 -0.34 1.02 0 0 Z " fill="#298A51" transform="translate(51,84)"/>
<path d="M0 0 C1.41377341 2.63904371 2.37240135 5.07120629 3 8 C1.68 8.33 0.36 8.66 -1 9 C-1.625 6.1875 -1.625 6.1875 -2 3 C-1.34 2.01 -0.68 1.02 0 0 Z " fill="#1C1912" transform="translate(27,82)"/>
<path d="M0 0 C4.62 0 9.24 0 14 0 C14 1.65 14 3.3 14 5 C13.44828125 4.50886719 12.8965625 4.01773437 12.328125 3.51171875 C9.53629931 1.69890576 8.03814259 1.6827049 4.75 1.8125 C3.41195312 1.85310547 3.41195312 1.85310547 2.046875 1.89453125 C1.03367187 1.94673828 1.03367187 1.94673828 0 2 C0 1.34 0 0.68 0 0 Z " fill="#D2D2D1" transform="translate(104,0)"/>
<path d="M0 0 C-0.33 0.66 -0.66 1.32 -1 2 C-1.99 2 -2.98 2 -4 2 C-4.99 3.485 -4.99 3.485 -6 5 C-8.475 4.01 -8.475 4.01 -11 3 C-10 1 -10 1 -8.22265625 0.33203125 C-7.15337891 0.07486328 -7.15337891 0.07486328 -6.0625 -0.1875 C-5.35222656 -0.36667969 -4.64195312 -0.54585937 -3.91015625 -0.73046875 C-2 -1 -2 -1 0 0 Z " fill="#2D231C" transform="translate(138,152)"/>
<path d="M0 0 C2.97 0.495 2.97 0.495 6 1 C6 1.66 6 2.32 6 3 C7.65 3 9.3 3 11 3 C11 3.33 11 3.66 11 4 C9.741875 4.04125 8.48375 4.0825 7.1875 4.125 C6.47980469 4.14820313 5.77210937 4.17140625 5.04296875 4.1953125 C3 4 3 4 0 2 C0 1.34 0 0.68 0 0 Z " fill="#262124" transform="translate(51,130)"/>
<path d="M0 0 C2 3 2 3 2 6 C1.34 6 0.68 6 0 6 C0 6.66 0 7.32 0 8 C-1.32 8 -2.64 8 -4 8 C-2.66666667 5.33333333 -1.33333333 2.66666667 0 0 Z " fill="#EF7365" transform="translate(65,115)"/>
<path d="M0 0 C1.53445094 3.06890187 0.54984289 5.70094266 0 9 C-0.99 9 -1.98 9 -3 9 C-3.1875 5.625 -3.1875 5.625 -3 2 C-2.01 1.34 -1.02 0.68 0 0 Z " fill="#130404" transform="translate(46,114)"/>
<path d="M0 0 C-0.33 1.32 -0.66 2.64 -1 4 C-3.9375 3.625 -3.9375 3.625 -7 3 C-7.33 2.34 -7.66 1.68 -8 1 C-2.25 -1.125 -2.25 -1.125 0 0 Z " fill="#ECEAED" transform="translate(160,73)"/>
<path d="M0 0 C0.33 0.66 0.66 1.32 1 2 C1.66 2 2.32 2 3 2 C2.34 3.32 1.68 4.64 1 6 C-1.97 5.505 -1.97 5.505 -5 5 C-3.35 3.35 -1.7 1.7 0 0 Z " fill="#341014" transform="translate(162,64)"/>
<path d="M0 0 C3.3 0.33 6.6 0.66 10 1 C9.34 2.32 8.68 3.64 8 5 C6.68 5 5.36 5 4 5 C4 4.34 4 3.68 4 3 C2.68 2.34 1.36 1.68 0 1 C0 0.67 0 0.34 0 0 Z " fill="#F18515" transform="translate(50,43)"/>
<path d="M0 0 C1.98 0.99 3.96 1.98 6 3 C5.67 3.99 5.34 4.98 5 6 C3.02 5.34 1.04 4.68 -1 4 C-0.67 2.68 -0.34 1.36 0 0 Z " fill="#1C0908" transform="translate(155,32)"/>
<path d="M0 0 C-0.66 1.32 -1.32 2.64 -2 4 C-2.66 4 -3.32 4 -4 4 C-4 4.66 -4 5.32 -4 6 C-5.32 6.33 -6.64 6.66 -8 7 C-8 6.01 -8 5.02 -8 4 C-2.74285714 0 -2.74285714 0 0 0 Z " fill="#100F0B" transform="translate(131,149)"/>
<path d="M0 0 C0.66 0 1.32 0 2 0 C3.4606285 2.64738916 4 3.89448334 4 7 C3.34 7 2.68 7 2 7 C0.61767557 5.37373596 -0.71937515 3.7074998 -2 2 C-1.34 1.34 -0.68 0.68 0 0 Z " fill="#1B1212" transform="translate(69,110)"/>
<path d="M0 0 C1.98 0 3.96 0 6 0 C6.33 0.99 6.66 1.98 7 3 C4.36 3 1.72 3 -1 3 C-0.67 2.01 -0.34 1.02 0 0 Z " fill="#030702" transform="translate(56,64)"/>
<path d="M0 0 C3.2910841 3.60957611 4.54663921 6.12637153 5 11 C1.87729874 8.48169253 1.05476902 7.2738451 0.25 3.25 C0.1675 2.1775 0.085 1.105 0 0 Z " fill="#1B1916" transform="translate(165,39)"/>
<path d="M0 0 C0.33 0.66 0.66 1.32 1 2 C1.99 2 2.98 2 4 2 C4 2.99 4 3.98 4 5 C2.35 5.66 0.7 6.32 -1 7 C-1.625 4.625 -1.625 4.625 -2 2 C-1.34 1.34 -0.68 0.68 0 0 Z " fill="#DEE2EB" transform="translate(74,81)"/>
<path d="M0 0 C0.99 0 1.98 0 3 0 C3.33 3.3 3.66 6.6 4 10 C3.34 8.68 2.68 7.36 2 6 C1.01120795 4.32665961 0.01351664 2.65848177 -1 1 C-0.67 0.67 -0.34 0.34 0 0 Z " fill="#011603" transform="translate(66,68)"/>
<path d="M0 0 C0.33 0.66 0.66 1.32 1 2 C1.66 2.33 2.32 2.66 3 3 C2.01 3.99 1.02 4.98 0 6 C-1.32 5.01 -2.64 4.02 -4 3 C-2.68 2.01 -1.36 1.02 0 0 Z " fill="#211B16" transform="translate(158,142)"/>
<path d="M0 0 C1.125 1.6875 1.125 1.6875 2 4 C1.22283171 6.51085141 0.17153984 8.65692033 -1 11 C-1.99 10.67 -2.98 10.34 -4 10 C-3.525625 9.278125 -3.05125 8.55625 -2.5625 7.8125 C-1.05847097 5.10524774 -0.43400818 3.03805725 0 0 Z " fill="#31120B" transform="translate(69,117)"/>
<path d="M0 0 C0.66 0.66 1.32 1.32 2 2 C2.99 1.67 3.98 1.34 5 1 C5 2.32 5 3.64 5 5 C3.35 5.33 1.7 5.66 0 6 C0 4.02 0 2.04 0 0 Z " fill="#E1887C" transform="translate(47,116)"/>
<path d="M0 0 C1.32 0.33 2.64 0.66 4 1 C3.67 2.32 3.34 3.64 3 5 C0.69 5 -1.62 5 -4 5 C-2.68 4.67 -1.36 4.34 0 4 C0 2.68 0 1.36 0 0 Z " fill="#E1E2E8" transform="translate(61,53)"/>
<path d="M0 0 C-0.33 0.99 -0.66 1.98 -1 3 C-3.31 3.33 -5.62 3.66 -8 4 C-8 3.01 -8 2.02 -8 1 C-5.07175348 0.02391783 -3.04386724 -0.08226668 0 0 Z " fill="#E0554E" transform="translate(160,43)"/>
<path d="M0 0 C0.66 0 1.32 0 2 0 C3.32 2.64 4.64 5.28 6 8 C5.01 8 4.02 8 3 8 C0 2.25 0 2.25 0 0 Z " fill="#1B1B1D" transform="translate(43,41)"/>
<path d="M0 0 C0.66 0.33 1.32 0.66 2 1 C0.60667426 4.36720387 -0.9789286 5.9859524 -4 8 C-3.67 6.68 -3.34 5.36 -3 4 C-2.34 4 -1.68 4 -1 4 C-0.67 2.68 -0.34 1.36 0 0 Z " fill="#1A140F" transform="translate(139,138)"/>
<path d="M0 0 C2.31 0 4.62 0 7 0 C7.33 0.99 7.66 1.98 8 3 C7.21625 2.814375 6.4325 2.62875 5.625 2.4375 C3.02910225 1.74037734 3.02910225 1.74037734 1 3 C0.67 2.01 0.34 1.02 0 0 Z " fill="#E77766" transform="translate(56,110)"/>
<path d="M0 0 C2.35448165 2.55068845 2.98327924 3.71017358 3.1875 7.25 C3.125625 8.1575 3.06375 9.065 3 10 C2.34 10 1.68 10 1 10 C-0.1577506 6.52674819 -0.06866652 3.63932552 0 0 Z " fill="#293031" transform="translate(126,50)"/>
<path d="M0 0 C-1.01694313 3.05082939 -1.72144212 3.90372675 -4 6 C-4.66 6.66 -5.32 7.32 -6 8 C-6 4 -6 4 -4.125 1.75 C-2 0 -2 0 0 0 Z " fill="#BB5450" transform="translate(140,37)"/>
<path d="M0 0 C1.65 0.33 3.3 0.66 5 1 C3.71937515 2.7074998 2.38232443 4.37373596 1 6 C0.34 6 -0.32 6 -1 6 C-1 5.34 -1 4.68 -1 4 C-0.34 4 0.32 4 1 4 C0.67 2.68 0.34 1.36 0 0 Z " fill="#D08A44" transform="translate(56,33)"/>
<path d="M0 0 C2.9719385 1.12451727 5.33440687 2.22293791 8 4 C5.69 4 3.38 4 1 4 C0.67 2.68 0.34 1.36 0 0 Z " fill="#EBEFF0" transform="translate(139,154)"/>
<path d="M0 0 C0.99 0.99 1.98 1.98 3 3 C2.67 3.99 2.34 4.98 2 6 C1.67 5.34 1.34 4.68 1 4 C-1.02463255 3.34786708 -1.02463255 3.34786708 -3 3 C-2.01 2.01 -1.02 1.02 0 0 Z " fill="#D6DDE1" transform="translate(69,128)"/>
<path d="M0 0 C0.33 0.66 0.66 1.32 1 2 C1.66 2 2.32 2 3 2 C3 2.66 3 3.32 3 4 C1 5.625 1 5.625 -1 7 C-2 4 -2 4 -1.0625 1.8125 C-0.5365625 0.9153125 -0.5365625 0.9153125 0 0 Z " fill="#211719" transform="translate(45,110)"/>
<path d="M0 0 C-0.33 1.65 -0.66 3.3 -1 5 C-3.97 4.505 -3.97 4.505 -7 4 C-2.25 0 -2.25 0 0 0 Z " fill="#E1E2E8" transform="translate(69,90)"/>
<path d="M0 0 C1.74627478 2.61941217 2.38722388 4.03824877 3 7 C1.02 7.99 1.02 7.99 -1 9 C-0.67 6.03 -0.34 3.06 0 0 Z " fill="#191613" transform="translate(21,65)"/>
<path d="M0 0 C2.50037734 2.17424117 3.43628586 3.73045798 4 7 C2.68 7 1.36 7 0 7 C0 4.69 0 2.38 0 0 Z " fill="#201E17" transform="translate(10,37)"/>
<path d="M0 0 C1.32 0.33 2.64 0.66 4 1 C4.33 2.65 4.66 4.3 5 6 C3.2925002 4.71937515 1.62626404 3.38232443 0 2 C0 1.34 0 0.68 0 0 Z " fill="#F3F8F7" transform="translate(161,33)"/>
<path d="M0 0 C1.32 0.33 2.64 0.66 4 1 C4 2.32 4 3.64 4 5 C3.34 5.66 2.68 6.32 2 7 C1.4375 5.0625 1.4375 5.0625 1 3 C1.33 2.67 1.66 2.34 2 2 C1.34 1.34 0.68 0.68 0 0 Z " fill="#E1E7EB" transform="translate(42,25)"/>
<path d="M0 0 C0.66 0.33 1.32 0.66 2 1 C2 1.66 2 2.32 2 3 C2.66 3.33 3.32 3.66 4 4 C2.02 4.33 0.04 4.66 -2 5 C-2.33 3.68 -2.66 2.36 -3 1 C-2.01 0.67 -1.02 0.34 0 0 Z " fill="#231E18" transform="translate(102,2)"/>
</svg>
