<?xml version="1.0" encoding="UTF-8"?>
<svg version="1.1" xmlns="http://www.w3.org/2000/svg" width="180" height="180">
<path d="M0 0 C59.4 0 118.8 0 180 0 C180 59.4 180 118.8 180 180 C120.6 180 61.2 180 0 180 C0 120.6 0 61.2 0 0 Z " fill="#FDFDFC" transform="translate(0,0)"/>
<path d="M0 0 C0.95390625 0.00515625 1.9078125 0.0103125 2.890625 0.015625 C9.9091199 0.09470663 9.9091199 0.09470663 13.375 1.25 C14.76171875 2.81640625 14.76171875 2.81640625 16.0625 4.8125 C16.49949219 5.45316406 16.93648437 6.09382813 17.38671875 6.75390625 C18.79901255 10.32092499 18.43654859 13.41963394 18.375 17.25 C19.67926186 17.23334541 19.67926186 17.23334541 21.00987244 17.21635437 C29.23330684 17.11586686 37.45653289 17.0398907 45.68044186 16.99093914 C49.90775335 16.96492571 54.13455445 16.92968085 58.36157227 16.87280273 C62.44649278 16.81818519 66.53092464 16.78851748 70.61618233 16.77561378 C72.16903938 16.76642685 73.72187188 16.74848724 75.27451897 16.72134972 C83.87825458 16.57705167 91.43760941 16.49923773 98.375 22.25 C102.78672515 27.59754564 101.63855144 34.67097516 101.375 41.25 C102.03886719 41.21519531 102.70273438 41.18039063 103.38671875 41.14453125 C112.48907082 40.86548104 112.48907082 40.86548104 116.375 44.25 C119.12559744 52.50179232 116.80415045 60.92912423 114.625 69.0625 C114.34986572 70.123479 114.07473145 71.18445801 113.79125977 72.27758789 C112.13433291 78.60028888 110.39651738 84.88213553 108.359375 91.09375 C107.58091036 93.5897795 106.90218808 96.06062269 106.265625 98.59375 C102.57641764 112.90197425 102.57641764 112.90197425 95.375 117.25 C93.06735335 118.40382333 91.74962298 118.38047018 89.18193054 118.39044189 C87.86341599 118.39900711 87.86341599 118.39900711 86.51826477 118.40774536 C85.551483 118.40886322 84.58470123 118.40998108 83.58862305 118.41113281 C82.0640448 118.41858017 82.0640448 118.41858017 80.50866699 118.42617798 C77.13467744 118.44082422 73.76073491 118.44760587 70.38671875 118.453125 C68.04742938 118.45887463 65.70814004 118.46463238 63.36885071 118.47039795 C58.45854472 118.48091509 53.54825513 118.48675302 48.63793945 118.49023438 C42.34284244 118.49571915 36.04796172 118.519744 29.75293255 118.54820633 C24.91882187 118.56682129 20.08476339 118.57203772 15.25061989 118.57357025 C12.92976512 118.57660012 10.60891134 118.58463984 8.28809166 118.59775543 C5.04174687 118.61479096 1.79593177 118.61294151 -1.45043945 118.60644531 C-2.41114853 118.6156601 -3.3718576 118.62487488 -4.36167908 118.6343689 C-9.20267723 118.60399009 -12.77268995 118.56216993 -16.625 115.25 C-16.625 114.59 -16.625 113.93 -16.625 113.25 C-17.285 113.25 -17.945 113.25 -18.625 113.25 C-19.84390054 108.47364297 -19.7869864 103.79950884 -19.80200195 98.9050293 C-19.80857315 97.97105316 -19.81514435 97.03707703 -19.82191467 96.07479858 C-19.84158731 92.99127108 -19.85329575 89.90779211 -19.86328125 86.82421875 C-19.86735678 85.76863077 -19.8714323 84.71304279 -19.87563133 83.6254673 C-19.89646457 78.04010846 -19.91077917 72.45477401 -19.92016602 66.86938477 C-19.93123527 61.1093087 -19.96564932 55.34961841 -20.00533772 49.58967876 C-20.03151037 45.15177198 -20.03985836 40.71395716 -20.04344749 36.27598 C-20.04831034 34.15296633 -20.05991565 32.02995668 -20.07848549 29.90701866 C-20.1028943 26.93208745 -20.10190875 23.95815548 -20.0949707 20.9831543 C-20.10778076 20.11275009 -20.12059082 19.24234589 -20.13378906 18.3455658 C-20.08436136 12.5090104 -18.87132714 8.14495495 -15.625 3.25 C-11.25130325 -0.91074522 -5.68178624 -0.12385365 0 0 Z " fill="#FDC827" transform="translate(40.625,30.75)"/>
<path d="M0 0 C0.95390625 0.00515625 1.9078125 0.0103125 2.890625 0.015625 C9.9091199 0.09470663 9.9091199 0.09470663 13.375 1.25 C14.76171875 2.81640625 14.76171875 2.81640625 16.0625 4.8125 C16.49949219 5.45316406 16.93648437 6.09382813 17.38671875 6.75390625 C18.79901255 10.32092499 18.43654859 13.41963394 18.375 17.25 C19.67926186 17.23334541 19.67926186 17.23334541 21.00987244 17.21635437 C29.23330684 17.11586686 37.45653289 17.0398907 45.68044186 16.99093914 C49.90775335 16.96492571 54.13455445 16.92968085 58.36157227 16.87280273 C62.44649278 16.81818519 66.53092464 16.78851748 70.61618233 16.77561378 C72.16903938 16.76642685 73.72187188 16.74848724 75.27451897 16.72134972 C83.87825458 16.57705167 91.43760941 16.49923773 98.375 22.25 C102.78672515 27.59754564 101.63855144 34.67097516 101.375 41.25 C94.5 40.375 94.5 40.375 93.375 39.25 C93.33436168 37.58382885 93.332279 35.91611905 93.375 34.25 C89.65001593 33.00833864 86.20197035 33.11847455 82.32348633 33.13647461 C81.50374832 33.13632858 80.68401031 33.13618256 79.83943176 33.1360321 C77.12860472 33.13672904 74.4178463 33.14451122 71.70703125 33.15234375 C69.82801857 33.15420871 67.9490054 33.15563224 66.06999207 33.15663147 C61.12324685 33.16045052 56.17653098 33.17027562 51.22979736 33.18133545 C46.18249915 33.1915627 41.13519621 33.19613191 36.08789062 33.20117188 C26.18358086 33.21189841 16.27929287 33.22896752 6.375 33.25 C6.045 35.89 5.715 38.53 5.375 41.25 C34.415 41.25 63.455 41.25 93.375 41.25 C93.375 41.91 93.375 42.57 93.375 43.25 C91.69370247 43.24666908 91.69370247 43.24666908 89.97843933 43.24327087 C79.42789924 43.22302059 68.87736308 43.20801873 58.32680798 43.19818783 C52.90235269 43.19296382 47.47791307 43.18587486 42.0534668 43.17456055 C36.82098041 43.16371463 31.5885091 43.15771953 26.35601234 43.15512276 C24.35728022 43.1532716 22.35854895 43.14965687 20.35982323 43.14426994 C17.56562881 43.13703694 14.77149715 43.13601002 11.97729492 43.13647461 C11.14651428 43.13287933 10.31573364 43.12928406 9.45977783 43.12557983 C6.17180567 43.1315161 3.51678456 43.20273848 0.375 44.25 C-5.01439009 50.93763335 -6.54827032 59.65920193 -8.4375 67.8125 C-8.75073048 69.12073605 -9.06517558 70.4286819 -9.38085938 71.73632812 C-10.14085291 74.90491656 -10.88853188 78.07587667 -11.625 81.25 C-12.285 81.25 -12.945 81.25 -13.625 81.25 C-13.625 83.89 -13.625 86.53 -13.625 89.25 C-14.285 89.25 -14.945 89.25 -15.625 89.25 C-16.285 96.84 -16.945 104.43 -17.625 112.25 C-16.305 112.91 -14.985 113.57 -13.625 114.25 C-12.635 114.91 -11.645 115.57 -10.625 116.25 C-8.67777036 116.55189465 -8.67777036 116.55189465 -6.52841187 116.51069641 C-5.69587891 116.51778122 -4.86334595 116.52486603 -4.00558472 116.53216553 C-3.0954361 116.52968811 -2.18528748 116.52721069 -1.24755859 116.5246582 C-0.28622009 116.52976913 0.67511841 116.53488007 1.66558838 116.54014587 C4.85264265 116.55407644 8.03948134 116.55308171 11.2265625 116.55078125 C13.44273967 116.55466786 15.6589161 116.55900246 17.87509155 116.56376648 C22.52726654 116.5712373 27.17936566 116.57093232 31.83154297 116.56567383 C37.77985395 116.55989503 43.72785194 116.57676765 49.67611122 116.6000185 C54.25733239 116.61479032 58.83847893 116.61562255 63.4197197 116.61250877 C65.61166374 116.61302081 67.80361209 116.6182364 69.99553299 116.62832069 C73.07095528 116.64072671 76.14577792 116.63386693 79.22119141 116.62231445 C80.56819626 116.63378006 80.56819626 116.63378006 81.94241333 116.64547729 C87.54484925 116.59921542 93.46976342 116.21645372 98.375 113.25 C98.73671136 111.92408379 99.07185595 110.59051952 99.375 109.25 C100.365 108.92 101.355 108.59 102.375 108.25 C102.87 106.765 102.87 106.765 103.375 105.25 C103.29930022 108.4293909 103.00731963 110.55889688 100.8203125 112.94921875 C96.94031155 116.27378388 94.38747384 118.370226 89.18193054 118.39044189 C87.86341599 118.39900711 87.86341599 118.39900711 86.51826477 118.40774536 C85.551483 118.40886322 84.58470123 118.40998108 83.58862305 118.41113281 C82.0640448 118.41858017 82.0640448 118.41858017 80.50866699 118.42617798 C77.13467744 118.44082422 73.76073491 118.44760587 70.38671875 118.453125 C68.04742938 118.45887463 65.70814004 118.46463238 63.36885071 118.47039795 C58.45854472 118.48091509 53.54825513 118.48675302 48.63793945 118.49023438 C42.34284244 118.49571915 36.04796172 118.519744 29.75293255 118.54820633 C24.91882187 118.56682129 20.08476339 118.57203772 15.25061989 118.57357025 C12.92976512 118.57660012 10.60891134 118.58463984 8.28809166 118.59775543 C5.04174687 118.61479096 1.79593177 118.61294151 -1.45043945 118.60644531 C-2.41114853 118.6156601 -3.3718576 118.62487488 -4.36167908 118.6343689 C-9.20267723 118.60399009 -12.77268995 118.56216993 -16.625 115.25 C-16.625 114.59 -16.625 113.93 -16.625 113.25 C-17.285 113.25 -17.945 113.25 -18.625 113.25 C-19.84390054 108.47364297 -19.7869864 103.79950884 -19.80200195 98.9050293 C-19.80857315 97.97105316 -19.81514435 97.03707703 -19.82191467 96.07479858 C-19.84158731 92.99127108 -19.85329575 89.90779211 -19.86328125 86.82421875 C-19.86735678 85.76863077 -19.8714323 84.71304279 -19.87563133 83.6254673 C-19.89646457 78.04010846 -19.91077917 72.45477401 -19.92016602 66.86938477 C-19.93123527 61.1093087 -19.96564932 55.34961841 -20.00533772 49.58967876 C-20.03151037 45.15177198 -20.03985836 40.71395716 -20.04344749 36.27598 C-20.04831034 34.15296633 -20.05991565 32.02995668 -20.07848549 29.90701866 C-20.1028943 26.93208745 -20.10190875 23.95815548 -20.0949707 20.9831543 C-20.10778076 20.11275009 -20.12059082 19.24234589 -20.13378906 18.3455658 C-20.08436136 12.5090104 -18.87132714 8.14495495 -15.625 3.25 C-11.25130325 -0.91074522 -5.68178624 -0.12385365 0 0 Z " fill="#E7B725" transform="translate(40.625,30.75)"/>
<path d="M0 0 C0.79541199 -0.00365067 1.59082397 -0.00730133 2.41033936 -0.01106262 C5.04200531 -0.01917468 7.67305679 -0.00555281 10.3046875 0.0090332 C12.13167317 0.00955173 13.95865941 0.00903431 15.78564453 0.00752258 C19.61564456 0.00761234 23.44543423 0.01804795 27.27539062 0.03613281 C32.1884545 0.05882007 37.10121091 0.05936441 42.01431274 0.05261517 C45.78721863 0.04927607 49.56005422 0.05590416 53.33294678 0.0657444 C55.14466993 0.06959771 56.95640089 0.07074407 58.76812744 0.06915855 C61.29869524 0.06878831 63.82886666 0.08139643 66.359375 0.09765625 C67.1106366 0.09517883 67.86189819 0.09270142 68.63592529 0.09014893 C72.36400126 0.12844213 73.99525242 0.24935773 77.1796875 2.37231445 C77.1796875 4.68231445 77.1796875 6.99231445 77.1796875 9.37231445 C48.1396875 9.37231445 19.0996875 9.37231445 -10.8203125 9.37231445 C-10.8203125 3.37231445 -10.8203125 3.37231445 -9.80908203 1.52058411 C-6.6882186 -0.28133045 -3.50432139 -0.03565484 0 0 Z " fill="#FBF5E1" transform="translate(56.8203125,62.627685546875)"/>
<path d="M0 0 C0.85021729 0.00410889 1.70043457 0.00821777 2.57641602 0.01245117 C3.96763672 0.01535156 3.96763672 0.01535156 5.38696289 0.01831055 C6.84392578 0.03667969 6.84392578 0.03667969 8.33032227 0.05541992 C9.29776367 0.05606445 10.26520508 0.05670898 11.26196289 0.05737305 C18.4712622 0.1023999 18.4712622 0.1023999 21.89282227 1.24291992 C23.27954102 2.80932617 23.27954102 2.80932617 24.58032227 4.80541992 C25.23581055 5.76641602 25.23581055 5.76641602 25.90454102 6.74682617 C27.31683482 10.31384491 26.95437086 13.41255386 26.89282227 17.24291992 C28.19708412 17.22626534 28.19708412 17.22626534 29.5276947 17.20927429 C37.75112911 17.10878679 45.97435516 17.03281062 54.19826412 16.98385906 C58.42557562 16.95784564 62.65237672 16.92260078 66.87939453 16.86572266 C70.96431505 16.81110511 75.04874691 16.7814374 79.13400459 16.76853371 C80.68686165 16.75934677 82.23969414 16.74140716 83.79234123 16.71426964 C92.36559484 16.57048282 100.00548115 16.45449278 106.89282227 22.24291992 C110.66587756 27.1593253 110.2093688 32.31060331 109.89282227 38.24291992 C109.56282227 38.24291992 109.23282227 38.24291992 108.89282227 38.24291992 C108.62469727 37.25291992 108.35657227 36.26291992 108.08032227 35.24291992 C107.79415039 34.29352539 107.79415039 34.29352539 107.50219727 33.32495117 C107.09058227 31.91859994 106.72687009 30.49747346 106.40844727 29.06713867 C105.79632175 26.80475586 105.26183428 25.15327329 103.89282227 23.24291992 C100.94183623 21.96695977 98.0838328 21.5105099 94.89282227 21.24291992 C94.89282227 21.90291992 94.89282227 22.56291992 94.89282227 23.24291992 C86.4870467 23.35879388 78.08160502 23.44762391 69.67522812 23.50198078 C65.77172376 23.52807023 61.86876595 23.56345452 57.96557617 23.62011719 C54.19838343 23.67446305 50.43171618 23.70434537 46.66416168 23.71730614 C45.22718278 23.72654166 43.79023251 23.7445772 42.35347748 23.77157021 C40.3405108 23.8078831 38.3270148 23.80996248 36.3137207 23.81054688 C35.16788513 23.82164993 34.02204956 23.83275299 32.8414917 23.8441925 C29.89282227 23.24291992 29.89282227 23.24291992 27.53668213 20.87028503 C25.81735319 18.12229843 25.24988312 16.24311792 24.83032227 13.05541992 C24.54542123 10.49578645 24.54542123 10.49578645 23.89282227 8.24291992 C22.90282227 7.58291992 21.91282227 6.92291992 20.89282227 6.24291992 C20.89282227 5.58291992 20.89282227 4.92291992 20.89282227 4.24291992 C20.23282227 4.24291992 19.57282227 4.24291992 18.89282227 4.24291992 C18.89282227 3.58291992 18.89282227 2.92291992 18.89282227 2.24291992 C11.30282227 2.24291992 3.71282227 2.24291992 -4.10717773 2.24291992 C-2.10717773 0.24291992 -2.10717773 0.24291992 0 0 Z " fill="#EAB529" transform="translate(32.107177734375,30.757080078125)"/>
<path d="M0 0 C2.45531995 0.97235998 3.7415141 1.56480409 5.18359375 3.80078125 C5.95949118 5.87118112 6.53846099 7.9151221 7.0625 10.0625 C7.6503125 11.9496875 7.6503125 11.9496875 8.25 13.875 C9.0625 17.0625 9.0625 17.0625 9.0625 20.0625 C2.1875 19.1875 2.1875 19.1875 1.0625 18.0625 C1.0625 15.72916667 1.0625 13.39583333 1.0625 11.0625 C0.5675 8.5875 0.5675 8.5875 0.0625 6.0625 C-22.0475 6.3925 -44.1575 6.7225 -66.9375 7.0625 C-66.9375 7.3925 -66.9375 7.7225 -66.9375 8.0625 C-69.20826842 8.08949725 -71.47912821 8.10889453 -73.75 8.125 C-75.64685547 8.14240234 -75.64685547 8.14240234 -77.58203125 8.16015625 C-80.9375 8.0625 -80.9375 8.0625 -83.9375 7.0625 C-84.2675 6.0725 -84.5975 5.0825 -84.9375 4.0625 C-79.6575 4.0625 -74.3775 4.0625 -68.9375 4.0625 C-68.9375 3.4025 -68.9375 2.7425 -68.9375 2.0625 C-48.1475 2.0625 -27.3575 2.0625 -5.9375 2.0625 C-5.9375 1.4025 -5.9375 0.7425 -5.9375 0.0625 C-3.40982444 -1.20133778 -2.65015769 -0.83403473 0 0 Z " fill="#E4B823" transform="translate(132.9375,51.9375)"/>
<path d="M0 0 C0.80023087 -0.00043808 1.60046173 -0.00087616 2.42494202 -0.00132751 C5.0710588 0.0007632 7.71654268 0.02410723 10.36254883 0.04760742 C12.19671787 0.05320238 14.0308914 0.05747295 15.86506653 0.06047058 C20.69355641 0.07192727 25.52177574 0.10140152 30.35015869 0.13458252 C35.27677755 0.16526566 40.2034401 0.17897216 45.13012695 0.1940918 C54.79756356 0.22627044 64.46479932 0.27747674 74.13208008 0.34057617 C74.13208008 1.33057617 74.13208008 2.32057617 74.13208008 3.34057617 C73.14208008 3.67057617 72.15208008 4.00057617 71.13208008 4.34057617 C71.13208008 3.68057617 71.13208008 3.02057617 71.13208008 2.34057617 C45.06208008 2.34057617 18.99208008 2.34057617 -7.86791992 2.34057617 C-7.86791992 3.33057617 -7.86791992 4.32057617 -7.86791992 5.34057617 C-8.52791992 5.34057617 -9.18791992 5.34057617 -9.86791992 5.34057617 C-9.86791992 6.33057617 -9.86791992 7.32057617 -9.86791992 8.34057617 C18.51208008 8.34057617 46.89208008 8.34057617 76.13208008 8.34057617 C76.13208008 6.36057617 76.13208008 4.38057617 76.13208008 2.34057617 C76.46208008 2.34057617 76.79208008 2.34057617 77.13208008 2.34057617 C77.13208008 4.65057617 77.13208008 6.96057617 77.13208008 9.34057617 C48.09208008 9.34057617 19.05208008 9.34057617 -10.86791992 9.34057617 C-10.86791992 3.34057617 -10.86791992 3.34057617 -9.85966492 1.48686218 C-6.72281188 -0.31845464 -3.51837448 -0.05019821 0 0 Z " fill="#F7EBC5" transform="translate(56.867919921875,62.659423828125)"/>
<path d="M0 0 C0.33 0 0.66 0 1 0 C1.39960692 5.19488998 0.58146072 10.42464984 -2 15 C-4.109375 15.76171875 -4.109375 15.76171875 -6 16 C-6 16.66 -6 17.32 -6 18 C-11.41963299 21.36850681 -15.95371323 21.45290797 -22.1328125 21.46411133 C-23.64122711 21.48421768 -23.64122711 21.48421768 -25.18011475 21.50473022 C-28.49510214 21.54502629 -31.80982217 21.56405062 -35.125 21.58203125 C-37.43376612 21.60396634 -39.7425229 21.62690464 -42.05126953 21.65080261 C-46.88636803 21.69763963 -51.72140376 21.73430123 -56.55664062 21.76342773 C-62.75077831 21.80127379 -68.9444558 21.86129459 -75.13833618 21.92854786 C-79.90464991 21.97837836 -84.67100528 22.01800176 -89.43743896 22.05438805 C-91.72119553 22.07275291 -94.00493133 22.09392385 -96.28863525 22.11795998 C-99.48151207 22.14972271 -102.67419264 22.1681201 -105.8671875 22.18286133 C-106.80866638 22.19468948 -107.75014526 22.20651764 -108.72015381 22.21870422 C-113.56123802 22.226062 -117.45459859 21.8986159 -122 20 C-121.67 18.68 -121.34 17.36 -121 16 C-120.14695565 16.48672652 -120.14695565 16.48672652 -119.27667809 16.9832859 C-116.82105165 18.07991438 -115.24466786 18.25568748 -112.57315063 18.26742554 C-111.25267982 18.28022049 -111.25267982 18.28022049 -109.90553284 18.29327393 C-108.94751266 18.29236755 -107.98949249 18.29146118 -107.00244141 18.29052734 C-105.98737015 18.29724457 -104.97229889 18.30396179 -103.9264679 18.31088257 C-100.56811642 18.32989327 -97.20996445 18.33378831 -93.8515625 18.3359375 C-91.51752642 18.34236319 -89.18349116 18.34909138 -86.84945679 18.35610962 C-81.95528292 18.36809001 -77.06117968 18.37178964 -72.16699219 18.37060547 C-65.89662123 18.37040222 -59.62670319 18.39770775 -53.35643959 18.43214989 C-48.53514527 18.45439037 -43.71396045 18.45844388 -38.89262009 18.45738602 C-36.58096124 18.45974614 -34.26929956 18.46859269 -31.95769119 18.48405075 C-28.7235876 18.50365271 -25.49046718 18.49789487 -22.25634766 18.48583984 C-20.82539009 18.50269836 -20.82539009 18.50269836 -19.36552429 18.51989746 C-13.58722758 18.46518353 -10.44589412 17.76211326 -6 14 C-3.37233089 11.14610773 -2.33949473 8.46674284 -1.3125 4.75 C-1.06113281 3.85796875 -0.80976563 2.9659375 -0.55078125 2.046875 C-0.36902344 1.37140625 -0.18726563 0.6959375 0 0 Z " fill="#FEF2C3" transform="translate(146,130)"/>
<path d="M0 0 C0.33 0 0.66 0 1 0 C1.33 33.33 1.66 66.66 2 101 C3.32 101.66 4.64 102.32 6 103 C6.99 103.66 7.98 104.32 9 105 C10.94722964 105.30189465 10.94722964 105.30189465 13.09658813 105.26069641 C13.92912109 105.26778122 14.76165405 105.27486603 15.61941528 105.28216553 C16.5295639 105.27968811 17.43971252 105.27721069 18.37744141 105.2746582 C19.33877991 105.27976913 20.30011841 105.28488007 21.29058838 105.29014587 C24.47764265 105.30407644 27.66448134 105.30308171 30.8515625 105.30078125 C33.06773967 105.30466786 35.2839161 105.30900246 37.50009155 105.31376648 C42.15226654 105.3212373 46.80436566 105.32093232 51.45654297 105.31567383 C57.40485395 105.30989503 63.35285194 105.32676765 69.30111122 105.3500185 C73.88233239 105.36479032 78.46347893 105.36562255 83.0447197 105.36250877 C85.23666374 105.36302081 87.42861209 105.3682364 89.62053299 105.37832069 C92.69595528 105.39072671 95.77077792 105.38386693 98.84619141 105.37231445 C100.19319626 105.38378006 100.19319626 105.38378006 101.56741333 105.39547729 C107.16984925 105.34921542 113.09476342 104.96645372 118 102 C118.36171136 100.67408379 118.69685595 99.34051952 119 98 C119.99 97.67 120.98 97.34 122 97 C122.495 95.515 122.495 95.515 123 94 C122.92430022 97.1793909 122.63231963 99.30889688 120.4453125 101.69921875 C116.56531155 105.02378388 114.01247384 107.120226 108.80693054 107.14044189 C107.48841599 107.14900711 107.48841599 107.14900711 106.14326477 107.15774536 C105.176483 107.15886322 104.20970123 107.15998108 103.21362305 107.16113281 C101.6890448 107.16858017 101.6890448 107.16858017 100.13366699 107.17617798 C96.75967744 107.19082422 93.38573491 107.19760587 90.01171875 107.203125 C87.67242938 107.20887463 85.33314004 107.21463238 82.99385071 107.22039795 C78.08354472 107.23091509 73.17325513 107.23675302 68.26293945 107.24023438 C61.96784244 107.24571915 55.67296172 107.269744 49.37793255 107.29820633 C44.54382187 107.31682129 39.70976339 107.32203772 34.87561989 107.32357025 C32.55476512 107.32660012 30.23391134 107.33463984 27.91309166 107.34775543 C24.66674687 107.36479096 21.42093177 107.36294151 18.17456055 107.35644531 C17.21385147 107.3656601 16.2531424 107.37487488 15.26332092 107.3843689 C10.42232277 107.35399009 6.85231005 107.31216993 3 104 C3 103.34 3 102.68 3 102 C2.34 102 1.68 102 1 102 C-0.24477093 97.18156546 -0.13349606 92.46645309 -0.11352539 87.52807617 C-0.11367142 86.58124969 -0.11381744 85.63442322 -0.1139679 84.65890503 C-0.11327258 81.53690277 -0.10549801 78.41496056 -0.09765625 75.29296875 C-0.09579072 73.12535128 -0.09436745 70.9577334 -0.09336853 68.79011536 C-0.08955402 63.09045239 -0.07973281 57.39081499 -0.06866455 51.69116211 C-0.05842753 45.87288763 -0.053866 40.05460902 -0.04882812 34.23632812 C-0.0381096 22.82420753 -0.02104595 11.41210589 0 0 Z " fill="#E8CC66" transform="translate(21,42)"/>
<path d="M0 0 C26.07 0 52.14 0 79 0 C79 0.66 79 1.32 79 2 C80.32 1.34 81.64 0.68 83 0 C83 1.65 83 3.3 83 5 C82.01 4.67 81.02 4.34 80 4 C77.43055764 3.88035662 74.88612619 3.81474376 72.31567383 3.79467773 C71.14458824 3.77982834 71.14458824 3.77982834 69.94984436 3.76467896 C67.36893752 3.73308823 64.78801227 3.70831612 62.20703125 3.68359375 C60.41769431 3.66302213 58.6283622 3.6420256 56.83903503 3.62062073 C52.12907834 3.56542158 47.41907794 3.51600277 42.70904541 3.46777344 C37.90299591 3.41754269 33.09700988 3.36186483 28.29101562 3.30664062 C18.86073131 3.19908542 9.43039188 3.09763456 0 3 C0 2.01 0 1.02 0 0 Z " fill="#F2F5F3" transform="translate(49,65)"/>
<path d="M0 0 C0.85021729 0.00410889 1.70043457 0.00821777 2.57641602 0.01245117 C3.96763672 0.01535156 3.96763672 0.01535156 5.38696289 0.01831055 C6.84392578 0.03667969 6.84392578 0.03667969 8.33032227 0.05541992 C9.29776367 0.05606445 10.26520508 0.05670898 11.26196289 0.05737305 C18.4712622 0.1023999 18.4712622 0.1023999 21.89282227 1.24291992 C23.27954102 2.80932617 23.27954102 2.80932617 24.58032227 4.80541992 C25.23581055 5.76641602 25.23581055 5.76641602 25.90454102 6.74682617 C26.89282227 9.24291992 26.89282227 9.24291992 26.89282227 17.24291992 C50.32282227 17.24291992 73.75282227 17.24291992 97.89282227 17.24291992 C94.27055303 20.86518915 93.16131229 20.68983835 88.18579102 20.92260742 C87.52338913 20.95562958 86.86098724 20.98865173 86.17851257 21.02267456 C78.85799786 21.35552564 71.53222689 21.39738795 64.20532227 21.36791992 C63.17239044 21.36559357 63.17239044 21.36559357 62.11859131 21.36322021 C53.41450138 21.34031935 44.71480646 21.24487899 36.01782227 20.86791992 C34.79832886 20.82175537 34.79832886 20.82175537 33.55419922 20.7746582 C28.13689495 20.4869926 28.13689495 20.4869926 25.89282227 18.24291992 C25.31131099 15.69288531 24.94014676 13.14155343 24.55297852 10.55541992 C24.06136161 7.88741064 24.06136161 7.88741064 20.89282227 6.24291992 C20.89282227 5.58291992 20.89282227 4.92291992 20.89282227 4.24291992 C20.23282227 4.24291992 19.57282227 4.24291992 18.89282227 4.24291992 C18.89282227 3.58291992 18.89282227 2.92291992 18.89282227 2.24291992 C11.30282227 2.24291992 3.71282227 2.24291992 -4.10717773 2.24291992 C-2.10717773 0.24291992 -2.10717773 0.24291992 0 0 Z " fill="#E8C14E" transform="translate(32.107177734375,30.757080078125)"/>
<path d="M0 0 C0.66 0 1.32 0 2 0 C2 0.66 2 1.32 2 2 C2.99 2 3.98 2 5 2 C6.60725635 5.21451269 6.05748185 8.43612536 6 12 C6.86364166 11.99555878 7.72728333 11.99111755 8.61709595 11.98654175 C16.76795866 11.94641809 24.91878806 11.91599173 33.06972694 11.89637566 C37.2599065 11.88595173 41.45000424 11.87181799 45.64013672 11.84912109 C49.68609798 11.82734303 53.73198069 11.81542091 57.77799606 11.81024551 C59.31931163 11.80655866 60.86062305 11.79935916 62.40190506 11.78853989 C64.56571901 11.77395884 66.729211 11.77202479 68.89306641 11.77294922 C70.73839462 11.76628738 70.73839462 11.76628738 72.6210022 11.75949097 C76.06123637 12.00435866 78.79364108 12.76326867 82 14 C82 14.99 82 15.98 82 17 C82.66 17 83.32 17 84 17 C84 17.66 84 18.32 84 19 C85.98 19.495 85.98 19.495 88 20 C88 24.95 88 29.9 88 35 C91.05989583 35.16276042 94.11979167 35.32552083 97.1796875 35.48828125 C98.57574219 35.74158203 98.57574219 35.74158203 100 36 C102 39 102 39 101.625 41.1875 C101.41875 41.785625 101.2125 42.38375 101 43 C101 42.01 101 41.02 101 40 C96.1956792 37.5978396 91.26896105 37.38877771 86 37 C85.95101562 36.13117188 85.90203125 35.26234375 85.8515625 34.3671875 C85.73941406 32.63855469 85.73941406 32.63855469 85.625 30.875 C85.52058594 29.16957031 85.52058594 29.16957031 85.4140625 27.4296875 C85.00133736 24.01107738 84.3294027 21.1737149 83 18 C80.65245602 16.66096786 80.65245602 16.66096786 78 16 C77.42965027 15.66110748 76.85930054 15.32221497 76.27166748 14.97305298 C73.13216972 13.62827093 70.43958484 13.71744239 67.02832031 13.68115234 C65.98868889 13.66608391 65.98868889 13.66608391 64.92805481 13.65071106 C62.64475305 13.61990236 60.36156842 13.60285066 58.078125 13.5859375 C56.49199416 13.56722396 54.90587325 13.5476504 53.31976318 13.5272522 C49.15071472 13.47594454 44.98163398 13.43631158 40.81243896 13.39910889 C36.55586777 13.35906064 32.29943067 13.30797205 28.04296875 13.2578125 C19.69540413 13.16106939 11.3477731 13.07665952 3 13 C2.86722656 12.31292969 2.73445313 11.62585937 2.59765625 10.91796875 C2.42105469 10.01691406 2.24445312 9.11585937 2.0625 8.1875 C1.88847656 7.29417969 1.71445312 6.40085937 1.53515625 5.48046875 C1.02258847 2.88602829 1.02258847 2.88602829 0 0 Z " fill="#FEFBD9" transform="translate(56,35)"/>
<path d="M0 0 C0.99 1.98 0.99 1.98 2 4 C-27 4 -56 4 -85 4 C-85 3.01 -85 2.02 -85 1 C-56.95 0.67 -28.9 0.34 0 0 Z " fill="#DCC053" transform="translate(133,60)"/>
<path d="M0 0 C0.99 0.33 1.98 0.66 3 1 C2.67468292 1.62017502 2.34936584 2.24035004 2.01419067 2.87931824 C0.59028297 7.26070619 0.73776784 11.3523037 0.77294922 15.9309082 C0.77265717 16.92650253 0.77236511 17.92209686 0.77206421 18.94786072 C0.77345538 22.23225681 0.78900677 25.51642488 0.8046875 28.80078125 C0.80841838 31.08049902 0.811265 33.3602184 0.81326294 35.63993835 C0.82089346 41.63555338 0.84053707 47.63107126 0.8626709 53.62664795 C0.88314178 59.74652797 0.89226732 65.86642372 0.90234375 71.98632812 C0.92378342 83.99092806 0.95791245 95.99545595 1 108 C1.66 108 2.32 108 3 108 C3 108.66 3 109.32 3 110 C1.35 109.34 -0.3 108.68 -2 108 C-1.89288964 94.0661511 -1.78008592 80.13235837 -1.66066074 66.19860935 C-1.60538097 59.72934782 -1.55195304 53.26008182 -1.50268555 46.79077148 C-1.45511637 40.55325678 -1.40277655 34.31579904 -1.34705925 28.07835197 C-1.32660184 25.69281359 -1.3078945 23.30725956 -1.29092598 20.9216938 C-1.26695667 17.59300171 -1.23689226 14.26441843 -1.20532227 10.93579102 C-1.1995668 9.93885727 -1.19381134 8.94192352 -1.18788147 7.91477966 C-1.17809265 7.01309052 -1.16830383 6.11140137 -1.15821838 5.18238831 C-1.15176583 4.3942553 -1.14531328 3.6061223 -1.1386652 2.79410648 C-1 1 -1 1 0 0 Z " fill="#FEFBDA" transform="translate(21,36)"/>
<path d="M0 0 C8.76240308 -0.09281293 17.52463611 -0.16382186 26.28742409 -0.20724869 C30.35666939 -0.2280949 34.42557759 -0.25635753 38.49462891 -0.30175781 C42.42390618 -0.3453226 46.35285987 -0.36915942 50.28236008 -0.37950897 C51.77905748 -0.38688138 53.27573782 -0.4012782 54.77229691 -0.42292023 C56.87413602 -0.45209757 58.97465006 -0.45595032 61.07666016 -0.45410156 C62.27134918 -0.46298401 63.46603821 -0.47186646 64.69692993 -0.48101807 C68.7084703 0.10317281 70.8501071 1.49405099 74 4 C77.63412417 9.08777383 77.32005249 14.0019793 77 20 C76.67 20 76.34 20 76 20 C75.5978125 18.515 75.5978125 18.515 75.1875 17 C74.79357858 15.66610056 74.39759243 14.33280984 74 13 C73.80535156 12.28199219 73.61070312 11.56398438 73.41015625 10.82421875 C72.75894349 8.71644728 72.13208609 6.89568926 71 5 C67.95978632 3.40004618 67.95978632 3.40004618 65 3 C65 2.34 65 1.68 65 1 C43.55 1 22.1 1 0 1 C0 0.67 0 0.34 0 0 Z " fill="#D6B136" transform="translate(65,49)"/>
<path d="M0 0 C0.66 0.33 1.32 0.66 2 1 C1.6875 3.375 1.6875 3.375 1 6 C0.01 6.66 -0.98 7.32 -2 8 C-2.31585421 11.04748367 -2.43734376 13.89578817 -2.43237305 16.94775391 C-2.4425647 17.87463516 -2.45275635 18.80151642 -2.46325684 19.75648499 C-2.493528 22.82990451 -2.5026743 25.90301312 -2.51171875 28.9765625 C-2.52855497 31.10363818 -2.54670376 33.23070384 -2.56611633 35.35775757 C-2.61373723 40.96371329 -2.64346831 46.56962843 -2.66955566 52.17572021 C-2.69930032 57.89327005 -2.74585147 63.61067985 -2.79101562 69.328125 C-2.87718623 80.55201027 -2.94447019 91.77592426 -3 103 C-3.33 103 -3.66 103 -4 103 C-4.06952796 90.58681489 -4.12282562 78.17367615 -4.15543652 65.76033592 C-4.17108856 59.99624119 -4.19231868 54.23227974 -4.22631836 48.46826172 C-4.25892786 42.9050732 -4.27685649 37.34201284 -4.28463173 31.77873611 C-4.29017235 29.65686653 -4.30099179 27.53500392 -4.31719017 25.41318893 C-4.33898529 22.43985618 -4.34196601 19.4670522 -4.34057617 16.49365234 C-4.351362 15.6175531 -4.36214783 14.74145386 -4.3732605 13.83880615 C-4.34696875 8.6365076 -3.91557386 3.91557386 0 0 Z " fill="#D4B53E" transform="translate(26,33)"/>
<path d="M0 0 C0 1.65 0 3.3 0 5 C29.04 5 58.08 5 88 5 C88 5.66 88 6.32 88 7 C58.3 6.67 28.6 6.34 -2 6 C-2.33 4.35 -2.66 2.7 -3 1 C-1 0 -1 0 0 0 Z " fill="#EBC945" transform="translate(46,67)"/>
<path d="M0 0 C0.66 0.33 1.32 0.66 2 1 C2 1.99 2 2.98 2 4 C2.66 4 3.32 4 4 4 C4 4.66 4 5.32 4 6 C5.32 6.33 6.64 6.66 8 7 C8 11.95 8 16.9 8 22 C11.05989583 22.16276042 14.11979167 22.32552083 17.1796875 22.48828125 C18.11039063 22.65714844 19.04109375 22.82601562 20 23 C22 26 22 26 21.625 28.1875 C21.315625 29.0846875 21.315625 29.0846875 21 30 C21 29.01 21 28.02 21 27 C16.1956792 24.5978396 11.26896105 24.38877771 6 24 C5.92652344 22.69675781 5.92652344 22.69675781 5.8515625 21.3671875 C5.77679688 20.21476562 5.70203125 19.06234375 5.625 17.875 C5.55539063 16.73804687 5.48578125 15.60109375 5.4140625 14.4296875 C5.00090506 11.00749661 4.34298029 8.17261546 3 5 C0.50965614 3.70339566 0.50965614 3.70339566 -2 3 C-2.33 2.34 -2.66 1.68 -3 1 C-2.01 0.67 -1.02 0.34 0 0 Z " fill="#F8EFB9" transform="translate(136,48)"/>
<path d="M0 0 C0.85021729 0.00410889 1.70043457 0.00821777 2.57641602 0.01245117 C3.96763672 0.01535156 3.96763672 0.01535156 5.38696289 0.01831055 C6.84392578 0.03667969 6.84392578 0.03667969 8.33032227 0.05541992 C9.29776367 0.05606445 10.26520508 0.05670898 11.26196289 0.05737305 C18.4712622 0.1023999 18.4712622 0.1023999 21.89282227 1.24291992 C25.19665719 4.9748574 27.22326081 8.71115791 27.20532227 13.74291992 C27.10219727 14.89791992 26.99907227 16.05291992 26.89282227 17.24291992 C26.56282227 17.24291992 26.23282227 17.24291992 25.89282227 17.24291992 C25.78325195 16.61643555 25.67368164 15.98995117 25.56079102 15.34448242 C25.40223633 14.5272168 25.24368164 13.70995117 25.08032227 12.86791992 C24.92950195 12.05581055 24.77868164 11.24370117 24.62329102 10.40698242 C24.01737285 7.88471351 24.01737285 7.88471351 20.89282227 6.24291992 C20.89282227 5.58291992 20.89282227 4.92291992 20.89282227 4.24291992 C20.23282227 4.24291992 19.57282227 4.24291992 18.89282227 4.24291992 C18.89282227 3.58291992 18.89282227 2.92291992 18.89282227 2.24291992 C11.30282227 2.24291992 3.71282227 2.24291992 -4.10717773 2.24291992 C-2.10717773 0.24291992 -2.10717773 0.24291992 0 0 Z " fill="#D1B553" transform="translate(32.107177734375,30.757080078125)"/>
<path d="M0 0 C4.74070266 0.8779079 8.00085053 2.58740937 10.8125 6.5625 C12.38678211 11.11963242 12.25465503 15.22757616 12 20 C11.67 20 11.34 20 11 20 C10.5978125 18.515 10.5978125 18.515 10.1875 17 C9.79357858 15.66610056 9.39759243 14.33280984 9 13 C8.80535156 12.28199219 8.61070312 11.56398438 8.41015625 10.82421875 C7.75894349 8.71644728 7.13208609 6.89568926 6 5 C2.95978632 3.40004618 2.95978632 3.40004618 0 3 C0 2.01 0 1.02 0 0 Z " fill="#DBBA40" transform="translate(130,49)"/>
<path d="M0 0 C10.8994709 -0.57142857 10.8994709 -0.57142857 15 3 C15.9702889 5.91086669 16.16467847 7.90223685 16.1875 10.9375 C16.20167969 11.79214844 16.21585938 12.64679688 16.23046875 13.52734375 C16 16 16 16 14 20 C14 14.72 14 9.44 14 4 C7.07 3.505 7.07 3.505 0 3 C0 2.01 0 1.02 0 0 Z " fill="#ECC84F" transform="translate(142,72)"/>
<path d="M0 0 C0.33 0 0.66 0 1 0 C1.39960692 5.19488998 0.58146072 10.42464984 -2 15 C-4.109375 15.76171875 -4.109375 15.76171875 -6 16 C-6 16.66 -6 17.32 -6 18 C-7.98 18.33 -9.96 18.66 -12 19 C-11.2575 18.443125 -10.515 17.88625 -9.75 17.3125 C-3.74786001 12.26524592 -1.90374896 7.42750543 0 0 Z " fill="#FEF4C3" transform="translate(146,130)"/>
<path d="M0 0 C1.10313617 3.3094085 0.89941114 4.19482294 0.00390625 7.44921875 C-0.33930664 8.72055664 -0.33930664 8.72055664 -0.68945312 10.01757812 C-0.93630859 10.89865234 -1.18316406 11.77972656 -1.4375 12.6875 C-1.68048828 13.58017578 -1.92347656 14.47285156 -2.17382812 15.39257812 C-2.77509306 17.59721622 -3.38406657 19.79942345 -4 22 C-4.89375847 18.81290941 -4.84656849 17.18499192 -4 14 C-3.97139183 11.14735687 -4.06461476 8.31189545 -4.16015625 5.4609375 C-4 3 -4 3 -2 1 C-1.67 1.33 -1.34 1.66 -1 2 C-0.67 1.34 -0.34 0.68 0 0 Z " fill="#ECC73B" transform="translate(149,114)"/>
<path d="M0 0 C0.99 0 1.98 0 3 0 C2.68289062 0.63292969 2.36578125 1.26585938 2.0390625 1.91796875 C0.64495753 6.05311469 0.53929479 9.97580212 0.375 14.3125 C0.33632813 15.14845703 0.29765625 15.98441406 0.2578125 16.84570312 C0.16404841 18.89679259 0.08095755 20.94836515 0 23 C-0.66 23 -1.32 23 -2 23 C-2.24923458 15.06603268 -1.70994772 7.7558343 0 0 Z " fill="#F5C92D" transform="translate(25,120)"/>
<path d="M0 0 C1.32 0 2.64 0 4 0 C2.375 7.75 2.375 7.75 -1 10 C-3.6875 9.625 -3.6875 9.625 -6 9 C-5.38125 8.443125 -4.7625 7.88625 -4.125 7.3125 C-1.93893621 4.93354822 -1.01214301 3.03642904 0 0 Z " fill="#FBCA1B" transform="translate(137,136)"/>
<path d="M0 0 C0.66 0.33 1.32 0.66 2 1 C1.6875 3.375 1.6875 3.375 1 6 C0.01 6.66 -0.98 7.32 -2 8 C-2.38411275 10.609621 -2.60293197 13.0058074 -2.6875 15.625 C-2.72166016 16.33140625 -2.75582031 17.0378125 -2.79101562 17.765625 C-2.87351308 19.50985688 -2.93843335 21.25490395 -3 23 C-3.33 23 -3.66 23 -4 23 C-4.08152344 20.45767658 -4.14073716 17.91800798 -4.1875 15.375 C-4.21263672 14.66214844 -4.23777344 13.94929688 -4.26367188 13.21484375 C-4.33019225 8.38103005 -3.58489047 5.23218843 -1 1 C-0.67 0.67 -0.34 0.34 0 0 Z " fill="#CFB544" transform="translate(26,33)"/>
<path d="M0 0 C1.65 0 3.3 0 5 0 C4.67 0.99 4.34 1.98 4 3 C5.32 3.33 6.64 3.66 8 4 C7.67 4.99 7.34 5.98 7 7 C6.67 6.01 6.34 5.02 6 4 C-1.26 3.67 -8.52 3.34 -16 3 C-16 2.67 -16 2.34 -16 2 C-10.72 2 -5.44 2 0 2 C0 1.34 0 0.68 0 0 Z " fill="#FCF7C6" transform="translate(48,28)"/>
<path d="M0 0 C1.32 0.33 2.64 0.66 4 1 C5.01593448 7.88577812 4.83854735 14.09811029 4 21 C3.67 21 3.34 21 3 21 C2.92652344 19.35451172 2.92652344 19.35451172 2.8515625 17.67578125 C2.77649409 16.22133075 2.70094803 14.76690484 2.625 13.3125 C2.5940625 12.59126953 2.563125 11.87003906 2.53125 11.12695312 C2.30664413 7.02789606 1.82259091 3.75631541 0 0 Z " fill="#F2CC30" transform="translate(152,75)"/>
<path d="M0 0 C0 1.65 0 3.3 0 5 C5.94 5 11.88 5 18 5 C18 5.33 18 5.66 18 6 C11.4 6 4.8 6 -2 6 C-2.33 4.35 -2.66 2.7 -3 1 C-1 0 -1 0 0 0 Z " fill="#E5BD42" transform="translate(46,67)"/>
<path d="M0 0 C1.63129887 4.06285757 0.29968777 7.20102184 -0.9375 11.25 C-1.31777344 12.51328125 -1.69804687 13.7765625 -2.08984375 15.078125 C-2.39019531 16.04234375 -2.69054687 17.0065625 -3 18 C-3.33 18 -3.66 18 -4 18 C-3.67 13.71 -3.34 9.42 -3 5 C-2.34 5 -1.68 5 -1 5 C-0.67 3.35 -0.34 1.7 0 0 Z " fill="#EAC749" transform="translate(154,96)"/>
<path d="M0 0 C0.91330404 3.03050885 1.06558338 5.47968569 0.75 8.625 C0.68296875 9.40101562 0.6159375 10.17703125 0.546875 10.9765625 C0 13 0 13 -3 15 C-2.35812082 9.86496656 -1.31727753 5.0056546 0 0 Z " fill="#FCF3B5" transform="translate(150,114)"/>
<path d="M0 0 C0.33 0 0.66 0 1 0 C1 2.31 1 4.62 1 7 C1.5775 7.2475 2.155 7.495 2.75 7.75 C5.3002997 9.16683317 7.01785701 10.87627537 9 13 C6.0625 12.1875 6.0625 12.1875 3 11 C2.67 10.01 2.34 9.02 2 8 C1.34 8 0.68 8 0 8 C0 5.36 0 2.72 0 0 Z " fill="#EBCC60" transform="translate(22,136)"/>
<path d="M0 0 C0.33 0 0.66 0 1 0 C1.33 4.29 1.66 8.58 2 13 C1.01 13.33 0.02 13.66 -1 14 C-0.67 9.38 -0.34 4.76 0 0 Z " fill="#FEF2C1" transform="translate(158,78)"/>
<path d="M0 0 C0.99 0.33 1.98 0.66 3 1 C2.74438677 3.3431213 2.40729228 5.67843403 2 8 C1.01 8.495 1.01 8.495 0 9 C0 6.03 0 3.06 0 0 Z " fill="#FACC1C" transform="translate(128,135)"/>
<path d="M0 0 C0.33 0 0.66 0 1 0 C1.02712066 1.43739513 1.04645067 2.87493863 1.0625 4.3125 C1.07410156 5.11300781 1.08570313 5.91351563 1.09765625 6.73828125 C1 9 1 9 0 12 C-0.66 12 -1.32 12 -2 12 C-1 3.42857143 -1 3.42857143 0 0 Z " fill="#FEF3CE" transform="translate(156,92)"/>
<path d="M0 0 C3.375 -0.1875 3.375 -0.1875 7 0 C9 3 9 3 8.625 5.1875 C8.41875 5.785625 8.2125 6.38375 8 7 C8 6.01 8 5.02 8 4 C7.236875 3.71125 6.47375 3.4225 5.6875 3.125 C3 2 3 2 0 0 Z " fill="#FDF7C3" transform="translate(149,71)"/>
<path d="M0 0 C0.99 0 1.98 0 3 0 C3 1.65 3 3.3 3 5 C1.68 5.33 0.36 5.66 -1 6 C-0.67 4.02 -0.34 2.04 0 0 Z " fill="#F5FDEC" transform="translate(151,128)"/>
<path d="M0 0 C0.99 0.495 0.99 0.495 2 1 C3.00496852 4.01490557 3.10335303 6.04181692 3.0625 9.1875 C3.05347656 10.08855469 3.04445312 10.98960938 3.03515625 11.91796875 C3.02355469 12.60503906 3.01195312 13.29210937 3 14 C2.67 14 2.34 14 2 14 C1.77213542 11.94921875 1.54427083 9.8984375 1.31640625 7.84765625 C1.18113386 5.98859771 1.18113386 5.98859771 0 5 C-0.04063832 3.33382885 -0.042721 1.66611905 0 0 Z " fill="#CFB54F" transform="translate(139,55)"/>
<path d="M0 0 C0.66 0.33 1.32 0.66 2 1 C1.67 2.65 1.34 4.3 1 6 C0.01 6 -0.98 6 -2 6 C-2.33 5.34 -2.66 4.68 -3 4 C-2.01 2.68 -1.02 1.36 0 0 Z " fill="#E1BE5D" transform="translate(26,33)"/>
<path d="M0 0 C1.67542976 0.28604898 3.34385343 0.61781233 5 1 C5.33 2.98 5.66 4.96 6 7 C5.34 6.67 4.68 6.34 4 6 C4 5.34 4 4.68 4 4 C3.34 4 2.68 4 2 4 C2 3.34 2 2.68 2 2 C1.01 1.67 0.02 1.34 -1 1 C-0.67 0.67 -0.34 0.34 0 0 Z " fill="#DEBD4E" transform="translate(49,31)"/>
</svg>
