<?xml version="1.0" encoding="UTF-8"?>
<svg version="1.1" xmlns="http://www.w3.org/2000/svg" width="503" height="294">
<path d="M0 0 C165.99 0 331.98 0 503 0 C503 97.02 503 194.04 503 294 C337.01 294 171.02 294 0 294 C0 196.98 0 99.96 0 0 Z " fill="#16A1C0" transform="translate(0,0)"/>
<path d="M0 0 C0 1.98 0 3.96 0 6 C33.33 6 66.66 6 101 6 C101 7.98 101 9.96 101 12 C67.67 12 34.34 12 0 12 C0 13.98 0 15.96 0 18 C-6.09624689 16.3523657 -11.66933194 13.34188389 -17 10 C-17.33 9.34 -17.66 8.68 -18 8 C-15.5664433 6.6589995 -13.12864699 5.32705144 -10.6875 4 C-9.99720703 3.6184375 -9.30691406 3.236875 -8.59570312 2.84375 C-3.33984375 0 -3.33984375 0 0 0 Z " fill="#FCFEFE" transform="translate(32,138)"/>
<path d="M0 0 C2.98380926 1.28112831 5.96115348 2.57663903 8.9375 3.875 C9.78763672 4.23980469 10.63777344 4.60460937 11.51367188 4.98046875 C12.32255859 5.33496094 13.13144531 5.68945312 13.96484375 6.0546875 C14.7137085 6.37937012 15.46257324 6.70405273 16.23413086 7.03857422 C18 8 18 8 19 10 C16.21128823 11.33957921 13.41856938 12.67058435 10.625 14 C9.8309375 14.3815625 9.036875 14.763125 8.21875 15.15625 C7.07792969 15.69765625 7.07792969 15.69765625 5.9140625 16.25 C5.2123291 16.58515625 4.5105957 16.9203125 3.78759766 17.265625 C2 18 2 18 0 18 C0 16.02 0 14.04 0 12 C-33.33 12 -66.66 12 -101 12 C-101 10.02 -101 8.04 -101 6 C-67.67 6 -34.34 6 0 6 C0 4.02 0 2.04 0 0 Z " fill="#FEFEFE" transform="translate(472,138)"/>
<path d="M0 0 C3.526875 -0.12375 3.526875 -0.12375 7.125 -0.25 C7.85348145 -0.28641602 8.58196289 -0.32283203 9.33251953 -0.36035156 C14.39696717 -0.4455145 17.17407083 0.75306901 21 4 C24.27854206 8.58045586 23.70904072 14.64280341 23 20 C20.99885655 24.17768593 18.12677239 25.93661381 14 28 C9.38 28 4.76 28 0 28 C0 18.76 0 9.52 0 0 Z " fill="#EFF7F9" transform="translate(220,133)"/>
<path d="M0 0 C1.32 0 2.64 0 4 0 C4 7.92 4 15.84 4 24 C7.96 24 11.92 24 16 24 C19.60189738 16.10353266 22.81059604 8.06919203 26 0 C27.98 0 29.96 0 32 0 C33.42842911 3.66452852 34.85247676 7.33072569 36.27246094 10.99853516 C36.99441847 12.86060415 37.71985238 14.72132407 38.4453125 16.58203125 C38.89648438 17.74863281 39.34765625 18.91523438 39.8125 20.1171875 C40.23144531 21.19597168 40.65039062 22.27475586 41.08203125 23.38623047 C42 26 42 26 42 28 C40.02 28 38.04 28 36 28 C35.34 25.69 34.68 23.38 34 21 C30.37 20.67 26.74 20.34 23 20 C22.7834375 21.7015625 22.7834375 21.7015625 22.5625 23.4375 C22 27 22 27 21 28 C19.43827255 28.08685603 17.87270656 28.10702219 16.30859375 28.09765625 C15.45837646 28.09515869 14.60815918 28.09266113 13.73217773 28.09008789 C12.64493408 28.08098389 11.55769043 28.07187988 10.4375 28.0625 C6.993125 28.041875 3.54875 28.02125 0 28 C0 18.76 0 9.52 0 0 Z " fill="#EEF6F9" transform="translate(145,133)"/>
<path d="M0 0 C7 0 7 0 8.89624023 1.8359375 C9.36231689 2.67382812 9.82839355 3.51171875 10.30859375 4.375 C10.82744141 5.27734375 11.34628906 6.1796875 11.88085938 7.109375 C12.39455078 8.06328125 12.90824219 9.0171875 13.4375 10 C13.97826172 10.95390625 14.51902344 11.9078125 15.07617188 12.890625 C16.40767148 15.24726147 17.70698044 17.62203299 19 20 C19.33 13.4 19.66 6.8 20 0 C21.32 0 22.64 0 24 0 C24 9.24 24 18.48 24 28 C18 28 18 28 16.21728516 26.25585938 C15.74597168 25.45986328 15.2746582 24.66386719 14.7890625 23.84375 C14.26699219 22.98652344 13.74492187 22.12929687 13.20703125 21.24609375 C12.68496094 20.33988281 12.16289062 19.43367188 11.625 18.5 C11.07972656 17.59378906 10.53445312 16.68757813 9.97265625 15.75390625 C8.62885515 13.51423775 7.31182488 11.2585464 6 9 C5.67 15.27 5.34 21.54 5 28 C3.35 28 1.7 28 0 28 C0 18.76 0 9.52 0 0 Z " fill="#EEF6F9" transform="translate(190,133)"/>
<path d="M0 0 C1.98 0 3.96 0 6 0 C7.42842911 3.66452852 8.85247676 7.33072569 10.27246094 10.99853516 C10.99441847 12.86060415 11.71985238 14.72132407 12.4453125 16.58203125 C12.89648438 17.74863281 13.34765625 18.91523438 13.8125 20.1171875 C14.23144531 21.19597168 14.65039062 22.27475586 15.08203125 23.38623047 C16 26 16 26 16 28 C14.02 28 12.04 28 10 28 C9.34 25.69 8.68 23.38 8 21 C4.37 20.67 0.74 20.34 -3 20 C-3.2165625 21.7015625 -3.2165625 21.7015625 -3.4375 23.4375 C-4 27 -4 27 -5 28 C-6.66617115 28.04063832 -8.33388095 28.042721 -10 28 C-7.46277869 18.38272302 -3.66846291 9.22643548 0 0 Z " fill="#EEF6F9" transform="translate(301,133)"/>
<path d="M0 0 C13 0 13 0 16.3125 2 C18.15447611 5.2746242 18.80364224 7.3426189 18.54296875 11.0625 C17.76649184 13.83323774 16.18126813 15.51268141 13.8671875 17.16796875 C10.52762975 18.65609804 7.6022129 18.31053559 4 18 C4 21.3 4 24.6 4 28 C2.68 28 1.36 28 0 28 C0 18.76 0 9.52 0 0 Z " fill="#FAFCFD" transform="translate(321,133)"/>
<path d="M0 0 C0.66 0.66 1.32 1.32 2 2 C1.625 4.125 1.625 4.125 1 6 C0.01 5.67 -0.98 5.34 -2 5 C-4.33299825 4.96045766 -6.66708189 4.95598268 -9 5 C-8.84254114 7.41823306 -8.84254114 7.41823306 -8 10 C-6.01986462 11.60330798 -6.01986462 11.60330798 -3.5625 12.6875 C-0.90319465 13.99794421 0.89048445 14.89048445 3 17 C3.60065303 20.86134088 3.28529173 22.54746829 1.1875 25.875 C-3.40189912 28.93459941 -7.62502477 28.60587482 -13 28 C-13.66 27.67 -14.32 27.34 -15 27 C-15 25.68 -15 24.36 -15 23 C-14.30132812 23.01160156 -13.60265625 23.02320313 -12.8828125 23.03515625 C-11.97273437 23.04417969 -11.06265625 23.05320313 -10.125 23.0625 C-8.76761719 23.07990234 -8.76761719 23.07990234 -7.3828125 23.09765625 C-4.9831415 23.16249257 -4.9831415 23.16249257 -3 22 C-3.16404034 20.07093296 -3.16404034 20.07093296 -4 18 C-6.00430763 16.54046749 -6.00430763 16.54046749 -8.4375 15.4375 C-11.78401546 13.79915776 -12.86446085 13.20330873 -15 10 C-15.4375 7.0625 -15.4375 7.0625 -15 4 C-11.11759478 -0.91771327 -5.82981966 -0.88737078 0 0 Z " fill="#EDF6F8" transform="translate(262,133)"/>
<path d="M0 0 C4.95 0 9.9 0 15 0 C15 1.32 15 2.64 15 4 C11.37 4 7.74 4 4 4 C4 6.31 4 8.62 4 11 C7.63 11 11.26 11 15 11 C15 12.32 15 13.64 15 15 C11.37 15 7.74 15 4 15 C4 17.97 4 20.94 4 24 C7.63 24 11.26 24 15 24 C15 25.32 15 26.64 15 28 C10.05 28 5.1 28 0 28 C0 18.76 0 9.52 0 0 Z " fill="#FEFEFE" transform="translate(344,133)"/>
<path d="M0 0 C0.79921875 0.00902344 1.5984375 0.01804688 2.421875 0.02734375 C3.02515625 0.03894531 3.6284375 0.05054688 4.25 0.0625 C4.91 1.3825 5.57 2.7025 6.25 4.0625 C5.59 4.7225 4.93 5.3825 4.25 6.0625 C2.2265625 5.86328125 2.2265625 5.86328125 -0.125 5.375 C-2.50620599 5.00004932 -2.50620599 5.00004932 -4.75 5.0625 C-7.51546291 6.91505481 -7.51546291 6.91505481 -8.75 10.0625 C-9.2401127 14.63688521 -8.75356948 17.93013795 -6.75 22.0625 C-5.5125 22.2275 -4.275 22.3925 -3 22.5625 C-2.30390625 22.6553125 -1.6078125 22.748125 -0.890625 22.84375 C1.55458395 23.13027357 1.55458395 23.13027357 5.25 23.0625 C4.92 24.7125 4.59 26.3625 4.25 28.0625 C-6.4979691 28.92310251 -6.4979691 28.92310251 -10.3125 25.8125 C-14.48437379 21.10577059 -15.18766681 17.72817483 -15.078125 11.5390625 C-14.47459983 6.98388445 -11.89136215 4.20386215 -8.75 1.0625 C-5.80049953 0.06042612 -3.09837394 -0.04556432 0 0 Z " fill="#F0F7F9" transform="translate(283.75,132.9375)"/>
<path d="M0 0 C8.07692308 0 8.07692308 0 12 3 C13.86524588 6.73049176 13.54848015 10.93742029 13 15 C11 18.125 11 18.125 8 20 C5.36 20 2.72 20 0 20 C0 13.4 0 6.8 0 0 Z " fill="#20A4C2" transform="translate(225,137)"/>
<path d="M0 0 C1.32 0 2.64 0 4 0 C4 7.92 4 15.84 4 24 C7.96 24 11.92 24 16 24 C16 25.32 16 26.64 16 28 C10.72 28 5.44 28 0 28 C0 18.76 0 9.52 0 0 Z " fill="#FFFFFF" transform="translate(145,133)"/>
<path d="M0 0 C5.625 -0.25 5.625 -0.25 9 2 C9.3125 5 9.3125 5 9 8 C7 10 7 10 3.375 10.125 C2.26125 10.08375 1.1475 10.0425 0 10 C0 6.7 0 3.4 0 0 Z " fill="#26A5C3" transform="translate(325,137)"/>
<path d="M0 0 C0.66 0 1.32 0 2 0 C2.99 2.97 3.98 5.94 5 9 C2.36 9 -0.28 9 -3 9 C-2.01 6.03 -1.02 3.06 0 0 Z " fill="#2AA7C4" transform="translate(303,140)"/>
<path d="M0 0 C0.66 0 1.32 0 2 0 C2.99 2.97 3.98 5.94 5 9 C2.36 9 -0.28 9 -3 9 C-2.01 6.03 -1.02 3.06 0 0 Z " fill="#2AA7C4" transform="translate(173,140)"/>
</svg>
