<?xml version="1.0" encoding="UTF-8"?>
<svg version="1.1" xmlns="http://www.w3.org/2000/svg" width="337" height="180">
<path d="M0 0 C111.21 0 222.42 0 337 0 C337 59.4 337 118.8 337 180 C225.79 180 114.58 180 0 180 C0 120.6 0 61.2 0 0 Z " fill="#F9F9F9" transform="translate(0,0)"/>
<path d="M0 0 C111.21 0 222.42 0 337 0 C337 59.4 337 118.8 337 180 C225.79 180 114.58 180 0 180 C0 120.6 0 61.2 0 0 Z M38 17 C36.35 20.3 34.7 23.6 33 27 C31 31 31 31 28.8125 32.0625 C27.884375 32.371875 26.95625 32.68125 26 33 C23.69 33.99 21.38 34.98 19 36 C19 71.31 19 106.62 19 143 C24.94 145.97 24.94 145.97 31 149 C34.80837987 153.85381748 35.79152355 155.95761773 37 162 C123.79 162 210.58 162 300 162 C301.485 157.545 301.485 157.545 303 153 C306.9524325 148.05945937 312.0150101 144.99499663 318 143 C318 107.69 318 72.38 318 36 C311.62947154 32.68742806 311.62947154 32.68742806 305 30 C304 27.9375 304 27.9375 303 25 C302.01 22.36 301.02 19.72 300 17 C213.54 17 127.08 17 38 17 Z " fill="#D8D8D8" transform="translate(0,0)"/>
<path d="M0 0 C14.70419588 11.32676154 23.46682567 27.60242381 25.8515625 45.8984375 C27.54651317 64.42989817 21.99173242 80.92710966 10.6015625 95.5859375 C-0.09165821 108.11789233 -14.71445466 116.68239924 -31.1484375 118.8984375 C-51.47190603 120.22010206 -68.33504321 116.19261543 -84.1484375 102.8984375 C-84.97601563 102.27195312 -85.80359375 101.64546875 -86.65625 101 C-97.54664559 91.81656296 -105.04355701 75.95976733 -106.44995117 61.87988281 C-106.58453779 58.75428898 -106.61692724 55.65171941 -106.5859375 52.5234375 C-106.57618896 51.4214502 -106.56644043 50.31946289 -106.55639648 49.18408203 C-106.16862955 31.40989748 -98.67469739 16.34108265 -85.93457031 3.97998047 C-61.20116186 -18.56743342 -27.03993325 -18.0489877 0 0 Z " fill="#F9F9F9" transform="translate(209.1484375,37.1015625)"/>
<path d="M0 0 C111.21 0 222.42 0 337 0 C337 59.4 337 118.8 337 180 C225.79 180 114.58 180 0 180 C0 120.6 0 61.2 0 0 Z M6 7 C5.903063 9.15159726 5.87813217 11.30644111 5.87974548 13.46022034 C5.87888947 14.14137405 5.87803345 14.82252777 5.87715149 15.52432251 C5.87548663 17.83077551 5.8810355 20.13715707 5.88647461 22.44360352 C5.88678071 24.11578081 5.88664786 25.78795823 5.88610935 27.46013546 C5.88588281 31.95397195 5.891695 36.44778201 5.89871979 40.94161224 C5.90439832 45.15244127 5.90468201 49.36326375 5.90539551 53.57409668 C5.91065098 65.90356798 5.92461202 78.23303432 5.9375 90.5625 C5.958125 118.096875 5.97875 145.63125 6 174 C113.25 174 220.5 174 331 174 C331 118.56 331 63.12 331 6 C273.43847729 5.97087922 273.43847729 5.97087922 215.87695312 5.95117188 C208.12703448 5.94921386 200.37711586 5.94719334 192.62719727 5.94506836 C191.65580608 5.94480461 190.68441489 5.94454086 189.68358761 5.94426912 C173.97979001 5.93991406 158.27599604 5.93202709 142.5722006 5.9228472 C126.46838929 5.91351166 110.36457988 5.9079446 94.26076597 5.90591151 C84.31550404 5.90453607 74.37025239 5.90018438 64.42499363 5.89208353 C57.61482427 5.8868173 50.80466027 5.88519542 43.99448902 5.88649862 C40.05926526 5.8871422 36.12405955 5.88612233 32.18883896 5.88079453 C28.59217168 5.87596034 24.99553473 5.87566147 21.39886611 5.87910111 C19.46896575 5.87972971 17.53906579 5.87538815 15.6091705 5.87091869 C14.47855928 5.87290974 13.34794807 5.87490079 12.1830759 5.87695217 C11.19922053 5.87657245 10.21536515 5.87619273 9.20169598 5.8758015 C7.02455673 5.75339008 7.02455673 5.75339008 6 7 Z " fill="#010101" transform="translate(0,0)"/>
<path d="M0 0 C90.75 0 181.5 0 275 0 C275.66 3.3 276.32 6.6 277 10 C278.69289378 13.61500342 278.69289378 13.61500342 282 16 C285.96 16.99 289.92 17.98 294 19 C294 58.27 294 97.54 294 138 C289.05 138.99 289.05 138.99 284 140 C280.14807215 141.00665925 280.14807215 141.00665925 277.8125 144 C276.65349203 148.27941404 275.86949773 152.65251133 275 157 C184.25 157 93.5 157 0 157 C-0.33 154.03 -0.66 151.06 -1 148 C-2.7466847 143.37642286 -5.51298667 141.86992266 -9.76953125 139.796875 C-12.565308 138.72381605 -12.565308 138.72381605 -18 138 C-18 98.73 -18 59.46 -18 19 C-12.555 17.515 -12.555 17.515 -7 16 C-3.7698823 14.1866503 -3.7698823 14.1866503 -2 11 C-1.34 7.37 -0.68 3.74 0 0 Z M7 6 C5.35 9.3 3.7 12.6 2 16 C0 20 0 20 -2.1875 21.0625 C-3.115625 21.371875 -4.04375 21.68125 -5 22 C-7.31 22.99 -9.62 23.98 -12 25 C-12 60.31 -12 95.62 -12 132 C-6.06 134.97 -6.06 134.97 0 138 C3.80837987 142.85381748 4.79152355 144.95761773 6 151 C92.79 151 179.58 151 269 151 C270.485 146.545 270.485 146.545 272 142 C275.9524325 137.05945937 281.0150101 133.99499663 287 132 C287 96.69 287 61.38 287 25 C280.62947154 21.68742806 280.62947154 21.68742806 274 19 C273 16.9375 273 16.9375 272 14 C271.01 11.36 270.02 8.72 269 6 C182.54 6 96.08 6 7 6 Z " fill="#050505" transform="translate(31,11)"/>
<path d="M0 0 C1.98 0 3.96 0 6 0 C6 55.44 6 110.88 6 168 C64.22363209 168.02912376 64.22363209 168.02912376 122.44726562 168.04882812 C130.28881838 168.0507861 138.13037112 168.05280662 145.97192383 168.05493164 C146.95478326 168.05519539 147.93764269 168.05545914 148.95028573 168.05573088 C164.83376422 168.06008442 180.71723909 168.06797057 196.60071544 168.0771528 C212.89211847 168.08649254 229.18351962 168.09205629 245.47492522 168.09408849 C255.53380632 168.09546305 265.59267724 168.09981003 275.6515552 168.10791647 C282.54210041 168.11318788 289.43264031 168.11480339 296.32318739 168.11350138 C300.30321474 168.11285862 304.28322424 168.11386853 308.26324844 168.11920547 C311.9031968 168.12405095 315.5431152 168.12433102 319.1830649 168.12089889 C321.13136988 168.12027243 323.07967449 168.12460389 325.02797443 168.12908131 C326.75076477 168.12609474 326.75076477 168.12609474 328.50835896 168.12304783 C330.00122943 168.12361741 330.00122943 168.12361741 331.52425891 168.1241985 C334.13444303 168.1042404 334.13444303 168.1042404 337 167 C337 169.31 337 171.62 337 174 C225.79 174 114.58 174 0 174 C0 116.58 0 59.16 0 0 Z " fill="#010101" transform="translate(0,6)"/>
<path d="M0 0 C14.70419588 11.32676154 23.46682567 27.60242381 25.8515625 45.8984375 C27.54651317 64.42989817 21.99173242 80.92710966 10.6015625 95.5859375 C-0.09165821 108.11789233 -14.71445466 116.68239924 -31.1484375 118.8984375 C-51.47190603 120.22010206 -68.33504321 116.19261543 -84.1484375 102.8984375 C-84.97601563 102.27195312 -85.80359375 101.64546875 -86.65625 101 C-97.54664559 91.81656296 -105.04355701 75.95976733 -106.44995117 61.87988281 C-106.58453779 58.75428898 -106.61692724 55.65171941 -106.5859375 52.5234375 C-106.57618896 51.4214502 -106.56644043 50.31946289 -106.55639648 49.18408203 C-106.16862955 31.40989748 -98.67469739 16.34108265 -85.93457031 3.97998047 C-61.20116186 -18.56743342 -27.03993325 -18.0489877 0 0 Z M-88.1484375 15.8984375 C-90.43704566 19.10741066 -92.35990134 22.38885711 -94.1484375 25.8984375 C-94.53773437 26.6615625 -94.92703125 27.4246875 -95.328125 28.2109375 C-101.91477784 42.0573318 -102.19665496 58.23949311 -97.40234375 72.72265625 C-93.60718967 82.334682 -88.43087261 89.59017815 -81.1484375 96.8984375 C-80.33632812 97.74535156 -80.33632812 97.74535156 -79.5078125 98.609375 C-69.94280367 107.7396107 -55.51702079 112.86236727 -42.5234375 113.3359375 C-29.81676412 113.01513235 -17.80154425 109.93551467 -7.1484375 102.8984375 C-6.44589844 102.45886719 -5.74335938 102.01929688 -5.01953125 101.56640625 C7.06992908 93.35692927 15.28681978 79.48278599 18.37890625 65.35546875 C20.63836491 48.82967611 19.0717986 32.64601172 8.8515625 18.8984375 C6.00223589 15.40437275 3.01101483 12.11371054 -0.1484375 8.8984375 C-0.99535156 8.0321875 -0.99535156 8.0321875 -1.859375 7.1484375 C-12.4224512 -2.74478509 -26.78195031 -6.6909002 -40.8984375 -6.6015625 C-42.47951294 -6.59298218 -42.47951294 -6.59298218 -44.0925293 -6.58422852 C-62.03656187 -6.17468593 -76.58570239 2.3239084 -88.1484375 15.8984375 Z " fill="#0E0E0E" transform="translate(209.1484375,37.1015625)"/>
<path d="M0 0 C0.99 0.33 1.98 0.66 3 1 C3 1.66 3 2.32 3 3 C3.66 3 4.32 3 5 3 C5 41.94 5 80.88 5 121 C7.31 121 9.62 121 12 121 C16.35741026 122.26194164 19.40076385 124.33930373 22.4375 127.6875 C23.86644566 130.7168648 24.29364118 132.46321994 24.59765625 135.70703125 C24.67636963 136.51245361 24.75508301 137.31787598 24.83618164 138.14770508 C24.8902417 138.7589624 24.94430176 139.37021973 25 140 C25.57478431 140.00135653 26.14956861 140.00271306 26.74177063 140.00411069 C60.77836589 140.08469177 94.81491651 140.17561785 128.85144686 140.28005161 C132.93465575 140.29257107 137.0178649 140.30500376 141.10107422 140.31738281 C141.91399682 140.31984881 142.72691941 140.3223148 143.56447603 140.32485552 C156.74189457 140.36462197 169.91932173 140.39735207 183.09676538 140.42749982 C196.6094893 140.45857057 210.12217652 140.49716106 223.6348592 140.54279006 C231.97861269 140.5707261 240.3223392 140.59273684 248.66612698 140.60726251 C254.38117524 140.61777265 260.09617139 140.63556083 265.81118046 140.65916704 C269.11263233 140.672586 272.41399635 140.68162962 275.71547699 140.68421364 C279.28819411 140.68751233 282.86065385 140.70292438 286.43331909 140.7215271 C287.48583135 140.71959237 288.5383436 140.71765763 289.62275016 140.71566427 C290.57421586 140.72312976 291.52568155 140.73059525 292.50597954 140.73828697 C293.33149154 140.74056529 294.15700353 140.74284362 295.00753105 140.74519098 C297 141 297 141 299 143 C302.12196336 143.46486718 302.12196336 143.46486718 305.625 143.625 C307.40777344 143.73714844 307.40777344 143.73714844 309.2265625 143.8515625 C310.59941406 143.92503906 310.59941406 143.92503906 312 144 C312 144.33 312 144.66 312 145 C209.04 145 106.08 145 0 145 C0 97.15 0 49.3 0 0 Z " fill="#FBFBFB" transform="translate(7,28)"/>
<path d="M0 0 C14.19 0 28.38 0 43 0 C43 3.3 43 6.6 43 10 C39.7 10.33 36.4 10.66 33 11 C35.23407889 14.35111834 36.26215824 15.81553956 40.25 16.8125 C41.61125 16.9053125 41.61125 16.9053125 43 17 C43 20.3 43 23.6 43 27 C41.68 27 40.36 27 39 27 C38.9175 27.86625 38.835 28.7325 38.75 29.625 C37.42117109 35.60473008 33.83476353 39.76786621 29.21484375 43.609375 C24.86592885 46.33991063 19.91406654 47.62825729 15 49 C15.36351562 49.42410156 15.72703125 49.84820312 16.1015625 50.28515625 C16.60429687 50.87167969 17.10703125 51.45820312 17.625 52.0625 C18.45064453 53.0215625 18.45064453 53.0215625 19.29296875 54 C20.36943945 55.26121968 21.43602314 56.53100981 22.48828125 57.8125 C25.49433348 61.44244986 28.64334576 64.46641995 32.2734375 67.46484375 C34.62755466 69.55798412 36.5804532 71.90262024 38.58203125 74.328125 C39.91123436 75.89533969 41.35940971 77.35940971 42.8125 78.8125 C45 81 45 81 46 83 C42.375 87.875 42.375 87.875 39 89 C33.12687072 83.17313814 27.25910753 77.34094818 21.39818573 71.50181007 C18.67678134 68.79085886 15.9535412 66.08180582 13.22607422 63.37695312 C10.59575215 60.76830485 7.97029488 58.15485194 5.34819031 55.53794479 C4.34515903 54.53861912 3.34036439 53.54106023 2.33381653 52.54527664 C0.92822458 51.1541265 -0.4706337 49.75618259 -1.86914062 48.35791016 C-2.66856079 47.56293121 -3.46798096 46.76795227 -4.29162598 45.94888306 C-6 44 -6 44 -6 42 C-5.27409668 41.86948242 -4.54819336 41.73896484 -3.80029297 41.60449219 C-0.48905156 41.00071801 2.81781296 40.37558516 6.125 39.75 C7.26710937 39.54503906 8.40921875 39.34007812 9.5859375 39.12890625 C15.67971663 37.95975095 20.11375684 36.84976734 25 33 C25.66 33 26.32 33 27 33 C27.66 31.02 28.32 29.04 29 27 C19.43 27 9.86 27 0 27 C0 24.03 0 21.06 0 18 C8.25 18 16.5 18 25 18 C25 17.34 25 16.68 25 16 C18.89678124 13.48690992 13.19073136 11.74217207 6.625 10.875 C5.37976563 10.70742188 4.13453125 10.53984375 2.8515625 10.3671875 C1.91054687 10.24601562 0.96953125 10.12484375 0 10 C0 6.7 0 3.4 0 0 Z " fill="#070707" transform="translate(149,48)"/>
<path d="M0 0 C90.42 0 180.84 0 274 0 C274.33 3.63 274.66 7.26 275 11 C274.01 10.01 273.02 9.02 272 8 C269.83700789 8.22757731 269.83700789 8.22757731 268 9 C268 8.01 268 7.02 268 6 C180.88 6 93.76 6 4 6 C4 6.66 4 7.32 4 8 C3.01 8 2.02 8 1 8 C0 6 0 6 0 0 Z " fill="#000000" transform="translate(32,11)"/>
<path d="M0 0 C2.39155252 1.68294436 4.31674732 3.34242953 6.3125 5.5 C11.07209243 9.92752784 15.65192635 10.94198773 22 12 C22 51.27 22 90.54 22 131 C17.05 131.99 17.05 131.99 12 133 C8.14807215 134.00665925 8.14807215 134.00665925 5.8125 137 C4.65349203 141.27941404 3.86949773 145.65251133 3 150 C-17.79 150 -38.58 150 -60 150 C-59.67 148.35 -59.34 146.7 -59 145 C-60.32 144.67 -61.64 144.34 -63 144 C-43.2 144 -23.4 144 -3 144 C-2.67 141.69 -2.34 139.38 -2 137 C0.56135945 132.07430875 4.0233867 128.46863624 9 126 C10.98 125.67 12.96 125.34 15 125 C15 89.69 15 54.38 15 18 C12.03 17.01 9.06 16.02 6 15 C1.76130414 11.60904331 -0.49893901 7.72422631 -3 3 C-2.01 2.67 -1.02 2.34 0 2 C0 1.34 0 0.68 0 0 Z " fill="#030303" transform="translate(303,18)"/>
<path d="M0 0 C6.24632453 3.50088985 9.86121043 6.99769378 12.1484375 13.859375 C12.80950703 21.17448862 12.91683457 27.92859858 8.1484375 33.859375 C1.57378005 39.90488497 -3.6691936 41.27623367 -12.546875 41.20703125 C-18.63694346 40.56635029 -22.12163682 37.6803494 -26.2265625 33.359375 C-30.3174432 27.06571238 -30.49998178 21.20147634 -29.8515625 13.859375 C-28.6015625 10.421875 -28.6015625 10.421875 -26.8515625 7.859375 C-26.2946875 6.993125 -25.7378125 6.126875 -25.1640625 5.234375 C-18.44786781 -1.66333847 -9.03577704 -3.61431082 0 0 Z " fill="#0B0B0B" transform="translate(278.8515625,70.140625)"/>
<path d="M0 0 C5.59819104 2.27387892 10.30411891 5.73289584 13.16015625 11.15234375 C15.04870378 17.10930485 15.1402449 24.14514515 12.94140625 30.01171875 C9.56707514 35.70323293 5.16612482 39.33640819 -1.10546875 41.46875 C-7.50967643 42.331493 -13.45819915 42.45182773 -19.10546875 39.03125 C-24.39937813 34.84876911 -27.44242625 30.24809223 -28.61328125 23.57421875 C-29.06560283 15.91425112 -27.14471353 10.27650706 -22.10546875 4.46875 C-19.80063752 2.66974095 -17.81317922 1.66639117 -15.10546875 0.46875 C-10.78038831 -1.69379022 -4.60661662 -1.1623374 0 0 Z " fill="#0A0A0A" transform="translate(74.10546875,69.53125)"/>
<path d="M0 0 C4.18754364 -0.0270552 8.37491112 -0.04686633 12.5625 -0.0625 C13.74392578 -0.07087891 14.92535156 -0.07925781 16.14257812 -0.08789062 C21.86863072 -0.10392999 27.36394482 -0.0510705 33 1 C33 1.33 33 1.66 33 2 C120.78 2.33 208.56 2.66 299 3 C299 3.33 299 3.66 299 4 C208.25 4 117.5 4 24 4 C24 6.64 24 9.28 24 12 C22.09870058 16.54199306 19.06800461 19.28799693 15 22 C12.03 22.33 9.06 22.66 6 23 C6 62.27 6 101.54 6 142 C5.67 142 5.34 142 5 142 C5 103.06 5 64.12 5 24 C4.34 24 3.68 24 3 24 C3 23.34 3 22.68 3 22 C2.01 21.67 1.02 21.34 0 21 C0 14.07 0 7.14 0 0 Z " fill="#E4E4E4" transform="translate(7,7)"/>
<path d="M0 0 C0 7.59 0 15.18 0 23 C-12.79310345 23 -12.79310345 23 -18.625 22.625 C-19.81351562 22.55539063 -21.00203125 22.48578125 -22.2265625 22.4140625 C-23.14179688 22.27742188 -24.05703125 22.14078125 -25 22 C-25.33 21.34 -25.66 20.68 -26 20 C-115.76 19.67 -205.52 19.34 -298 19 C-298 18.67 -298 18.34 -298 18 C-207.58 18 -117.16 18 -24 18 C-24 15.36 -24 12.72 -24 10 C-23.02010028 6.41562998 -21.22432896 3.87641769 -18.19921875 1.7109375 C-11.82377102 -1.73056632 -6.88091559 -2.75236624 0 0 Z " fill="#F3F3F3" transform="translate(330,150)"/>
<path d="M0 0 C4.53329998 2.56554889 7.21654748 4.97003024 8.8203125 10.08203125 C9.58513692 16.00942048 8.74217636 19.48432537 5.296875 24.3828125 C2.52017187 27.57822484 -0.19583875 28.80015346 -4.3515625 29.390625 C-8.36121289 29.61263584 -10.81558161 29.25377931 -14.4921875 27.51953125 C-18.73504345 23.67135957 -21.3402331 19.92064688 -21.6796875 14.08203125 C-21.41728286 9.71426372 -20.02742261 6.40018868 -17.1796875 3.08203125 C-12.16118225 -1.22498971 -6.19468658 -2.60887338 0 0 Z " fill="#F5F5F5" transform="translate(276.1796875,75.91796875)"/>
<path d="M0 0 C3.84293144 1.7943099 6.775231 3.41319698 8.875 7.2421875 C10.52964036 12.20610857 10.44424557 16.53445079 8.8125 21.4296875 C5.9077935 25.64619694 2.81016082 28.6458209 -2.3359375 29.69140625 C-6.94188934 29.91934585 -10.74674782 29.19758231 -14.61328125 26.62890625 C-18.11966707 23.41245414 -19.88117135 19.68888192 -20.3515625 14.96875 C-20.11601359 9.65984003 -18.34865279 6.51880738 -14.79296875 2.65234375 C-10.33206731 -1.11905067 -5.61403099 -2.00206252 0 0 Z " fill="#F6F6F6" transform="translate(72.125,75.7578125)"/>
<path d="M0 0 C2.39155252 1.68294436 4.31674732 3.34242953 6.3125 5.5 C11.07209243 9.92752784 15.65192635 10.94198773 22 12 C22 51.27 22 90.54 22 131 C21.67 131 21.34 131 21 131 C20.98969254 130.17536758 20.97938507 129.35073517 20.96876526 128.50111389 C20.8709612 120.74594316 20.76847166 112.99085547 20.66066074 105.23581791 C20.60539527 101.24846784 20.55196963 97.26111048 20.50268555 93.27368164 C20.45509524 89.42868399 20.40275464 85.58377818 20.34705925 81.73888969 C20.32661143 80.26883658 20.30790244 78.79875826 20.29092598 77.32866096 C20.26693536 75.27638724 20.2368741 73.22428853 20.20532227 71.17211914 C20.18200584 69.41672569 20.18200584 69.41672569 20.15821838 67.62586975 C20.29584674 65.0747474 20.29584674 65.0747474 19 64 C17.02598957 67.31245282 16.73200131 69.85590107 16.68115234 73.68652344 C16.66128265 74.82740417 16.64141296 75.96828491 16.62094116 77.14373779 C16.60938995 78.36989807 16.59783875 79.59605835 16.5859375 80.859375 C16.56657135 82.11888977 16.5472052 83.37840454 16.5272522 84.67608643 C16.47761586 88.0166095 16.43633723 91.35702325 16.39910889 94.69769287 C16.35902661 98.10976048 16.30795361 101.52166176 16.2578125 104.93359375 C16.16174963 111.62228881 16.07670325 118.31105644 16 125 C15.67 125 15.34 125 15 125 C15 89.69 15 54.38 15 18 C12.03 17.01 9.06 16.02 6 15 C1.76130414 11.60904331 -0.49893901 7.72422631 -3 3 C-2.01 2.67 -1.02 2.34 0 2 C0 1.34 0 0.68 0 0 Z " fill="#222222" transform="translate(303,18)"/>
<path d="M0 0 C14.19 0 28.38 0 43 0 C43 2.97 43 5.94 43 9 C41.55367187 9.07347656 41.55367187 9.07347656 40.078125 9.1484375 C38.81484375 9.22320312 37.5515625 9.29796875 36.25 9.375 C34.37054688 9.47941406 34.37054688 9.47941406 32.453125 9.5859375 C29.37509249 9.95502285 27.49909581 10.21666464 25 12 C24.67 12.99 24.34 13.98 24 15 C23.44054687 14.80664062 22.88109375 14.61328125 22.3046875 14.4140625 C14.97259328 12.03290007 7.63838598 10.93553719 0 10 C0 6.7 0 3.4 0 0 Z " fill="#030303" transform="translate(149,48)"/>
<path d="M0 0 C22.77 0 45.54 0 69 0 C69.495 2.97 69.495 2.97 70 6 C46.24 6 22.48 6 -2 6 C-1.34 4.02 -0.68 2.04 0 0 Z " fill="#010101" transform="translate(58,162)"/>
<path d="M0 0 C0 22.77 0 45.54 0 69 C-0.99 69 -1.98 69 -3 69 C-3.66 67.35 -4.32 65.7 -5 64 C-5.33 64 -5.66 64 -6 64 C-6.06943237 55.9507788 -6.12277646 47.90168218 -6.15543652 39.85223579 C-6.17110972 36.11476204 -6.19237761 32.37749277 -6.22631836 28.64013672 C-6.25885367 25.0350836 -6.27684054 21.43022748 -6.28463173 17.82503891 C-6.29018581 16.44786349 -6.30103135 15.07069915 -6.31719017 13.69360733 C-6.33888435 11.76866369 -6.34022471 9.84352288 -6.34057617 7.91845703 C-6.34723801 6.82147491 -6.35389984 5.7244928 -6.36076355 4.5942688 C-6.24171158 3.7381601 -6.12265961 2.88205139 -6 2 C-3 0 -3 0 0 0 Z " fill="#000000" transform="translate(337,13)"/>
<path d="M0 0 C19.14 0 38.28 0 58 0 C58 1.65 58 3.3 58 5 C55.47883049 6.26058475 53.66979798 6.16598627 50.84765625 6.22119141 C49.77314209 6.24436432 48.69862793 6.26753723 47.59155273 6.29141235 C46.42696533 6.3112619 45.26237793 6.33111145 44.0625 6.3515625 C42.27598022 6.38629166 42.27598022 6.38629166 40.45336914 6.42172241 C37.93152181 6.46940457 35.4096271 6.51463336 32.88769531 6.55761719 C29.01609729 6.624721 25.14481336 6.70246341 21.2734375 6.78125 C18.82813672 6.82616328 16.38282442 6.87045507 13.9375 6.9140625 C12.7729126 6.93796051 11.6083252 6.96185852 10.40844727 6.98648071 C8.79667603 7.0117836 8.79667603 7.0117836 7.15234375 7.03759766 C5.7290979 7.06305161 5.7290979 7.06305161 4.27709961 7.08901978 C2 7 2 7 0 6 C0 4.02 0 2.04 0 0 Z " fill="#040404" transform="translate(0,0)"/>
<path d="M0 0 C6.95409859 2.82462283 10.7198106 6.87509941 13.89453125 13.46875 C12.89453125 15.46875 12.89453125 15.46875 9.89453125 17.46875 C8.90453125 17.13875 7.91453125 16.80875 6.89453125 16.46875 C6.50265625 15.540625 6.11078125 14.6125 5.70703125 13.65625 C3.26510191 9.36182254 0.50964858 7.98441584 -4.10546875 6.46875 C-8.49669393 5.86306377 -10.44346186 6.11228475 -14.35546875 8.21875 C-16.78655566 10.20782111 -18.41822748 11.85352603 -20.10546875 14.46875 C-21.09546875 15.95375 -21.09546875 15.95375 -22.10546875 17.46875 C-22.10546875 16.47875 -22.10546875 15.48875 -22.10546875 14.46875 C-22.76546875 14.46875 -23.42546875 14.46875 -24.10546875 14.46875 C-24.20859375 15.108125 -24.31171875 15.7475 -24.41796875 16.40625 C-24.64484375 17.086875 -24.87171875 17.7675 -25.10546875 18.46875 C-26.09546875 18.79875 -27.08546875 19.12875 -28.10546875 19.46875 C-27.72999293 13.46113689 -26.05014348 9.08592653 -22.10546875 4.46875 C-19.83026569 2.76601739 -17.70183711 1.69345206 -15.10546875 0.46875 C-10.78038831 -1.69379022 -4.60661662 -1.1623374 0 0 Z " fill="#090909" transform="translate(74.10546875,69.53125)"/>
<path d="M0 0 C7.2698908 0.36349454 7.2698908 0.36349454 10.4375 3.125 C12 6 12 6 13 13 C19.93 13 26.86 13 34 13 C33 18 33 18 32 19 C30.14630389 19.08737645 28.28932459 19.10698153 26.43359375 19.09765625 C25.30888672 19.09443359 24.18417969 19.09121094 23.02539062 19.08789062 C21.84138672 19.07951172 20.65738281 19.07113281 19.4375 19.0625 C18.24962891 19.05798828 17.06175781 19.05347656 15.83789062 19.04882812 C12.89187774 19.03699675 9.94596319 19.02051287 7 19 C6.94448975 18.38511719 6.88897949 17.77023438 6.83178711 17.13671875 C6.71202515 15.92435547 6.71202515 15.92435547 6.58984375 14.6875 C6.47564087 13.48673828 6.47564087 13.48673828 6.35913086 12.26171875 C5.89117912 9.31467258 4.82785713 7.33965713 3 5 C2.34 4.67 1.68 4.34 1 4 C0.375 1.9375 0.375 1.9375 0 0 Z " fill="#070707" transform="translate(24,149)"/>
<path d="M0 0 C0.94875 0.845625 1.8975 1.69125 2.875 2.5625 C10.98551488 9.45399961 19.00374665 14.27287461 29 18 C28.67 18.99 28.34 19.98 28 21 C28.66 21 29.32 21 30 21 C30.495 22.485 30.495 22.485 31 24 C24.69474244 25.80795916 20.52867906 22.95635787 15 20 C8.93046283 16.46278628 3.24520498 12.67815579 -2 8 C-1.67 7.236875 -1.34 6.47375 -1 5.6875 C0.17436686 3.00930865 0.17436686 3.00930865 0 0 Z " fill="#0D0D0D" transform="translate(123,129)"/>
<path d="M0 0 C8.25 0 16.5 0 25 0 C25 4.29 25 8.58 25 13 C23.02 13.66 21.04 14.32 19 15 C19 12.03 19 9.06 19 6 C18.28714844 6.01160156 17.57429688 6.02320313 16.83984375 6.03515625 C11.43674634 6.08606026 6.32171525 5.94608271 1 5 C0.67 3.35 0.34 1.7 0 0 Z " fill="#050505" transform="translate(312,0)"/>
<path d="M0 0 C9.07448253 -0.11157151 17.96278689 0.05757182 27 1 C27 2.32 27 3.64 27 5 C24.39048764 6.30475618 22.47298715 6.11301572 19.5546875 6.09765625 C17.94013672 6.09282227 17.94013672 6.09282227 16.29296875 6.08789062 C15.16503906 6.07951172 14.03710938 6.07113281 12.875 6.0625 C11.73933594 6.05798828 10.60367188 6.05347656 9.43359375 6.04882812 C6.62234362 6.03701615 3.8111977 6.02054507 1 6 C0.67 4.02 0.34 2.04 0 0 Z " fill="#0E0E0E" transform="translate(127,162)"/>
<path d="M0 0 C-0.125 1.75 -0.125 1.75 -1 4 C-6.074729 8.39377495 -10.1977028 8.56448805 -16.75 8.375 C-17.61238281 8.37371094 -18.47476563 8.37242187 -19.36328125 8.37109375 C-25.71841518 8.28158482 -25.71841518 8.28158482 -28 6 C-27.67 5.67 -27.34 5.34 -27 5 C-27.99 4.34 -28.98 3.68 -30 3 C-29.09290283 2.92483154 -29.09290283 2.92483154 -28.16748047 2.84814453 C-25.40261836 2.61469552 -22.63886633 2.36994583 -19.875 2.125 C-18.92367187 2.04636719 -17.97234375 1.96773437 -16.9921875 1.88671875 C-11.55186034 1.3955781 -4.94729343 -1.64909781 0 0 Z " fill="#F2F2F2" transform="translate(193,153)"/>
<path d="M0 0 C2.58340384 -0.02703562 5.16652308 -0.04685611 7.75 -0.0625 C8.47960937 -0.07087891 9.20921875 -0.07925781 9.9609375 -0.08789062 C13.48670558 -0.10391684 16.61034916 0.04707287 20 1 C19.67 2.65 19.34 4.3 19 6 C14.38 6 9.76 6 5 6 C5 5.67 5 5.34 5 5 C3.96939453 5.03480469 3.96939453 5.03480469 2.91796875 5.0703125 C1.56638672 5.09738281 1.56638672 5.09738281 0.1875 5.125 C-0.70582031 5.14820313 -1.59914062 5.17140625 -2.51953125 5.1953125 C-5 5 -5 5 -8 3 C-8 2.34 -8 1.68 -8 1 C-5.61435923 1.57584432 -3.33317216 2.22227595 -1 3 C-0.67 2.01 -0.34 1.02 0 0 Z " fill="#040404" transform="translate(224,162)"/>
<path d="M0 0 C2 2 2 2 2 5 C2.66 5.33 3.32 5.66 4 6 C3.071875 6.5775 2.14375 7.155 1.1875 7.75 C-1.64412331 9.74879292 -3.16025957 11.14840233 -5 14 C-5.99 15.485 -5.99 15.485 -7 17 C-7 16.01 -7 15.02 -7 14 C-7.66 14 -8.32 14 -9 14 C-9.103125 14.639375 -9.20625 15.27875 -9.3125 15.9375 C-9.539375 16.618125 -9.76625 17.29875 -10 18 C-10.99 18.33 -11.98 18.66 -13 19 C-12.62483821 12.99741141 -10.94915766 8.60901691 -7 4 C-4.72234877 2.31651865 -2.58190529 1.21501425 0 0 Z " fill="#161616" transform="translate(59,70)"/>
<path d="M0 0 C1.73828125 2.6171875 1.73828125 2.6171875 3.3125 5.875 C4.11107422 7.47988281 4.11107422 7.47988281 4.92578125 9.1171875 C6 12 6 12 5 15 C3.35 15 1.7 15 0 15 C-1.17176518 12.87767021 -2.33754785 10.75242209 -3.5 8.625 C-3.83386719 8.02171875 -4.16773438 7.4184375 -4.51171875 6.796875 C-7 2.2265625 -7 2.2265625 -7 0 C-2.93988627 -1.35337124 -2.93988627 -1.35337124 0 0 Z " fill="#0B0B0B" transform="translate(225,55)"/>
<path d="M0 0 C0.66 0 1.32 0 2 0 C2.12117188 0.81984375 2.24234375 1.6396875 2.3671875 2.484375 C2.53476562 3.56203125 2.70234375 4.6396875 2.875 5.75 C3.03742187 6.81734375 3.19984375 7.8846875 3.3671875 8.984375 C3.93223882 11.67708871 4.63422914 13.63572439 6 16 C4.35 17.32 2.7 18.64 1 20 C-3.10083191 14.78075939 -4.26060773 11.77580101 -4 5 C-3.01 4.67 -2.02 4.34 -1 4 C-0.26676204 1.98491642 -0.26676204 1.98491642 0 0 Z " fill="#101010" transform="translate(50,84)"/>
<path d="M0 0 C5.61 0 11.22 0 17 0 C17 1.65 17 3.3 17 5 C15.24440058 6.75559942 12.96417558 6.13221919 10.62890625 6.13671875 C9.92636719 6.13285156 9.22382813 6.12898437 8.5 6.125 C7.79746094 6.12886719 7.09492188 6.13273438 6.37109375 6.13671875 C1.12661378 6.12661378 1.12661378 6.12661378 0 5 C0 3.35 0 1.7 0 0 Z " fill="#040404" transform="translate(138,0)"/>
<path d="M0 0 C2.93515973 1.35215224 5.45838192 3.01214228 8 5 C7.67 5.66 7.34 6.32 7 7 C1.22240116 7.12036664 -4.27959989 6.8320582 -10 6 C-10 5.34 -10 4.68 -10 4 C-10.99 4 -11.98 4 -13 4 C-13 3.34 -13 2.68 -13 2 C-8.73419218 -0.84387188 -5.0088175 -0.75980589 0 0 Z " fill="#050505" transform="translate(276,69)"/>
<path d="M0 0 C1.4540625 0.0309375 1.4540625 0.0309375 2.9375 0.0625 C4.77042414 6.47016041 4.98309253 11.47526707 3.9375 18.0625 C3.6075 18.0625 3.2775 18.0625 2.9375 18.0625 C2.6075 16.4125 2.2775 14.7625 1.9375 13.0625 C1.2775 13.0625 0.6175 13.0625 -0.0625 13.0625 C-0.0625 17.0225 -0.0625 20.9825 -0.0625 25.0625 C-0.3925 25.0625 -0.7225 25.0625 -1.0625 25.0625 C-1.13597656 23.72058594 -1.13597656 23.72058594 -1.2109375 22.3515625 C-1.62185096 15.70610007 -2.2136937 9.33865248 -3.7578125 2.85546875 C-3.85835937 2.26378906 -3.95890625 1.67210938 -4.0625 1.0625 C-3.0625 0.0625 -3.0625 0.0625 0 0 Z " fill="#151515" transform="translate(229.0625,68.9375)"/>
<path d="M0 0 C7.2698908 0.36349454 7.2698908 0.36349454 10.4375 3.125 C12.25104774 6.46192784 12.7047026 9.23495814 13 13 C12.01 13.33 11.02 13.66 10 14 C9.34 13.67 8.68 13.34 8 13 C8 14.98 8 16.96 8 19 C7.67 19 7.34 19 7 19 C6.96261719 18.40832031 6.92523437 17.81664062 6.88671875 17.20703125 C6.48945103 12.43202901 6.04332 8.8954496 3 5 C2.34 4.67 1.68 4.34 1 4 C0.375 1.9375 0.375 1.9375 0 0 Z " fill="#0A0A0A" transform="translate(24,149)"/>
<path d="M0 0 C4.4008703 3.82180842 5.80805531 6.47371099 7 12 C4.69 12 2.38 12 0 12 C-0.5878125 10.6078125 -0.5878125 10.6078125 -1.1875 9.1875 C-3.14739849 5.74078196 -4.59760503 4.83913242 -8 3 C-8 2.34 -8 1.68 -8 1 C-6.865625 1.020625 -5.73125 1.04125 -4.5625 1.0625 C-1.18424326 1.41577477 -1.18424326 1.41577477 0 0 Z " fill="#1C1C1C" transform="translate(284,74)"/>
<path d="M0 0 C7.59 0 15.18 0 23 0 C23 1.65 23 3.3 23 5 C23.99 5.33 24.98 5.66 26 6 C20.72 6 15.44 6 10 6 C10.66 5.67 11.32 5.34 12 5 C12 3.68 12 2.36 12 1 C8.04 1 4.08 1 0 1 C0 0.67 0 0.34 0 0 Z " fill="#020202" transform="translate(142,162)"/>
<path d="M0 0 C5.61 0 11.22 0 17 0 C17 0.66 17 1.32 17 2 C16.34 2 15.68 2 15 2 C15 2.66 15 3.32 15 4 C16.65 4 18.3 4 20 4 C20 4.33 20 4.66 20 5 C13.73 5 7.46 5 1 5 C0.67 3.35 0.34 1.7 0 0 Z " fill="#161616" transform="translate(29,0)"/>
<path d="M0 0 C5.61 0 11.22 0 17 0 C16.34 1.65 15.68 3.3 15 5 C10.05 5 5.1 5 0 5 C0 3.35 0 1.7 0 0 Z " fill="#171717" transform="translate(216,0)"/>
<path d="M0 0 C0.66 0.33 1.32 0.66 2 1 C2 1.66 2 2.32 2 3 C2.99 3 3.98 3 5 3 C4.34 4.32 3.68 5.64 3 7 C2.34 7 1.68 7 1 7 C0.71125 7.78375 0.4225 8.5675 0.125 9.375 C-1 12 -1 12 -3 14 C-3.33 12.68 -3.66 11.36 -4 10 C-4.99 10.66 -5.98 11.32 -7 12 C-7.33 11.01 -7.66 10.02 -8 9 C-5.84140076 5.16249025 -3.71404629 2.38760119 0 0 Z " fill="#121212" transform="translate(309,146)"/>
<path d="M0 0 C0.66 0 1.32 0 2 0 C2.33 0.66 2.66 1.32 3 2 C3.66 1.67 4.32 1.34 5 1 C4.67684438 6.17048998 1.69708438 10.51071428 -2 14 C-3.32 14 -4.64 14 -6 14 C-6.33 13.01 -6.66 12.02 -7 11 C-6.0409375 10.7215625 -6.0409375 10.7215625 -5.0625 10.4375 C-4.381875 9.963125 -3.70125 9.48875 -3 9 C-2.58565749 6.67968195 -2.25110098 4.34360915 -2 2 C-1.34 1.34 -0.68 0.68 0 0 Z " fill="#080808" transform="translate(221,119)"/>
<path d="M0 0 C5.61 0 11.22 0 17 0 C16.67 0.99 16.34 1.98 16 3 C13.61435923 2.42415568 11.33317216 1.77772405 9 1 C10.14510759 2.6068338 10.14510759 2.6068338 12 4 C14.74243563 4.36270484 14.74243563 4.36270484 17.6875 4.1875 C19.17830078 4.14689453 19.17830078 4.14689453 20.69921875 4.10546875 C21.45847656 4.07066406 22.21773437 4.03585938 23 4 C22.67 4.66 22.34 5.32 22 6 C16.39 6 10.78 6 5 6 C5.33 5.01 5.66 4.02 6 3 C4.35 3 2.7 3 1 3 C0.67 2.01 0.34 1.02 0 0 Z " fill="#030303" transform="translate(207,162)"/>
<path d="M0 0 C0.93423645 3.01031744 1.04449911 3.86650268 0 7 C1.32 7.66 2.64 8.32 4 9 C4 9.99 4 10.98 4 12 C1.03 13.32 -1.94 14.64 -5 16 C-5.33 15.01 -5.66 14.02 -6 13 C-6.33 12.34 -6.66 11.68 -7 11 C-6.34 10.67 -5.68 10.34 -5 10 C-4.690625 9.071875 -4.38125 8.14375 -4.0625 7.1875 C-3.06421596 4.19264787 -2.01527957 2.38169403 0 0 Z " fill="#F1F1F1" transform="translate(195,130)"/>
<path d="M0 0 C5.28 0 10.56 0 16 0 C15.67 0.66 15.34 1.32 15 2 C13.68 2 12.36 2 11 2 C11 2.66 11 3.32 11 4 C13.31 4 15.62 4 18 4 C18 4.33 18 4.66 18 5 C12.06 5 6.12 5 0 5 C0 3.35 0 1.7 0 0 Z " fill="#101010" transform="translate(197,0)"/>
<path d="M0 0 C2.94180214 2.02882906 4.97117094 4.05819786 7 7 C6.34 7 5.68 7 5 7 C5.495 7.94875 5.99 8.8975 6.5 9.875 C8 13 8 13 8 15 C3.12987206 12.91280231 0.33213042 10.0887538 -1.75 5.25 C-2.1625 4.1775 -2.575 3.105 -3 2 C-2.01 2 -1.02 2 0 2 C0 1.34 0 0.68 0 0 Z " fill="#101010" transform="translate(303,18)"/>
<path d="M0 0 C5.61 0 11.22 0 17 0 C17 0.33 17 0.66 17 1 C15.02 1 13.04 1 11 1 C11 1.99 11 2.98 11 4 C12.98 4 14.96 4 17 4 C17 4.33 17 4.66 17 5 C11.39 5 5.78 5 0 5 C0 3.35 0 1.7 0 0 Z " fill="#060606" transform="translate(10,0)"/>
<path d="M0 0 C0.66 0.99 1.32 1.98 2 3 C2.804375 3.61875 2.804375 3.61875 3.625 4.25 C5.7797799 6.99244715 5.19024345 9.63903234 5 13 C4.34 13 3.68 13 3 13 C3 13.66 3 14.32 3 15 C1.68 15 0.36 15 -1 15 C-1.02685412 12.68756208 -1.04632841 10.3750373 -1.0625 8.0625 C-1.07410156 6.77472656 -1.08570313 5.48695312 -1.09765625 4.16015625 C-1 1 -1 1 0 0 Z " fill="#111111" transform="translate(332,76)"/>
<path d="M0 0 C0.66 0.33 1.32 0.66 2 1 C1.01 1.33 0.02 1.66 -1 2 C-1 2.66 -1 3.32 -1 4 C-0.01 4 0.98 4 2 4 C2 4.99 2 5.98 2 7 C-1.33303391 9.49977543 -2.73303602 10 -7 10 C-8.75 8 -8.75 8 -10 6 C-8.89932004 5.18278283 -7.79430269 4.37140549 -6.6875 3.5625 C-6.07261719 3.11003906 -5.45773437 2.65757813 -4.82421875 2.19140625 C-3 1 -3 1 0 0 Z " fill="#111111" transform="translate(264,69)"/>
<path d="M0 0 C0 3.63 0 7.26 0 11 C-1.65 11.66 -3.3 12.32 -5 13 C-5.33 12.67 -5.66 12.34 -6 12 C-5.91015699 10.14227838 -5.75388139 8.28752015 -5.5625 6.4375 C-5.46066406 5.42558594 -5.35882813 4.41367188 -5.25390625 3.37109375 C-5.17011719 2.58863281 -5.08632813 1.80617187 -5 1 C-2 0 -2 0 0 0 Z " fill="#151515" transform="translate(337,162)"/>
<path d="M0 0 C6.27 0 12.54 0 19 0 C15 4 15 4 12.34375 4.4609375 C11.4053125 4.43257812 10.466875 4.40421875 9.5 4.375 C8.09234375 4.35566406 8.09234375 4.35566406 6.65625 4.3359375 C3.99883128 3.99985219 2.29038014 3.35045999 0 2 C0 1.34 0 0.68 0 0 Z " fill="#131313" transform="translate(132,11)"/>
<path d="M0 0 C0.33 0 0.66 0 1 0 C1.33 2.64 1.66 5.28 2 8 C2.99 8 3.98 8 5 8 C5 7.34 5 6.68 5 6 C5.66 6.33 6.32 6.66 7 7 C5.68 9.97 4.36 12.94 3 16 C2.2575 15.62875 1.515 15.2575 0.75 14.875 C-1.94283647 13.70484137 -1.94283647 13.70484137 -4.3125 14.875 C-5.1478125 15.431875 -5.1478125 15.431875 -6 16 C-5.38125 15.401875 -4.7625 14.80375 -4.125 14.1875 C-1.15265454 9.72898181 -0.69782102 5.24283948 0 0 Z " fill="#191919" transform="translate(31,11)"/>
<path d="M0 0 C-0.33 0.99 -0.66 1.98 -1 3 C-0.34 3 0.32 3 1 3 C1.33 3.99 1.66 4.98 2 6 C-2.15226856 7.18956883 -4.38725993 6.78960563 -8.3125 5.0625 C-9.19550781 4.68222656 -10.07851562 4.30195313 -10.98828125 3.91015625 C-11.65214844 3.60980469 -12.31601563 3.30945313 -13 3 C-11.68 2.67 -10.36 2.34 -9 2 C-9 1.34 -9 0.68 -9 0 C-5.67465243 -1.10844919 -3.37817425 -0.84454356 0 0 Z " fill="#1D1D1D" transform="translate(152,147)"/>
<path d="M0 0 C0.66 0.33 1.32 0.66 2 1 C1.6875 2.875 1.6875 2.875 1 5 C0.01 5.66 -0.98 6.32 -2 7 C-1.01 8.32 -0.02 9.64 1 11 C-0.65 12.32 -2.3 13.64 -4 15 C-4 14.34 -4 13.68 -4 13 C-4.66 13 -5.32 13 -6 13 C-6.71484375 10.76953125 -6.71484375 10.76953125 -7 8 C-5.56640625 5.76171875 -5.56640625 5.76171875 -3.5625 3.6875 C-2.57443359 2.64142578 -2.57443359 2.64142578 -1.56640625 1.57421875 C-1.04949219 1.05472656 -0.53257812 0.53523438 0 0 Z " fill="#141414" transform="translate(217,124)"/>
<path d="M0 0 C1.32 0 2.64 0 4 0 C4 3.63 4 7.26 4 11 C2.35 11.33 0.7 11.66 -1 12 C-1.14285714 3.42857143 -1.14285714 3.42857143 0 0 Z " fill="#191919" transform="translate(333,2)"/>
<path d="M0 0 C1.65 0 3.3 0 5 0 C5 4.29 5 8.58 5 13 C4.01 13 3.02 13 2 13 C-0.28571429 4.57142857 -0.28571429 4.57142857 0 0 Z " fill="#181818" transform="translate(332,147)"/>
<path d="M0 0 C3.2626876 3.08632611 6.02235218 5.93483504 8 10 C7 12 7 12 4 14 C3.01 13.67 2.02 13.34 1 13 C0.1875 11.1875 0.1875 11.1875 0 9 C0.350625 8.360625 0.70125 7.72125 1.0625 7.0625 C2.31351705 4.92195681 2.31351705 4.92195681 1.125 2.25 C0.75375 1.5075 0.3825 0.765 0 0 Z " fill="#1C1C1C" transform="translate(80,73)"/>
<path d="M0 0 C3.29148243 1.13499394 3.9959869 1.99283376 5.75 5.125 C6.1625 6.07375 6.575 7.0225 7 8 C6.01 8.99 5.02 9.98 4 11 C3.21625 10.360625 2.4325 9.72125 1.625 9.0625 C-0.79539281 7.01857687 -0.79539281 7.01857687 -3 6 C-2 4 -1 2 0 0 Z " fill="#151515" transform="translate(76,71)"/>
<path d="M0 0 C0.99 0.33 1.98 0.66 3 1 C1.59023295 4.03852705 -0.08870228 6.5939595 -2.125 9.25 C-2.66382812 9.95640625 -3.20265625 10.6628125 -3.7578125 11.390625 C-4.16773437 11.92171875 -4.57765625 12.4528125 -5 13 C-7.2477975 10.94766315 -8.0022242 9.99332739 -9 7 C-6.03 5.35 -3.06 3.7 0 2 C0 1.34 0 0.68 0 0 Z " fill="#070707" transform="translate(122,47)"/>
<path d="M0 0 C3.3 0 6.6 0 10 0 C10 1.65 10 3.3 10 5 C6.37 5 2.74 5 -1 5 C-0.67 3.35 -0.34 1.7 0 0 Z " fill="#181818" transform="translate(126,0)"/>
<path d="M0 0 C1.32 0.66 2.64 1.32 4 2 C4 2.66 4 3.32 4 4 C3.01 4.495 3.01 4.495 2 5 C1.67 5.99 1.34 6.98 1 8 C-1.0625 8.6875 -1.0625 8.6875 -3 9 C-3.75 7.3125 -3.75 7.3125 -4 5 C-2.0625 2.25 -2.0625 2.25 0 0 Z M-6 7 C-5.34 7.33 -4.68 7.66 -4 8 C-5.8125 10 -5.8125 10 -8 12 C-8.99 12 -9.98 12 -11 12 C-11 11.34 -11 10.68 -11 10 C-8.625 8.3125 -8.625 8.3125 -6 7 Z " fill="#E7E7E7" transform="translate(35,24)"/>
<path d="M0 0 C3.3 0 6.6 0 10 0 C10 1.65 10 3.3 10 5 C7.03 5 4.06 5 1 5 C0.67 3.35 0.34 1.7 0 0 Z " fill="#181818" transform="translate(312,0)"/>
<path d="M0 0 C1.17539996 0.92652701 2.34010577 1.86663387 3.5 2.8125 C4.1496875 3.33457031 4.799375 3.85664063 5.46875 4.39453125 C7 6 7 6 7 9 C4.36 9 1.72 9 -1 9 C-1.33 8.34 -1.66 7.68 -2 7 C-1.3507041 5.65812182 -0.68268138 4.32520503 0 3 C0 2.01 0 1.02 0 0 Z " fill="#1B1B1B" transform="translate(123,129)"/>
<path d="M0 0 C6.75 -0.125 6.75 -0.125 9 1 C9 2.65 9 4.3 9 6 C7.375 6.8125 7.375 6.8125 5 7 C2.75390165 5.53181864 0.97621323 3.84147142 -1 2 C-0.67 1.34 -0.34 0.68 0 0 Z " fill="#0A0A0A" transform="translate(125,137)"/>
<path d="M0 0 C1.32 0.66 2.64 1.32 4 2 C2.9802693 5.77300358 2.34127338 6.80206144 -1.125 8.8125 C-2.07375 9.204375 -3.0225 9.59625 -4 10 C-4.33 9.01 -4.66 8.02 -5 7 C-4.34 6.34 -3.68 5.68 -3 5 C-2.67 5 -2.34 5 -2 5 C-1.7834375 4.0409375 -1.7834375 4.0409375 -1.5625 3.0625 C-1 1 -1 1 0 0 Z " fill="#0D0D0D" transform="translate(29,24)"/>
<path d="M0 0 C0 0.66 0 1.32 0 2 C1.65 2 3.3 2 5 2 C5 2.33 5 2.66 5 3 C-0.28 3 -5.56 3 -11 3 C-11 2.01 -11 1.02 -11 0 C-6.98195309 -0.84098656 -3.98196457 -1.05404945 0 0 Z " fill="#141414" transform="translate(208,163)"/>
<path d="M0 0 C0.78055939 2.34167817 1.51671752 4.5835876 2 7 C1.67 7.33 1.34 7.66 1 8 C1 8.66 1 9.32 1 10 C-1.64 10.99 -4.28 11.98 -7 13 C-5.35821735 8.22390502 -2.73453298 4.20617096 0 0 Z " fill="#EBEBEB" transform="translate(229,117)"/>
<path d="M0 0 C0.99 0.99 1.98 1.98 3 3 C3 2.34 3 1.68 3 1 C3.99 1 4.98 1 6 1 C6 1.66 6 2.32 6 3 C7.65 3 9.3 3 11 3 C11 3.33 11 3.66 11 4 C8.39634072 4.22171552 5.79303507 4.42784859 3.1875 4.625 C2.44951172 4.68945312 1.71152344 4.75390625 0.95117188 4.8203125 C-4.66015625 5.2265625 -4.66015625 5.2265625 -8 3 C-8 2.34 -8 1.68 -8 1 C-5.61435923 1.57584432 -3.33317216 2.22227595 -1 3 C-0.67 2.01 -0.34 1.02 0 0 Z " fill="#161616" transform="translate(224,162)"/>
<path d="M0 0 C4.62 0.66 9.24 1.32 14 2 C14 2.33 14 2.66 14 3 C12.98679688 3.19916016 12.98679688 3.19916016 11.953125 3.40234375 C10.61507812 3.66724609 10.61507812 3.66724609 9.25 3.9375 C8.36828125 4.11152344 7.4865625 4.28554687 6.578125 4.46484375 C4.36764947 4.92368488 2.18487932 5.43336074 0 6 C0 4.02 0 2.04 0 0 Z " fill="#EAEAEA" transform="translate(146,153)"/>
<path d="M0 0 C1.4540625 0.0309375 1.4540625 0.0309375 2.9375 0.0625 C2.9375 1.7125 2.9375 3.3625 2.9375 5.0625 C1.9475 5.3925 0.9575 5.7225 -0.0625 6.0625 C-0.7225 5.7325 -1.3825 5.4025 -2.0625 5.0625 C-2.0625 7.0425 -2.0625 9.0225 -2.0625 11.0625 C-2.3925 11.0625 -2.7225 11.0625 -3.0625 11.0625 C-3.25656478 9.41742782 -3.44257935 7.77140406 -3.625 6.125 C-3.72941406 5.20847656 -3.83382813 4.29195312 -3.94140625 3.34765625 C-3.98136719 2.59355469 -4.02132813 1.83945313 -4.0625 1.0625 C-3.0625 0.0625 -3.0625 0.0625 0 0 Z " fill="#222222" transform="translate(34.0625,156.9375)"/>
<path d="M0 0 C0.66 0.66 1.32 1.32 2 2 C1.9765625 4.1640625 1.9765625 4.1640625 1.625 6.625 C1.51414063 7.44226563 1.40328125 8.25953125 1.2890625 9.1015625 C1.19367188 9.72804688 1.09828125 10.35453125 1 11 C0.67 11 0.34 11 0 11 C-0.33 9.35 -0.66 7.7 -1 6 C-1.66 6 -2.32 6 -3 6 C-3 9.96 -3 13.92 -3 18 C-3.33 18 -3.66 18 -4 18 C-4.33 12.72 -4.66 7.44 -5 2 C-3.68 2.33 -2.36 2.66 -1 3 C-0.67 2.01 -0.34 1.02 0 0 Z " fill="#232323" transform="translate(232,76)"/>
<path d="M0 0 C2.31 0 4.62 0 7 0 C7 0.99 7 1.98 7 3 C7.66 3.33 8.32 3.66 9 4 C9.625 6.5625 9.625 6.5625 10 9 C9.01 9 8.02 9 7 9 C6.6596875 8.1028125 6.6596875 8.1028125 6.3125 7.1875 C4.66692986 4.4448831 2.72964203 3.58031907 0 2 C0 1.34 0 0.68 0 0 Z " fill="#121212" transform="translate(276,75)"/>
<path d="M0 0 C3.3 0 6.6 0 10 0 C10 0.66 10 1.32 10 2 C8.02 2 6.04 2 4 2 C4 2.66 4 3.32 4 4 C5.98 4 7.96 4 10 4 C10 4.33 10 4.66 10 5 C6.7 5 3.4 5 0 5 C0 3.35 0 1.7 0 0 Z " fill="#171717" transform="translate(173,0)"/>
<path d="M0 0 C0 0.99 0 1.98 0 3 C-0.99 3 -1.98 3 -3 3 C-3 4.98 -3 6.96 -3 9 C-1.68 9 -0.36 9 1 9 C1 9.66 1 10.32 1 11 C-0.98 11 -2.96 11 -5 11 C-5 7.7 -5 4.4 -5 1 C-3 0 -3 0 0 0 Z " fill="#131313" transform="translate(5,156)"/>
<path d="M0 0 C0.33 0.66 0.66 1.32 1 2 C1.33 1.34 1.66 0.68 2 0 C6.95 0 11.9 0 17 0 C17 0.33 17 0.66 17 1 C13.7 1.33 10.4 1.66 7 2 C7.33 2.66 7.66 3.32 8 4 C6.02 4.99 6.02 4.99 4 6 C3.67 5.34 3.34 4.68 3 4 C0.47266765 3.34444881 0.47266765 3.34444881 -2 3 C-1.34 2.67 -0.68 2.34 0 2 C0 1.34 0 0.68 0 0 Z " fill="#202020" transform="translate(175,57)"/>
<path d="M0 0 C0.99 0.33 1.98 0.66 3 1 C3 4.96 3 8.92 3 13 C2.67 13 2.34 13 2 13 C2 11.35 2 9.7 2 8 C0.68 8 -0.64 8 -2 8 C-2 5.69 -2 3.38 -2 1 C-1.34 0.67 -0.68 0.34 0 0 Z " fill="#030303" transform="translate(231,81)"/>
<path d="M0 0 C1.32 0 2.64 0 4 0 C4 1.65 4 3.3 4 5 C1.03 5 -1.94 5 -5 5 C-5 4.01 -5 3.02 -5 2 C-3.35 2 -1.7 2 0 2 C0 1.34 0 0.68 0 0 Z " fill="#161616" transform="translate(151,0)"/>
<path d="M0 0 C2.31 0 4.62 0 7 0 C6.67 1.65 6.34 3.3 6 5 C4.02 5 2.04 5 0 5 C0 3.35 0 1.7 0 0 Z " fill="#131313" transform="translate(164,0)"/>
<path d="M0 0 C2 2 2 2 2 5 C2.66 5.33 3.32 5.66 4 6 C1 7 1 7 -2 6 C-2 5.34 -2 4.68 -2 4 C-2.99 3.67 -3.98 3.34 -5 3 C-3.35 2.01 -1.7 1.02 0 0 Z M-7 4 C-5 5 -5 5 -5 5 Z " fill="#212121" transform="translate(59,70)"/>
<path d="M0 0 C0.66 0 1.32 0 2 0 C2 3.63 2 7.26 2 11 C1.67 11 1.34 11 1 11 C0.67 9.35 0.34 7.7 0 6 C-1.98 6.99 -1.98 6.99 -4 8 C-3.67 6.68 -3.34 5.36 -3 4 C-2.34 4 -1.68 4 -1 4 C-0.67 2.68 -0.34 1.36 0 0 Z " fill="#050505" transform="translate(50,84)"/>
<path d="M0 0 C1.98 0 3.96 0 6 0 C6 1.65 6 3.3 6 5 C4.02 5 2.04 5 0 5 C0 3.35 0 1.7 0 0 Z " fill="#131313" transform="translate(52,0)"/>
<path d="M0 0 C2.97 0.33 5.94 0.66 9 1 C9 1.99 9 2.98 9 4 C6.03 4 3.06 4 0 4 C0 2.68 0 1.36 0 0 Z " fill="#191919" transform="translate(127,162)"/>
<path d="M0 0 C1.32 0.66 2.64 1.32 4 2 C3.67 2.99 3.34 3.98 3 5 C-0.93670488 6.31223496 -3.12488144 5.24296256 -7 4 C-4 2 -4 2 0 2 C0 1.34 0 0.68 0 0 Z " fill="#161616" transform="translate(143,144)"/>
<path d="M0 0 C2.8125 -0.25 2.8125 -0.25 6 0 C7.875 2 7.875 2 9 4 C8.67 4.66 8.34 5.32 8 6 C5.0280615 4.87548273 2.66559313 3.77706209 0 2 C0 1.34 0 0.68 0 0 Z " fill="#EEEEEE" transform="translate(132,136)"/>
<path d="M0 0 C1.98 0 3.96 0 6 0 C5.67 1.65 5.34 3.3 5 5 C3.35 5 1.7 5 0 5 C0 3.35 0 1.7 0 0 Z " fill="#151515" transform="translate(239,0)"/>
<path d="M0 0 C1.65 0 3.3 0 5 0 C5.33 1.65 5.66 3.3 6 5 C4.02 5 2.04 5 0 5 C0 3.35 0 1.7 0 0 Z " fill="#171717" transform="translate(138,0)"/>
<path d="M0 0 C0 0.66 0 1.32 0 2 C1.98 2 3.96 2 6 2 C6 2.33 6 2.66 6 3 C0.39 3 -5.22 3 -11 3 C-6.9903514 0.32690093 -4.82843714 0 0 0 Z " fill="#1A1A1A" transform="translate(44,163)"/>
<path d="M0 0 C2.97 0 5.94 0 9 0 C9 0.66 9 1.32 9 2 C7.02 2 5.04 2 3 2 C3 2.66 3 3.32 3 4 C3.66 4.33 4.32 4.66 5 5 C3.68 5 2.36 5 1 5 C0.67 3.35 0.34 1.7 0 0 Z " fill="#1B1B1B" transform="translate(29,0)"/>
<path d="M0 0 C0.66 0.33 1.32 0.66 2 1 C2 1.66 2 2.32 2 3 C3.45833358 4.62514468 3.45833358 4.62514468 5 6 C3.02 6.99 1.04 7.98 -1 9 C-1 8.01 -1 7.02 -1 6 C-1.0309375 4.700625 -1.0309375 4.700625 -1.0625 3.375 C-1 1 -1 1 0 0 Z " fill="#131313" transform="translate(134,33)"/>
<path d="M0 0 C1.8125 1.4375 1.8125 1.4375 3 3 C0.525 4.485 0.525 4.485 -2 6 C-3.5 4.625 -3.5 4.625 -5 3 C-5 2.34 -5 1.68 -5 1 C-2.6875 0.3125 -2.6875 0.3125 0 0 Z " fill="#F1F1F1" transform="translate(213,34)"/>
<path d="M0 0 C1.65 0 3.3 0 5 0 C4 2 4 2 2 4 C-0.75372909 4.36933645 -3.20365661 4.18336678 -6 4 C-6 3.34 -6 2.68 -6 2 C-4.02 2 -2.04 2 0 2 C0 1.34 0 0.68 0 0 Z " fill="#050505" transform="translate(38,0)"/>
<path d="M0 0 C0.99 0 1.98 0 3 0 C3 0.66 3 1.32 3 2 C3.66 2 4.32 2 5 2 C4.67 4.31 4.34 6.62 4 9 C0 3 0 3 0 0 Z " fill="#EDEDED" transform="translate(287,75)"/>
<path d="M0 0 C1.65 0 3.3 0 5 0 C5 1.65 5 3.3 5 5 C3.35 5 1.7 5 0 5 C0 3.35 0 1.7 0 0 Z " fill="#181818" transform="translate(325,0)"/>
<path d="M0 0 C1.32 0 2.64 0 4 0 C3.67 1.32 3.34 2.64 3 4 C0.36 4 -2.28 4 -5 4 C-5.33 3.34 -5.66 2.68 -6 2 C-4.02 2 -2.04 2 0 2 C0 1.34 0 0.68 0 0 Z " fill="#040404" transform="translate(225,0)"/>
<path d="M0 0 C2.97 0 5.94 0 9 0 C9 0.33 9 0.66 9 1 C7.02 1 5.04 1 3 1 C3 1.99 3 2.98 3 4 C4.98 4 6.96 4 9 4 C9 4.33 9 4.66 9 5 C6.36 5 3.72 5 1 5 C0.67 3.35 0.34 1.7 0 0 Z " fill="#191919" transform="translate(18,0)"/>
<path d="M0 0 C1.94268841 2.91403262 3.46395304 5.85808576 5 9 C4.01 9.495 4.01 9.495 3 10 C1.68 9.01 0.36 8.02 -1 7 C-0.67 4.69 -0.34 2.38 0 0 Z " fill="#EEEEEE" transform="translate(249,96)"/>
<path d="M0 0 C0.99 0.33 1.98 0.66 3 1 C3 1.66 3 2.32 3 3 C2.34 3 1.68 3 1 3 C0.896875 3.639375 0.79375 4.27875 0.6875 4.9375 C0.460625 5.618125 0.23375 6.29875 0 7 C-0.99 7.33 -1.98 7.66 -3 8 C-2.74438677 5.6568787 -2.40729228 3.32156597 -2 1 C-1.34 0.67 -0.68 0.34 0 0 Z " fill="#212121" transform="translate(49,81)"/>
<path d="M0 0 C0.99 0.33 1.98 0.66 3 1 C3 1.66 3 2.32 3 3 C3.66 3 4.32 3 5 3 C4.67 3.99 4.34 4.98 4 6 C3.01 6 2.02 6 1 6 C0.34 6.66 -0.32 7.32 -1 8 C-0.67 5.36 -0.34 2.72 0 0 Z " fill="#2B2B2B" transform="translate(104,73)"/>
<path d="M0 0 C2.64 0 5.28 0 8 0 C7.67 1.32 7.34 2.64 7 4 C4.69 3.67 2.38 3.34 0 3 C0 2.01 0 1.02 0 0 Z " fill="#161616" transform="translate(0,3)"/>
<path d="M0 0 C0.66 0.33 1.32 0.66 2 1 C2 2.98 2 4.96 2 7 C1.34 6.67 0.68 6.34 0 6 C0 5.34 0 4.68 0 4 C-1.65 4.33 -3.3 4.66 -5 5 C-5 4.34 -5 3.68 -5 3 C-2.625 1.3125 -2.625 1.3125 0 0 Z " fill="#EBEBEB" transform="translate(206,144)"/>
<path d="M0 0 C0.66 0.33 1.32 0.66 2 1 C1.8125 2.8125 1.8125 2.8125 1 5 C-1.90696599 7.14197494 -3.35521088 8 -7 8 C-4.69 5.36 -2.38 2.72 0 0 Z " fill="#222222" transform="translate(217,124)"/>
<path d="M0 0 C2 2 2 2 2.125 5.125 C2.08375 6.07375 2.0425 7.0225 2 8 C1.01 8.33 0.02 8.66 -1 9 C-1.625 6.1875 -1.625 6.1875 -2 3 C-1.34 2.01 -0.68 1.02 0 0 Z " fill="#161616" transform="translate(105,78)"/>
<path d="M0 0 C2.97 0.495 2.97 0.495 6 1 C5.34 2.32 4.68 3.64 4 5 C2.68 5 1.36 5 0 5 C0 3.35 0 1.7 0 0 Z " fill="#141414" transform="translate(165,162)"/>
<path d="M0 0 C0.66666667 2.66666667 1.33333333 5.33333333 2 8 C1.01 8.33 0.02 8.66 -1 9 C-1.33 8.01 -1.66 7.02 -2 6 C-2.66 5.67 -3.32 5.34 -4 5 C-4 4.34 -4 3.68 -4 3 C-2 1.375 -2 1.375 0 0 Z " fill="#151515" transform="translate(203,138)"/>
<path d="M0 0 C3 1 3 1 4 3 C2.35 4.32 0.7 5.64 -1 7 C-1.66 5.68 -2.32 4.36 -3 3 C-2.01 2.01 -1.02 1.02 0 0 Z " fill="#F2F2F2" transform="translate(83,104)"/>
<path d="M0 0 C1.32 1.65 2.64 3.3 4 5 C3.01 6.32 2.02 7.64 1 9 C0.01 7.68 -0.98 6.36 -2 5 C-1.34 5 -0.68 5 0 5 C0 3.35 0 1.7 0 0 Z " fill="#070707" transform="translate(79,73)"/>
<path d="M0 0 C1.32 0.33 2.64 0.66 4 1 C4 1.66 4 2.32 4 3 C5.32 3.66 6.64 4.32 8 5 C7.67 5.66 7.34 6.32 7 7 C6.01 6.67 5.02 6.34 4 6 C4 5.34 4 4.68 4 4 C3.01 4.33 2.02 4.66 1 5 C0.67 3.35 0.34 1.7 0 0 Z " fill="#EAEAEA" transform="translate(301,27)"/>
<path d="M0 0 C1.32 1.32 2.64 2.64 4 4 C3.01 4.99 2.02 5.98 1 7 C-0.5 5.625 -0.5 5.625 -2 4 C-2 3.34 -2 2.68 -2 2 C-1.34 2 -0.68 2 0 2 C0 1.34 0 0.68 0 0 Z " fill="#E2E2E2" transform="translate(26,153)"/>
<path d="M0 0 C1.5625 1.25 1.5625 1.25 3 3 C2.6875 5.1875 2.6875 5.1875 2 7 C1.01 6.67 0.02 6.34 -1 6 C-0.67 4.02 -0.34 2.04 0 0 Z " fill="#040404" transform="translate(204,138)"/>
<path d="M0 0 C0.33 0.66 0.66 1.32 1 2 C-0.32 2.33 -1.64 2.66 -3 3 C-3 3.66 -3 4.32 -3 5 C-3.99 5.33 -4.98 5.66 -6 6 C-6.66 5.01 -7.32 4.02 -8 3 C-5.36 2.01 -2.72 1.02 0 0 Z " fill="#E9E9E9" transform="translate(171,94)"/>
<path d="M0 0 C0 2.31 0 4.62 0 7 C-1.65 7.33 -3.3 7.66 -5 8 C-5 4 -5 4 -3.0625 1.75 C-1 0 -1 0 0 0 Z " fill="#1F1F1F" transform="translate(51,88)"/>
<path d="M0 0 C0.99 0 1.98 0 3 0 C3.33 0.66 3.66 1.32 4 2 C4.99 2.66 5.98 3.32 7 4 C4.03 4 1.06 4 -2 4 C-1.34 2.68 -0.68 1.36 0 0 Z " fill="#070707" transform="translate(144,164)"/>
<path d="M0 0 C3.465 1.98 3.465 1.98 7 4 C7 4.99 7 5.98 7 7 C5.0625 6.625 5.0625 6.625 3 6 C2.67 5.34 2.34 4.68 2 4 C1.01 3.67 0.02 3.34 -1 3 C-0.67 2.01 -0.34 1.02 0 0 Z " fill="#F0F0F0" transform="translate(254,105)"/>
<path d="M0 0 C0.66 0.66 1.32 1.32 2 2 C1.625 4.125 1.625 4.125 1 6 C0.01 6 -0.98 6 -2 6 C-2.66 5.01 -3.32 4.02 -4 3 C-2.68 2.01 -1.36 1.02 0 0 Z " fill="#0F0F0F" transform="translate(157,98)"/>
<path d="M0 0 C0.99 0.33 1.98 0.66 3 1 C3.95024979 4.69541586 3.95024979 7.30458414 3 11 C2.67 11 2.34 11 2 11 C1.34 7.37 0.68 3.74 0 0 Z " fill="#DCDCDC" transform="translate(232,72)"/>
<path d="M0 0 C0.66 0 1.32 0 2 0 C2.99 1.98 3.98 3.96 5 6 C3.68 6 2.36 6 1 6 C-0.75 4 -0.75 4 -2 2 C-1.34 1.34 -0.68 0.68 0 0 Z " fill="#242424" transform="translate(256,73)"/>
<path d="M0 0 C2.0625 0.4375 2.0625 0.4375 4 1 C3.67 2.32 3.34 3.64 3 5 C2.01 5 1.02 5 0 5 C-0.5625 3.0625 -0.5625 3.0625 -1 1 C-0.67 0.67 -0.34 0.34 0 0 Z " fill="#ECECEC" transform="translate(117,41)"/>
<path d="M0 0 C3.63 0.33 7.26 0.66 11 1 C10.67 1.99 10.34 2.98 10 4 C6.44219804 3.39009109 3.3171411 2.4216319 0 1 C0 0.67 0 0.34 0 0 Z " fill="#232323" transform="translate(139,149)"/>
<path d="M0 0 C0 0.66 0 1.32 0 2 C0.99 2.33 1.98 2.66 3 3 C1.68 3 0.36 3 -1 3 C-1.33 2.67 -1.66 2.34 -2 2 C-2.99 2.99 -3.98 3.98 -5 5 C-5.33 4.01 -5.66 3.02 -6 2 C-3 0 -3 0 0 0 Z " fill="#070707" transform="translate(57,74)"/>
<path d="M0 0 C0.99 0 1.98 0 3 0 C3 1.32 3 2.64 3 4 C4.32 4.33 5.64 4.66 7 5 C4.69 5 2.38 5 0 5 C0 3.35 0 1.7 0 0 Z " fill="#171717" transform="translate(10,0)"/>
<path d="M0 0 C2.475 0.495 2.475 0.495 5 1 C4.67 2.32 4.34 3.64 4 5 C3.01 5 2.02 5 1 5 C0.67 3.35 0.34 1.7 0 0 Z " fill="#171717" transform="translate(239,162)"/>
<path d="M0 0 C1.65 1.65 3.3 3.3 5 5 C3.515 7.475 3.515 7.475 2 10 C1 7 1 7 1 4 C0.6937566 2.66018514 0.36548445 1.32488113 0 0 Z " fill="#252525" transform="translate(190,125)"/>
<path d="M0 0 C0.99 0 1.98 0 3 0 C3 1.32 3 2.64 3 4 C3.99 4.33 4.98 4.66 6 5 C4.02 5 2.04 5 0 5 C0 3.35 0 1.7 0 0 Z " fill="#181818" transform="translate(197,0)"/>
<path d="M0 0 C1.98 0 3.96 0 6 0 C5.34 1.32 4.68 2.64 4 4 C2.68 3.34 1.36 2.68 0 2 C0 1.34 0 0.68 0 0 Z " fill="#121212" transform="translate(138,164)"/>
<path d="M0 0 C1.32 0 2.64 0 4 0 C4 0.66 4 1.32 4 2 C5.65 2 7.3 2 9 2 C9 2.33 9 2.66 9 3 C6.03 3 3.06 3 0 3 C0 2.01 0 1.02 0 0 Z " fill="#181818" transform="translate(185,163)"/>
<path d="M0 0 C0.66 0.33 1.32 0.66 2 1 C2 1.66 2 2.32 2 3 C2.99 3.33 3.98 3.66 5 4 C2.69 4.33 0.38 4.66 -2 5 C-1.34 3.35 -0.68 1.7 0 0 Z " fill="#0C0C0C" transform="translate(309,146)"/>
<path d="M0 0 C0.99 0.99 1.98 1.98 3 3 C2.34 3.66 1.68 4.32 1 5 C-1.125 4.625 -1.125 4.625 -3 4 C-2.67 3.01 -2.34 2.02 -2 1 C-1.34 0.67 -0.68 0.34 0 0 Z " fill="#151515" transform="translate(124,133)"/>
<path d="M0 0 C0.99 0.33 1.98 0.66 3 1 C1.35 2.65 -0.3 4.3 -2 6 C-2.33 5.01 -2.66 4.02 -3 3 C-2.01 2.01 -1.02 1.02 0 0 Z " fill="#191919" transform="translate(178,87)"/>
</svg>
