<svg fill="#7950F2" xmlns="http://www.w3.org/2000/svg"  viewBox="0 0 24 24" width="24px" height="24px"><path d="M 5.0097656 3 C 3.9117417 3 3 3.9117417 3 5.0097656 L 3 18.970703 C 3 19.509881 3.2172407 20.023884 3.59375 20.402344 C 3.9750123 20.785582 4.4925606 21 5.0292969 21 L 18.990234 21 C 19.521034 21 20.032825 20.790427 20.410156 20.412109 L 20.412109 20.410156 C 20.79038 20.032872 21 19.521034 21 18.990234 L 21 5.0214844 C 21 4.4872617 20.789475 3.9710729 20.40625 3.5898438 C 20.027864 3.2134287 19.515198 3 18.978516 3 L 5.0097656 3 z M 11.0625 6 C 11.347828 6.0000469 11.612672 6.109125 11.794922 6.328125 L 14.46875 9.453125 L 15.636719 9.453125 C 15.976719 9.453125 16.268578 9.7459375 16.267578 10.085938 L 16.267578 10.740234 C 16.267578 10.886234 16.169437 10.984375 16.023438 10.984375 L 14.617188 10.984375 L 14.617188 17.707031 C 14.617188 17.853031 14.472172 18 14.326172 18 L 13.933594 18 C 13.495594 18 13.154297 17.659656 13.154297 17.222656 L 13.154297 15.666016 C 12.668297 15.860016 12.467469 15.908203 11.980469 15.908203 C 10.424469 15.908203 9.6171875 14.887719 9.6171875 13.136719 L 9.6171875 10.984375 L 8.6328125 10.984375 C 8.2928125 10.984375 8 10.571469 8 10.230469 L 8 9.7441406 C 8 9.5981406 8.0961875 9.5019531 8.2421875 9.5019531 L 12.669922 9.5019531 L 9.75 6.6699219 C 9.654 6.5719219 9.7016562 6.377125 9.8476562 6.328125 L 10.771484 6.0351562 C 10.868984 6.0109062 10.967391 5.9999844 11.0625 6 z M 11.134766 10.982422 L 11.134766 13.136719 C 11.134766 14.012719 11.406594 14.400391 12.183594 14.400391 C 12.475594 14.400391 12.86425 14.351078 13.15625 14.205078 L 13.15625 10.982422 L 11.134766 10.982422 z"/></svg>