<?xml version="1.0" encoding="UTF-8"?>
<svg version="1.1" xmlns="http://www.w3.org/2000/svg" width="293" height="502">
<path d="M0 0 C96.69 0 193.38 0 293 0 C293 165.66 293 331.32 293 502 C196.31 502 99.62 502 0 502 C0 336.34 0 170.68 0 0 Z " fill="#16A1C0" transform="translate(0,0)"/>
<path d="M0 0 C0.66 0 1.32 0 2 0 C3.3410005 2.4335567 4.67294856 4.87135301 6 7.3125 C6.3815625 8.00279297 6.763125 8.69308594 7.15625 9.40429688 C10 14.66015625 10 14.66015625 10 18 C8.02 18 6.04 18 4 18 C4 51.33 4 84.66 4 119 C2.02 119 0.04 119 -2 119 C-2 85.67 -2 52.34 -2 18 C-3.98 18 -5.96 18 -8 18 C-6.65150163 13.64029169 -4.95092154 9.68658562 -2.875 5.625 C-2.33617187 4.56539063 -1.79734375 3.50578125 -1.2421875 2.4140625 C-0.83226562 1.61742188 -0.42234375 0.82078125 0 0 Z " fill="#FFFFFF" transform="translate(144,93)"/>
<path d="M0 0 C1.98 0 3.96 0 6 0 C6 33.33 6 66.66 6 101 C7.98 101 9.96 101 12 101 C10.71850328 103.81724453 9.42312767 106.62788457 8.125 109.4375 C7.57779297 110.64116211 7.57779297 110.64116211 7.01953125 111.86914062 C6.66503906 112.63291016 6.31054688 113.39667969 5.9453125 114.18359375 C5.45828857 115.24404907 5.45828857 115.24404907 4.96142578 116.32592773 C4 118 4 118 2 119 C0.66180502 116.3773768 -0.6707151 113.75213401 -2 111.125 C-2.3815625 110.37863281 -2.763125 109.63226563 -3.15625 108.86328125 C-3.5171875 108.14785156 -3.878125 107.43242187 -4.25 106.6953125 C-4.75273437 105.7055542 -4.75273437 105.7055542 -5.265625 104.69580078 C-6 103 -6 103 -6 101 C-4.02 101 -2.04 101 0 101 C0 67.67 0 34.34 0 0 Z " fill="#FEFEFE" transform="translate(143,292)"/>
<path d="M0 0 C14 0 14 0 19 4 C19.85917455 6.94493382 19.3985621 8.86132349 19 12 C17.625 14 17.625 14 16 15 C15.34 15 14.68 15 14 15 C16.31 18.63 18.62 22.26 21 26 C22.77911425 23.33132863 23.79858056 21.15651713 24.91015625 18.18359375 C25.26013672 17.25482422 25.61011719 16.32605469 25.97070312 15.36914062 C26.33099609 14.40169922 26.69128906 13.43425781 27.0625 12.4375 C27.78169916 10.51921126 28.5017114 8.6012271 29.22265625 6.68359375 C29.53984619 5.83337646 29.85703613 4.98315918 30.18383789 4.10717773 C31 2 31 2 32 0 C33.98 0 35.96 0 38 0 C39.42842911 3.66452852 40.85247676 7.33072569 42.27246094 10.99853516 C42.99441847 12.86060415 43.71985238 14.72132407 44.4453125 16.58203125 C44.89648438 17.74863281 45.34765625 18.91523438 45.8125 20.1171875 C46.23144531 21.19597168 46.65039062 22.27475586 47.08203125 23.38623047 C48 26 48 26 48 28 C46.02 28 44.04 28 42 28 C41.34 25.69 40.68 23.38 40 21 C36.37 20.67 32.74 20.34 29 20 C28.7834375 21.7015625 28.7834375 21.7015625 28.5625 23.4375 C28 27 28 27 27 28 C23.18019183 28.74834402 19.79161688 28.943927 16 28 C13.8999959 25.55651696 12.69911675 23.23249036 11.4140625 20.28515625 C10.94742188 19.53105469 10.48078125 18.77695313 10 18 C8.35 17.67 6.7 17.34 5 17 C5 20.63 5 24.26 5 28 C3.35 28 1.7 28 0 28 C0 18.76 0 9.52 0 0 Z " fill="#EFF7F9" transform="translate(157,235)"/>
<path d="M0 0 C4.2487789 1.57362181 6.68539729 3.11358972 9 7 C9.7813884 12.4486002 10.28324703 18.85588517 7.25 23.6875 C3.82485103 27.20779199 1.01774755 28.30794126 -3.875 28.4375 C-7.44091552 28.36386753 -9.66986745 28.02920481 -12.5 25.8125 C-16.64468372 21.14973082 -17.46290779 17.33625566 -17.3203125 11.21484375 C-16.69393228 6.88365369 -14.13659462 4.26288291 -11.3125 1.125 C-7.60601604 -0.67815436 -4.03888906 -0.51888505 0 0 Z " fill="#EFF7F9" transform="translate(96,235)"/>
<path d="M0 0 C14 0 14 0 19 4 C19.85917455 6.94493382 19.3985621 8.86132349 19 12 C17.625 14 17.625 14 16 15 C15.34 15 14.68 15 14 15 C14.5053125 15.77085937 15.010625 16.54171875 15.53125 17.3359375 C16.1809375 18.33882812 16.830625 19.34171875 17.5 20.375 C18.1496875 21.37273437 18.799375 22.37046875 19.46875 23.3984375 C21 26 21 26 21 28 C18.6875 28.30859375 18.6875 28.30859375 16 28 C14.375 25.84765625 14.375 25.84765625 13 23.0625 C11.71698244 20.2872698 11.71698244 20.2872698 10 18 C8.35 17.67 6.7 17.34 5 17 C5 20.63 5 24.26 5 28 C3.35 28 1.7 28 0 28 C0 18.76 0 9.52 0 0 Z " fill="#EFF7F9" transform="translate(111,235)"/>
<path d="M0 0 C1.98 0 3.96 0 6 0 C7.42842911 3.66452852 8.85247676 7.33072569 10.27246094 10.99853516 C10.99441847 12.86060415 11.71985238 14.72132407 12.4453125 16.58203125 C12.89648438 17.74863281 13.34765625 18.91523438 13.8125 20.1171875 C14.23144531 21.19597168 14.65039062 22.27475586 15.08203125 23.38623047 C16 26 16 26 16 28 C14.02 28 12.04 28 10 28 C9.34 25.69 8.68 23.38 8 21 C4.37 20.67 0.74 20.34 -3 20 C-3.2165625 21.7015625 -3.2165625 21.7015625 -3.4375 23.4375 C-4 27 -4 27 -5 28 C-6.99958364 28.04080783 -9.00045254 28.04254356 -11 28 C-9.35579332 23.70770835 -7.70936065 19.416274 -6.0625 15.125 C-5.59392578 13.90167969 -5.12535156 12.67835938 -4.64257812 11.41796875 C-4.19462891 10.25136719 -3.74667969 9.08476562 -3.28515625 7.8828125 C-2.87144775 6.80402832 -2.45773926 5.72524414 -2.03149414 4.61376953 C-1 2 -1 2 0 0 Z " fill="#EEF6F9" transform="translate(189,235)"/>
<path d="M0 0 C13 0 13 0 16.3125 2 C18.15447611 5.2746242 18.80364224 7.3426189 18.54296875 11.0625 C17.76649184 13.83323774 16.18126813 15.51268141 13.8671875 17.16796875 C10.52762975 18.65609804 7.6022129 18.31053559 4 18 C4 21.3 4 24.6 4 28 C2.68 28 1.36 28 0 28 C0 18.76 0 9.52 0 0 Z " fill="#FAFCFD" transform="translate(58,235)"/>
<path d="M0 0 C2.36758898 1.70839947 2.93043372 2.62550153 3.46875 5.5234375 C3.52051701 10.24717727 3.52117363 13.15309285 1 17.25 C-2.45756647 19.26691378 -4.31297742 19.62407284 -8.1875 18.82421875 C-10 18 -10 18 -12.125 15.0625 C-13.61690891 10.42314455 -12.9324957 5.42290856 -11 1 C-7.25915101 -1.61389867 -4.34334033 -1.02660771 0 0 Z " fill="#19A2C0" transform="translate(97,240)"/>
<path d="M0 0 C0.66 0 1.32 0 2 0 C3.3410005 2.4335567 4.67294856 4.87135301 6 7.3125 C6.3815625 8.00279297 6.763125 8.69308594 7.15625 9.40429688 C10 14.66015625 10 14.66015625 10 18 C-2.66970387 19.33257403 -2.66970387 19.33257403 -8 18 C-6.65150163 13.64029169 -4.95092154 9.68658562 -2.875 5.625 C-2.33617187 4.56539063 -1.79734375 3.50578125 -1.2421875 2.4140625 C-0.83226562 1.61742188 -0.42234375 0.82078125 0 0 Z " fill="#F5FBFC" transform="translate(144,93)"/>
<path d="M0 0 C7.26 0 14.52 0 22 0 C22 1.32 22 2.64 22 4 C19.03 4 16.06 4 13 4 C13 11.92 13 19.84 13 28 C11.68 28 10.36 28 9 28 C9 20.08 9 12.16 9 4 C6.03 4 3.06 4 0 4 C0 2.68 0 1.36 0 0 Z " fill="#FAFCFD" transform="translate(216,235)"/>
<path d="M0 0 C7.26 0 14.52 0 22 0 C22 1.32 22 2.64 22 4 C19.03 4 16.06 4 13 4 C13 11.92 13 19.84 13 28 C11.68 28 10.36 28 9 28 C9 20.08 9 12.16 9 4 C6.03 4 3.06 4 0 4 C0 2.68 0 1.36 0 0 Z " fill="#FAFCFD" transform="translate(132,235)"/>
<path d="M0 0 C1.32 0 2.64 0 4 0 C4 9.24 4 18.48 4 28 C2.68 28 1.36 28 0 28 C0 18.76 0 9.52 0 0 Z " fill="#FFFFFF" transform="translate(208,235)"/>
<path d="M0 0 C5.625 -0.25 5.625 -0.25 9 2 C9.3125 5 9.3125 5 9 8 C7 10 7 10 3.375 10.125 C2.26125 10.08375 1.1475 10.0425 0 10 C0 6.7 0 3.4 0 0 Z " fill="#26A5C3" transform="translate(62,239)"/>
<path d="M0 0 C5.625 -0.25 5.625 -0.25 9 2 C9.375 4.5 9.375 4.5 9 7 C5.5647952 9.29013653 4.014669 9.17842973 0 9 C0 6.03 0 3.06 0 0 Z " fill="#22A4C2" transform="translate(162,239)"/>
<path d="M0 0 C5.625 -0.25 5.625 -0.25 9 2 C9.375 4.5 9.375 4.5 9 7 C5.5647952 9.29013653 4.014669 9.17842973 0 9 C0 6.03 0 3.06 0 0 Z " fill="#22A4C2" transform="translate(116,239)"/>
<path d="M0 0 C0.66 0 1.32 0 2 0 C2.99 2.97 3.98 5.94 5 9 C2.36 9 -0.28 9 -3 9 C-2.01 6.03 -1.02 3.06 0 0 Z " fill="#2AA7C4" transform="translate(191,242)"/>
</svg>
