<?xml version="1.0" encoding="UTF-8"?>
<svg version="1.1" xmlns="http://www.w3.org/2000/svg" width="212" height="180">
<path d="M0 0 C69.96 0 139.92 0 212 0 C212 59.4 212 118.8 212 180 C142.04 180 72.08 180 0 180 C0 120.6 0 61.2 0 0 Z " fill="#FCFCFC" transform="translate(0,0)"/>
<path d="M0 0 C0.7827832 0.00273926 1.56556641 0.00547852 2.37207031 0.00830078 C8.97218557 0.12620838 14.97019717 1.24942375 21.25 3.3125 C23.10625 3.9003125 23.10625 3.9003125 25 4.5 C25.7425 4.768125 26.485 5.03625 27.25 5.3125 C27.25 5.9725 27.25 6.6325 27.25 7.3125 C27.765625 7.395 28.28125 7.4775 28.8125 7.5625 C34.92510061 9.44330019 39.77497748 13.22806213 44.25 17.6875 C44.76546387 18.20062744 45.28092773 18.71375488 45.81201172 19.24243164 C51.18657842 24.87096139 54.26973745 31.16522365 57.25 38.3125 C57.79333984 39.48039062 57.79333984 39.48039062 58.34765625 40.671875 C63.54290512 55.87528728 61.51935906 72.46704775 54.625 86.6875 C47.69863385 100.02942886 37.02577616 109.37466545 23.25 115.3125 C21.93 115.3125 20.61 115.3125 19.25 115.3125 C19.25 115.9725 19.25 116.6325 19.25 117.3125 C6.8599404 119.94069446 -5.83631763 121.24316266 -17.75 116.3125 C-18.843125 116.085625 -19.93625 115.85875 -21.0625 115.625 C-33.89442537 111.05770453 -45.37819673 100.28040875 -51.75 88.3125 C-58.55649877 72.81803126 -60.90802946 55.38554148 -54.96484375 39.12109375 C-52.5787228 33.60462763 -50.08785442 28.31928163 -46.75 23.3125 C-46.09 23.3125 -45.43 23.3125 -44.75 23.3125 C-44.50507812 22.74015625 -44.26015625 22.1678125 -44.0078125 21.578125 C-39.87012878 14.12515433 -32.03067292 9.58733312 -24.625 5.875 C-23.96870605 5.54532227 -23.31241211 5.21564453 -22.63623047 4.87597656 C-15.19517577 1.32165196 -8.22508108 -0.05877602 0 0 Z " fill="#1E181A" transform="translate(80.75,6.6875)"/>
<path d="M0 0 C12.7610684 10.4171987 21.68551294 23.33986342 24 40 C25.32999247 57.21497301 21.48556134 70.77165799 12 85 C11.34 85 10.68 85 10 85 C9.61714844 85.87398437 9.61714844 85.87398437 9.2265625 86.765625 C5.35490034 93.81846181 -2.0457505 97.85316123 -9 101.375 C-9.65178223 101.70854492 -10.30356445 102.04208984 -10.97509766 102.38574219 C-24.90251533 109.12939852 -42.18434663 109.16817772 -56.68261719 104.18994141 C-62.07897905 102.15626886 -66.57233551 99.66817459 -71 96 C-71.89203125 95.29101562 -72.7840625 94.58203125 -73.703125 93.8515625 C-85.45160764 83.93276158 -92.46230612 71.15296057 -95 56 C-95.11678799 53.32321927 -95.0454506 50.68158543 -95 48 C-94.443125 48.32613281 -93.88625 48.65226562 -93.3125 48.98828125 C-88.32882804 51.84210692 -83.46503771 54.23352316 -78 56 C-76.845 56.391875 -75.69 56.78375 -74.5 57.1875 C-67.09722448 58.96416613 -57.34960509 59.03081193 -50 57 C-48.58465222 56.93543121 -47.16662311 56.91388961 -45.75 56.9375 C-43.89375 56.9684375 -43.89375 56.9684375 -42 57 C-42 56.34 -42 55.68 -42 55 C-41.40574219 54.79246094 -40.81148437 54.58492187 -40.19921875 54.37109375 C-22.44370504 47.77145491 -13.08646783 37.32371156 -4.8984375 20.7734375 C-2.74329758 15.65770133 -2.15339105 10.23002705 -1.4296875 4.7578125 C-1 2 -1 2 0 0 Z " fill="#FC018E" transform="translate(142,67)"/>
<path d="M0 0 C1.33237038 0.33716179 2.66545713 0.67154266 4 1 C4 1.66 4 2.32 4 3 C4.78375 3.04125 5.5675 3.0825 6.375 3.125 C12.84171418 4.68593101 18.92284754 8.71834608 24 13 C24 13.66 24 14.32 24 15 C24.598125 15.25523438 25.19625 15.51046875 25.8125 15.7734375 C33.66329942 20.17549289 37.5695222 31.24294969 40.25 39.3125 C43.84240173 52.47992523 43.31385222 68.05844334 39 81 C38.34 81 37.68 81 37 81 C36.90460938 81.88171875 36.80921875 82.7634375 36.7109375 83.671875 C35.93817489 87.28942304 34.78617056 89.27725063 32.625 92.25 C32.01914063 93.10078125 31.41328125 93.9515625 30.7890625 94.828125 C29 97 29 97 26 99 C24.68 99 23.36 99 22 99 C22 100.32 22 101.64 22 103 C20.02 103.495 20.02 103.495 18 104 C17.84144531 103.05640625 17.68289062 102.1128125 17.51953125 101.140625 C14.48302269 84.43143975 8.17220279 70.32097429 -5 59 C-5.99 58.505 -5.99 58.505 -7 58 C-7.37766937 55.34132752 -7.65272372 52.73461066 -7.875 50.0625 C-8.58129964 43.12562849 -9.73381179 37.24036622 -13 31 C-13.40992188 30.18402344 -13.81984375 29.36804688 -14.2421875 28.52734375 C-19.81234991 18.34684918 -28.76720105 8.74426632 -40 5 C-39.38671875 3.109375 -39.38671875 3.109375 -38 1 C-26.18661141 -3.52931065 -12.04004034 -3.35542108 0 0 Z " fill="#FAEF02" transform="translate(148,9)"/>
<path d="M0 0 C0.7827832 0.00273926 1.56556641 0.00547852 2.37207031 0.00830078 C8.97218557 0.12620838 14.97019717 1.24942375 21.25 3.3125 C23.10625 3.9003125 23.10625 3.9003125 25 4.5 C25.7425 4.768125 26.485 5.03625 27.25 5.3125 C24.93635707 6.85492862 22.86395515 8.0156573 20.375 9.1875 C16.95061693 10.86192261 14.1974191 12.88521369 11.25 15.3125 C10.59 15.3125 9.93 15.3125 9.25 15.3125 C9.25 15.9725 9.25 16.6325 9.25 17.3125 C8.59 17.3125 7.93 17.3125 7.25 17.3125 C6.981875 17.89 6.71375 18.4675 6.4375 19.0625 C5.22070811 21.36800043 3.94666121 23.33306192 2.25 25.3125 C1.59 25.3125 0.93 25.3125 0.25 25.3125 C-0.245 27.7875 -0.245 27.7875 -0.75 30.3125 C-1.41 30.3125 -2.07 30.3125 -2.75 30.3125 C-2.935625 31.34503906 -2.935625 31.34503906 -3.125 32.3984375 C-3.82175029 35.64703573 -4.77497915 38.76151295 -5.75 41.9375 C-7.11672475 46.52854018 -7.92139565 50.5307356 -8 55.3125 C-8.27503765 59.80478163 -8.27503765 59.80478163 -10.3359375 62.0078125 C-11.72037 62.97850655 -13.13098298 63.9126893 -14.5625 64.8125 C-24.81294506 71.84137661 -29.8521436 85.75431457 -32.2265625 97.375 C-32.81630776 100.68461521 -33.36171174 103.97322098 -33.75 107.3125 C-44.13319074 102.72082232 -50.57313233 91.67269751 -54.5625 81.5625 C-60.4011381 65.91721733 -59.25134734 48.51399575 -52.44140625 33.41015625 C-50.73056325 29.87170649 -48.93141828 26.58462742 -46.75 23.3125 C-46.09 23.3125 -45.43 23.3125 -44.75 23.3125 C-44.50507812 22.74015625 -44.26015625 22.1678125 -44.0078125 21.578125 C-39.87012878 14.12515433 -32.03067292 9.58733312 -24.625 5.875 C-23.96870605 5.54532227 -23.31241211 5.21564453 -22.63623047 4.87597656 C-15.19517577 1.32165196 -8.22508108 -0.05877602 0 0 Z " fill="#02ABEE" transform="translate(80.75,6.6875)"/>
<path d="M0 0 C15.18849112 7.78744555 23.16146087 20.6171823 29 36 C30.23575253 41.31373587 30.09643123 46.57842203 30 52 C28.38931641 51.27683594 28.38931641 51.27683594 26.74609375 50.5390625 C25.3100032 49.90080003 23.87379921 49.26279278 22.4375 48.625 C21.73302734 48.30789062 21.02855469 47.99078125 20.30273438 47.6640625 C12.19659682 44.07793713 5.16353327 42.63459032 -3.6875 42.6875 C-5.15678955 42.69595947 -5.15678955 42.69595947 -6.65576172 42.70458984 C-18.98281547 42.91123423 -28.20968339 46.08828398 -39 52 C-39.84872394 41.76816144 -36.90692664 32.38014369 -33 23 C-32.34 23 -31.68 23 -31 23 C-30.67 21.35 -30.34 19.7 -30 18 C-29.34 18 -28.68 18 -28 18 C-27.731875 17.4225 -27.46375 16.845 -27.1875 16.25 C-25.97070811 13.94449957 -24.69666121 11.97943808 -23 10 C-22.34 10 -21.68 10 -21 10 C-21 9.34 -21 8.68 -21 8 C-18.98828125 6.34375 -18.98828125 6.34375 -16.3125 4.5 C-15.44238281 3.8915625 -14.57226562 3.283125 -13.67578125 2.65625 C-8.80896074 -0.35620532 -5.60353821 -1.7241656 0 0 Z " fill="#03A645" transform="translate(111,14)"/>
<path d="M0 0 C0.66 0.33 1.32 0.66 2 1 C2.54468735 3.48700655 2.98524255 5.92585546 3.375 8.4375 C6.05225691 23.98419647 12.23516217 34.55158069 24.4375 44.625 C25.34371094 45.38039062 26.24992187 46.13578125 27.18359375 46.9140625 C30.00828589 49.00613685 32.81535209 50.52727622 36 52 C35.34 52.66 34.68 53.32 34 54 C32.68 54 31.36 54 30 54 C30 54.66 30 55.32 30 56 C17.62257559 58.62551427 4.89975238 59.94373846 -7 55 C-8.155 54.731875 -9.31 54.46375 -10.5 54.1875 C-15.27661734 52.56686197 -19.37971204 50.57233713 -23 47 C-23.71726106 43.59300996 -23.66755492 42.2731725 -23 39 C-22.86078125 38.05125 -22.7215625 37.1025 -22.578125 36.125 C-20.40113695 24.12214698 -14.23467704 10.27044215 -4.296875 2.703125 C-2.89905966 1.74947528 -1.45404328 0.86550195 0 0 Z " fill="#292C95" transform="translate(70,68)"/>
<path d="M0 0 C12.87479263 10.5100348 21.45912959 23.27260315 24 40 C24.19112883 43.05371749 24.15313892 45.93722169 24 49 C23.34 49 22.68 49 22 49 C22 49.66 22 50.32 22 51 C21.24074219 51.18175781 20.48148438 51.36351562 19.69921875 51.55078125 C18.70535156 51.80214844 17.71148437 52.05351563 16.6875 52.3125 C15.70136719 52.55613281 14.71523437 52.79976562 13.69921875 53.05078125 C10.99395297 53.77413289 10.99395297 53.77413289 9.51953125 55.54296875 C4.43313373 60.42015711 -7.25995887 58.12610687 -14 58 C-14.74362793 57.99274902 -15.48725586 57.98549805 -16.25341797 57.97802734 C-18.44142075 57.94992106 -20.62561415 57.88638467 -22.8125 57.8125 C-24.11832031 57.77769531 -25.42414063 57.74289063 -26.76953125 57.70703125 C-30 57 -30 57 -31.94921875 54.44921875 C-32.29597656 53.64097656 -32.64273438 52.83273438 -33 52 C-32.154375 51.45472656 -31.30875 50.90945312 -30.4375 50.34765625 C-16.74534659 41.33747941 -6.56911994 29.88434719 -2.8671875 13.48046875 C-2.31994276 10.70749665 -1.87223025 7.93054212 -1.47265625 5.1328125 C-1 2 -1 2 0 0 Z " fill="#FC121D" transform="translate(142,67)"/>
<path d="M0 0 C1.2375 0.391875 2.475 0.78375 3.75 1.1875 C4.4925 1.455625 5.235 1.72375 6 2 C3.68635707 3.54242862 1.61395515 4.7031573 -0.875 5.875 C-4.29938307 7.54942261 -7.0525809 9.57271369 -10 12 C-10.66 12 -11.32 12 -12 12 C-12 12.66 -12 13.32 -12 14 C-12.66 14 -13.32 14 -14 14 C-14.2475 14.5775 -14.495 15.155 -14.75 15.75 C-16.16683317 18.3002997 -17.87627537 20.01785701 -20 22 C-20 20.68 -20 19.36 -20 18 C-19.34 18 -18.68 18 -18 18 C-18 17.01 -18 16.02 -18 15 C-17.34 15 -16.68 15 -16 15 C-15.814375 13.88625 -15.814375 13.88625 -15.625 12.75 C-15.04513299 10.19858515 -14.26291261 8.2732427 -13 6 C-14.49743119 4.50256881 -15.98824239 4.66797307 -18.0625 4.4375 C-19.361875 4.293125 -20.66125 4.14875 -22 4 C-22 3.34 -22 2.68 -22 2 C-21.30132812 2.03480469 -20.60265625 2.06960937 -19.8828125 2.10546875 C-18.97273438 2.13253906 -18.06265625 2.15960937 -17.125 2.1875 C-16.22007813 2.22230469 -15.31515625 2.25710937 -14.3828125 2.29296875 C-13.59648438 2.19628906 -12.81015625 2.09960938 -12 2 C-11.34 1.01 -10.68 0.02 -10 -1 C-13.14680313 -0.91787003 -16.29184074 -0.80515698 -19.4375 -0.6875 C-20.75524414 -0.65366211 -20.75524414 -0.65366211 -22.09960938 -0.61914062 C-27.47292521 -0.40103555 -31.99962549 0.4206824 -37.04663086 2.28051758 C-39.35116043 3.12934256 -41.65912153 3.69156476 -44.0625 4.1875 C-44.81660156 4.34605469 -45.57070313 4.50460938 -46.34765625 4.66796875 C-46.89292969 4.77753906 -47.43820313 4.88710937 -48 5 C-48 5.66 -48 6.32 -48 7 C-48.99 7 -49.98 7 -51 7 C-51.33 7.99 -51.66 8.98 -52 10 C-53.32 9.67 -54.64 9.34 -56 9 C-39.44014113 -3.4519869 -19.59503564 -6.43747165 0 0 Z " fill="#05ACE6" transform="translate(102,10)"/>
<path d="M0 0 C1.53271273 4.58798777 0.02911182 6.77944742 -2 11 C-1.67 11.33 -1.34 11.66 -1 12 C-0.95936168 13.66617115 -0.957279 15.33388095 -1 17 C-1.99 17 -2.98 17 -4 17 C-4.66 16.01 -5.32 15.02 -6 14 C-6.45375 14.66 -6.9075 15.32 -7.375 16 C-7.91125 16.66 -8.4475 17.32 -9 18 C-9.66 18 -10.32 18 -11 18 C-11 18.66 -11 19.32 -11 20 C-11.66 20.33 -12.32 20.66 -13 21 C-13.33 21.99 -13.66 22.98 -14 24 C-16.06640625 25.16796875 -16.06640625 25.16796875 -18.5625 26.1875 C-19.38878906 26.53167969 -20.21507813 26.87585938 -21.06640625 27.23046875 C-21.70449219 27.48441406 -22.34257813 27.73835938 -23 28 C-18.16066459 29.58019115 -14.15943969 30.39687998 -9 30 C-8.01 29.34 -7.02 28.68 -6 28 C-3.61322924 27.70547416 -1.21373906 27.5071783 1.1875 27.375 C2.45980469 27.30023438 3.73210937 27.22546875 5.04296875 27.1484375 C6.50669922 27.07496094 6.50669922 27.07496094 8 27 C8.495 28.485 8.495 28.485 9 30 C10.010625 29.566875 11.02125 29.13375 12.0625 28.6875 C12.701875 28.41679688 13.34125 28.14609375 14 27.8671875 C15.87197125 27.05551247 17.71854419 26.18595275 19.5625 25.3125 C23.00724961 23.99723197 25.35562859 23.73333868 29 24 C29 24.66 29 25.32 29 26 C28.24074219 26.18175781 27.48148438 26.36351563 26.69921875 26.55078125 C25.70535156 26.80214844 24.71148437 27.05351563 23.6875 27.3125 C22.70136719 27.55613281 21.71523437 27.79976562 20.69921875 28.05078125 C17.99395297 28.77413289 17.99395297 28.77413289 16.51953125 30.54296875 C11.43313373 35.42015711 -0.25995887 33.12610687 -7 33 C-7.74362793 32.99274902 -8.48725586 32.98549805 -9.25341797 32.97802734 C-11.44142075 32.94992106 -13.62561415 32.88638467 -15.8125 32.8125 C-17.11832031 32.77769531 -18.42414063 32.74289063 -19.76953125 32.70703125 C-23 32 -23 32 -24.94921875 29.44921875 C-25.29597656 28.64097656 -25.64273438 27.83273438 -26 27 C-25.154375 26.45472656 -24.30875 25.90945312 -23.4375 25.34765625 C-13.0547791 18.50756385 -5.56590717 11.31912851 0 0 Z " fill="#FC1128" transform="translate(135,92)"/>
<path d="M0 0 C0 0.99 0 1.98 0 3 C0.763125 3 1.52625 3 2.3125 3 C5.20833333 3 8.10416667 3 11 3 C11.66 2.01 12.32 1.02 13 0 C13 5.56899664 10.59720952 7.93295087 7 12 C2.6714168 16.3285832 -1.14842538 19.96377544 -7 22 C-7 21.34 -7 20.68 -7 20 C-3.53846154 17 -3.53846154 17 -1 17 C-1.70339566 14.49034386 -1.70339566 14.49034386 -3 12 C-5.04105639 11.11306697 -5.04105639 11.11306697 -7 11 C-7.3125 8.3125 -7.3125 8.3125 -7 5 C-2.86956522 0 -2.86956522 0 0 0 Z " fill="#231415" transform="translate(119,95)"/>
<path d="M0 0 C1.67542976 0.28604898 3.34385343 0.61781233 5 1 C5.18175781 1.58007812 5.36351562 2.16015625 5.55078125 2.7578125 C6.73982026 6.45297989 7.94692176 9.89384352 9.6875 13.375 C11 16 11 16 11 19 C11.66 19 12.32 19 13 19 C14.8849413 26.00629124 16.39700836 32.76410027 17 40 C19.97 39.505 19.97 39.505 23 39 C23 39.66 23 40.32 23 41 C22.34 41.66 21.68 42.32 21 43 C21.5775 43.28875 22.155 43.5775 22.75 43.875 C25.875 45.4375 25.875 45.4375 29 47 C29.66 45.68 30.32 44.36 31 43 C31.66 43 32.32 43 33 43 C32.6875 44.9375 32.6875 44.9375 32 47 C30.515 47.495 30.515 47.495 29 48 C29.99 53.445 29.99 53.445 31 59 C27.38439563 55.4939594 24.08251132 51.8223307 20.84375 47.96484375 C19.0139331 45.86073948 19.0139331 45.86073948 16.34765625 44.26171875 C13.10719221 41.13987403 13.15926383 38.143022 12.9375 33.875 C11.8413477 21.10860554 6.80291978 11.14148031 -1 1 C-0.67 0.67 -0.34 0.34 0 0 Z " fill="#F8EA16" transform="translate(127,25)"/>
<path d="M0 0 C0 0.99 0 1.98 0 3 C-2.64 3.66 -5.28 4.32 -8 5 C-8 5.66 -8 6.32 -8 7 C-11.85375577 7.33819866 -15.70806128 7.66968331 -19.5625 8 C-21.19155273 8.14308594 -21.19155273 8.14308594 -22.85351562 8.2890625 C-33.89771651 9.22899449 -33.89771651 9.22899449 -39 9 C-39.33 8.67 -39.66 8.34 -40 8 C-42.52645767 7.75895987 -45.03005991 7.57604605 -47.5625 7.4375 C-48.25408203 7.39431641 -48.94566406 7.35113281 -49.65820312 7.30664062 C-54.44589506 7.02553662 -59.20437601 6.96223918 -64 7 C-64 6.67 -64 6.34 -64 6 C-62.02 6 -60.04 6 -58 6 C-58 5.34 -58 4.68 -58 4 C-56.68 4 -55.36 4 -54 4 C-54 3.01 -54 2.02 -54 1 C-52.35 1.33 -50.7 1.66 -49 2 C-48.67 2.99 -48.34 3.98 -48 5 C-43.58919646 5.02490464 -39.17843129 5.04295604 -34.76757812 5.05493164 C-33.27017503 5.05992943 -31.77277673 5.0667299 -30.27539062 5.07543945 C-28.11066495 5.08770623 -25.94600435 5.09327397 -23.78125 5.09765625 C-22.48251953 5.10289307 -21.18378906 5.10812988 -19.84570312 5.11352539 C-15.81913327 4.9946608 -11.98584904 4.56026769 -8 4 C-7.67 3.01 -7.34 2.02 -7 1 C-4.52260646 0.09162237 -2.66420516 0 0 0 Z " fill="#EC0A7A" transform="translate(160,119)"/>
<path d="M0 0 C0.8353125 0.48919922 0.8353125 0.48919922 1.6875 0.98828125 C6.67117196 3.84210692 11.53496229 6.23352316 17 8 C18.7325 8.5878125 18.7325 8.5878125 20.5 9.1875 C27.90277552 10.96416613 37.65039491 11.03081193 45 9 C46.41534778 8.93543121 47.83337689 8.91388961 49.25 8.9375 C51.10625 8.9684375 51.10625 8.9684375 53 9 C53 8.34 53 7.68 53 7 C54.98 6.67 56.96 6.34 59 6 C59 6.66 59 7.32 59 8 C57.68 8 56.36 8 55 8 C55 8.66 55 9.32 55 10 C43.76534234 12.65460265 32.46704065 12.19897428 21 12 C21 11.34 21 10.68 21 10 C19.08700862 9.72327798 17.16922064 9.47957185 15.25 9.25 C14.18265625 9.11078125 13.1153125 8.9715625 12.015625 8.828125 C8.92558717 8.73604621 8.92558717 8.73604621 6.625 10.6875 C4.75649697 13.34652355 4.56176618 14.55002504 4.75 17.75 C4.80414063 18.94882813 4.80414063 18.94882813 4.859375 20.171875 C4.90578125 20.77515625 4.9521875 21.3784375 5 22 C1.01499541 18.01499541 0.21752462 10.92104485 -0.19140625 5.4296875 C-0.1881607 3.61867035 -0.10430848 1.80801365 0 0 Z " fill="#D70C93" transform="translate(47,115)"/>
<path d="M0 0 C2.4375 0.375 2.4375 0.375 5 1 C5.33 1.66 5.66 2.32 6 3 C6.33 2.01 6.66 1.02 7 0 C7.66 0 8.32 0 9 0 C8.01 5.94 7.02 11.88 6 18 C2.46292466 16.23146233 0.60590983 14.9028343 -2.125 12.1875 C-2.80820312 11.52105469 -3.49140625 10.85460937 -4.1953125 10.16796875 C-6.10934237 7.86864715 -7.04569183 5.81865249 -8 3 C-7.34 3 -6.68 3 -6 3 C-6 3.66 -6 4.32 -6 5 C-5.01 4.34 -4.02 3.68 -3 3 C-2.01 3 -1.02 3 0 3 C0 2.01 0 1.02 0 0 Z " fill="#03ACE8" transform="translate(41,96)"/>
<path d="M0 0 C2.35239138 1.99953267 3.38080002 3.7108267 4.875 6.5 C6.70402964 9.86145988 8.61470794 11.1701124 12 13 C12.33 13.99 12.66 14.98 13 16 C13.99 16.66 14.98 17.32 16 18 C16 19.32 16 20.64 16 22 C16.556875 22.268125 17.11375 22.53625 17.6875 22.8125 C20 24 20 24 22.1875 25.4375 C25.34800103 27.19333391 28.45023033 28.16320596 31.9140625 29.15625 C34 30 34 30 35.55078125 31.58984375 C37.08864584 33.40822257 37.08864584 33.40822257 40.5625 33.0625 C42.2640625 33.0315625 42.2640625 33.0315625 44 33 C44.66 33.66 45.32 34.32 46 35 C48.73434962 35.3063859 51.38279821 35.5113336 54.125 35.625 C54.87910156 35.66367188 55.63320312 35.70234375 56.41015625 35.7421875 C58.27303184 35.83651031 60.13648255 35.91934662 62 36 C62 36.33 62 36.66 62 37 C46.26253388 37.81965969 31.6194812 36.45482567 19 26 C18.10796875 25.29101562 17.2159375 24.58203125 16.296875 23.8515625 C9.17200193 17.83630081 4.0926072 11.36111442 0 3 C0 2.01 0 1.02 0 0 Z " fill="#D81B7F" transform="translate(52,137)"/>
<path d="M0 0 C-4.455 0.495 -4.455 0.495 -9 1 C-9 0.01 -9 -0.98 -9 -2 C-12.3756301 -1.88936784 -15.75021989 -1.75891985 -19.125 -1.625 C-20.07632813 -1.5940625 -21.02765625 -1.563125 -22.0078125 -1.53125 C-27.01710348 -1.32252954 -31.30366613 -0.94494635 -36 1 C-35.96044102 2.92309422 -35.96044102 2.92309422 -35 5 C-33.03533587 6.06775224 -31.03144641 7.06553465 -29 8 C-27.0625 9.4375 -27.0625 9.4375 -26 11 C-26.43359375 13.09765625 -26.43359375 13.09765625 -27 15 C-27.64066406 14.38511719 -28.28132813 13.77023438 -28.94140625 13.13671875 C-33.73396075 8.65843012 -37.72611727 5.04583133 -44 3 C-43.38671875 1.109375 -43.38671875 1.109375 -42 -1 C-29.20810047 -5.9044765 -12.29193323 -6.14596661 0 0 Z " fill="#F1EC48" transform="translate(152,11)"/>
<path d="M0 0 C2.05078125 0.03255208 4.1015625 0.06510417 6.15234375 0.09765625 C5.82234375 0.75765625 5.49234375 1.41765625 5.15234375 2.09765625 C4.05921875 2.22140625 2.96609375 2.34515625 1.83984375 2.47265625 C-2.1987654 3.15716628 -3.37617703 3.93416285 -5.84765625 7.09765625 C-5.84765625 7.42765625 -5.84765625 7.75765625 -5.84765625 8.09765625 C-6.53279297 8.09241943 -7.21792969 8.08718262 -7.92382812 8.08178711 C-11.06509462 8.0608418 -14.20634636 8.04794065 -17.34765625 8.03515625 C-18.96414062 8.02258789 -18.96414062 8.02258789 -20.61328125 8.00976562 C-26.46094007 7.9919374 -32.06629296 8.20659662 -37.84765625 9.09765625 C-36.84765625 7.09765625 -36.84765625 7.09765625 -33.91015625 6.03515625 C-29.29695896 4.81458113 -24.5927349 4.46045904 -19.84765625 4.09765625 C-20.17765625 3.43765625 -20.50765625 2.77765625 -20.84765625 2.09765625 C-19.55988281 2.03707031 -18.27210937 1.97648438 -16.9453125 1.9140625 C-15.26691466 1.82967378 -13.58852989 1.74502495 -11.91015625 1.66015625 C-10.63495117 1.60118164 -10.63495117 1.60118164 -9.33398438 1.54101562 C-8.52509766 1.49912109 -7.71621094 1.45722656 -6.8828125 1.4140625 C-5.75951538 1.35907593 -5.75951538 1.35907593 -4.61352539 1.30297852 C-2.44212292 1.05050382 -2.21170839 0.11689791 0 0 Z " fill="#EBFCFD" transform="translate(101.84765625,-0.09765625)"/>
<path d="M0 0 C3.63 1.98 7.26 3.96 11 6 C10.34 6.66 9.68 7.32 9 8 C7.68 8 6.36 8 5 8 C5 8.66 5 9.32 5 10 C-7.36494734 12.62286762 -20.1140251 13.95659949 -32 9 C-33.216875 8.690625 -34.43375 8.38125 -35.6875 8.0625 C-39.43007921 6.86205006 -41.84749853 5.30670839 -45 3 C-42.30234372 1.65117186 -40.84835666 2.19661735 -38 3 C-37.67 3.66 -37.34 4.32 -37 5 C-29.3583252 8.8208374 -21.92277984 9.16491839 -13.5 9.125 C-12.68402344 9.12886719 -11.86804688 9.13273437 -11.02734375 9.13671875 C-3.00347089 9.58505462 -3.00347089 9.58505462 4 7 C3.01 6.67 2.02 6.34 1 6 C0.505 3.03 0.505 3.03 0 0 Z " fill="#381B84" transform="translate(95,114)"/>
<path d="M0 0 C0 3.5747073 -0.55352838 4.46916729 -3 7 C-3.804375 7.103125 -4.60875 7.20625 -5.4375 7.3125 C-8.03663056 7.72920164 -8.03663056 7.72920164 -9.140625 9.50390625 C-9.82348039 10.72438286 -10.48003216 11.96006432 -11.10546875 13.2109375 C-12 15 -12 15 -14 18 C-14.99 18.33 -15.98 18.66 -17 19 C-17.309375 19.99 -17.61875 20.98 -17.9375 22 C-18.288125 22.99 -18.63875 23.98 -19 25 C-20.33333333 25.33333333 -21.66666667 25.66666667 -23 26 C-24.17082878 28.92914165 -24.17082878 28.92914165 -25 32 C-25.66 32.66 -26.32 33.32 -27 34 C-26.44894091 30.0507432 -25.61064629 26.65079826 -24 23 C-23.34 23 -22.68 23 -22 23 C-21.67 21.35 -21.34 19.7 -21 18 C-20.34 18 -19.68 18 -19 18 C-18.731875 17.4225 -18.46375 16.845 -18.1875 16.25 C-16.97070811 13.94449957 -15.69666121 11.97943808 -14 10 C-13.34 10 -12.68 10 -12 10 C-12 9.34 -12 8.68 -12 8 C-9.8828125 6.30859375 -9.8828125 6.30859375 -7.125 4.4375 C-6.22007813 3.81746094 -5.31515625 3.19742187 -4.3828125 2.55859375 C-2 1 -2 1 0 0 Z " fill="#00A468" transform="translate(102,14)"/>
<path d="M0 0 C11.34607651 9.26210328 18.81911269 19.78094364 23 34 C23.125 36.875 23.125 36.875 23 39 C20.70715382 36.70715382 20.3203846 35.27066244 19.4375 32.1875 C19.18871094 31.33542969 18.93992188 30.48335937 18.68359375 29.60546875 C18.0216976 27.08269884 17.48304719 24.56245031 17 22 C16.01 22 15.02 22 14 22 C13.35242375 20.56328432 12.70700547 19.12559584 12.0625 17.6875 C11.70285156 16.88699219 11.34320313 16.08648437 10.97265625 15.26171875 C10 13 10 13 9 10 C8.34 10 7.68 10 7 10 C5.31288577 8.3540349 3.6454378 6.68762851 2 5 C1.67 5 1.34 5 1 5 C0.87882813 5.78503906 0.75765625 6.57007812 0.6328125 7.37890625 C-1.30106184 19.50281074 -1.30106184 19.50281074 -3 24 C-3.99 24.33 -4.98 24.66 -6 25 C-5.73445312 23.94941406 -5.46890625 22.89882812 -5.1953125 21.81640625 C-3.36816609 14.56308403 -1.56747641 7.31488991 0 0 Z " fill="#D12615" transform="translate(142,67)"/>
<path d="M0 0 C8.6620094 0.03828512 16.3773103 2.6357817 24.5 5.375 C26.23443359 5.95121094 26.23443359 5.95121094 28.00390625 6.5390625 C28.82761719 6.81492187 29.65132812 7.09078125 30.5 7.375 C30.5 8.365 30.5 9.355 30.5 10.375 C31.16 10.375 31.82 10.375 32.5 10.375 C32.83 8.065 33.16 5.755 33.5 3.375 C33.83 3.375 34.16 3.375 34.5 3.375 C34.5 6.675 34.5 9.975 34.5 13.375 C33.42621094 12.89289063 32.35242188 12.41078125 31.24609375 11.9140625 C29.8100032 11.27580003 28.37379921 10.63779278 26.9375 10 C26.23302734 9.68289062 25.52855469 9.36578125 24.80273438 9.0390625 C16.6734102 5.44267945 9.68492875 4.04005283 0.8125 4.125 C-0.1583252 4.12886719 -1.12915039 4.13273437 -2.12939453 4.13671875 C-9.09484421 4.22054164 -15.70220232 4.76876932 -22.5 6.375 C-19.2302144 3.47732075 -16.60418635 2.82501279 -12.3125 2.25 C-7.75515347 1.62178053 -4.58745861 0.14761624 0 0 Z " fill="#189951" transform="translate(106.5,52.625)"/>
<path d="M0 0 C1.2375 0.391875 2.475 0.78375 3.75 1.1875 C4.4925 1.455625 5.235 1.72375 6 2 C4.375 3.1875 4.375 3.1875 2 4 C-0.03412421 3.07137808 -2.03247172 2.06246527 -4 1 C-9.23951904 -0.19692492 -14.46513831 -0.21805161 -19.8125 -0.25 C-20.66392578 -0.270625 -21.51535156 -0.29125 -22.39257812 -0.3125 C-28.5062826 -0.34975029 -33.30852425 0.87320397 -39 3 C-40.67894563 3.43067604 -42.36496059 3.83721409 -44.0625 4.1875 C-44.81660156 4.34605469 -45.57070313 4.50460938 -46.34765625 4.66796875 C-46.89292969 4.77753906 -47.43820313 4.88710937 -48 5 C-48 5.66 -48 6.32 -48 7 C-48.99 7 -49.98 7 -51 7 C-51.33 7.99 -51.66 8.98 -52 10 C-53.32 9.67 -54.64 9.34 -56 9 C-39.44014113 -3.4519869 -19.59503564 -6.43747165 0 0 Z " fill="#34A7CB" transform="translate(102,10)"/>
<path d="M0 0 C3.0240394 2.74912673 4.8178377 5.22579415 5.24291992 9.3659668 C5.23675659 10.64467651 5.23675659 10.64467651 5.23046875 11.94921875 C5.22853516 12.87927734 5.22660156 13.80933594 5.22460938 14.76757812 C5.21236328 15.73115234 5.20011719 16.69472656 5.1875 17.6875 C5.18685547 18.66267578 5.18621094 19.63785156 5.18554688 20.64257812 C5.14034598 27.85965402 5.14034598 27.85965402 4 29 C3.8453125 30.794375 3.8453125 30.794375 3.6875 32.625 C3.19065484 37.21253694 1.48548638 40.15150496 -1 44 C-1.66 44 -2.32 44 -3 44 C-3 43.34 -3 42.68 -3 42 C-2.34 42 -1.68 42 -1 42 C0.39716473 33.65443568 1.19417137 25.52596739 1.1875 17.0625 C1.18814453 16.28285889 1.18878906 15.50321777 1.18945312 14.69995117 C1.14278353 9.72592655 0.70031357 4.92460503 0 0 Z " fill="#FEFEE1" transform="translate(188,48)"/>
<path d="M0 0 C0.92490234 -0.01611328 1.84980469 -0.03222656 2.80273438 -0.04882812 C9.35034227 -0.0534165 14.9066284 1.1040069 21.0625 3.3125 C21.0625 3.6425 21.0625 3.9725 21.0625 4.3125 C18.89453125 4.09570312 18.89453125 4.09570312 16.7265625 3.87890625 C15.35612793 3.74186279 15.35612793 3.74186279 13.95800781 3.60205078 C13.00249023 3.50649902 12.04697266 3.41094727 11.0625 3.3125 C10.17143555 3.22339355 9.28037109 3.13428711 8.36230469 3.04248047 C3.15478516 2.52172852 -2.05273438 2.00097656 -7.26025391 1.48022461 C-7.81374512 1.42487549 -8.36723633 1.36952637 -8.9375 1.3125 C-9.2675 2.3025 -9.5975 3.2925 -9.9375 4.3125 C-10.55496094 4.33828125 -11.17242187 4.3640625 -11.80859375 4.390625 C-17.55246958 4.77529857 -21.9762701 5.88909714 -27.125 8.47265625 C-28.9375 9.3125 -28.9375 9.3125 -30.9375 9.3125 C-31.2675 10.3025 -31.5975 11.2925 -31.9375 12.3125 C-32.5975 12.3125 -33.2575 12.3125 -33.9375 12.3125 C-33.9375 11.3225 -33.9375 10.3325 -33.9375 9.3125 C-31.79787192 8.17420569 -29.65191001 7.05215842 -27.5 5.9375 C-26.90767578 5.62039062 -26.31535156 5.30328125 -25.70507812 4.9765625 C-17.38938498 0.70754356 -9.24554834 -0.03208032 0 0 Z " fill="#052B0D" transform="translate(106.9375,55.6875)"/>
<path d="M0 0 C0.66 0 1.32 0 2 0 C3.49821059 3.37097383 4 5.20442119 4 9 C3.05125 9.28875 2.1025 9.5775 1.125 9.875 C-2.05211578 10.76825109 -2.05211578 10.76825109 -4 13 C-4 12.34 -4 11.68 -4 11 C-5.98 11.99 -5.98 11.99 -8 13 C-8 13.66 -8 14.32 -8 15 C-8.78375 15.309375 -9.5675 15.61875 -10.375 15.9375 C-12.92330128 16.92875038 -12.92330128 16.92875038 -15 18 C-15.66 17.34 -16.32 16.68 -17 16 C-16.40832031 15.56429687 -15.81664062 15.12859375 -15.20703125 14.6796875 C-9.72753579 10.55326676 -9.72753579 10.55326676 -5.0625 5.5625 C-4.381875 4.716875 -3.70125 3.87125 -3 3 C-2.34 3 -1.68 3 -1 3 C-0.67 2.01 -0.34 1.02 0 0 Z " fill="#FCF3F9" transform="translate(155,149)"/>
<path d="M0 0 C3.05264359 5.69826803 3.19307701 10.65460131 3.1875 17 C3.18741943 17.845625 3.18733887 18.69125 3.18725586 19.5625 C3.11782682 27.23331265 2.43749432 34.68751704 0 42 C-0.66 42 -1.32 42 -2 42 C-2.33 43.98 -2.66 45.96 -3 48 C-3.33 48 -3.66 48 -4 48 C-4.25 42.375 -4.25 42.375 -2 39 C-1.57922598 36.29404578 -1.57922598 36.29404578 -1.4375 33.375 C-1.09817672 28.09817672 -1.09817672 28.09817672 0 27 C0.08758003 25.00035018 0.10696576 22.9976389 0.09765625 20.99609375 C0.09443359 19.78115234 0.09121094 18.56621094 0.08789062 17.31445312 C0.07532227 15.39536133 0.07532227 15.39536133 0.0625 13.4375 C0.05798828 12.15423828 0.05347656 10.87097656 0.04882812 9.54882812 C0.03699545 6.36583978 0.02051068 3.18294238 0 0 Z " fill="#F1EE2E" transform="translate(187,48)"/>
<path d="M0 0 C5.74343333 1.28934218 9.42223326 3.26304756 14 7 C14 7.66 14 8.32 14 9 C13.01 9.495 13.01 9.495 12 10 C11.53248212 12.35599235 11.53248212 12.35599235 11.375 15.0625 C11.30023438 15.98160156 11.22546875 16.90070313 11.1484375 17.84765625 C11.09945312 18.55792969 11.05046875 19.26820312 11 20 C8.51953125 18.91796875 8.51953125 18.91796875 6 17 C5.51171875 13.86328125 5.51171875 13.86328125 5.6875 10.3125 C5.73261719 9.13300781 5.77773437 7.95351562 5.82421875 6.73828125 C5.88222656 5.83464844 5.94023437 4.93101563 6 4 C5.01 4 4.02 4 3 4 C2.67 4.99 2.34 5.98 2 7 C1.34 7 0.68 7 0 7 C0.66 5.68 1.32 4.36 2 3 C1.34 2.67 0.68 2.34 0 2 C0 1.34 0 0.68 0 0 Z " fill="#1F1B0E" transform="translate(128,60)"/>
<path d="M0 0 C1.53271273 4.58798777 0.02911182 6.77944742 -2 11 C-1.67 11.33 -1.34 11.66 -1 12 C-0.95936168 13.66617115 -0.957279 15.33388095 -1 17 C-1.99 17 -2.98 17 -4 17 C-4.66 16.01 -5.32 15.02 -6 14 C-6.45375 14.66 -6.9075 15.32 -7.375 16 C-7.91125 16.66 -8.4475 17.32 -9 18 C-9.66 18 -10.32 18 -11 18 C-11 18.66 -11 19.32 -11 20 C-11.66 20.33 -12.32 20.66 -13 21 C-13.33 21.99 -13.66 22.98 -14 24 C-16.21484375 25.203125 -16.21484375 25.203125 -18.9375 26.25 C-19.83339844 26.60578125 -20.72929688 26.9615625 -21.65234375 27.328125 C-24 28 -24 28 -26 27 C-25.154375 26.45472656 -24.30875 25.90945312 -23.4375 25.34765625 C-13.0547791 18.50756385 -5.56590717 11.31912851 0 0 Z " fill="#C4232D" transform="translate(135,92)"/>
<path d="M0 0 C0 0.99 0 1.98 0 3 C-0.66 3 -1.32 3 -2 3 C-1.95359375 3.60328125 -1.9071875 4.2065625 -1.859375 4.828125 C-1.56248734 11.40206603 -1.56248734 11.40206603 -3.875 14.5625 C-6 16 -6 16 -8 16 C-8 14.68 -8 13.36 -8 12 C-8.99 12 -9.98 12 -11 12 C-11 13.65 -11 15.3 -11 17 C-12.32 17.33 -13.64 17.66 -15 18 C-13.39899175 10.88440779 -8.53201048 5.49857947 -2.5625 1.5 C-1.2940625 0.7575 -1.2940625 0.7575 0 0 Z " fill="#1F3195" transform="translate(70,68)"/>
<path d="M0 0 C0.33 0 0.66 0 1 0 C1.02712153 1.916588 1.04645097 3.8332873 1.0625 5.75 C1.07410156 6.81734375 1.08570313 7.8846875 1.09765625 8.984375 C1.01413799 11.56341879 0.68707899 13.54317211 0 16 C-0.51519614 22.18235364 0.41030567 27.5246301 1.875 33.5 C2.04862061 34.21897461 2.22224121 34.93794922 2.40112305 35.67871094 C2.86565496 37.471611 3.42564558 39.23920543 4 41 C4.66 41.33 5.32 41.66 6 42 C6.6328125 44.06640625 6.6328125 44.06640625 7.125 46.5625 C7.37636719 47.80193359 7.37636719 47.80193359 7.6328125 49.06640625 C7.81457031 50.02353516 7.81457031 50.02353516 8 51 C4.42328708 47.8808623 2.9368511 44.9948776 1.3125 40.5625 C0.89613281 39.45003906 0.47976562 38.33757812 0.05078125 37.19140625 C-2.00476836 30.94834295 -2.18295243 25.20416218 -2.1875 18.6875 C-2.19974609 17.77548828 -2.21199219 16.86347656 -2.22460938 15.92382812 C-2.23678369 10.26277033 -1.6106755 5.4304593 0 0 Z " fill="#21A4D2" transform="translate(25,48)"/>
<path d="M0 0 C0.33 0 0.66 0 1 0 C1.21914062 0.82242188 1.43828125 1.64484375 1.6640625 2.4921875 C4.52446476 12.56173368 8.22074097 20.86901255 16 28 C16.66 28.99 17.32 29.98 18 31 C16.02 31.33 14.04 31.66 12 32 C12.33 30.35 12.66 28.7 13 27 C11.5459375 26.4740625 11.5459375 26.4740625 10.0625 25.9375 C7 24 7 24 6.125 20.3125 C6.08375 19.219375 6.0425 18.12625 6 17 C5.34 17 4.68 17 4 17 C3.67 15.02 3.34 13.04 3 11 C2.01 11 1.02 11 0 11 C-0.33 12.65 -0.66 14.3 -1 16 C-1.66 16 -2.32 16 -3 16 C-3.18501977 11.92956503 -2.89096914 9.55947131 -1 6 C-0.61709538 4.00889599 -0.27395385 2.00899487 0 0 Z " fill="#2B2C81" transform="translate(73,80)"/>
<path d="M0 0 C-7.96608271 9.30200963 -19.06620326 16.11279111 -31 19 C-33.2421875 18.55859375 -33.2421875 18.55859375 -35 18 C-34.01 18 -33.02 18 -32 18 C-32 17.34 -32 16.68 -32 16 C-31.443125 15.91363281 -30.88625 15.82726562 -30.3125 15.73828125 C-24.59605936 14.68576093 -19.36619823 13.00928829 -15 9 C-15 8.01 -15 7.02 -15 6 C-12.69 6 -10.38 6 -8 6 C-7.938125 5.21625 -7.87625 4.4325 -7.8125 3.625 C-7 1 -7 1 -4.5625 -0.375 C-2 -1 -2 -1 0 0 Z " fill="#D61A7E" transform="translate(152,154)"/>
<path d="M0 0 C1.67542976 0.28604898 3.34385343 0.61781233 5 1 C5.18175781 1.58007812 5.36351562 2.16015625 5.55078125 2.7578125 C6.73982026 6.45297989 7.94692176 9.89384352 9.6875 13.375 C11 16 11 16 11 19 C11.66 19 12.32 19 13 19 C14.77410051 24.31531689 15.2577668 28.85618805 15.125 34.4375 C15.11597656 35.16904297 15.10695312 35.90058594 15.09765625 36.65429688 C15.07436153 38.43634298 15.0385019 40.21821759 15 42 C14.67 42 14.34 42 14 42 C13.90203125 40.88882813 13.8040625 39.77765625 13.703125 38.6328125 C12.2834582 23.96237194 8.08533924 12.80824507 -1 1 C-0.67 0.67 -0.34 0.34 0 0 Z " fill="#C2EF30" transform="translate(127,25)"/>
<path d="M0 0 C0 0.99 0 1.98 0 3 C-2.64 3.66 -5.28 4.32 -8 5 C-8 5.66 -8 6.32 -8 7 C-12.41665225 7.02945039 -16.83327867 7.04694816 -21.25 7.0625 C-22.48492187 7.07087891 -23.71984375 7.07925781 -24.9921875 7.08789062 C-32.71691504 7.10821886 -40.31501847 6.79005315 -48 6 C-48 5.67 -48 5.34 -48 5 C-47.07251953 5.00523682 -46.14503906 5.01047363 -45.18945312 5.01586914 C-41.71548834 5.03301327 -38.24156918 5.04549965 -34.76757812 5.05493164 C-33.27017503 5.05992943 -31.77277673 5.0667299 -30.27539062 5.07543945 C-28.11066495 5.08770623 -25.94600435 5.09327397 -23.78125 5.09765625 C-22.48251953 5.10289307 -21.18378906 5.10812988 -19.84570312 5.11352539 C-15.81913327 4.9946608 -11.98584904 4.56026769 -8 4 C-7.67 3.01 -7.34 2.02 -7 1 C-4.52260646 0.09162237 -2.66420516 0 0 0 Z " fill="#FC075F" transform="translate(160,119)"/>
<path d="M0 0 C0 0.66 0 1.32 0 2 C3.465 1.505 3.465 1.505 7 1 C7.495 2.98 7.495 2.98 8 5 C8.99 5 9.98 5 11 5 C11 5.66 11 6.32 11 7 C8.36 6.34 5.72 5.68 3 5 C3 4.34 3 3.68 3 3 C1.00133314 2.65876419 -0.99902542 2.3274322 -3 2 C-4.0209375 1.8246875 -5.041875 1.649375 -6.09375 1.46875 C-10.73816288 0.91142045 -15.2664357 0.89132218 -19.9375 0.9375 C-20.81212891 0.94201172 -21.68675781 0.94652344 -22.58789062 0.95117188 C-24.72529047 0.96285166 -26.86265463 0.98078311 -29 1 C-29 0.34 -29 -0.32 -29 -1 C-18.8826164 -2.47161943 -10.06147219 -1.90674261 0 0 Z " fill="#FEFBC4" transform="translate(149,7)"/>
<path d="M0 0 C-0.16505249 9.30295844 -1.05348149 20.05348149 -8 27 C-7.85957123 25.35369672 -7.71250671 23.70795821 -7.5625 22.0625 C-7.48128906 21.14597656 -7.40007812 20.22945312 -7.31640625 19.28515625 C-7 17 -7 17 -6 16 C-5.50110053 12.70726348 -5.09845232 9.40730902 -4.6953125 6.1015625 C-4.1245736 3.55568222 -3.27110249 0 0 0 Z " fill="#241410" transform="translate(141,69)"/>
<path d="M0 0 C0 0.66 0 1.32 0 2 C-0.66 2 -1.32 2 -2 2 C-2 3.65 -2 5.3 -2 7 C-1.360625 7.103125 -0.72125 7.20625 -0.0625 7.3125 C0.618125 7.539375 1.29875 7.76625 2 8 C2.33 8.99 2.66 9.98 3 11 C3.99 11 4.98 11 6 11 C6.33 10.34 6.66 9.68 7 9 C7.66 9 8.32 9 9 9 C8.835 9.928125 8.67 10.85625 8.5 11.8125 C7.92251612 14.95621353 7.92251612 14.95621353 8 18 C-4.82242991 7.53271028 -4.82242991 7.53271028 -7 1 C-4.53721199 -0.231394 -2.7204945 -0.07159196 0 0 Z " fill="#1C1833" transform="translate(87,96)"/>
<path d="M0 0 C3.65316671 1.24976756 4.78065836 1.67098753 7 5 C7.99 5 8.98 5 10 5 C10 5.66 10 6.32 10 7 C10.99 7.33 11.98 7.66 13 8 C12.85769192 9.41702513 12.71099254 10.8336096 12.5625 12.25 C12.48128906 13.03890625 12.40007812 13.8278125 12.31640625 14.640625 C12.02365007 16.82364639 11.57935581 18.8773182 11 21 C10.68546875 20.20335938 10.3709375 19.40671875 10.046875 18.5859375 C7.78204707 12.97844185 5.61218319 7.8577636 2 3 C1.34 2.01 0.68 1.02 0 0 Z " fill="#FAFCF2" transform="translate(176,27)"/>
<path d="M0 0 C0.99 0.33 1.98 0.66 3 1 C2.50628906 1.48210938 2.01257813 1.96421875 1.50390625 2.4609375 C0.54291016 3.40839844 0.54291016 3.40839844 -0.4375 4.375 C-1.07558594 5.00148438 -1.71367188 5.62796875 -2.37109375 6.2734375 C-4.07882176 7.91723061 -4.07882176 7.91723061 -5 10 C-5.66 10 -6.32 10 -7 10 C-7.2784375 10.72316406 -7.556875 11.44632813 -7.84375 12.19140625 C-8.94157309 14.85807787 -10.17386581 17.37822274 -11.5 19.9375 C-13.33528096 23.55933764 -14.86730365 27.08704898 -16 31 C-16.33 31 -16.66 31 -17 31 C-16.25560701 20.08223613 -11.23126573 10.19554356 -3 3 C-2.34 3 -1.68 3 -1 3 C-0.67 2.01 -0.34 1.02 0 0 Z " fill="#CCF8FD" transform="translate(41,20)"/>
<path d="M0 0 C1.19418401 2.38836801 1.08665505 3.77780037 1.02734375 6.4375 C1.01509766 7.33339844 1.00285156 8.22929688 0.99023438 9.15234375 C0.95565519 11.01961966 0.9167446 12.88682148 0.87304688 14.75390625 C0.79652714 21.08253815 1.51300206 26.84851555 3 33 C-0.4005866 30.73294227 -0.8385441 29.80106621 -2 26 C-2.25878906 23.36865234 -2.25878906 23.36865234 -2.265625 20.5859375 C-2.26820312 19.57789062 -2.27078125 18.56984375 -2.2734375 17.53125 C-2.26570313 16.4896875 -2.25796875 15.448125 -2.25 14.375 C-2.25773437 13.32570313 -2.26546875 12.27640625 -2.2734375 11.1953125 C-2.27085938 10.18984375 -2.26828125 9.184375 -2.265625 8.1484375 C-2.26224121 6.77437744 -2.26224121 6.77437744 -2.25878906 5.37255859 C-2 3 -2 3 0 0 Z " fill="#C6F3FD" transform="translate(23,54)"/>
<path d="M0 0 C0.66 0 1.32 0 2 0 C2.268125 0.639375 2.53625 1.27875 2.8125 1.9375 C3.88667752 4.33131686 3.88667752 4.33131686 7 5 C7 8.63 7 12.26 7 16 C7.66 16 8.32 16 9 16 C9.33 20.29 9.66 24.58 10 29 C9.34 29 8.68 29 8 29 C7.84144531 28.05640625 7.68289062 27.1128125 7.51953125 26.140625 C6.10806155 18.37364256 4.29594531 11.52299551 0.98828125 4.29296875 C0 2 0 2 0 0 Z " fill="#FED426" transform="translate(158,84)"/>
<path d="M0 0 C2.3431213 0.25561323 4.67843403 0.59270772 7 1 C7.33 1.66 7.66 2.32 8 3 C12.72482204 5.36241102 16.71742162 6.36609059 22 7 C22.33 7.33 22.66 7.66 23 8 C25.52596259 8.23653523 28.03107207 8.42173692 30.5625 8.5625 C31.27341797 8.60568359 31.98433594 8.64886719 32.71679688 8.69335938 C34.47761912 8.79971777 36.2387832 8.90038846 38 9 C38 9.33 38 9.66 38 10 C29.05684215 10.2962764 21.38055932 10.49479756 13 7 C11.1746875 6.5359375 11.1746875 6.5359375 9.3125 6.0625 C5.54792794 4.85499575 3.13772451 3.37242585 0 1 C0 0.67 0 0.34 0 0 Z " fill="#631887" transform="translate(50,116)"/>
<path d="M0 0 C-0.99 0.66 -1.98 1.32 -3 2 C-2.96044102 3.92309422 -2.96044102 3.92309422 -2 6 C-0.03533587 7.06775224 1.96855359 8.06553465 4 9 C5.9375 10.4375 5.9375 10.4375 7 12 C6.56640625 14.09765625 6.56640625 14.09765625 6 16 C5.35933594 15.38511719 4.71867187 14.77023438 4.05859375 14.13671875 C-0.73396075 9.65843012 -4.72611727 6.04583133 -11 4 C-7.64191281 0.32209498 -4.88401581 -0.13200043 0 0 Z " fill="#E0EE21" transform="translate(119,10)"/>
<path d="M0 0 C2.56976865 3.18651312 5.10453855 6.39944077 7.625 9.625 C8.21539062 10.38039062 8.80578125 11.13578125 9.4140625 11.9140625 C10.66952015 13.56532945 11.8493672 15.27405081 13 17 C9.47465971 16.70622164 8.25695065 16.27897499 5.8125 13.625 C4.52549568 11.76106271 3.25644705 9.88467057 2 8 C0.68 8.33 -0.64 8.66 -2 9 C-1.34 6.03 -0.68 3.06 0 0 Z " fill="#FCDEF6" transform="translate(53,142)"/>
<path d="M0 0 C-6.93174805 3.61385516 -14.37243757 5.46727469 -22 7 C-22 7.66 -22 8.32 -22 9 C-22.99 9 -23.98 9 -25 9 C-25.33 9.99 -25.66 10.98 -26 12 C-27.32 11.67 -28.64 11.34 -30 11 C-21.26441915 4.43138494 -11.19839912 -1.09788227 0 0 Z " fill="#23A5CF" transform="translate(76,8)"/>
<path d="M0 0 C4.37648119 2.5985357 8.68958661 5.29395884 13 8 C9.2735915 9.04702186 5.86986958 9.07442057 2 9 C2 9.66 2 10.32 2 11 C1.01 11.33 0.02 11.66 -1 12 C-1.33 10.68 -1.66 9.36 -2 8 C-0.68 7.01 0.64 6.02 2 5 C1.34 3.35 0.68 1.7 0 0 Z " fill="#FDE4F6" transform="translate(66,159)"/>
<path d="M0 0 C0.625 1.8125 0.625 1.8125 1 4 C0.01 5.485 0.01 5.485 -1 7 C-1.45394552 9.27912938 -1.45394552 9.27912938 -1.625 11.6875 C-1.69976562 12.49574219 -1.77453125 13.30398437 -1.8515625 14.13671875 C-1.90054688 14.75160156 -1.94953125 15.36648437 -2 16 C-2.99 16.33 -3.98 16.66 -5 17 C-5 20.96 -5 24.92 -5 29 C-5.66 29 -6.32 29 -7 29 C-7.60637877 18.69156093 -5.08683988 8.94582187 0 0 Z " fill="#0C3F9A" transform="translate(54,86)"/>
<path d="M0 0 C5.39965199 3.39406696 7.69373552 8.24320905 10 14 C10.3769815 15.65733939 10.72398166 17.32288857 11 19 C6.65751414 16.03921419 3.74893736 13.68218678 2.6875 8.375 C2.58824219 7.64023437 2.48898438 6.90546875 2.38671875 6.1484375 C1.96538082 3.8076712 1.14789214 2.07089113 0 0 Z " fill="#F1EF3B" transform="translate(176,28)"/>
<path d="M0 0 C0.33 0 0.66 0 1 0 C1 1.98 1 3.96 1 6 C1.99 6 2.98 6 4 6 C4 11.28 4 16.56 4 22 C1.6316061 18.44740915 1.05598821 15.11665395 0.3125 11 C0.17005859 10.27554688 0.02761719 9.55109375 -0.11914062 8.8046875 C-0.74706694 5.41825902 -1.10612179 3.31836536 0 0 Z " fill="#151C2E" transform="translate(72,66)"/>
<path d="M0 0 C0 0.66 0 1.32 0 2 C-0.75925781 2.18175781 -1.51851562 2.36351563 -2.30078125 2.55078125 C-3.79158203 2.92783203 -3.79158203 2.92783203 -5.3125 3.3125 C-6.29863281 3.55613281 -7.28476563 3.79976563 -8.30078125 4.05078125 C-11.0670039 5.02356288 -12.03137448 5.9398105 -14 8 C-17.1875 8.1875 -17.1875 8.1875 -20 8 C-19.360625 7.896875 -18.72125 7.79375 -18.0625 7.6875 C-17.381875 7.460625 -16.70125 7.23375 -16 7 C-15.67 6.01 -15.34 5.02 -15 4 C-9.9307466 0.43782193 -6.10949768 -0.13885222 0 0 Z " fill="#FC0E3B" transform="translate(164,116)"/>
<path d="M0 0 C1.53271273 4.58798777 0.02911182 6.77944742 -2 11 C-1.67 11.33 -1.34 11.66 -1 12 C-0.95936168 13.66617115 -0.957279 15.33388095 -1 17 C-1.99 17 -2.98 17 -4 17 C-6.08605578 13.56414343 -6.08605578 13.56414343 -5.71875 11.15625 C-4.88538187 8.6561456 -3.7480937 6.53513773 -2.4375 4.25 C-1.98246094 3.45078125 -1.52742187 2.6515625 -1.05859375 1.828125 C-0.53458984 0.92320313 -0.53458984 0.92320313 0 0 Z " fill="#EB1B21" transform="translate(135,92)"/>
<path d="M0 0 C0.66 0 1.32 0 2 0 C2.33 1.32 2.66 2.64 3 4 C3.66 4 4.32 4 5 4 C5 4.66 5 5.32 5 6 C7.97 6.495 7.97 6.495 11 7 C11 8.66666667 11 10.33333333 11 12 C11.99 12.33 12.98 12.66 14 13 C14 13.66 14 14.32 14 15 C10.68580902 13.55097031 8.43407408 11.7319786 5.875 9.1875 C5.19179688 8.52105469 4.50859375 7.85460937 3.8046875 7.16796875 C1.89065763 4.86864715 0.95430817 2.81865249 0 0 Z " fill="#29A6D3" transform="translate(33,99)"/>
<path d="M0 0 C10.69220032 -0.19558903 21.32799208 0.40945411 32 1 C32 1.33 32 1.66 32 2 C28.18788097 2.1958691 24.37529466 2.38029565 20.5625 2.5625 C19.47388672 2.61857422 18.38527344 2.67464844 17.26367188 2.73242188 C16.22919922 2.78076172 15.19472656 2.82910156 14.12890625 2.87890625 C13.17056885 2.9260376 12.21223145 2.97316895 11.22485352 3.02172852 C9 3 9 3 8 2 C6.65252916 1.76924918 5.29622435 1.58846937 3.9375 1.4375 C2.638125 1.293125 1.33875 1.14875 0 1 C0 0.67 0 0.34 0 0 Z " fill="#FB0476" transform="translate(112,125)"/>
<path d="M0 0 C1.98 0.99 3.96 1.98 6 3 C5.01 3.33 4.02 3.66 3 4 C2.67 6.31 2.34 8.62 2 11 C2.66 11.33 3.32 11.66 4 12 C4.4140625 14.28515625 4.4140625 14.28515625 4.625 17.0625 C4.69976562 17.98160156 4.77453125 18.90070313 4.8515625 19.84765625 C4.90054688 20.55792969 4.94953125 21.26820313 5 22 C1.01499541 18.01499541 0.21752462 10.92104485 -0.19140625 5.4296875 C-0.1881607 3.61867035 -0.10430848 1.80801365 0 0 Z " fill="#CD258B" transform="translate(47,115)"/>
<path d="M0 0 C0.66 0 1.32 0 2 0 C0.82548531 2.77612564 -0.66968014 4.8650269 -2.625 7.125 C-5.21229382 9.63546917 -5.21229382 9.63546917 -5 12 C-5.78375 12.309375 -6.5675 12.61875 -7.375 12.9375 C-9.92330128 13.92875038 -9.92330128 13.92875038 -12 15 C-12.66 14.34 -13.32 13.68 -14 13 C-13.40832031 12.56429687 -12.81664062 12.12859375 -12.20703125 11.6796875 C-6.72753579 7.55326676 -6.72753579 7.55326676 -2.0625 2.5625 C-1.381875 1.716875 -0.70125 0.87125 0 0 Z " fill="#FCDDF6" transform="translate(152,152)"/>
<path d="M0 0 C2.288491 1.77943318 2.94996237 2.65433018 3.37231445 5.57202148 C3.3693335 6.57821533 3.36635254 7.58440918 3.36328125 8.62109375 C3.36263672 9.72130859 3.36199219 10.82152344 3.36132812 11.95507812 C3.34521484 13.10427734 3.32910156 14.25347656 3.3125 15.4375 C3.31572266 16.58283203 3.31894531 17.72816406 3.32226562 18.90820312 C3.26234434 28.21779259 3.26234434 28.21779259 1 32 C1.00523682 31.31486328 1.01047363 30.62972656 1.01586914 29.92382812 C1.03681445 26.78256163 1.0497156 23.64130989 1.0625 20.5 C1.07087891 19.42234375 1.07925781 18.3446875 1.08789062 17.234375 C1.10571885 11.38671618 0.89105963 5.78136329 0 0 Z " fill="#F6F380" transform="translate(188,48)"/>
<path d="M0 0 C1.32 0 2.64 0 4 0 C4 0.66 4 1.32 4 2 C4.66 1.67 5.32 1.34 6 1 C7.99960012 0.960008 10.00047242 0.95653201 12 1 C11.34 2.32 10.68 3.64 10 5 C10.66 5.33 11.32 5.66 12 6 C12 6.99 12 7.98 12 9 C11.34 9 10.68 9 10 9 C10 8.34 10 7.68 10 7 C9.46375 6.7525 8.9275 6.505 8.375 6.25 C5.42838581 4.69915043 2.72082434 2.91694442 0 1 C0 0.67 0 0.34 0 0 Z " fill="#FBFCD3" transform="translate(162,15)"/>
<path d="M0 0 C0.53625 0.13277344 1.0725 0.26554688 1.625 0.40234375 C9.69918795 2.22169202 17.75981434 2.61150489 26 3 C26 3.33 26 3.66 26 4 C22.22942453 4.11597653 18.45930607 4.18717396 14.6875 4.25 C13.61564453 4.28351563 12.54378906 4.31703125 11.43945312 4.3515625 C9.89741211 4.37089844 9.89741211 4.37089844 8.32421875 4.390625 C7.37635498 4.41157227 6.42849121 4.43251953 5.4519043 4.45410156 C3 4 3 4 1.16723633 1.97558594 C0.58945435 0.9976709 0.58945435 0.9976709 0 0 Z " fill="#FDC7EB" transform="translate(86,171)"/>
<path d="M0 0 C0.66 0 1.32 0 2 0 C1.41512359 4.00748653 0.15605425 6.85736768 -1.9375 10.3125 C-2.46214844 11.19550781 -2.98679688 12.07851562 -3.52734375 12.98828125 C-4.01332031 13.65214844 -4.49929687 14.31601563 -5 15 C-5.66 15 -6.32 15 -7 15 C-4.45454545 7.18181818 -4.45454545 7.18181818 -3 4 C-2.34 3.67 -1.68 3.34 -1 3 C-0.67 2.01 -0.34 1.02 0 0 Z " fill="#CD237E" transform="translate(159,137)"/>
<path d="M0 0 C-1.23399063 1.36877116 -2.48780623 2.71969166 -3.75 4.0625 C-4.44609375 4.81660156 -5.1421875 5.57070312 -5.859375 6.34765625 C-8 8 -8 8 -10.265625 7.74609375 C-10.83796875 7.49988281 -11.4103125 7.25367188 -12 7 C-12.33 7.66 -12.66 8.32 -13 9 C-13.66 8.67 -14.32 8.34 -15 8 C-15 7.34 -15 6.68 -15 6 C-12.69 6 -10.38 6 -8 6 C-7.938125 5.21625 -7.87625 4.4325 -7.8125 3.625 C-7 1 -7 1 -4.5625 -0.375 C-2 -1 -2 -1 0 0 Z " fill="#DC1680" transform="translate(152,154)"/>
<path d="M0 0 C0.33 0 0.66 0 1 0 C1 3.3 1 6.6 1 10 C-3.62 7.69 -8.24 5.38 -13 3 C-8.59232396 1.89808099 -7.1077065 2.41293158 -3 4 C-3 4.99 -3 5.98 -3 7 C-2.34 7 -1.68 7 -1 7 C-0.67 4.69 -0.34 2.38 0 0 Z " fill="#21933E" transform="translate(140,56)"/>
<path d="M0 0 C0.66 0 1.32 0 2 0 C2.20086443 3.71599191 2.1519437 4.77208445 0 8 C-0.66 8 -1.32 8 -2 8 C-2.28875 8.94875 -2.5775 9.8975 -2.875 10.875 C-4 14 -4 14 -6 16 C-5.44894091 12.0507432 -4.61064629 8.65079826 -3 5 C-2.34 5 -1.68 5 -1 5 C-0.67 3.35 -0.34 1.7 0 0 Z " fill="#01A48B" transform="translate(81,32)"/>
<path d="M0 0 C5.81745302 1.49165462 10.15603279 4.60460965 15 8 C15.99 8.66 16.98 9.32 18 10 C18 10.66 18 11.32 18 12 C15 12 15 12 12.625 9.6875 C11.75875 8.800625 10.8925 7.91375 10 7 C6.69646721 4.68752705 3.99117947 3.5701685 0 3 C0 2.01 0 1.02 0 0 Z " fill="#F2EC4F" transform="translate(154,12)"/>
<path d="M0 0 C0.66 0.33 1.32 0.66 2 1 C0.68 3.31 -0.64 5.62 -2 8 C-2.99 8 -3.98 8 -5 8 C-5 9.65 -5 11.3 -5 13 C-6.32 13.33 -7.64 13.66 -9 14 C-7.64002446 7.95566426 -4.14348206 4.36505864 0 0 Z " fill="#0C4CA7" transform="translate(64,72)"/>
<path d="M0 0 C0 3.61186134 -0.52269616 4.44011936 -3 7 C-6 8.1875 -6 8.1875 -9 9 C-9.99 9.33 -10.98 9.66 -12 10 C-12 9.34 -12 8.68 -12 8 C-9.8828125 6.30859375 -9.8828125 6.30859375 -7.125 4.4375 C-6.22007813 3.81746094 -5.31515625 3.19742187 -4.3828125 2.55859375 C-2 1 -2 1 0 0 Z " fill="#01A37A" transform="translate(102,14)"/>
<path d="M0 0 C1.65 0 3.3 0 5 0 C5.33 0.99 5.66 1.98 6 3 C5.01 3.495 5.01 3.495 4 4 C3.53248212 6.35599235 3.53248212 6.35599235 3.375 9.0625 C3.30023438 9.98160156 3.22546875 10.90070313 3.1484375 11.84765625 C3.09945312 12.55792969 3.05046875 13.26820312 3 14 C2.67 14 2.34 14 2 14 C1.77213542 11.94921875 1.54427083 9.8984375 1.31640625 7.84765625 C1.18113386 5.98859771 1.18113386 5.98859771 0 5 C-0.04063832 3.33382885 -0.042721 1.66611905 0 0 Z " fill="#1C1D1A" transform="translate(136,66)"/>
<path d="M0 0 C0.33 0 0.66 0 1 0 C1.33 2.64 1.66 5.28 2 8 C1.34 7.67 0.68 7.34 0 7 C-0.66 8.65 -1.32 10.3 -2 12 C-3.32 11.67 -4.64 11.34 -6 11 C-4.02 7.37 -2.04 3.74 0 0 Z " fill="#FDDDF7" transform="translate(162,136)"/>
<path d="M0 0 C0 1.65 0 3.3 0 5 C-0.639375 5.28875 -1.27875 5.5775 -1.9375 5.875 C-4.15206079 6.82823451 -4.15206079 6.82823451 -5 9 C-5.99 9 -6.98 9 -8 9 C-6.92337982 5.47651579 -4.40779676 0 0 0 Z " fill="#FCFEEC" transform="translate(186,103)"/>
<path d="M0 0 C0.33 0 0.66 0 1 0 C0.67 2.64 0.34 5.28 0 8 C-0.66 8 -1.32 8 -2 8 C-1.938125 9.11375 -1.938125 9.11375 -1.875 10.25 C-2.00398134 13.08758952 -2.57051222 14.58773938 -4 17 C-4.99 16.67 -5.98 16.34 -7 16 C-5.68 13.03 -4.36 10.06 -3 7 C-2.34 7 -1.68 7 -1 7 C-0.67 4.69 -0.34 2.38 0 0 Z " fill="#F7102A" transform="translate(140,84)"/>
<path d="M0 0 C0.66 0 1.32 0 2 0 C1.01 5.28 0.02 10.56 -1 16 C-1.99 15.67 -2.98 15.34 -4 15 C-4 14.34 -4 13.68 -4 13 C-4.66 12.67 -5.32 12.34 -6 12 C-5.01 11.67 -4.02 11.34 -3 11 C-1.96961044 8.43957934 -1.96961044 8.43957934 -1.3125 5.4375 C-1.06113281 4.42558594 -0.80976562 3.41367188 -0.55078125 2.37109375 C-0.36902344 1.58863281 -0.18726563 0.80617188 0 0 Z " fill="#1CA8ED" transform="translate(48,96)"/>
<path d="M0 0 C1.98 0.99 1.98 0.99 4 2 C3.01 2.495 3.01 2.495 2 3 C2.7425 4.1446875 2.7425 4.1446875 3.5 5.3125 C5 8 5 8 5 11 C2.525 10.01 2.525 10.01 0 9 C0 6.03 0 3.06 0 0 Z " fill="#F01A1A" transform="translate(142,70)"/>
<path d="M0 0 C3.63 1.98 7.26 3.96 11 6 C9.02 6.99 9.02 6.99 7 8 C7 7.34 7 6.68 7 6 C5.02 6 3.04 6 1 6 C0.67 4.02 0.34 2.04 0 0 Z " fill="#312880" transform="translate(95,114)"/>
<path d="M0 0 C1.5 1.1875 1.5 1.1875 3 3 C3.1875 5.6875 3.1875 5.6875 3 8 C1.02 8 -0.96 8 -3 8 C-3 6.68 -3 5.36 -3 4 C-2.34 4 -1.68 4 -1 4 C-0.67 2.68 -0.34 1.36 0 0 Z " fill="#F31B18" transform="translate(163,104)"/>
<path d="M0 0 C0.66 0.33 1.32 0.66 2 1 C0.92492371 2.29854721 -0.16043736 3.58858361 -1.25 4.875 C-1.85328125 5.59429687 -2.4565625 6.31359375 -3.078125 7.0546875 C-4.97087634 8.97052118 -6.53657727 9.96449045 -9 11 C-5.18181818 4.45454545 -5.18181818 4.45454545 -3 2 C-2.01 2 -1.02 2 0 2 C0 1.34 0 0.68 0 0 Z " fill="#450606" transform="translate(128,101)"/>
<path d="M0 0 C5.02265357 1.18180084 8.0949151 2.44992282 12 6 C7.545 5.01 7.545 5.01 3 4 C2.67 4.99 2.34 5.98 2 7 C1.34 7 0.68 7 0 7 C0.66 5.68 1.32 4.36 2 3 C1.34 2.67 0.68 2.34 0 2 C0 1.34 0 0.68 0 0 Z " fill="#0E280F" transform="translate(128,60)"/>
<path d="M0 0 C0.66 0.33 1.32 0.66 2 1 C1 3 1 3 -1.03125 3.74609375 C-2.67640882 4.20684234 -4.32224515 4.66517864 -5.96875 5.12109375 C-6.6390625 5.41113281 -7.309375 5.70117188 -8 6 C-8.33 6.99 -8.66 7.98 -9 9 C-9.66 9 -10.32 9 -11 9 C-11 8.01 -11 7.02 -11 6 C-9.21385682 4.96953278 -7.42089982 3.95086764 -5.625 2.9375 C-4.62726563 2.36902344 -3.62953125 1.80054688 -2.6015625 1.21484375 C-1.74304688 0.81394531 -0.88453125 0.41304687 0 0 Z " fill="#043518" transform="translate(84,59)"/>
<path d="M0 0 C0.9075 0.226875 1.815 0.45375 2.75 0.6875 C0.75 3.6875 0.75 3.6875 -1.75 4.25 C-2.575 4.394375 -3.4 4.53875 -4.25 4.6875 C-4.91 5.3475 -5.57 6.0075 -6.25 6.6875 C-6.58 5.3675 -6.91 4.0475 -7.25 2.6875 C-4.61280971 0.1517401 -3.74095095 -0.35970682 0 0 Z " fill="#E9F7F4" transform="translate(45.25,16.3125)"/>
<path d="M0 0 C4.4988118 3.82399003 7.01780894 9.54897458 9 15 C4.99153025 11.3255694 2.4396032 7.87920641 0 3 C0 2.01 0 1.02 0 0 Z " fill="#C91F7F" transform="translate(52,137)"/>
<path d="M0 0 C0.33 0.99 0.66 1.98 1 3 C-2.87564767 6.61139896 -2.87564767 6.61139896 -5 8 C-7.375 7.8125 -7.375 7.8125 -9 7 C-7.68 6.67 -6.36 6.34 -5 6 C-5 4.68 -5 3.36 -5 2 C-3.35 1.34 -1.7 0.68 0 0 Z " fill="#FCF28E" transform="translate(175,106)"/>
<path d="M0 0 C2.97 0.495 2.97 0.495 6 1 C6.66 3.97 7.32 6.94 8 10 C4.71211176 6.88983545 2.16264012 3.98381075 0 0 Z " fill="#FDD623" transform="translate(150,74)"/>
<path d="M0 0 C1.67542976 0.28604898 3.34385343 0.61781233 5 1 C5.33 2.65 5.66 4.3 6 6 C5.01 6 4.02 6 3 6 C0.8125 3.5 0.8125 3.5 -1 1 C-0.67 0.67 -0.34 0.34 0 0 Z " fill="#E0F622" transform="translate(127,25)"/>
<path d="M0 0 C-1.95585325 1.00484204 -3.91476237 2.00373805 -5.875 3 C-6.96554688 3.556875 -8.05609375 4.11375 -9.1796875 4.6875 C-12 6 -12 6 -14 6 C-14 5.34 -14 4.68 -14 4 C-13.34 4 -12.68 4 -12 4 C-12 3.01 -12 2.02 -12 1 C-10.56496445 0.63597631 -9.12683494 0.28413409 -7.6875 -0.0625 C-6.88699219 -0.25972656 -6.08648437 -0.45695313 -5.26171875 -0.66015625 C-3 -1 -3 -1 0 0 Z " fill="#C9F5FD" transform="translate(62,11)"/>
<path d="M0 0 C4.29 0 8.58 0 13 0 C12.67 1.32 12.34 2.64 12 4 C11.01 3.67 10.02 3.34 9 3 C7.824375 2.855625 6.64875 2.71125 5.4375 2.5625 C2 2 2 2 0 0 Z " fill="#F4088D" transform="translate(85,168)"/>
<path d="M0 0 C0 3.38023517 -0.87455622 5.83468937 -2 9 C-2.99 9 -3.98 9 -5 9 C-5.33 7.02 -5.66 5.04 -6 3 C-5.195625 2.690625 -4.39125 2.38125 -3.5625 2.0625 C-1.10919595 1.23664655 -1.10919595 1.23664655 0 0 Z " fill="#FCF5EE" transform="translate(172,111)"/>
<path d="M0 0 C3.3 0.33 6.6 0.66 10 1 C10 1.66 10 2.32 10 3 C6.7 3 3.4 3 0 3 C0 2.01 0 1.02 0 0 Z " fill="#261312" transform="translate(112,58)"/>
<path d="M0 0 C4.32511328 3.91319773 5.87983952 8.75700439 6.1875 14.5 C6.125625 15.325 6.06375 16.15 6 17 C4.58041178 14.18640173 3.19753949 11.36060393 1.875 8.5 C1.52179688 7.7471875 1.16859375 6.994375 0.8046875 6.21875 C0 4 0 4 0 0 Z " fill="#349F12" transform="translate(134,39)"/>
<path d="M0 0 C4.13621084 3.3810038 7.81316569 6.66590534 11 11 C6.73878485 10.52653165 4.81626862 8.03860562 2 5 C1.34 4.34 0.68 3.68 0 3 C0 2.01 0 1.02 0 0 Z " fill="#D03604" transform="translate(142,67)"/>
<path d="M0 0 C0.99 0.33 1.98 0.66 3 1 C2.49547781 4.74787912 1.91840767 8.32636934 1 12 C0.01 8.7 -0.98 5.4 -2 2 C-1.34 2 -0.68 2 0 2 C0 1.34 0 0.68 0 0 Z " fill="#FEFBC9" transform="translate(186,36)"/>
<path d="M0 0 C-1.5 1.5625 -1.5 1.5625 -4 3 C-6.77437543 2.96823234 -9.25286467 2.50364148 -12 2 C-8.15820154 -2.0018734 -5.05897886 -0.92747946 0 0 Z " fill="#F50683" transform="translate(120,171)"/>
<path d="M0 0 C0.99 0 1.98 0 3 0 C3 2.64 3 5.28 3 8 C2.01 8 1.02 8 0 8 C0 5.36 0 2.72 0 0 Z " fill="#EFF406" transform="translate(167,104)"/>
<path d="M0 0 C1.98 0.495 1.98 0.495 4 1 C4.33 2.98 4.66 4.96 5 7 C3.02 6.34 1.04 5.68 -1 5 C-0.67 3.35 -0.34 1.7 0 0 Z " fill="#06ABFB" transform="translate(40,100)"/>
<path d="M0 0 C0.66 0 1.32 0 2 0 C1.46515599 5.34844008 -0.46690767 9.35796103 -3 14 C-3.33 14 -3.66 14 -4 14 C-4.35233003 9.77203962 -3.55682984 8.27274219 -1 5 C-0.28566879 2.35065178 -0.28566879 2.35065178 0 0 Z " fill="#340A05" transform="translate(137,82)"/>
<path d="M0 0 C1.75 1.4375 1.75 1.4375 3 3 C0 5 0 5 -4 5 C-4 3.68 -4 2.36 -4 1 C-2.1875 0.3125 -2.1875 0.3125 0 0 Z " fill="#09A239" transform="translate(134,43)"/>
<path d="M0 0 C2.64752004 2.57784846 4.94432065 4.91648098 7 8 C3.25 9.125 3.25 9.125 1 8 C0.40644386 5.35139573 0.25790731 2.70802678 0 0 Z " fill="#D9F7FB" transform="translate(33,101)"/>
<path d="M0 0 C0.66 0 1.32 0 2 0 C2.61528766 5.07612318 0.61658349 7.82982006 -2 12 C-2.66 12 -3.32 12 -4 12 C-4 11.34 -4 10.68 -4 10 C-3.34 10 -2.68 10 -2 10 C-1.34 6.7 -0.68 3.4 0 0 Z " fill="#FDFDC9" transform="translate(189,80)"/>
<path d="M0 0 C4.46839215 -0.21278058 7.82262526 0.40861915 12 2 C12 2.33 12 2.66 12 3 C7.545 3.495 7.545 3.495 3 4 C3 3.01 3 2.02 3 1 C2.01 0.67 1.02 0.34 0 0 Z " fill="#F2EF38" transform="translate(140,8)"/>
<path d="M0 0 C2.97 0 5.94 0 9 0 C9 0.66 9 1.32 9 2 C5.7 2.33 2.4 2.66 -1 3 C-0.67 2.01 -0.34 1.02 0 0 Z " fill="#F0FFF8" transform="translate(61,2)"/>
<path d="M0 0 C2.64 0.33 5.28 0.66 8 1 C8.33 1.99 8.66 2.98 9 4 C3.46153846 3.38461538 3.46153846 3.38461538 1.125 1.4375 C0.75375 0.963125 0.3825 0.48875 0 0 Z " fill="#141C10" transform="translate(103,114)"/>
<path d="M0 0 C2 2 2 2 2 6 C0.02 6 -1.96 6 -4 6 C-3.6875 4.125 -3.6875 4.125 -3 2 C-2.01 1.34 -1.02 0.68 0 0 Z " fill="#FAFDE5" transform="translate(188,90)"/>
<path d="M0 0 C1.65 0 3.3 0 5 0 C3.63016497 3.16115776 3.0109362 3.9927092 0 6 C-1.125 2.25 -1.125 2.25 0 0 Z " fill="#18A9EE" transform="translate(58,73)"/>
<path d="M0 0 C2.35333796 4.70667591 2.17102038 6.8693886 2 12 C1.01 11.67 0.02 11.34 -1 11 C-0.67 7.37 -0.34 3.74 0 0 Z " fill="#0CA43A" transform="translate(138,52)"/>
<path d="M0 0 C2.475 0.495 2.475 0.495 5 1 C4.67 2.32 4.34 3.64 4 5 C2.68 4.67 1.36 4.34 0 4 C0 2.68 0 1.36 0 0 Z " fill="#0BA339" transform="translate(114,25)"/>
<path d="M0 0 C3.125 -0.1875 3.125 -0.1875 6 0 C6 0.99 6 1.98 6 3 C3.36 3 0.72 3 -2 3 C-1.34 2.01 -0.68 1.02 0 0 Z " fill="#382499" transform="translate(90,118)"/>
<path d="M0 0 C3.95820859 0.56545837 6.6659053 1.80902348 10 4 C9.67 4.66 9.34 5.32 9 6 C7.68397477 5.38245741 6.37226444 4.75571258 5.0625 4.125 C4.33160156 3.77695313 3.60070312 3.42890625 2.84765625 3.0703125 C1 2 1 2 0 0 Z " fill="#1A1742" transform="translate(96,114)"/>
<path d="M0 0 C1 4 1 4 -0.75 7.25 C-1.4925 8.1575 -2.235 9.065 -3 10 C-3.99 10 -4.98 10 -6 10 C-4.02 6.7 -2.04 3.4 0 0 Z " fill="#C52134" transform="translate(135,92)"/>
<path d="M0 0 C0.99 0.33 1.98 0.66 3 1 C-1.455 3.97 -1.455 3.97 -6 7 C-6.66 6.67 -7.32 6.34 -8 6 C-3.375 2 -3.375 2 0 2 C0 1.34 0 0.68 0 0 Z " fill="#CE1776" transform="translate(140,161)"/>
<path d="M0 0 C0 1.32 0 2.64 0 4 C-2.31 4 -4.62 4 -7 4 C-3.375 0 -3.375 0 0 0 Z " fill="#1F3195" transform="translate(64,115)"/>
<path d="M0 0 C0.33 0 0.66 0 1 0 C1 2.31 1 4.62 1 7 C0.01 7 -0.98 7 -2 7 C-2 6.34 -2 5.68 -2 5 C-2.66 4.67 -3.32 4.34 -4 4 C-2.68 3.34 -1.36 2.68 0 2 C0 1.34 0 0.68 0 0 Z " fill="#FBE8FC" transform="translate(46,114)"/>
<path d="M0 0 C0 3.39593478 -0.52165948 4.06619881 -2.5 6.6875 C-2.9640625 7.31011719 -3.428125 7.93273437 -3.90625 8.57421875 C-4.2671875 9.04472656 -4.628125 9.51523438 -5 10 C-5.33 9.34 -5.66 8.68 -6 8 C-4.40382422 4.16917814 -3.50015029 2.33343353 0 0 Z " fill="#F6F162" transform="translate(182,96)"/>
<path d="M0 0 C3.68851835 0.99689685 4.80574807 1.68919691 6.875 5 C7.24625 5.99 7.6175 6.98 8 8 C7.67 8.66 7.34 9.32 7 10 C6.01886757 8.70982586 5.04015801 7.41780894 4.0625 6.125 C3.24458984 5.04605469 3.24458984 5.04605469 2.41015625 3.9453125 C1 2 1 2 0 0 Z " fill="#FEFCC4" transform="translate(176,27)"/>
<path d="M0 0 C4 0 4 0 5.8125 1.25 C6.204375 1.8275 6.59625 2.405 7 3 C6.67 4.32 6.34 5.64 6 7 C4.02 4.69 2.04 2.38 0 0 Z " fill="#D0F32E" transform="translate(119,19)"/>
<path d="M0 0 C2.64 0 5.28 0 8 0 C8.66 1.32 9.32 2.64 10 4 C6.7 3.01 3.4 2.02 0 1 C0 0.67 0 0.34 0 0 Z " fill="#CBF4FC" transform="translate(96,8)"/>
<path d="M0 0 C-2.75924185 1.80411967 -3.88972103 2.0127245 -7.25 1.625 C-8.1575 1.41875 -9.065 1.2125 -10 1 C-6.54366026 -2.45633974 -4.11562231 -2.49877069 0 0 Z " fill="#F30584" transform="translate(133,167)"/>
<path d="M0 0 C0.66 0 1.32 0 2 0 C1.50168276 3.68754757 0.89932357 5.60490662 -2 8 C-2.66 7.67 -3.32 7.34 -4 7 C-3.67 6.01 -3.34 5.02 -3 4 C-2.34 3.67 -1.68 3.34 -1 3 C-0.67 2.01 -0.34 1.02 0 0 Z " fill="#E11286" transform="translate(159,137)"/>
<path d="M0 0 C0.8125 1.6875 0.8125 1.6875 1 4 C-1.4375 6.75 -1.4375 6.75 -4 9 C-3.71848913 7.68528432 -3.42446661 6.37324233 -3.125 5.0625 C-2.96257813 4.33160156 -2.80015625 3.60070312 -2.6328125 2.84765625 C-2 1 -2 1 0 0 Z " fill="#342998" transform="translate(57,87)"/>
<path d="M0 0 C3 2 3 2 3.51171875 3.9453125 C3.67447917 5.96354167 3.83723958 7.98177083 4 10 C3.34 9.67 2.68 9.34 2 9 C1.3671875 6.93359375 1.3671875 6.93359375 0.875 4.4375 C0.70742188 3.61121094 0.53984375 2.78492187 0.3671875 1.93359375 C0.24601562 1.29550781 0.12484375 0.65742187 0 0 Z " fill="#01B2E3" transform="translate(26,80)"/>
<path d="M0 0 C2.10633718 1.70828921 2.93801608 2.52148416 3.29296875 5.26171875 C3.25816406 6.06222656 3.22335938 6.86273438 3.1875 7.6875 C3.16042969 8.49574219 3.13335937 9.30398437 3.10546875 10.13671875 C3.07066406 10.75160156 3.03585938 11.36648437 3 12 C0.7655402 7.96707255 0.45503257 4.55032566 0 0 Z " fill="#FBF8A6" transform="translate(188,48)"/>
<path d="M0 0 C0.33 0.66 0.66 1.32 1 2 C0.0625 4.625 0.0625 4.625 -1 7 C-1.66 7 -2.32 7 -3 7 C-3.33 7.99 -3.66 8.98 -4 10 C-3.5205537 5.78087253 -2.83374881 3.20336822 0 0 Z " fill="#04AAE1" transform="translate(30,42)"/>
<path d="M0 0 C-0.66 1.32 -1.32 2.64 -2 4 C-4.31 4 -6.62 4 -9 4 C-3 0 -3 0 0 0 Z " fill="#FDD2F5" transform="translate(134,168)"/>
<path d="M0 0 C2.02054804 1.64169528 4.02043058 3.30911778 6 5 C6 5.33 6 5.66 6 6 C4.35 6 2.7 6 1 6 C0.67 4.02 0.34 2.04 0 0 Z " fill="#D1FAFE" transform="translate(40,109)"/>
<path d="M0 0 C1.32 0 2.64 0 4 0 C4 0.66 4 1.32 4 2 C2.68 2 1.36 2 0 2 C0 1.34 0 0.68 0 0 Z M-3 2 C-2.01 2 -1.02 2 0 2 C0 3.32 0 4.64 0 6 C-0.99 5.67 -1.98 5.34 -3 5 C-3 4.01 -3 3.02 -3 2 Z " fill="#EEF500" transform="translate(150,64)"/>
<path d="M0 0 C4.10801767 1.18676066 5.89448334 1.89448334 9 5 C4.545 4.01 4.545 4.01 0 3 C0 2.01 0 1.02 0 0 Z " fill="#F0EC38" transform="translate(154,12)"/>
<path d="M0 0 C-3.96 1.98 -3.96 1.98 -8 4 C-8.33 2.68 -8.66 1.36 -9 0 C-3.375 -1.125 -3.375 -1.125 0 0 Z " fill="#09ADD8" transform="translate(104,14)"/>
<path d="M0 0 C0.33 0 0.66 0 1 0 C1.92470553 4.71599818 2.22923777 7.67265609 0 12 C-0.66 12 -1.32 12 -2 12 C-1.34 8.04 -0.68 4.08 0 0 Z " fill="#FCC1EB" transform="translate(165,122)"/>
<path d="M0 0 C0.66 0 1.32 0 2 0 C2 1.65 2 3.3 2 5 C0.68 5.33 -0.64 5.66 -2 6 C-1.34 4.02 -0.68 2.04 0 0 Z " fill="#11449F" transform="translate(57,80)"/>
</svg>
