<?xml version="1.0" encoding="UTF-8"?>
<svg version="1.1" xmlns="http://www.w3.org/2000/svg" width="146" height="142">
<path d="M0 0 C48.18 0 96.36 0 146 0 C146 46.86 146 93.72 146 142 C97.82 142 49.64 142 0 142 C0 95.14 0 48.28 0 0 Z " fill="#D7A632" transform="translate(0,0)"/>
<path d="M0 0 C48.18 0 96.36 0 146 0 C146 26.73 146 53.46 146 81 C139.73 81 133.46 81 127 81 C127 66.48 127 51.96 127 37 C121.72 37 116.44 37 111 37 C110.90234375 33.74479167 110.8046875 30.48958333 110.70703125 27.234375 C109.80714357 23.11776175 108.38636425 22.37192518 105 20 C104.40161316 19.14960648 103.80322632 18.29921295 103.18670654 17.42304993 C101.22491054 14.79110513 101.22491054 14.79110513 98.3550415 14.36076355 C97.35132507 14.35410172 96.34760864 14.34743988 95.31347656 14.34057617 C94.17259583 14.32093307 93.03171509 14.30128998 91.85626221 14.28105164 C90.63010193 14.28498428 89.40394165 14.28891693 88.140625 14.29296875 C86.88111023 14.27784744 85.62159546 14.26272614 84.32391357 14.24714661 C80.98297686 14.21144908 77.64333576 14.19710798 74.30230713 14.19311523 C70.89017483 14.18377944 67.4783524 14.14663381 64.06640625 14.11132812 C57.37719286 14.044151 50.69008598 14.02331779 44 14 C44 22.25 44 30.5 44 39 C28.16 39.495 28.16 39.495 12 40 C11.67 69.37 11.34 98.74 11 129 C32.17651966 128.87350546 32.17651966 128.87350546 53.35288143 128.72766876 C60.92443872 128.67220064 68.49597925 128.61969739 76.06762695 128.578125 C82.70070213 128.54169552 89.33365299 128.49499284 95.96661949 128.44193649 C98.50121473 128.42335881 101.03583788 128.40826343 103.57047462 128.39665604 C107.11197957 128.37985139 110.65318432 128.35083011 114.19458008 128.31884766 C115.24977844 128.31668747 116.30497681 128.31452728 117.39215088 128.31230164 C118.35548843 128.30113815 119.31882599 128.28997467 120.31135559 128.2784729 C121.56822032 128.27017676 121.56822032 128.27017676 122.85047626 128.26171303 C125.29623347 128.12756238 125.29623347 128.12756238 128 126 C129.11572842 123.6375752 130.08124001 121.34102519 130.99609375 118.90234375 C131.40831932 117.83990196 131.40831932 117.83990196 131.82887268 116.7559967 C132.70751501 114.48655106 133.57296455 112.21235254 134.4375 109.9375 C135.57844335 106.96606026 136.72445314 103.99658887 137.87109375 101.02734375 C138.14384125 100.31830902 138.41658875 99.60927429 138.69760132 98.87875366 C140.64401225 93.84335888 142.73536597 88.90207023 145 84 C145.33 84 145.66 84 146 84 C146 103.14 146 122.28 146 142 C97.82 142 49.64 142 0 142 C0 95.14 0 48.28 0 0 Z " fill="#FDFDFC" transform="translate(0,0)"/>
<path d="M0 0 C13.73625 -0.12375 13.73625 -0.12375 27.75 -0.25 C32.0807666 -0.30462402 32.0807666 -0.30462402 36.49902344 -0.36035156 C38.78579972 -0.37203329 41.0725843 -0.38222633 43.359375 -0.390625 C44.54805176 -0.41108887 45.73672852 -0.43155273 46.96142578 -0.45263672 C48.09789551 -0.45312012 49.23436523 -0.45360352 50.40527344 -0.45410156 C51.39122498 -0.46298401 52.37717651 -0.47186646 53.39300537 -0.48101807 C56.72817972 0.13435686 57.92957135 1.36967734 60 4 C60 4.66 60 5.32 60 6 C60.639375 6.309375 61.27875 6.61875 61.9375 6.9375 C64 8 64 8 65 9 C65.09376053 10.81055025 65.1174411 12.62477201 65.11352539 14.43774414 C65.11340454 15.61518188 65.11328369 16.79261963 65.11315918 18.0057373 C65.10804321 19.25294556 65.10292725 20.50015381 65.09765625 21.78515625 C65.09664917 22.92432495 65.09564209 24.06349365 65.09460449 25.23718262 C65.08935338 29.51229858 65.07539227 33.78740025 65.0625 38.0625 C65.041875 47.611875 65.02125 57.16125 65 67 C43.55 67 22.1 67 0 67 C0 44.89 0 22.78 0 0 Z " fill="#4794AB" transform="translate(45,14)"/>
<path d="M0 0 C0.33 0 0.66 0 1 0 C1.02312635 8.5880572 1.04091658 17.17610149 1.05181217 25.76418209 C1.05704036 29.751572 1.06413684 33.73894067 1.07543945 37.72631836 C1.08627061 41.57125114 1.09227732 45.41616345 1.09487724 49.26111031 C1.09673108 50.73118983 1.10035091 52.20126818 1.10573006 53.67133904 C1.11294355 55.72354467 1.11399081 57.77566467 1.11352539 59.82788086 C1.115746 60.99814316 1.11796661 62.16840546 1.12025452 63.37413025 C1 66 1 66 0 67 C-2.01964199 67.07244053 -4.04167124 67.08377188 -6.0625 67.0625 C-7.16722656 67.05347656 -8.27195312 67.04445313 -9.41015625 67.03515625 C-10.26480469 67.02355469 -11.11945312 67.01195313 -12 67 C-12 67.66 -12 68.32 -12 69 C-13.485 69.99 -13.485 69.99 -15 71 C-16.35849252 73.78084626 -16.35849252 73.78084626 -17.5234375 77.1171875 C-17.75149078 77.72958282 -17.97954407 78.34197815 -18.21450806 78.97293091 C-18.94400505 80.93698523 -19.66000425 82.90562574 -20.375 84.875 C-21.31647234 87.43632065 -22.26320732 89.99567664 -23.2109375 92.5546875 C-23.44198181 93.18091003 -23.67302612 93.80713257 -23.91107178 94.45233154 C-26.35777917 101.04420027 -28.85236737 107.70473475 -32 114 C24.925 113.505 24.925 113.505 83 113 C81 115 81 115 78.97352409 115.24609566 C78.13469248 115.24425207 77.29586086 115.24240849 76.43161011 115.24050903 C74.98866577 115.24463303 74.98866577 115.24463303 73.51657104 115.24884033 C72.4577774 115.24164978 71.39898376 115.23445923 70.30810547 115.22705078 C69.19590637 115.22734283 68.08370728 115.22763489 66.93780518 115.22793579 C63.24752096 115.22653818 59.55743661 115.21095662 55.8671875 115.1953125 C53.3141389 115.1915839 50.76108887 115.18873621 48.20803833 115.18673706 C42.16610061 115.17987103 36.12424918 115.16409495 30.08234608 115.14403808 C23.2045689 115.12170092 16.32678832 115.11069116 9.44898391 115.10064721 C-4.7007174 115.07972928 -18.85035475 115.04453969 -33 115 C-33.0694394 103.7084605 -33.12278043 92.4169716 -33.15543652 81.12526226 C-33.17110796 75.88234109 -33.19237325 70.63956575 -33.22631836 65.39672852 C-33.25885901 60.33929316 -33.27684187 55.28199827 -33.28463173 50.22446632 C-33.29018476 48.2927002 -33.30102819 46.36094196 -33.31719017 44.42923546 C-33.33889413 41.72828796 -33.34196989 39.02792464 -33.34057617 36.3269043 C-33.351362 35.52417587 -33.36214783 34.72144745 -33.3732605 33.89439392 C-33.34313369 28.51659316 -33.34313369 28.51659316 -31.67211914 26.00085449 C-28.91119376 24.34829009 -26.31768898 24.6668647 -23.14453125 24.70703125 C-22.48289474 24.71127609 -21.82125824 24.71552094 -21.13957214 24.71989441 C-19.0301309 24.73666307 -16.92165154 24.77430901 -14.8125 24.8125 C-13.38087319 24.82754932 -11.94923138 24.8412373 -10.51757812 24.85351562 C-7.01105173 24.88400716 -3.50660006 24.94272341 0 25 C0 16.75 0 8.5 0 0 Z " fill="#EFC35D" transform="translate(44,14)"/>
<path d="M0 0 C1.42944945 2.35438733 2.08661261 3.48032433 1.625 6.25 C1.41875 6.8275 1.2125 7.405 1 8 C0.34 8 -0.32 8 -1 8 C-0.34 8.66 0.32 9.32 1 10 C1.4140625 12.1640625 1.4140625 12.1640625 1.625 14.625 C1.69976562 15.44226562 1.77453125 16.25953125 1.8515625 17.1015625 C1.90054688 17.72804688 1.94953125 18.35453125 2 19 C1.34 19 0.68 19 0 19 C0.20625 19.86625 0.4125 20.7325 0.625 21.625 C1.04047622 25.36428602 0.39666276 27.54942141 -1 31 C-1.66 30.34 -2.32 29.68 -3 29 C-3 28.01 -3 27.02 -3 26 C-5.97 26.495 -5.97 26.495 -9 27 C-9 27.33 -9 27.66 -9 28 C-7.35 28.33 -5.7 28.66 -4 29 C-4 30.32 -4 31.64 -4 33 C-16.87 33.33 -29.74 33.66 -43 34 C-31.55798404 34.17009911 -31.55798404 34.17009911 -20.11547852 34.29785156 C-11.87108295 34.43743706 -5.30381762 34.72876162 2 39 C2 35.04 2 31.08 2 27 C2.66 27 3.32 27 4 27 C4 31.62 4 36.24 4 41 C-16.13 41 -36.26 41 -57 41 C-56.67 38.69 -56.34 36.38 -56 34 C-54.68 34 -53.36 34 -52 34 C-52.33 31.36 -52.66 28.72 -53 26 C-47.93556835 24.99922272 -43.02395736 24.78798896 -37.8828125 24.68359375 C-36.74187134 24.65561707 -36.74187134 24.65561707 -35.57788086 24.6270752 C-32.76036214 24.55922887 -29.94266889 24.49879352 -27.125 24.4375 C-20.81375 24.293125 -14.5025 24.14875 -8 24 C-28.295 23.505 -28.295 23.505 -49 23 C-49 21.68 -49 20.36 -49 19 C-50.65 19.33 -52.3 19.66 -54 20 C-54 19.01 -54 18.02 -54 17 C-53.34 16.67 -52.68 16.34 -52 16 C-52.33 15.01 -52.66 14.02 -53 13 C-52.01 13 -51.02 13 -50 13 C-50 12.01 -50 11.02 -50 10 C-34.49 10 -18.98 10 -3 10 C-3 8.02 -3 6.04 -3 4 C-2.34 4 -1.68 4 -1 4 C-0.67 2.68 -0.34 1.36 0 0 Z " fill="#4E9BB1" transform="translate(105,38)"/>
<path d="M0 0 C17.49 0 34.98 0 53 0 C53 0.33 53 0.66 53 1 C35.84 1 18.68 1 1 1 C1.66 17.5 2.32 34 3 51 C3.33 51 3.66 51 4 51 C4.33 45.39 4.66 39.78 5 34 C6.98 33.505 6.98 33.505 9 33 C10.485 32.505 10.485 32.505 12 32 C14.98705105 31.89056063 17.95006951 31.83594215 20.9375 31.83203125 C21.81398193 31.82870285 22.69046387 31.82537445 23.59350586 31.82194519 C25.44612096 31.81688402 27.29874518 31.81453662 29.15136719 31.81469727 C31.98908428 31.81250842 34.82641408 31.79433781 37.6640625 31.77539062 C39.46354034 31.77245704 41.26302002 31.77047201 43.0625 31.76953125 C43.91255615 31.76234573 44.7626123 31.75516022 45.63842773 31.74775696 C51.65675178 31.77116785 51.65675178 31.77116785 55 34 C40.15 34 25.3 34 10 34 C10 34.99 10 35.98 10 37 C25.51 37 41.02 37 57 37 C57 37.33 57 37.66 57 38 C41.82 38 26.64 38 11 38 C10.67 38.99 10.34 39.98 10 41 C9.34 40.01 8.68 39.02 8 38 C8 39.32 8 40.64 8 42 C9.99833322 42.08650308 9.99833322 42.08650308 11.85565186 41.50135803 C14.11081135 40.97409182 15.99815772 40.91561271 18.30957031 40.97827148 C19.15013977 40.99836777 19.99070923 41.01846405 20.85675049 41.03916931 C21.75480408 41.06620438 22.65285767 41.09323944 23.578125 41.12109375 C24.96798615 41.15651024 24.96798615 41.15651024 26.38592529 41.19264221 C29.34077893 41.26911883 32.29535987 41.35321207 35.25 41.4375 C37.25519506 41.4907367 39.26040337 41.54347699 41.265625 41.59570312 C46.1772555 41.72471236 51.08865522 41.86055221 56 42 C56 42.33 56 42.66 56 43 C41.15 43.33 26.3 43.66 11 44 C11 44.66 11 45.32 11 46 C25.85 46.33 40.7 46.66 56 47 C52.47337452 48.76331274 51.45247448 49.25041843 47.82983398 49.30297852 C46.61353554 49.32794151 46.61353554 49.32794151 45.37266541 49.35340881 C44.50589676 49.36182297 43.63912811 49.37023712 42.74609375 49.37890625 C41.84883072 49.39590073 40.95156769 49.4128952 40.02711487 49.43040466 C37.16398119 49.48347322 34.30086115 49.52380268 31.4375 49.5625 C28.57064199 49.60645769 25.70389488 49.65318196 22.83717346 49.70530701 C21.05432981 49.73720771 19.2713884 49.7641153 17.48838806 49.78553772 C16.27681786 49.80577248 16.27681786 49.80577248 15.04077148 49.82641602 C13.97632057 49.84068382 13.97632057 49.84068382 12.8903656 49.85523987 C10.77426045 49.94031953 10.77426045 49.94031953 8 51 C8 53.31 8 55.62 8 58 C7.34 58 6.68 58 6 58 C6 59.65 6 61.3 6 63 C5.34 62.67 4.68 62.34 4 62 C3.67 62.99 3.34 63.98 3 65 C23.13 65 43.26 65 64 65 C64 60.38 64 55.76 64 51 C63.34 51 62.68 51 62 51 C62.08378906 51.61488281 62.16757813 52.22976562 62.25390625 52.86328125 C62.40666016 54.07564453 62.40666016 54.07564453 62.5625 55.3125 C62.71912109 56.51326172 62.71912109 56.51326172 62.87890625 57.73828125 C63 60 63 60 62 63 C59.03 62.34 56.06 61.68 53 61 C53 60.34 53 59.68 53 59 C51.41131104 59.00785522 51.41131104 59.00785522 49.79052734 59.01586914 C45.84327039 59.03403406 41.8960171 59.04547389 37.94873047 59.05493164 C36.24364601 59.05994564 34.53856582 59.0667585 32.83349609 59.07543945 C30.37596581 59.08763385 27.91849262 59.09325775 25.4609375 59.09765625 C24.70444916 59.10281754 23.94796082 59.10797882 23.16854858 59.11329651 C19.00317437 59.1137333 15.08567741 58.81657038 11 58 C11 57.67 11 57.34 11 57 C25.85 57 40.7 57 56 57 C56 55.68 56 54.36 56 53 C41.48 53 26.96 53 12 53 C12 52.67 12 52.34 12 52 C14.97 51.505 14.97 51.505 18 51 C18 50.67 18 50.34 18 50 C31.2 49.67 44.4 49.34 58 49 C58 50.32 58 51.64 58 53 C60.10516913 49.57910017 60.08793685 46.95715833 60 43 C60.33 42.67 60.66 42.34 61 42 C60.61140641 38.50265772 60.11403913 35.34211739 59 32 C59.66 32 60.32 32 61 32 C61 29.36 61 26.72 61 24 C61.99 23.67 62.98 23.34 64 23 C64 19.04 64 15.08 64 11 C64.33 11 64.66 11 65 11 C65 29.48 65 47.96 65 67 C43.55 67 22.1 67 0 67 C0 44.89 0 22.78 0 0 Z " fill="#4C8B96" transform="translate(45,14)"/>
<path d="M0 0 C0.33 0 0.66 0 1 0 C1 4.29 1 8.58 1 13 C6.28 13 11.56 13 17 13 C17 27.52 17 42.04 17 57 C0.125 58.125 0.125 58.125 -5.66967773 58.11352539 C-6.96989365 58.11344986 -8.27010956 58.11337433 -9.60972595 58.11329651 C-10.96768231 58.10819466 -12.32563824 58.10297876 -13.68359375 58.09765625 C-15.11947072 58.09578409 -16.55534835 58.09436398 -17.9912262 58.09336853 C-21.71466939 58.08960604 -25.43807166 58.07983181 -29.16149902 58.06866455 C-32.98331143 58.05831317 -36.80513065 58.05384194 -40.62695312 58.04882812 C-48.08465379 58.03820183 -55.54232109 58.02120394 -63 58 C-63 57.67 -63 57.34 -63 57 C-42.21 57 -21.42 57 0 57 C0 38.19 0 19.38 0 0 Z " fill="#EDC45C" transform="translate(110,24)"/>
<path d="M0 0 C1.32 0 2.64 0 4 0 C4 0.66 4 1.32 4 2 C4.66 2 5.32 2 6 2 C6 1.34 6 0.68 6 0 C20.85 0 35.7 0 51 0 C51.495 0.99 51.495 0.99 52 2 C51.67 2.66 51.34 3.32 51 4 C51.78375 4.103125 52.5675 4.20625 53.375 4.3125 C56 5 56 5 58 8 C57.625 11.6875 57.625 11.6875 57 15 C56.01 15.33 55.02 15.66 54 16 C54 15.34 54 14.68 54 14 C51.21228069 13.07076023 49.41765752 12.85132662 46.52856445 12.79467773 C45.62785721 12.77473251 44.72714996 12.75478729 43.79914856 12.73423767 C42.83031235 12.71752518 41.86147614 12.70081268 40.86328125 12.68359375 C39.37141548 12.6524221 39.37141548 12.6524221 37.84941101 12.62062073 C34.67051133 12.55520588 31.49152866 12.4962776 28.3125 12.4375 C26.15819452 12.39430712 24.00389746 12.35069258 21.84960938 12.30664062 C16.56649412 12.19953274 11.28329621 12.09775127 6 12 C6 13.32 6 14.64 6 16 C20.85 16 35.7 16 51 16 C51 16.33 51 16.66 51 17 C49.80922852 17.02505615 48.61845703 17.0501123 47.39160156 17.07592773 C42.97092042 17.17014647 38.5503911 17.27033189 34.12988281 17.37231445 C32.21715854 17.41560857 30.304397 17.45728756 28.39160156 17.49731445 C25.64116182 17.5551508 22.89090872 17.61880676 20.140625 17.68359375 C19.28631897 17.70030624 18.43201294 17.71701874 17.55181885 17.73423767 C16.75129089 17.75418289 15.95076294 17.77412811 15.12597656 17.79467773 C14.42426331 17.81022202 13.72255005 17.8257663 12.99957275 17.84178162 C10.90814203 18.00726836 9.01743692 18.43584497 7 19 C7 18.34 7 17.68 7 17 C5.68 17.33 4.36 17.66 3 18 C3 17.01 3 16.02 3 15 C1.35 15.33 -0.3 15.66 -2 16 C-2.05402274 13.89611431 -2.09280256 11.79183286 -2.125 9.6875 C-2.14820313 8.51574219 -2.17140625 7.34398437 -2.1953125 6.13671875 C-2 3 -2 3 0 0 Z " fill="#4194AD" transform="translate(49,16)"/>
<path d="M0 0 C1.23588867 0.07331543 2.47177734 0.14663086 3.74511719 0.22216797 C4.73544952 0.26819656 4.73544952 0.26819656 5.74578857 0.31515503 C7.84724075 0.41944693 9.94321955 0.56622944 12.04199219 0.71435547 C13.4689236 0.79269426 14.89601089 0.86824702 16.32324219 0.94091797 C19.81521126 1.12481211 23.30354594 1.34687363 26.79199219 1.58935547 C27.28699219 2.57935547 27.28699219 2.57935547 27.79199219 3.58935547 C12.44699219 4.08435547 12.44699219 4.08435547 -3.20800781 4.58935547 C-3.53800781 33.95935547 -3.86800781 63.32935547 -4.20800781 93.58935547 C16.96851184 93.46286093 16.96851184 93.46286093 38.14487362 93.31702423 C45.71643091 93.26155611 53.28797143 93.20905286 60.85961914 93.16748047 C67.49269432 93.13105099 74.12564518 93.08434831 80.75861168 93.03129196 C83.29320691 93.01271428 85.82783007 92.9976189 88.36246681 92.98601151 C91.90397176 92.96920686 95.44517651 92.94018558 98.98657227 92.90820312 C100.04177063 92.90604294 101.09696899 92.90388275 102.18414307 92.9016571 C103.14748062 92.89049362 104.11081818 92.87933014 105.10334778 92.86782837 C105.9412576 92.86229761 106.77916742 92.85676685 107.64246845 92.8510685 C110.08822566 92.71691785 110.08822566 92.71691785 112.79199219 90.58935547 C113.79367749 88.64102612 113.79367749 88.64102612 114.47949219 86.46435547 C114.73085937 85.73990234 114.98222656 85.01544922 115.24121094 84.26904297 C115.42296875 83.71474609 115.60472656 83.16044922 115.79199219 82.58935547 C116.12199219 82.58935547 116.45199219 82.58935547 116.79199219 82.58935547 C116.73140153 84.00717692 116.64245095 85.42380013 116.54199219 86.83935547 C116.49558594 87.62826172 116.44917969 88.41716797 116.40136719 89.22998047 C115.58999089 92.37146304 114.27582557 93.53333753 111.79199219 95.58935547 C109.44133377 96.08154678 109.44133377 96.08154678 106.79327393 96.07037354 C105.78649094 96.07587219 104.77970795 96.08137085 103.74241638 96.08703613 C102.6440596 96.07265503 101.54570282 96.05827393 100.4140625 96.04345703 C99.2528035 96.04404114 98.09154449 96.04462524 96.89509583 96.04522705 C93.05313321 96.04243825 89.21194443 96.01130689 85.37011719 95.97998047 C82.70781133 95.97252091 80.04554846 95.96662992 77.38323975 95.96282959 C71.08982202 95.95040085 64.79668248 95.91758093 58.50338721 95.87743163 C51.33781112 95.83271051 44.1722217 95.81072608 37.00654078 95.79064989 C22.26821569 95.74884801 7.53010878 95.6784981 -7.20800781 95.58935547 C-7.3007323 84.08889036 -7.37178544 72.58851434 -7.4152565 61.08775139 C-7.43612161 55.74733135 -7.46441993 50.40716727 -7.50976562 45.06689453 C-7.55326127 39.91217664 -7.57715302 34.75770479 -7.58751678 29.60281754 C-7.59490144 27.63722994 -7.60932201 25.67165565 -7.63092804 23.70617294 C-7.66001135 20.95063034 -7.66396174 18.19610135 -7.66210938 15.44042969 C-7.67649048 14.62978561 -7.69087158 13.81914154 -7.70568848 12.9839325 C-7.66282498 7.08207713 -6.63469776 1.21888588 0 0 Z " fill="#FDF7DB" transform="translate(15.2080078125,35.41064453125)"/>
<path d="M0 0 C0.33 0.66 0.66 1.32 1 2 C3.64 1.67 6.28 1.34 9 1 C9 1.33 9 1.66 9 2 C28.8 2.495 28.8 2.495 49 3 C49 4.32 49 5.64 49 7 C36.13 7.33 23.26 7.66 10 8 C21.44201596 8.17009911 21.44201596 8.17009911 32.88452148 8.29785156 C41.12891705 8.43743706 47.69618238 8.72876162 55 13 C55 9.04 55 5.08 55 1 C55.66 1 56.32 1 57 1 C57 5.62 57 10.24 57 15 C36.87 15 16.74 15 -4 15 C-3.67 12.69 -3.34 10.38 -3 8 C-1.68 8 -0.36 8 1 8 C0.67 5.36 0.34 2.72 0 0 Z " fill="#66ADC3" transform="translate(52,64)"/>
<path d="M0 0 C0.33 0 0.66 0 1 0 C1 21.78 1 43.56 1 66 C0.34 66 -0.32 66 -1 66 C-1.495 46.695 -1.495 46.695 -2 27 C-10.58 27 -19.16 27 -28 27 C-29.8771304 31.69282601 -30.299013 34.98659678 -30.30297852 39.87963867 C-30.31141785 40.65744186 -30.31985718 41.43524506 -30.32855225 42.23661804 C-30.35425844 44.79707474 -30.36645179 47.35741638 -30.37890625 49.91796875 C-30.39508506 51.69966032 -30.41226546 53.48134306 -30.43040466 55.26301575 C-30.4760348 59.9458712 -30.5108739 64.62873849 -30.54260254 69.31170654 C-30.59453837 76.81802716 -30.6595335 84.3242183 -30.73081779 91.83037758 C-30.75368468 94.4550371 -30.76993095 97.07968001 -30.78553772 99.70439148 C-30.79894031 101.30577785 -30.81255476 102.90716246 -30.82641602 104.50854492 C-30.82902939 105.24155823 -30.83164276 105.97457153 -30.83433533 106.72979736 C-30.88636304 111.77272608 -30.88636304 111.77272608 -32 114 C24.925 113.505 24.925 113.505 83 113 C81 115 81 115 78.97352409 115.24609566 C78.13469248 115.24425207 77.29586086 115.24240849 76.43161011 115.24050903 C74.98866577 115.24463303 74.98866577 115.24463303 73.51657104 115.24884033 C72.4577774 115.24164978 71.39898376 115.23445923 70.30810547 115.22705078 C69.19590637 115.22734283 68.08370728 115.22763489 66.93780518 115.22793579 C63.24752096 115.22653818 59.55743661 115.21095662 55.8671875 115.1953125 C53.3141389 115.1915839 50.76108887 115.18873621 48.20803833 115.18673706 C42.16610061 115.17987103 36.12424918 115.16409495 30.08234608 115.14403808 C23.2045689 115.12170092 16.32678832 115.11069116 9.44898391 115.10064721 C-4.7007174 115.07972928 -18.85035475 115.04453969 -33 115 C-33.0694394 103.7084605 -33.12278043 92.4169716 -33.15543652 81.12526226 C-33.17110796 75.88234109 -33.19237325 70.63956575 -33.22631836 65.39672852 C-33.25885901 60.33929316 -33.27684187 55.28199827 -33.28463173 50.22446632 C-33.29018476 48.2927002 -33.30102819 46.36094196 -33.31719017 44.42923546 C-33.33889413 41.72828796 -33.34196989 39.02792464 -33.34057617 36.3269043 C-33.351362 35.52417587 -33.36214783 34.72144745 -33.3732605 33.89439392 C-33.34313369 28.51659316 -33.34313369 28.51659316 -31.67211914 26.00085449 C-28.91119376 24.34829009 -26.31768898 24.6668647 -23.14453125 24.70703125 C-22.48289474 24.71127609 -21.82125824 24.71552094 -21.13957214 24.71989441 C-19.0301309 24.73666307 -16.92165154 24.77430901 -14.8125 24.8125 C-13.38087319 24.82754932 -11.94923138 24.8412373 -10.51757812 24.85351562 C-7.01105173 24.88400716 -3.50660006 24.94272341 0 25 C0 16.75 0 8.5 0 0 Z " fill="#E0C678" transform="translate(44,14)"/>
<path d="M0 0 C0.66 0 1.32 0 2 0 C2 3.96 2 7.92 2 12 C1.01 12.33 0.02 12.66 -1 13 C-0.979375 12.195625 -0.95875 11.39125 -0.9375 10.5625 C-0.70366379 8.06645115 -0.70366379 8.06645115 -2 7 C-2.185625 8.3921875 -2.185625 8.3921875 -2.375 9.8125 C-3 13 -3 13 -5 16 C-7.02481079 16.36076355 -7.02481079 16.36076355 -9.54150391 16.34057617 C-10.95274033 16.34023628 -10.95274033 16.34023628 -12.39248657 16.33988953 C-13.41023163 16.32440567 -14.42797668 16.30892181 -15.4765625 16.29296875 C-16.51694672 16.28872391 -17.55733093 16.28447906 -18.62924194 16.28010559 C-21.96142147 16.26327482 -25.29300241 16.22561422 -28.625 16.1875 C-30.88019962 16.17245887 -33.13540869 16.15876947 -35.390625 16.14648438 C-40.92728855 16.11335699 -46.46360152 16.0631142 -52 16 C-52 15.01 -52 14.02 -52 13 C-36.49 12.67 -20.98 12.34 -5 12 C-5 11.67 -5 11.34 -5 11 C-6.05316406 11.01160156 -7.10632813 11.02320313 -8.19140625 11.03515625 C-17.8472532 11.10720641 -27.37429468 10.78462809 -37 10 C-37 9.67 -37 9.34 -37 9 C-27.76 8.67 -18.52 8.34 -9 8 C-23.19 7.67 -37.38 7.34 -52 7 C-52 5.68 -52 4.36 -52 3 C-45.68289629 2.94923525 -39.36584531 2.9142392 -33.04858398 2.89013672 C-30.90012649 2.88008735 -28.75168263 2.86644567 -26.60327148 2.84912109 C-23.51282378 2.82482624 -20.42255713 2.81350614 -17.33203125 2.8046875 C-16.37351761 2.79436493 -15.41500397 2.78404236 -14.42744446 2.77340698 C-9.85139249 2.77263938 -6.14405967 2.79238111 -2 5 C-1.34 3.35 -0.68 1.7 0 0 Z " fill="#529EB5" transform="translate(107,25)"/>
<path d="M0 0 C0.66 0 1.32 0 2 0 C2 9.24 2 18.48 2 28 C1.34 28 0.68 28 0 28 C0.08378906 28.61488281 0.16757813 29.22976562 0.25390625 29.86328125 C0.40666016 31.07564453 0.40666016 31.07564453 0.5625 32.3125 C0.71912109 33.51326172 0.71912109 33.51326172 0.87890625 34.73828125 C1 37 1 37 0 40 C-2.97 39.34 -5.94 38.68 -9 38 C-9 37.34 -9 36.68 -9 36 C-10.58868896 36.00785522 -10.58868896 36.00785522 -12.20947266 36.01586914 C-16.15672961 36.03403406 -20.1039829 36.04547389 -24.05126953 36.05493164 C-25.75635399 36.05994564 -27.46143418 36.0667585 -29.16650391 36.07543945 C-31.62403419 36.08763385 -34.08150738 36.09325775 -36.5390625 36.09765625 C-37.29555084 36.10281754 -38.05203918 36.10797882 -38.83145142 36.11329651 C-42.99682563 36.1137333 -46.91432259 35.81657038 -51 35 C-51 34.67 -51 34.34 -51 34 C-36.15 34 -21.3 34 -6 34 C-6 32.68 -6 31.36 -6 30 C-20.52 30 -35.04 30 -50 30 C-50 29.67 -50 29.34 -50 29 C-48.02 28.67 -46.04 28.34 -44 28 C-44 27.67 -44 27.34 -44 27 C-30.8 26.67 -17.6 26.34 -4 26 C-4 27.32 -4 28.64 -4 30 C-1.89483087 26.57910017 -1.91206315 23.95715833 -2 20 C-1.505 19.505 -1.505 19.505 -1 19 C-1.38859359 15.50265772 -1.88596087 12.34211739 -3 9 C-2.34 9 -1.68 9 -1 9 C-1.020625 7.700625 -1.04125 6.40125 -1.0625 5.0625 C-1.08399454 3.70834367 -1.07148199 2.35243917 -1 1 C-0.67 0.67 -0.34 0.34 0 0 Z " fill="#4097AD" transform="translate(107,37)"/>
<path d="M0 0 C0.33 0 0.66 0 1 0 C1 4.29 1 8.58 1 13 C6.28 13 11.56 13 17 13 C17 27.52 17 42.04 17 57 C16.34 56.67 15.68 56.34 15 56 C15 42.47 15 28.94 15 15 C11.04 15.33 7.08 15.66 3 16 C3.00523682 17.2367749 3.01047363 18.4735498 3.01586914 19.74780273 C3.03391561 24.31924725 3.04543071 28.89068859 3.05493164 33.4621582 C3.05997267 35.44393441 3.06680538 37.42570689 3.07543945 39.4074707 C3.08751515 42.24952109 3.09323045 45.09152247 3.09765625 47.93359375 C3.10281754 48.82525742 3.10797882 49.71692108 3.11329651 50.63560486 C3.11349177 52.75740601 3.0621003 54.8791078 3 57 C2 58 2 58 -0.58790588 58.12025452 C-1.74040329 58.11803391 -2.8929007 58.11581329 -4.08032227 58.11352539 C-6.03223228 58.11341209 -6.03223228 58.11341209 -8.02357483 58.11329651 C-9.45451902 58.10818909 -10.88546282 58.10297308 -12.31640625 58.09765625 C-13.7722926 58.09579203 -15.22817957 58.09436815 -16.68406677 58.09336853 C-20.52279379 58.08954365 -24.36148319 58.07971364 -28.20019531 58.06866455 C-32.11457816 58.05844978 -36.02896706 58.05387077 -39.94335938 58.04882812 C-47.62892343 58.03809134 -55.31445645 58.02101529 -63 58 C-63 57.67 -63 57.34 -63 57 C-42.21 57 -21.42 57 0 57 C0 38.19 0 19.38 0 0 Z " fill="#C5BF82" transform="translate(110,24)"/>
<path d="M0 0 C1.42944945 2.35438733 2.08661261 3.48032433 1.625 6.25 C1.41875 6.8275 1.2125 7.405 1 8 C0.34 8 -0.32 8 -1 8 C-0.34 8.66 0.32 9.32 1 10 C1.4140625 12.1640625 1.4140625 12.1640625 1.625 14.625 C1.69976562 15.44226562 1.77453125 16.25953125 1.8515625 17.1015625 C1.90054688 17.72804688 1.94953125 18.35453125 2 19 C1.01 18.67 0.02 18.34 -1 18 C-1 17.34 -1 16.68 -1 16 C-15.19 16 -29.38 16 -44 16 C-24.2 16.495 -24.2 16.495 -4 17 C-4 17.33 -4 17.66 -4 18 C-5.31718018 17.98952637 -6.63436035 17.97905273 -7.99145508 17.96826172 C-12.87228687 17.93209717 -17.75310679 17.90911241 -22.6340332 17.89013672 C-24.74766022 17.88007106 -26.8612733 17.86641743 -28.97485352 17.84912109 C-32.01061442 17.8248977 -35.04619143 17.81352262 -38.08203125 17.8046875 C-39.02899368 17.79436493 -39.97595612 17.78404236 -40.95161438 17.77340698 C-41.83230087 17.77325592 -42.71298737 17.77310486 -43.62036133 17.77294922 C-44.78285149 17.76628738 -44.78285149 17.76628738 -45.96882629 17.75949097 C-48.31311545 17.88156735 -48.31311545 17.88156735 -51 20 C-51.99 19.67 -52.98 19.34 -54 19 C-54 18.01 -54 17.02 -54 16 C-53.34 16 -52.68 16 -52 16 C-52.33 15.01 -52.66 14.02 -53 13 C-52.01 13 -51.02 13 -50 13 C-50 12.01 -50 11.02 -50 10 C-34.49 10 -18.98 10 -3 10 C-3 8.02 -3 6.04 -3 4 C-2.34 4 -1.68 4 -1 4 C-0.67 2.68 -0.34 1.36 0 0 Z M-3 18 C-2.01 18.33 -1.02 18.66 0 19 C0 19.66 0 20.32 0 21 C-0.99 20.67 -1.98 20.34 -3 20 C-3 19.34 -3 18.68 -3 18 Z " fill="#4799B2" transform="translate(105,38)"/>
<path d="M0 0 C0.33 0 0.66 0 1 0 C1 21.78 1 43.56 1 66 C0.34 66 -0.32 66 -1 66 C-1.495 46.695 -1.495 46.695 -2 27 C-8.2803125 27.185625 -8.2803125 27.185625 -14.6875 27.375 C-15.99936279 27.40899902 -17.31122559 27.44299805 -18.6628418 27.47802734 C-19.70609619 27.5136377 -20.74935059 27.54924805 -21.82421875 27.5859375 C-22.88729248 27.6173584 -23.95036621 27.6487793 -25.0456543 27.68115234 C-28.03340405 28.00360513 -30.28280111 28.74793584 -33 30 C-32.625 28.0625 -32.625 28.0625 -32 26 C-29.0780231 24.53901155 -26.50106525 24.88865099 -23.2421875 24.90234375 C-22.24761032 24.90446617 -22.24761032 24.90446617 -21.23294067 24.90663147 C-19.11358137 24.91223246 -16.99432741 24.924785 -14.875 24.9375 C-13.43880361 24.94251488 -12.00260556 24.94707781 -10.56640625 24.95117188 C-7.04419752 24.96135167 -3.52221679 24.98092662 0 25 C0 16.75 0 8.5 0 0 Z " fill="#C9C690" transform="translate(44,14)"/>
<path d="M0 0 C7.24961654 -0.06949924 14.4991613 -0.12281062 21.74904346 -0.15543652 C25.11544877 -0.17109511 28.48162623 -0.19233621 31.84790039 -0.22631836 C35.71767249 -0.26261749 39.58712026 -0.2797075 43.45703125 -0.29296875 C45.27120293 -0.31619453 45.27120293 -0.31619453 47.12202454 -0.33988953 C48.24296005 -0.34011612 49.36389557 -0.34034271 50.51879883 -0.34057617 C51.50697098 -0.34723801 52.49514313 -0.35389984 53.51325989 -0.36076355 C56 0 56 0 57.84257507 1.39628601 C59 3 59 3 59 5 C59.598125 5.2475 60.19625 5.495 60.8125 5.75 C63.28647521 7.16370012 64.43370255 8.65055383 66 11 C63 11 63 11 60.4375 8.625 C59.633125 7.75875 58.82875 6.8925 58 6 C55.39443832 3.39443832 54.26380117 3.73000629 50.63232422 3.68115234 C49.51131317 3.66128265 48.39030212 3.64141296 47.23532104 3.62094116 C46.02071198 3.60938995 44.80610291 3.59783875 43.5546875 3.5859375 C41.69446457 3.55688828 41.69446457 3.55688828 39.79666138 3.5272522 C36.49888221 3.4775119 33.20113861 3.43627523 29.90319824 3.39910889 C26.53822666 3.35910998 23.17342608 3.30799897 19.80859375 3.2578125 C13.20583893 3.16160213 6.60300989 3.07659617 0 3 C0 2.01 0 1.02 0 0 Z " fill="#D0EEF4" transform="translate(45,11)"/>
<path d="M0 0 C15.18 0 30.36 0 46 0 C46 0.99 46 1.98 46 3 C30.82 3 15.64 3 0 3 C0 2.01 0 1.02 0 0 Z " fill="#D2F3FC" transform="translate(55,48)"/>
<path d="M0 0 C15.18 0 30.36 0 46 0 C46 0.99 46 1.98 46 3 C30.82 3 15.64 3 0 3 C0 2.01 0 1.02 0 0 Z " fill="#D3F2F9" transform="translate(55,38)"/>
<path d="M0 0 C15.18 0 30.36 0 46 0 C46 0.99 46 1.98 46 3 C31.15 3 16.3 3 1 3 C0.67 2.01 0.34 1.02 0 0 Z " fill="#CCF0F5" transform="translate(55,58)"/>
<path d="M0 0 C14.85 0 29.7 0 45 0 C45.495 1.485 45.495 1.485 46 3 C30.82 3 15.64 3 0 3 C0 2.01 0 1.02 0 0 Z " fill="#C7EDF3" transform="translate(55,28)"/>
<path d="M0 0 C13.2 0 26.4 0 40 0 C40 1.65 40 3.3 40 5 C39.41752502 4.83923477 38.83505005 4.67846954 38.23492432 4.51283264 C34.77155073 3.71811623 31.27216626 3.76069922 27.734375 3.68359375 C26.94097717 3.66281265 26.14757935 3.64203156 25.33013916 3.62062073 C22.80351156 3.55540027 20.27678279 3.49636856 17.75 3.4375 C16.03384384 3.3942886 14.31769778 3.35067347 12.6015625 3.30664062 C8.40114454 3.19974717 4.20062511 3.09840271 0 3 C0 2.01 0 1.02 0 0 Z " fill="#3E99B0" transform="translate(61,43)"/>
<path d="M0 0 C1.09214058 0.24114784 1.09214058 0.24114784 2.2063446 0.48716736 C4.7650248 0.95686549 7.10329054 1.15414939 9.69848633 1.20532227 C10.59904251 1.22526749 11.49959869 1.24521271 12.42744446 1.26576233 C13.3859581 1.28247482 14.34447174 1.29918732 15.33203125 1.31640625 C16.32377853 1.33718735 17.31552582 1.35796844 18.33732605 1.37937927 C21.49564899 1.44460052 24.65405288 1.50363202 27.8125 1.5625 C29.95769056 1.60571131 32.10287302 1.64932643 34.24804688 1.69335938 C39.49861311 1.80025372 44.74925932 1.90207037 50 2 C47.15812835 3.60291723 45.08586598 4.25573747 41.82983398 4.30297852 C40.61353554 4.32794151 40.61353554 4.32794151 39.37266541 4.35340881 C38.50589676 4.36182297 37.63912811 4.37023712 36.74609375 4.37890625 C35.84883072 4.39590073 34.95156769 4.4128952 34.02711487 4.43040466 C31.16398119 4.48347322 28.30086115 4.52380268 25.4375 4.5625 C22.57064199 4.60645769 19.70389488 4.65318196 16.83717346 4.70530701 C15.05432981 4.73720771 13.2713884 4.7641153 11.48838806 4.78553772 C10.68067459 4.79902756 9.87296112 4.8125174 9.04077148 4.82641602 C7.97632057 4.84068382 7.97632057 4.84068382 6.8903656 4.85523987 C4.77426045 4.94031953 4.77426045 4.94031953 2 6 C2 8.31 2 10.62 2 13 C-0.20914 9.68629 -0.22481553 8.6553979 -0.125 4.8125 C-0.10695312 3.91144531 -0.08890625 3.01039062 -0.0703125 2.08203125 C-0.04710937 1.39496094 -0.02390625 0.70789062 0 0 Z " fill="#4891A9" transform="translate(51,59)"/>
<path d="M0 0 C1.46726798 3.81489674 0.43336419 6.29011622 -1 10 C-1.66 9.34 -2.32 8.68 -3 8 C-3 7.01 -3 6.02 -3 5 C-4.98 5.33 -6.96 5.66 -9 6 C-9 6.33 -9 6.66 -9 7 C-23.19 7 -37.38 7 -52 7 C-47.5 3.625 -47.5 3.625 -43.41503906 3.56762695 C-42.51440735 3.54783279 -41.61377563 3.52803864 -40.68585205 3.50764465 C-39.72217712 3.50125473 -38.7585022 3.49486481 -37.765625 3.48828125 C-36.77246277 3.47033005 -35.77930054 3.45237885 -34.75604248 3.43388367 C-31.58740469 3.37974994 -28.41891782 3.34587472 -25.25 3.3125 C-23.10023941 3.27932968 -20.95049873 3.24484029 -18.80078125 3.20898438 C-13.53398949 3.1240219 -8.26717827 3.05568499 -3 3 C-3 2.34 -3 1.68 -3 1 C-1 2 -1 2 0 3 C0 2.01 0 1.02 0 0 Z " fill="#4699B8" transform="translate(105,59)"/>
<path d="M0 0 C0.66 0 1.32 0 2 0 C2.16780202 5.48077153 2.32834201 10.96168974 2.48217773 16.44287109 C2.53552266 18.30718702 2.59084602 20.17144743 2.64819336 22.03564453 C2.73031405 24.71634961 2.8053005 27.39717427 2.87890625 30.078125 C2.91945885 31.32677338 2.91945885 31.32677338 2.96083069 32.60064697 C2.98092697 33.38115417 3.00102325 34.16166138 3.02172852 34.96582031 C3.04171402 35.64976868 3.06169952 36.33371704 3.08229065 37.03839111 C3 39 3 39 2 43 C7.61 43 13.22 43 19 43 C19 43.33 19 43.66 19 44 C12.73 44 6.46 44 0 44 C0 29.48 0 14.96 0 0 Z " fill="#FEF9DF" transform="translate(127,37)"/>
<path d="M0 0 C0 1.65 0 3.3 0 5 C-0.66 4.67 -1.32 4.34 -2 4 C-3.41882881 3.88252522 -4.84271414 3.82314572 -6.26611328 3.79467773 C-7.58725632 3.7647599 -7.58725632 3.7647599 -8.93508911 3.73423767 C-9.88721283 3.71752518 -10.83933655 3.70081268 -11.8203125 3.68359375 C-12.79410858 3.66281265 -13.76790466 3.64203156 -14.77120972 3.62062073 C-17.88906647 3.55511402 -21.00700903 3.49623503 -24.125 3.4375 C-26.23568604 3.39431585 -28.34636333 3.3507016 -30.45703125 3.30664062 C-35.6379295 3.19943153 -40.81891356 3.09766722 -46 3 C-46 2.67 -46 2.34 -46 2 C-44.02 1.67 -42.04 1.34 -40 1 C-40 0.67 -40 0.34 -40 0 C-34.78575406 -0.16763742 -29.57135652 -0.32819469 -24.35668945 -0.48217773 C-22.58254115 -0.53556608 -20.80845009 -0.59089298 -19.03442383 -0.64819336 C-16.48531435 -0.73019269 -13.93608072 -0.80523144 -11.38671875 -0.87890625 C-10.19594978 -0.91945885 -10.19594978 -0.91945885 -8.98112488 -0.96083069 C-5.69363284 -1.05004432 -3.14650219 -1.04883406 0 0 Z " fill="#3D87A0" transform="translate(103,64)"/>
<path d="M0 0 C0.66 1.32 1.32 2.64 2 4 C0.68 4.33 -0.64 4.66 -2 5 C-2.495 4.01 -2.495 4.01 -3 3 C-4.58868896 3.00785522 -4.58868896 3.00785522 -6.20947266 3.01586914 C-10.15672961 3.03403406 -14.1039829 3.04547389 -18.05126953 3.05493164 C-19.75635399 3.05994564 -21.46143418 3.0667585 -23.16650391 3.07543945 C-25.62403419 3.08763385 -28.08150738 3.09325775 -30.5390625 3.09765625 C-31.29555084 3.10281754 -32.05203918 3.10797882 -32.83145142 3.11329651 C-36.99682563 3.1137333 -40.91432259 2.81657038 -45 2 C-45 1.67 -45 1.34 -45 1 C-22.725 0.505 -22.725 0.505 0 0 Z " fill="#4790A4" transform="translate(101,70)"/>
<path d="M0 0 C6.27 0 12.54 0 19 0 C18.30527124 2.77891503 17.59415831 5.24094404 16.58984375 7.890625 C16.32236328 8.59960938 16.05488281 9.30859375 15.77929688 10.0390625 C15.50150391 10.76867187 15.22371094 11.49828125 14.9375 12.25 C14.65583984 12.99507812 14.37417969 13.74015625 14.08398438 14.5078125 C13.3913087 16.33929393 12.69592093 18.16974923 12 20 C10.70797196 15.37411598 11.69672246 12.59980309 13 8 C13.66 8 14.32 8 15 8 C15.33 6.02 15.66 4.04 16 2 C10.72 2 5.44 2 0 2 C0 1.34 0 0.68 0 0 Z " fill="#C9AC5A" transform="translate(127,81)"/>
<path d="M0 0 C1.15209961 0.06807861 2.30419922 0.13615723 3.49121094 0.20629883 C4.74160156 0.2675293 5.99199219 0.32875977 7.28027344 0.3918457 C8.58222656 0.48143555 9.88417969 0.57102539 11.22558594 0.66333008 C12.54300781 0.73358398 13.86042969 0.80383789 15.21777344 0.8762207 C18.47240265 1.05310273 21.7237737 1.2538277 24.97558594 1.47583008 C25.47058594 2.46583008 25.47058594 2.46583008 25.97558594 3.47583008 C10.63058594 3.97083008 10.63058594 3.97083008 -5.02441406 4.47583008 C-5.35441406 5.46583008 -5.68441406 6.45583008 -6.02441406 7.47583008 C-6.35441406 6.81583008 -6.68441406 6.15583008 -7.02441406 5.47583008 C-3.90624778 0.61456869 -3.90624778 0.61456869 0 0 Z " fill="#FEFBDB" transform="translate(17.0244140625,35.524169921875)"/>
<path d="M0 0 C0.66 0.33 1.32 0.66 2 1 C0.55294023 4.81687585 -0.90950695 8.62766761 -2.375 12.4375 C-2.7875 13.52611328 -3.2 14.61472656 -3.625 15.73632812 C-4.02460938 16.77080078 -4.42421875 17.80527344 -4.8359375 18.87109375 C-5.20251465 19.82943115 -5.5690918 20.78776855 -5.94677734 21.77514648 C-7 24 -7 24 -9 25 C-8.125 17.25 -8.125 17.25 -7 15 C-6.34 15 -5.68 15 -5 15 C-4.01 10.71 -3.02 6.42 -2 2 C-1.34 2 -0.68 2 0 2 C0 1.34 0 0.68 0 0 Z " fill="#C2A44F" transform="translate(136,102)"/>
<path d="M0 0 C0.33 0 0.66 0 1 0 C0.67373505 6.32278971 0.38495108 11.55464391 -3 17 C-3.99 17 -4.98 17 -6 17 C-4.33846988 11.14340094 -2.52958084 5.5409866 0 0 Z " fill="#FBF4CE" transform="translate(138,101)"/>
<path d="M0 0 C3.24271506 0.5590888 4.93057424 1.4132178 7 4 C7 4.66 7 5.32 7 6 C7.639375 6.268125 8.27875 6.53625 8.9375 6.8125 C11 8 11 8 12 11 C8.66135596 10.42437172 7.30897368 9.40936384 5 7 C4.01 6.67 3.02 6.34 2 6 C1.375 4.0625 1.375 4.0625 1 2 C0.67 1.34 0.34 0.68 0 0 Z " fill="#5A94A2" transform="translate(98,14)"/>
<path d="M0 0 C0.33 0 0.66 0 1 0 C1 2.97 1 5.94 1 9 C0.01 9.33 -0.98 9.66 -2 10 C-3.70855022 13.00007271 -3.70855022 13.00007271 -5 16 C-6 14 -6 14 -5.0390625 10.99609375 C-4.57242188 9.82175781 -4.10578125 8.64742187 -3.625 7.4375 C-3.16351563 6.26058594 -2.70203125 5.08367187 -2.2265625 3.87109375 C-1 1 -1 1 0 0 Z " fill="#F9EFC9" transform="translate(145,84)"/>
<path d="M0 0 C0.66 0.66 1.32 1.32 2 2 C-0.97 9.92 -0.97 9.92 -4 18 C-5.24142712 13.03429151 -4.37261666 10.84452938 -3 6 C-2.34 6 -1.68 6 -1 6 C-0.67 4.02 -0.34 2.04 0 0 Z " fill="#C7A44F" transform="translate(143,83)"/>
<path d="M0 0 C0.33 0 0.66 0 1 0 C0.91291331 1.45945288 0.80473093 2.91765868 0.6875 4.375 C0.62949219 5.18710938 0.57148438 5.99921875 0.51171875 6.8359375 C0 9 0 9 -3 11 C-3.99 10.67 -4.98 10.34 -6 10 C-5.01 9.34 -4.02 8.68 -3 8 C-1.99831469 6.05167065 -1.99831469 6.05167065 -1.3125 3.875 C-1.06113281 3.15054688 -0.80976563 2.42609375 -0.55078125 1.6796875 C-0.36902344 1.12539062 -0.18726563 0.57109375 0 0 Z " fill="#FBF0C9" transform="translate(131,118)"/>
<path d="M0 0 C0.95465783 2.16967689 1.14401212 3.56328793 0.3984375 5.82421875 C-0.35870385 7.5684743 -1.17609198 9.28627131 -2 11 C-2.66 11 -3.32 11 -4 11 C-3.39301257 6.87248551 -1.96189209 3.6678852 0 0 Z " fill="#FCFBE7" transform="translate(143,93)"/>
<path d="M0 0 C0.33 0.66 0.66 1.32 1 2 C3.64 1.67 6.28 1.34 9 1 C8.071875 1.3403125 8.071875 1.3403125 7.125 1.6875 C4.38589791 3.37929835 3.94975528 4.99244161 3 8 C2.34 7.67 1.68 7.34 1 7 C0.59270772 4.67843403 0.25561323 2.3431213 0 0 Z " fill="#3D8FA6" transform="translate(52,64)"/>
<path d="M0 0 C0.99 0.66 1.98 1.32 3 2 C3 2.99 3 3.98 3 5 C1.35 5.33 -0.3 5.66 -2 6 C-1.34 4.02 -0.68 2.04 0 0 Z " fill="#D3A842" transform="translate(14,122)"/>
<path d="M0 0 C0.99 0.33 1.98 0.66 3 1 C3 2.65 3 4.3 3 6 C1.68 6.33 0.36 6.66 -1 7 C-1 6.01 -1 5.02 -1 4 C-0.34 3.67 0.32 3.34 1 3 C0.67 2.01 0.34 1.02 0 0 Z " fill="#429CB4" transform="translate(52,51)"/>
</svg>
