<?xml version="1.0" encoding="UTF-8"?>
<svg version="1.1" xmlns="http://www.w3.org/2000/svg" width="2000" height="645">
<path d="M0 0 C660 0 1320 0 2000 0 C2000 212.85 2000 425.7 2000 645 C1340 645 680 645 0 645 C0 432.15 0 219.3 0 0 Z " fill="#FEFEFE" transform="translate(0,0)"/>
<path d="M0 0 C0.78969177 0.00054382 1.57938354 0.00108765 2.39300537 0.00164795 C33.91049588 0.10105214 61.53298066 7.79911024 87.75 25.375 C88.50410156 25.84292969 89.25820312 26.31085938 90.03515625 26.79296875 C95.62300176 30.31124185 100.35680225 34.49172355 105.1796875 38.9921875 C107.24140071 40.90350218 109.32842097 42.71794187 111.5 44.5 C116.01061487 48.32421696 120.85591726 52.69275178 122.75 58.375 C123.41 58.375 124.07 58.375 124.75 58.375 C126.37109375 60.60546875 126.37109375 60.60546875 128.1875 63.5625 C128.78433594 64.52542969 129.38117188 65.48835938 129.99609375 66.48046875 C131.1127005 68.32324292 132.22397777 70.16926473 133.328125 72.01953125 C134.52838776 74.00787862 135.78180695 75.9385569 137.0625 77.875 C148.42401136 96.10784458 155.23981286 117.84757309 156.22290039 139.24243164 C156.30523521 147.50905102 156.30523521 147.50905102 159.63671875 154.7109375 C162.05251172 156.12999711 162.05251172 156.12999711 164.76171875 157.109375 C168.59842551 158.73433316 171.27394736 161.07577376 174.375 163.8125 C174.92978027 164.29243408 175.48456055 164.77236816 176.05615234 165.2668457 C177.62725798 166.6290153 179.18964727 168.00053954 180.75 169.375 C181.54019531 170.06464844 182.33039063 170.75429688 183.14453125 171.46484375 C184.44858809 172.6043351 185.74968607 173.7472276 187.046875 174.89453125 C188.64669515 176.2852006 190.28290222 177.61298612 191.9375 178.9375 C194.98435244 181.57810545 197.32253466 184.16217822 199.75 187.375 C199.75 188.035 199.75 188.695 199.75 189.375 C200.41 189.375 201.07 189.375 201.75 189.375 C202.1521875 190.303125 202.1521875 190.303125 202.5625 191.25 C203.70556848 193.6745233 203.70556848 193.6745233 206.75 195.375 C208.13671875 197.46875 208.13671875 197.46875 209.4375 199.875 C209.87449219 200.6690625 210.31148437 201.463125 210.76171875 202.28125 C211.75 204.375 211.75 204.375 211.75 206.375 C212.41 206.375 213.07 206.375 213.75 206.375 C234.88810833 244.1982649 241.80947094 286.31103385 230.3918457 328.47753906 C224.81508356 348.15879216 215.70691706 369.01540372 201.75 384.375 C201.09 384.375 200.43 384.375 199.75 384.375 C199.5334375 384.90609375 199.316875 385.4371875 199.09375 385.984375 C197.25159748 389.26169285 194.78862231 391.88302551 192.25 394.625 C191.75113281 395.17929687 191.25226563 395.73359375 190.73828125 396.3046875 C189.4531646 397.7035008 188.10566232 399.04444254 186.75 400.375 C186.09 400.375 185.43 400.375 184.75 400.375 C184.75 401.035 184.75 401.695 184.75 402.375 C182.82412421 404.00639937 180.90673283 405.51223225 178.875 407 C178.31941406 407.42023438 177.76382812 407.84046875 177.19140625 408.2734375 C173.01235288 411.375 173.01235288 411.375 170.75 411.375 C170.75 412.035 170.75 412.695 170.75 413.375 C169.34472656 414.47241211 169.34472656 414.47241211 167.390625 415.65234375 C166.68679688 416.08353516 165.98296875 416.51472656 165.2578125 416.95898438 C164.51273438 417.40564453 163.76765625 417.85230469 163 418.3125 C161.5458864 419.19498767 160.09273215 420.07905839 158.640625 420.96484375 C157.95581055 421.38064697 157.27099609 421.7964502 156.56542969 422.22485352 C154.6259725 423.41289557 154.6259725 423.41289557 152.46875 425.1484375 C149.79133873 427.05913555 146.95811506 427.0665274 143.75 427.375 C143.75 428.035 143.75 428.695 143.75 429.375 C140.45 430.035 137.15 430.695 133.75 431.375 C133.75 432.035 133.75 432.695 133.75 433.375 C130.91862187 434.15362899 128.08515664 434.92284029 125.25 435.6875 C124.47785156 435.90083984 123.70570313 436.11417969 122.91015625 436.33398438 C109.49397579 439.92952074 96.81015841 441.86296945 82.93115234 441.71118164 C80.61911301 441.68743955 78.30822581 441.69067349 75.99609375 441.69726562 C63.60722082 441.67510645 51.56723031 440.5450156 39.625 437.0625 C38.86276123 436.8444873 38.10052246 436.62647461 37.31518555 436.40185547 C29.53383329 434.11520479 22.17414729 431.15272183 14.96484375 427.43359375 C14.30701904 427.10343262 13.64919434 426.77327148 12.97143555 426.43310547 C11.69481807 425.78839388 10.42828083 425.12315006 9.17504883 424.43408203 C5.64849497 422.6575365 3.26936235 422.18609006 -0.49609375 423.08203125 C-3.94044469 424.26837897 -7.01430431 425.71952779 -10.25 427.375 C-11.24 427.375 -12.23 427.375 -13.25 427.375 C-13.25 428.035 -13.25 428.695 -13.25 429.375 C-21.861543 432.87494275 -30.48513997 435.89247979 -39.5 438.1875 C-40.28987305 438.3939917 -41.07974609 438.6004834 -41.89355469 438.81323242 C-52.7925655 441.48414069 -63.89046908 441.56162497 -75.05810547 441.56030273 C-77.11577036 441.56249019 -79.17289781 441.58073483 -81.23046875 441.59960938 C-106.84973043 441.7090656 -132.3266439 434.76089531 -154.25 421.375 C-155.1575 420.83230469 -156.065 420.28960938 -157 419.73046875 C-170.89493266 411.18122546 -183.96939098 400.09049011 -194.25 387.375 C-195.24620977 386.37122408 -196.2459705 385.3709542 -197.25 384.375 C-200.25 380.70833333 -200.25 380.70833333 -200.25 378.375 C-201.24 378.045 -202.23 377.715 -203.25 377.375 C-204.85546875 374.94140625 -204.85546875 374.94140625 -206.4375 371.9375 C-207.23220703 370.45443359 -207.23220703 370.45443359 -208.04296875 368.94140625 C-209.25 366.375 -209.25 366.375 -209.25 364.375 C-209.91 364.375 -210.57 364.375 -211.25 364.375 C-214.25 357.75 -214.25 357.75 -214.25 354.375 C-214.91 354.375 -215.57 354.375 -216.25 354.375 C-224.7780717 336.66285108 -230.34623787 317.11096787 -230.453125 297.40625 C-230.45882507 296.56767456 -230.46452515 295.72909912 -230.47039795 294.8651123 C-230.47979223 293.09693642 -230.48635958 291.32874347 -230.49023438 289.56054688 C-230.49987335 286.90982874 -230.53092252 284.25990966 -230.5625 281.609375 C-230.64973674 267.68803454 -229.01892681 254.63658317 -224.75 241.3125 C-224.50354736 240.54212402 -224.25709473 239.77174805 -224.00317383 238.97802734 C-218.73471435 223.32344282 -211.24031896 208.51919703 -201.25 195.375 C-199.77074883 193.27089274 -198.29157853 191.16672862 -196.8125 189.0625 C-194.87890625 186.32421875 -194.87890625 186.32421875 -193.25 184.375 C-192.59 184.375 -191.93 184.375 -191.25 184.375 C-191.25 183.715 -191.25 183.055 -191.25 182.375 C-190.59 182.375 -189.93 182.375 -189.25 182.375 C-188.92 181.385 -188.59 180.395 -188.25 179.375 C-186.75390625 177.8671875 -186.75390625 177.8671875 -184.8125 176.25 C-180.63235803 172.72394499 -176.63166604 169.03533597 -172.64453125 165.29296875 C-170.23988034 163.36689437 -168.15494109 162.35019337 -165.25 161.375 C-165.25 160.715 -165.25 160.055 -165.25 159.375 C-164.40695312 159.06046875 -163.56390625 158.7459375 -162.6953125 158.421875 C-158.69637776 156.85993814 -156.26014655 155.46958264 -153.25 152.375 C-151.60095925 147.24661273 -151.78306682 141.7560696 -151.578125 136.41796875 C-150.74258301 115.14246707 -142.06862467 94.93787095 -132.25 76.375 C-131.59 76.375 -130.93 76.375 -130.25 76.375 C-130.01539063 75.52679688 -129.78078125 74.67859375 -129.5390625 73.8046875 C-128.08233898 69.92892007 -126.0500387 66.81295913 -123.625 63.5 C-123.1813208 62.88576172 -122.7376416 62.27152344 -122.28051758 61.63867188 C-119.17067475 57.41717586 -115.83488991 53.65356347 -112.00390625 50.0625 C-110.30102814 48.42409612 -108.84291832 46.72380675 -107.375 44.875 C-106.67375 44.05 -105.9725 43.225 -105.25 42.375 C-104.59 42.375 -103.93 42.375 -103.25 42.375 C-103.25 41.715 -103.25 41.055 -103.25 40.375 C-93.61757052 31.24446063 -82.16195243 23.89395445 -70.6875 17.3125 C-70.00856689 16.91804688 -69.32963379 16.52359375 -68.63012695 16.1171875 C-65.15577173 14.17193205 -63.31979641 13.375 -59.25 13.375 C-59.25 12.715 -59.25 12.055 -59.25 11.375 C-52.56503328 8.68599091 -45.76771293 6.60071069 -38.8125 4.75 C-38.05090576 4.54415283 -37.28931152 4.33830566 -36.50463867 4.1262207 C-24.33707085 0.9555901 -12.52631471 -0.03248475 0 0 Z " fill="#666666" transform="translate(981.25,101.625)"/>
<path d="M0 0 C1.33804688 0.5878125 1.33804688 0.5878125 2.703125 1.1875 C8.88997797 3.95257395 14.96311476 6.922629 21 10 C21 10.66 21 11.32 21 12 C22.98 12.66 24.96 13.32 27 14 C27 14.66 27 15.32 27 16 C27.67804688 16.20625 28.35609375 16.4125 29.0546875 16.625 C33.0077801 18.47047559 35.88867406 21.11115327 39.125 24 C40.35554696 25.08472331 41.58727478 26.16810884 42.8203125 27.25 C43.62879639 27.96929687 43.62879639 27.96929687 44.45361328 28.703125 C46.18056144 30.19956124 46.18056144 30.19956124 49 32 C49 32.66 49 33.32 49 34 C49.99 34.33 50.98 34.66 52 35 C56 39.45714286 56 39.45714286 56 42 C56.99 42.33 57.98 42.66 59 43 C63.6629092 48.53421256 67.58140554 54.63434134 71 61 C71.36351562 61.62648438 71.72703125 62.25296875 72.1015625 62.8984375 C85.40071949 85.97890995 92.45396501 110.7942731 92.375 137.5 C92.37418427 138.54648209 92.37418427 138.54648209 92.37335205 139.61410522 C92.3300452 151.76444949 91.17540156 163.24569771 88 175 C87.67854004 176.21816406 87.67854004 176.21816406 87.35058594 177.4609375 C81.92749415 197.47980324 72.06392321 214.24786901 60 231 C59.47921875 231.75410156 58.9584375 232.50820313 58.421875 233.28515625 C57.95265625 233.85105469 57.4834375 234.41695312 57 235 C56.34 235 55.68 235 55 235 C56.10794922 236.40185547 56.10794922 236.40185547 57.23828125 237.83203125 C83.9139137 272.12927297 96.11448961 310.85519119 91.25 354.375 C90.86767746 356.9220591 90.45009441 359.46403952 90 362 C89.8146167 363.06976074 89.8146167 363.06976074 89.62548828 364.16113281 C87.80628345 374.33544929 84.91897697 383.40463972 80.48828125 392.7421875 C79.35198101 395.22952187 78.50199079 397.33610221 78 400 C77.34 400 76.68 400 76 400 C75.34 402.64 74.68 405.28 74 408 C73.34 408 72.68 408 72 408 C71.74863281 408.6909375 71.49726562 409.381875 71.23828125 410.09375 C69.81626687 413.43122224 68.07886774 416.40437708 66.1875 419.5 C65.52105469 420.6034375 64.85460938 421.706875 64.16796875 422.84375 C62.02271878 425.96692473 59.73505989 428.39164416 57 431 C55.88200562 432.25868581 54.77664452 433.52876887 53.6875 434.8125 C50.00554223 439.05159612 46.25354302 443.32337431 42 447 C41.34 447 40.68 447 40 447 C40 447.66 40 448.32 40 449 C38.3455812 450.36003823 36.62403955 451.63901205 34.875 452.875 C33.37259766 453.93847656 33.37259766 453.93847656 31.83984375 455.0234375 C30.90269531 455.67570312 29.96554687 456.32796875 29 457 C28.34128906 457.46664063 27.68257812 457.93328125 27.00390625 458.4140625 C23.27383094 461 23.27383094 461 21 461 C21 461.66 21 462.32 21 463 C-21.91230673 483.49011803 -63.25440441 490.81432061 -109.26660156 475.23242188 C-117.57369519 472.25198454 -125.38775377 468.46289696 -133 464 C-133 463.34 -133 462.68 -133 462 C-133.78375 461.814375 -134.5675 461.62875 -135.375 461.4375 C-140.43051931 459.4327251 -144.8312232 456.49320428 -149 453 C-149 452.34 -149 451.68 -149 451 C-149.54269531 450.76023437 -150.08539062 450.52046875 -150.64453125 450.2734375 C-159.6444114 445.40783065 -166.3043477 437.93050084 -172.0625 429.6640625 C-173.85694701 427.02578808 -173.85694701 427.02578808 -175.89453125 425.20703125 C-179.08080287 421.86706193 -181.30132729 417.9973146 -183.6875 414.0625 C-184.18572266 413.26392578 -184.68394531 412.46535156 -185.19726562 411.64257812 C-185.67228516 410.86462891 -186.14730469 410.08667969 -186.63671875 409.28515625 C-187.28193481 408.23146851 -187.28193481 408.23146851 -187.94018555 407.15649414 C-189.10778457 404.78068162 -189.58875164 402.60571292 -190 400 C-190.66 400 -191.32 400 -192 400 C-192.26554687 399.15695312 -192.53109375 398.31390625 -192.8046875 397.4453125 C-193.15789062 396.34960938 -193.51109375 395.25390625 -193.875 394.125 C-194.22304687 393.03445313 -194.57109375 391.94390625 -194.9296875 390.8203125 C-195.81175231 387.91477277 -195.81175231 387.91477277 -198 386 C-198.185625 385.05125 -198.37125 384.1025 -198.5625 383.125 C-200.44473324 379.03318862 -202.25599208 378.56855101 -206.3203125 376.984375 C-207.64675781 376.49710937 -207.64675781 376.49710937 -209 376 C-229.98918499 367.69787112 -247.27489299 356.16191554 -263 340 C-263.53753906 339.484375 -264.07507812 338.96875 -264.62890625 338.4375 C-266.12281281 336.99558555 -267.56559656 335.50111987 -269 334 C-269 333.34 -269 332.68 -269 332 C-269.66 332 -270.32 332 -271 332 C-271.93460051 330.68463632 -272.85553706 329.3579297 -273.71484375 327.9921875 C-275.88390859 324.62980736 -278.26921851 321.4166298 -280.609375 318.171875 C-282 316 -282 316 -282 314 C-282.66 314 -283.32 314 -284 314 C-285.25664978 311.09399739 -286 309.20395416 -286 306 C-286.99 305.67 -287.98 305.34 -289 305 C-290.24609375 302.41015625 -290.24609375 302.41015625 -291.4375 299.0625 C-292.86768653 295.11347749 -294.3179525 291.22259854 -296 287.375 C-297.97019182 282.48570765 -299.33318935 277.46147077 -300.6875 272.375 C-300.90212891 271.57497559 -301.11675781 270.77495117 -301.33789062 269.95068359 C-301.53962891 269.17031738 -301.74136719 268.38995117 -301.94921875 267.5859375 C-302.12799561 266.8954834 -302.30677246 266.2050293 -302.4909668 265.49365234 C-303.74563305 259.34729211 -304.17605891 253.22987008 -304.2734375 246.96875 C-304.28601089 246.22362152 -304.29858429 245.47849304 -304.3115387 244.71078491 C-304.54866137 227.26512092 -304.07223249 210.85197243 -299 194 C-298.75362793 193.16952148 -298.50725586 192.33904297 -298.25341797 191.48339844 C-293.12223558 174.8161535 -284.60508971 158.83272571 -274 145 C-273.484375 144.2575 -272.96875 143.515 -272.4375 142.75 C-271.963125 142.1725 -271.48875 141.595 -271 141 C-270.34 141 -269.68 141 -269 141 C-268.73058594 140.41605469 -268.46117187 139.83210937 -268.18359375 139.23046875 C-263.88518741 131.13017165 -256.08874928 125.51460009 -249 120 C-248.20335937 119.37222656 -247.40671875 118.74445313 -246.5859375 118.09765625 C-241.28308824 114 -241.28308824 114 -239 114 C-239 113.34 -239 112.68 -239 112 C-229.43863025 105.11398967 -218.79293639 99.75570833 -207.38671875 96.7734375 C-204.3161502 95.77839237 -201.74503782 94.71991996 -199 93 C-197.70168578 90.40304804 -197.70168578 90.40304804 -197.125 87.3125 C-192.88338948 71.55544275 -183.2605934 53.77797202 -172 42 C-171.34 42 -170.68 42 -170 42 C-169.731875 41.4225 -169.46375 40.845 -169.1875 40.25 C-167.97070811 37.94449957 -166.69666121 35.97943808 -165 34 C-164.34 34 -163.68 34 -163 34 C-162.67 33.01 -162.34 32.02 -162 31 C-160.3707816 29.49676685 -158.67152634 28.0685196 -156.9375 26.6875 C-155.9475 25.89859375 -154.9575 25.1096875 -153.9375 24.296875 C-152.968125 23.53890625 -151.99875 22.7809375 -151 22 C-150.195625 21.36578125 -149.39125 20.7315625 -148.5625 20.078125 C-143.28035714 16 -143.28035714 16 -141 16 C-141 15.34 -141 14.68 -141 14 C-124.47405078 4.1964708 -107.66384597 -3.9554801 -88.8125 -8.25 C-88.10053467 -8.41330811 -87.38856934 -8.57661621 -86.6550293 -8.74487305 C-58.55046093 -14.77577219 -26.28491672 -11.68218521 0 0 Z " fill="#AAAAAA" transform="translate(1669,86)"/>
<path d="M0 0 C0.74435303 0.00115814 1.48870605 0.00231628 2.25561523 0.00350952 C13.4885568 0.03803577 24.30978787 0.60874048 35.25 3.3125 C36.14976562 3.5290625 37.04953125 3.745625 37.9765625 3.96875 C40.45109839 4.64582171 42.83444978 5.44798729 45.25 6.3125 C47.04630859 6.92738281 47.04630859 6.92738281 48.87890625 7.5546875 C61.09846689 11.85087178 72.03908417 17.88586035 83.25 24.3125 C83.25 24.9725 83.25 25.6325 83.25 26.3125 C84.57 26.6425 85.89 26.9725 87.25 27.3125 C87.25 27.9725 87.25 28.6325 87.25 29.3125 C87.971875 29.56 88.69375 29.8075 89.4375 30.0625 C92.52606582 31.43519592 94.76011418 33.03603296 97.25 35.3125 C97.25 35.9725 97.25 36.6325 97.25 37.3125 C98.24 37.3125 99.23 37.3125 100.25 37.3125 C102.61328125 39.47265625 102.61328125 39.47265625 105.25 42.3125 C106.08917969 43.17746094 106.92835938 44.04242188 107.79296875 44.93359375 C136.41787435 75.4189068 150.48611485 113.89875637 149.59765625 155.5859375 C148.6983632 178.21975758 142.23327232 200.56928983 131.25 220.3125 C130.75757813 221.2096875 130.26515625 222.106875 129.7578125 223.03125 C126.79271794 228.19084958 123.4135348 233.06781637 120 237.9375 C119.56316895 238.56672363 119.12633789 239.19594727 118.67626953 239.84423828 C117.58582711 241.37187638 116.42351764 242.8477136 115.25 244.3125 C114.59 244.3125 113.93 244.3125 113.25 244.3125 C112.92 245.6325 112.59 246.9525 112.25 248.3125 C111.59 248.3125 110.93 248.3125 110.25 248.3125 C110.25 248.9725 110.25 249.6325 110.25 250.3125 C108.875 251.9375 108.875 251.9375 107.25 253.3125 C106.59 253.3125 105.93 253.3125 105.25 253.3125 C105.25 253.9725 105.25 254.6325 105.25 255.3125 C99.77380952 260.3125 99.77380952 260.3125 97.25 260.3125 C96.92 261.3025 96.59 262.2925 96.25 263.3125 C94.24089111 264.96390405 92.25634679 266.45999494 90.125 267.9375 C89.5069751 268.37191406 88.8889502 268.80632812 88.25219727 269.25390625 C83.66252721 272.43629272 78.96915885 275.42777633 74.1875 278.3125 C73.5692334 278.68584473 72.9509668 279.05918945 72.31396484 279.44384766 C64.07799678 284.3125 64.07799678 284.3125 59.25 284.3125 C59.25 284.9725 59.25 285.6325 59.25 286.3125 C22.41437016 299.04380477 -20.02395501 304.10960505 -56.83984375 287.36181641 C-58.82527738 286.37245985 -60.78880446 285.34895461 -62.75 284.3125 C-64.02963268 283.66865052 -65.31086201 283.02796349 -66.59375 282.390625 C-69.97916667 280.69791667 -73.36458333 279.00520833 -76.75 277.3125 C-76.75 276.6525 -76.75 275.9925 -76.75 275.3125 C-77.61625 275.065 -78.4825 274.8175 -79.375 274.5625 C-82.96060064 273.23449976 -85.71327987 271.62619152 -88.75 269.3125 C-88.75 268.6525 -88.75 267.9925 -88.75 267.3125 C-89.554375 266.94125 -89.554375 266.94125 -90.375 266.5625 C-94.60711733 264.33506982 -98.50784177 261.84939988 -101.75 258.3125 C-102.471875 257.631875 -103.19375 256.95125 -103.9375 256.25 C-105.75 254.3125 -105.75 254.3125 -105.75 252.3125 C-106.41 252.3125 -107.07 252.3125 -107.75 252.3125 C-107.75 251.6525 -107.75 250.9925 -107.75 250.3125 C-108.74 249.9825 -109.73 249.6525 -110.75 249.3125 C-115.04024975 245.14170036 -118.55882023 240.35662286 -121.75 235.3125 C-122.26949219 234.55324219 -122.78898437 233.79398438 -123.32421875 233.01171875 C-123.87722656 232.20347656 -124.43023437 231.39523437 -125 230.5625 C-125.52078125 229.80453125 -126.0415625 229.0465625 -126.578125 228.265625 C-127.75 226.3125 -127.75 226.3125 -127.75 224.3125 C-128.41 224.3125 -129.07 224.3125 -129.75 224.3125 C-132.20855991 219.04927223 -134.31176509 213.94558675 -135.75 208.3125 C-136.41 208.3125 -137.07 208.3125 -137.75 208.3125 C-141.10427117 199.51441169 -143.78534338 190.77227366 -145.953125 181.61328125 C-146.69472182 178.33706553 -146.69472182 178.33706553 -147.75 175.3125 C-151.83414373 140.13222019 -147.31341936 106.6433053 -130.75 75.3125 C-130.07976112 73.98095876 -129.41166827 72.64832084 -128.75 71.3125 C-128.09 71.3125 -127.43 71.3125 -126.75 71.3125 C-126.49992187 70.6009375 -126.24984375 69.889375 -125.9921875 69.15625 C-124.61979367 66.01441758 -122.92072511 63.56071939 -120.875 60.8125 C-120.19695312 59.8946875 -119.51890625 58.976875 -118.8203125 58.03125 C-118.13710937 57.1340625 -117.45390625 56.236875 -116.75 55.3125 C-115.69425781 53.90484375 -115.69425781 53.90484375 -114.6171875 52.46875 C-114.00101563 51.7571875 -113.38484375 51.045625 -112.75 50.3125 C-112.09 50.3125 -111.43 50.3125 -110.75 50.3125 C-110.523125 49.755625 -110.29625 49.19875 -110.0625 48.625 C-97.90232055 27.19992193 -65.73577292 11.6954082 -42.9765625 5.36254883 C-42.15929687 5.13978271 -41.34203125 4.9170166 -40.5 4.6875 C-39.74976563 4.48084717 -38.99953125 4.27419434 -38.2265625 4.0612793 C-25.57134505 0.76475602 -13.00255135 -0.06289569 0 0 Z " fill="#B6B6B6" transform="translate(270.75,173.6875)"/>
<path d="M0 0 C0.06731323 1.05574219 0.06731323 1.05574219 0.13598633 2.1328125 C1.37593499 21.05785712 3.05305188 38.43848759 10.24511719 56.11230469 C11.30852009 58.77149978 12.29402052 61.45813975 13.27832031 64.14746094 C16.41982374 72.21164498 20.90220596 81.90220596 27 88 C27 88.99 27 89.98 27 91 C27.66 91 28.32 91 29 91 C30.01567807 92.65715896 31.01005812 94.32733959 32 96 C37.41652472 103.43260092 43.37065664 109.56777476 50.42578125 115.44921875 C50.94527344 115.96097656 51.46476563 116.47273438 52 117 C52 117.66 52 118.32 52 119 C52.515625 119.226875 53.03125 119.45375 53.5625 119.6875 C56.89547005 121.48217618 60.14703671 123.49965015 63 126 C63 126.66 63 127.32 63 128 C63.72703125 128.26683594 64.4540625 128.53367187 65.203125 128.80859375 C67.97745971 129.99039834 70.26402797 131.36486474 72.75 133.0625 C73.91789062 133.85333984 73.91789062 133.85333984 75.109375 134.66015625 C77 136 77 136 78 137 C78.17931104 138.34736228 78.29980399 139.70265706 78.39453125 141.05859375 C78.4610791 141.91138916 78.52762695 142.76418457 78.59619141 143.64282227 C78.66757324 144.56506592 78.73895508 145.48730957 78.8125 146.4375 C79.49906708 154.58052117 80.72551331 162.37882005 82.67895508 170.31225586 C83.51090623 173.69237702 84 176.48838129 84 180 C84.66 180 85.32 180 86 180 C86.16822266 180.89525391 86.16822266 180.89525391 86.33984375 181.80859375 C88.36618565 190.7218493 92.57884888 198.15436903 96.95898438 206.07910156 C98.2669549 208.49258939 99.45102634 210.95650233 100.625 213.4375 C103.99395202 220.24486696 108.43684841 226.30350303 113.4375 232 C116 235 116 235 116 237 C116.66 237 117.32 237 118 237 C119.515625 238.57421875 119.515625 238.57421875 121.25 240.6875 C124.27272634 244.25067222 127.35890753 247.08712602 131 250 C131.89525391 250.92039062 131.89525391 250.92039062 132.80859375 251.859375 C135.34007839 254.33219778 138.03477604 256.38970637 140.875 258.5 C141.88304687 259.2528125 142.89109375 260.005625 143.9296875 260.78125 C149.32523543 265.35924661 149.32523543 265.35924661 155.75 266.6875 C160.50110414 264.22058054 164.72093786 261.20612223 169 258 C170.21042969 257.10087891 170.21042969 257.10087891 171.4453125 256.18359375 C177.10800176 251.82277678 182.13772132 247.02006569 187.06591797 241.8605957 C188.34245655 240.53918047 189.66753402 239.26499935 191 238 C191.66 238 192.32 238 193 238 C193.12375 237.401875 193.2475 236.80375 193.375 236.1875 C194 234 194 234 196 231 C196.66 231 197.32 231 198 231 C198.25007813 230.47148437 198.50015625 229.94296875 198.7578125 229.3984375 C200.3216006 226.3790479 202.08804253 223.51784813 203.875 220.625 C204.89207031 218.97371094 204.89207031 218.97371094 205.9296875 217.2890625 C207.27389752 215.15354394 208.6513034 213.03843487 210.06640625 210.94921875 C214.94807917 203.5034348 218.44360876 195.50077085 221 187 C221.51613881 185.43594299 222.03698621 183.87343205 222.5625 182.3125 C222.90474609 181.28576172 222.90474609 181.28576172 223.25390625 180.23828125 C223.81125267 178.56624198 224.3966093 176.90349194 224.99609375 175.24609375 C226.16851019 171.45512852 226.86761667 167.65780468 227.5 163.75 C227.70423584 162.58331787 227.70423584 162.58331787 227.91259766 161.39306641 C228.60270305 157.2764018 229.07752963 153.27663759 229.1796875 149.1015625 C229.56825428 137.40988701 229.56825428 137.40988701 233.55859375 133.48046875 C236.37668988 131.81938208 239.2208603 130.38248103 242.17578125 128.98535156 C245.40482042 127.2411864 248.0691989 124.85299541 250.8125 122.4375 C251.35350342 121.96634766 251.89450684 121.49519531 252.4519043 121.00976562 C253.97274472 119.67865103 255.48655091 118.33951241 257 117 C257.82113281 116.30132812 258.64226562 115.60265625 259.48828125 114.8828125 C263.3371706 111.63154086 263.3371706 111.63154086 266.5859375 107.80859375 C267.05257813 107.21175781 267.51921875 106.61492187 268 106 C268.66 106 269.32 106 270 106 C270.35578125 105.20335937 270.35578125 105.20335937 270.71875 104.390625 C272.37378384 101.30257405 274.40548128 98.5471528 276.5 95.75 C276.90347656 95.19570313 277.30695313 94.64140625 277.72265625 94.0703125 C278.76450171 92.67430835 279.87745412 91.33197608 281 90 C281.66 90 282.32 90 283 90 C283.23976563 89.17242187 283.47953125 88.34484375 283.7265625 87.4921875 C285.21430565 83.41230292 287.19420465 79.86656064 289.375 76.125 C303.21417963 52.18321924 308.0398866 27.41289298 309 0 C318.24614124 4.39145386 325.43215983 10.2597332 333 17 C334.47847529 18.29245798 335.95752557 19.58425894 337.4375 20.875 C338.35789062 21.68904297 338.35789062 21.68904297 339.296875 22.51953125 C340.89669515 23.9102006 342.53290222 25.23798612 344.1875 26.5625 C347.23435244 29.20310545 349.57253466 31.78717822 352 35 C352 35.66 352 36.32 352 37 C352.66 37 353.32 37 354 37 C354.4021875 37.928125 354.4021875 37.928125 354.8125 38.875 C355.95556848 41.2995233 355.95556848 41.2995233 359 43 C360.38671875 45.09375 360.38671875 45.09375 361.6875 47.5 C362.12449219 48.2940625 362.56148437 49.088125 363.01171875 49.90625 C364 52 364 52 364 54 C364.66 54 365.32 54 366 54 C387.13810833 91.8232649 394.05947094 133.93603385 382.6418457 176.10253906 C377.06508356 195.78379216 367.95691706 216.64040372 354 232 C353.34 232 352.68 232 352 232 C351.67515625 232.79664063 351.67515625 232.79664063 351.34375 233.609375 C349.50159748 236.88669285 347.03862231 239.50802551 344.5 242.25 C344.00113281 242.80429687 343.50226563 243.35859375 342.98828125 243.9296875 C341.7031646 245.3285008 340.35566232 246.66944254 339 248 C338.34 248 337.68 248 337 248 C337 248.66 337 249.32 337 250 C335.07412421 251.63139937 333.15673283 253.13723225 331.125 254.625 C330.56941406 255.04523438 330.01382812 255.46546875 329.44140625 255.8984375 C325.26235288 259 325.26235288 259 323 259 C323 259.66 323 260.32 323 261 C321.59472656 262.09741211 321.59472656 262.09741211 319.640625 263.27734375 C318.93679688 263.70853516 318.23296875 264.13972656 317.5078125 264.58398438 C316.76273438 265.03064453 316.01765625 265.47730469 315.25 265.9375 C313.7958864 266.81998767 312.34273215 267.70405839 310.890625 268.58984375 C310.20581055 269.00564697 309.52099609 269.4214502 308.81542969 269.84985352 C306.8759725 271.03789557 306.8759725 271.03789557 304.71875 272.7734375 C302.04133873 274.68413555 299.20811506 274.6915274 296 275 C296 275.66 296 276.32 296 277 C292.7 277.66 289.4 278.32 286 279 C286 279.66 286 280.32 286 281 C283.16862187 281.77862899 280.33515664 282.54784029 277.5 283.3125 C276.72785156 283.52583984 275.95570313 283.73917969 275.16015625 283.95898438 C261.74397579 287.55452074 249.06015841 289.48796945 235.18115234 289.33618164 C232.86911301 289.31243955 230.55822581 289.31567349 228.24609375 289.32226562 C215.85722082 289.30010645 203.81723031 288.1700156 191.875 284.6875 C191.11276123 284.4694873 190.35052246 284.25147461 189.56518555 284.02685547 C181.78383329 281.74020479 174.42414729 278.77772183 167.21484375 275.05859375 C166.55701904 274.72843262 165.89919434 274.39827148 165.22143555 274.05810547 C163.94481807 273.41339388 162.67828083 272.74815006 161.42504883 272.05908203 C157.89849497 270.2825365 155.51936235 269.81109006 151.75390625 270.70703125 C148.30955531 271.89337897 145.23569569 273.34452779 142 275 C141.01 275 140.02 275 139 275 C139 275.66 139 276.32 139 277 C130.388457 280.49994275 121.76486003 283.51747979 112.75 285.8125 C111.96012695 286.0189917 111.17025391 286.2254834 110.35644531 286.43823242 C99.4574345 289.10914069 88.35953092 289.18662497 77.19189453 289.18530273 C75.13422964 289.18749019 73.07710219 289.20573483 71.01953125 289.22460938 C45.40026957 289.3340656 19.9233561 282.38589531 -2 269 C-2.9075 268.45730469 -3.815 267.91460938 -4.75 267.35546875 C-18.64493266 258.80622546 -31.71939098 247.71549011 -42 235 C-42.99620977 233.99622408 -43.9959705 232.9959542 -45 232 C-48 228.33333333 -48 228.33333333 -48 226 C-48.99 225.67 -49.98 225.34 -51 225 C-52.60546875 222.56640625 -52.60546875 222.56640625 -54.1875 219.5625 C-54.98220703 218.07943359 -54.98220703 218.07943359 -55.79296875 216.56640625 C-57 214 -57 214 -57 212 C-57.66 212 -58.32 212 -59 212 C-62 205.375 -62 205.375 -62 202 C-62.66 202 -63.32 202 -64 202 C-72.5280717 184.28785108 -78.09623787 164.73596787 -78.203125 145.03125 C-78.20882507 144.19267456 -78.21452515 143.35409912 -78.22039795 142.4901123 C-78.22979223 140.72193642 -78.23635958 138.95374347 -78.24023438 137.18554688 C-78.24987335 134.53482874 -78.28092252 131.88490966 -78.3125 129.234375 C-78.39973674 115.31303454 -76.76892681 102.26158317 -72.5 88.9375 C-72.25354736 88.16712402 -72.00709473 87.39674805 -71.75317383 86.60302734 C-66.48471435 70.94844282 -58.99031896 56.14419703 -49 43 C-47.52074883 40.89589274 -46.04157853 38.79172862 -44.5625 36.6875 C-42.62890625 33.94921875 -42.62890625 33.94921875 -41 32 C-40.34 32 -39.68 32 -39 32 C-39 31.34 -39 30.68 -39 30 C-38.34 30 -37.68 30 -37 30 C-36.505 28.515 -36.505 28.515 -36 27 C-34.50390625 25.4921875 -34.50390625 25.4921875 -32.5625 23.875 C-28.38235803 20.34894499 -24.38166604 16.66033597 -20.39453125 12.91796875 C-17.98988034 10.99189437 -15.90494109 9.97519337 -13 9 C-13 8.34 -13 7.68 -13 7 C-11.07058137 5.71372091 -9.07960033 4.51888653 -7.0625 3.375 C-5.96035156 2.74335938 -4.85820313 2.11171875 -3.72265625 1.4609375 C-1 0 -1 0 0 0 Z " fill="#BDBDBD" transform="translate(829,254)"/>
<path d="M0 0 C2.43311586 -0.00220569 4.86579087 -0.0204819 7.29882812 -0.03930664 C8.86653493 -0.04223826 10.43424386 -0.0442246 12.00195312 -0.04516602 C13.07718231 -0.05594429 13.07718231 -0.05594429 14.1741333 -0.06694031 C18.83058884 -0.04601742 22.75393697 0.76215755 27.17382812 2.18530273 C29.84146139 2.63918576 32.47963395 2.90170335 35.17382812 3.18530273 C35.17382812 3.84530273 35.17382812 4.50530273 35.17382812 5.18530273 C36.30046875 5.2897168 37.42710937 5.39413086 38.58789062 5.50170898 C43.46021051 6.11262789 47.91815178 7.53219974 52.54882812 9.12280273 C53.75732422 9.52015625 53.75732422 9.52015625 54.99023438 9.92553711 C60.913181 11.92465561 60.913181 11.92465561 63.17382812 14.18530273 C65.24256847 14.82782623 65.24256847 14.82782623 67.17382812 15.18530273 C67.17382812 15.84530273 67.17382812 16.50530273 67.17382812 17.18530273 C67.68558594 17.27038086 68.19734375 17.35545898 68.72460938 17.44311523 C72.20099322 18.49656488 75.2244704 20.26872995 78.36132812 22.06030273 C79.00263672 22.4122168 79.64394531 22.76413086 80.3046875 23.12670898 C85.05359772 25.82461152 85.05359772 25.82461152 86.17382812 29.18530273 C88.59765889 30.35483689 88.59765889 30.35483689 91.17382812 31.18530273 C91.83382812 31.51530273 92.49382812 31.84530273 93.17382812 32.18530273 C93.17382812 32.84530273 93.17382812 33.50530273 93.17382812 34.18530273 C94.49382812 34.84530273 95.81382812 35.50530273 97.17382812 36.18530273 C97.17382812 36.84530273 97.17382812 37.50530273 97.17382812 38.18530273 C97.77195312 38.28198242 98.37007812 38.37866211 98.98632812 38.47827148 C101.63263057 39.33359424 102.4681873 40.33330745 104.17382812 42.49780273 C107.02606941 46.00935607 110.06911597 49.14371699 113.36132812 52.24780273 C115.17382812 54.18530273 115.17382812 54.18530273 116.17382812 57.18530273 C116.75132812 57.76280273 117.32882812 58.34030273 117.92382812 58.93530273 C129.66309913 70.67457374 135.69149326 88.08692896 140.91210938 103.50561523 C141.63082296 105.60167778 142.38442104 107.68825725 143.24023438 109.73217773 C147.82928425 121.7904343 147.47259288 135.16770133 147.48632812 147.87280273 C147.48973206 148.61443665 147.49313599 149.35607056 147.49664307 150.12017822 C147.53252936 163.81098626 146.70919108 177.14052117 142.17382812 190.18530273 C141.65222019 191.74754432 141.13137344 193.31004028 140.61132812 194.87280273 C140.23609009 195.97555542 140.23609009 195.97555542 139.85327148 197.10058594 C139.24857386 198.95596252 138.73747482 200.84125441 138.24023438 202.72827148 C136.9492359 206.91337643 135.12096817 210.61873009 133.11132812 214.49780273 C132.74716797 215.21258789 132.38300781 215.92737305 132.0078125 216.66381836 C131.06806829 218.50682872 130.12143414 220.34632226 129.17382812 222.18530273 C128.84382812 222.84530273 128.51382813 223.50530273 128.17382812 224.18530273 C127.51382813 224.18530273 126.85382813 224.18530273 126.17382812 224.18530273 C125.84382812 225.83530273 125.51382813 227.48530273 125.17382812 229.18530273 C124.51382813 229.18530273 123.85382813 229.18530273 123.17382812 229.18530273 C123.05910156 229.76795898 122.944375 230.35061523 122.82617188 230.95092773 C122.12558751 233.35053408 121.19190218 234.91391206 119.73632812 236.93530273 C119.30449219 237.54889648 118.87265625 238.16249023 118.42773438 238.79467773 C118.01394531 239.25358398 117.60015625 239.71249023 117.17382812 240.18530273 C116.51382813 240.18530273 115.85382813 240.18530273 115.17382812 240.18530273 C114.90828125 240.75635742 114.64273438 241.32741211 114.36914062 241.91577148 C110.41450469 249.42441029 103.43907888 258.43021915 95.17382812 261.18530273 C95.17382812 261.84530273 95.17382812 262.50530273 95.17382812 263.18530273 C93.26970337 264.82078353 91.37582142 266.32324886 89.36132812 267.81030273 C88.81412109 268.23053711 88.26691406 268.65077148 87.703125 269.08374023 C83.54924665 272.18530273 83.54924665 272.18530273 80.17382812 272.18530273 C80.17382812 272.84530273 80.17382812 273.50530273 80.17382812 274.18530273 C78.52382813 274.51530273 76.87382813 274.84530273 75.17382812 275.18530273 C75.17382812 275.84530273 75.17382812 276.50530273 75.17382812 277.18530273 C59.9952567 285.80695452 59.9952567 285.80695452 51.17382812 287.18530273 C51.17382812 287.84530273 51.17382812 288.50530273 51.17382812 289.18530273 C50.5215625 289.37866211 49.86929688 289.57202148 49.19726562 289.77124023 C48.32328125 290.03163086 47.44929687 290.29202148 46.54882812 290.56030273 C45.26105469 290.9431543 45.26105469 290.9431543 43.94726562 291.33374023 C42.10173815 291.90039515 40.26656786 292.50197567 38.44384766 293.13818359 C26.20605172 297.05694623 14.05700332 297.64362524 1.31640625 297.52148438 C-1.35121244 297.49757833 -4.01784581 297.50099167 -6.68554688 297.50756836 C-8.40951109 297.50199873 -10.13347117 297.49489338 -11.85742188 297.48608398 C-12.64088989 297.48699539 -13.42435791 297.4879068 -14.23156738 297.48884583 C-19.40113143 297.42301964 -23.84463706 296.57129837 -28.82617188 295.18530273 C-30.34250856 294.99842193 -31.86384909 294.843285 -33.38867188 294.74780273 C-36.87871004 294.40413174 -39.59869354 293.58118276 -42.78710938 292.05249023 C-45.36958013 290.95419808 -47.99909301 290.2554576 -50.70117188 289.49780273 C-59.15767594 286.9815734 -66.93188765 283.08044657 -74.82617188 279.18530273 C-74.82617188 278.52530273 -74.82617188 277.86530273 -74.82617188 277.18530273 C-76.47617187 276.85530273 -78.12617188 276.52530273 -79.82617188 276.18530273 C-79.82617188 275.52530273 -79.82617188 274.86530273 -79.82617188 274.18530273 C-81.47617187 273.85530273 -83.12617188 273.52530273 -84.82617188 273.18530273 C-84.82617188 272.52530273 -84.82617188 271.86530273 -84.82617188 271.18530273 C-85.58929688 270.89655273 -86.35242188 270.60780273 -87.13867188 270.31030273 C-89.82617188 269.18530273 -89.82617188 269.18530273 -92.82617188 267.18530273 C-92.82617188 266.52530273 -92.82617188 265.86530273 -92.82617188 265.18530273 C-93.40367187 264.91717773 -93.98117187 264.64905273 -94.57617188 264.37280273 C-96.85875868 263.16810414 -98.79996607 261.77732158 -100.82617188 260.18530273 C-99.61960937 259.78311523 -99.61960937 259.78311523 -98.38867188 259.37280273 C-97.54304688 258.98092773 -96.69742187 258.58905273 -95.82617188 258.18530273 C-95.49617188 257.19530273 -95.16617187 256.20530273 -94.82617188 255.18530273 C-94.16617187 255.18530273 -93.50617188 255.18530273 -92.82617188 255.18530273 C-92.82617188 254.52530273 -92.82617188 253.86530273 -92.82617188 253.18530273 C-92.16617187 253.18530273 -91.50617188 253.18530273 -90.82617188 253.18530273 C-90.49617188 252.19530273 -90.16617187 251.20530273 -89.82617188 250.18530273 C-89.16617187 250.18530273 -88.50617188 250.18530273 -87.82617188 250.18530273 C-87.82617188 249.52530273 -87.82617188 248.86530273 -87.82617188 248.18530273 C-87.16617187 248.18530273 -86.50617188 248.18530273 -85.82617188 248.18530273 C-85.33117187 246.20530273 -85.33117187 246.20530273 -84.82617188 244.18530273 C-84.16617187 244.18530273 -83.50617188 244.18530273 -82.82617188 244.18530273 C-82.48779297 243.41379883 -82.48779297 243.41379883 -82.14257812 242.62670898 C-80.70111379 239.95337008 -78.97747995 237.56381432 -77.1953125 235.10913086 C-68.77441403 223.42556504 -62.67390183 210.72387637 -57.82617188 197.18530273 C-57.48714844 196.24428711 -57.148125 195.30327148 -56.79882812 194.33374023 C-45.31286952 159.33360887 -46.60464971 118.90337326 -63.32617188 85.68530273 C-64.4825044 83.51310324 -65.64837986 81.34594188 -66.82617188 79.18530273 C-67.27347656 78.28038086 -67.72078125 77.37545898 -68.18164062 76.44311523 C-74.46810234 64.01767478 -84.69217445 48.82965155 -96.07617188 40.54858398 C-96.65367187 40.09870117 -97.23117187 39.64881836 -97.82617188 39.18530273 C-97.82617188 38.52530273 -97.82617188 37.86530273 -97.82617188 37.18530273 C-98.81617188 36.85530273 -99.80617188 36.52530273 -100.82617188 36.18530273 C-99.73304688 35.58717773 -98.63992188 34.98905273 -97.51367188 34.37280273 C-94.88398948 32.88300283 -92.91357459 31.38256875 -90.82617188 29.18530273 C-90.16617187 29.18530273 -89.50617188 29.18530273 -88.82617188 29.18530273 C-88.82617188 28.52530273 -88.82617188 27.86530273 -88.82617188 27.18530273 C-87.50617188 26.85530273 -86.18617188 26.52530273 -84.82617188 26.18530273 C-84.82617188 25.52530273 -84.82617188 24.86530273 -84.82617188 24.18530273 C-82.85130502 22.76737241 -80.90603419 21.49423898 -78.82617188 20.24780273 C-78.23400879 19.88879883 -77.6418457 19.52979492 -77.03173828 19.15991211 C-71.91055824 16.11707415 -66.91126655 13.18530273 -60.82617188 13.18530273 C-60.82617188 12.52530273 -60.82617188 11.86530273 -60.82617188 11.18530273 C-59.97152344 10.9081543 -59.116875 10.63100586 -58.23632812 10.34545898 C-57.13160156 9.98323242 -56.026875 9.62100586 -54.88867188 9.24780273 C-53.78652344 8.8881543 -52.684375 8.52850586 -51.54882812 8.15795898 C-48.94493712 7.44673605 -48.94493712 7.44673605 -47.82617188 6.18530273 C-45.82658824 6.14449491 -43.82571934 6.14275917 -41.82617188 6.18530273 C-41.82617188 5.52530273 -41.82617188 4.86530273 -41.82617188 4.18530273 C-39.55677691 3.69834754 -37.2859955 3.22074521 -35.01367188 2.74780273 C-33.11681641 2.34754883 -33.11681641 2.34754883 -31.18164062 1.93920898 C-20.85558028 0.02887589 -10.46434147 -0.00106259 0 0 Z " fill="#E2E2E2" transform="translate(468.826171875,173.814697265625)"/>
<path d="M0 0 C1.10134781 -0.01448685 1.10134781 -0.01448685 2.22494507 -0.02926636 C4.5823071 -0.05393465 6.93939811 -0.06663796 9.296875 -0.07421875 C10.10034363 -0.07716949 10.90381226 -0.08012024 11.73162842 -0.0831604 C24.26879403 -0.0936422 35.92458508 0.82460454 48.046875 4.23828125 C49.02269531 4.48835937 49.99851562 4.7384375 51.00390625 4.99609375 C53.39588167 5.65153268 55.70946828 6.41053182 58.046875 7.23828125 C58.98660156 7.55023438 59.92632813 7.8621875 60.89453125 8.18359375 C74.05091984 12.84620482 86.79147398 19.99771979 98.046875 28.23828125 C98.8821875 28.84800781 99.7175 29.45773438 100.578125 30.0859375 C105.29205778 33.62866167 105.29205778 33.62866167 107.046875 35.23828125 C107.046875 35.89828125 107.046875 36.55828125 107.046875 37.23828125 C107.85125 37.57859375 107.85125 37.57859375 108.671875 37.92578125 C114.41219996 41.0980661 119.25764589 45.90379914 123.046875 51.23828125 C123.046875 51.89828125 123.046875 52.55828125 123.046875 53.23828125 C123.706875 53.23828125 124.366875 53.23828125 125.046875 53.23828125 C125.046875 53.89828125 125.046875 54.55828125 125.046875 55.23828125 C125.706875 55.23828125 126.366875 55.23828125 127.046875 55.23828125 C128.5546875 57.13671875 128.5546875 57.13671875 130.171875 59.61328125 C130.71070313 60.42539063 131.24953125 61.2375 131.8046875 62.07421875 C133.046875 64.23828125 133.046875 64.23828125 133.046875 66.23828125 C133.706875 66.23828125 134.366875 66.23828125 135.046875 66.23828125 C140.62066212 75.69793303 145.42215502 84.84741729 149.046875 95.23828125 C149.64759858 96.80210822 150.25124456 98.3648197 150.859375 99.92578125 C152.046875 103.23828125 152.046875 103.23828125 152.046875 105.23828125 C153.4390625 105.33109375 153.4390625 105.33109375 154.859375 105.42578125 C160.36184031 106.22914119 165.10130871 108.80909881 170.046875 111.23828125 C171.21476562 111.80289063 172.38265625 112.3675 173.5859375 112.94921875 C179.94990843 116.05324152 186.23727975 119.17156457 192.046875 123.23828125 C192.046875 123.89828125 192.046875 124.55828125 192.046875 125.23828125 C192.748125 125.48578125 193.449375 125.73328125 194.171875 125.98828125 C197.44202048 127.41008363 200.187997 129.11074413 203.046875 131.23828125 C203.046875 131.89828125 203.046875 132.55828125 203.046875 133.23828125 C203.706875 133.23828125 204.366875 133.23828125 205.046875 133.23828125 C205.046875 133.89828125 205.046875 134.55828125 205.046875 135.23828125 C205.60375 135.46515625 206.160625 135.69203125 206.734375 135.92578125 C209.70542685 137.61205392 211.69209625 139.76863525 214.046875 142.23828125 C214.995625 143.08390625 215.944375 143.92953125 216.921875 144.80078125 C219.046875 147.23828125 219.046875 147.23828125 219.109375 149.42578125 C217.76238894 151.72358099 216.4104651 152.09229817 214.046875 153.23828125 C213.36200775 154.56235794 212.69817297 155.89737366 212.046875 157.23828125 C203.72250618 166.09431596 193.87025204 173.54052944 183.296875 179.48828125 C182.61778076 179.87081055 181.93868652 180.25333984 181.23901367 180.64746094 C178.31767324 182.23048612 176.41872088 183.23828125 173.046875 183.23828125 C173.046875 183.89828125 173.046875 184.55828125 173.046875 185.23828125 C171.00587565 186.03166675 168.9640441 186.82291155 166.921875 187.61328125 C165.78492188 188.05414063 164.64796875 188.495 163.4765625 188.94921875 C154.72566288 192.23828125 154.72566288 192.23828125 152.046875 192.23828125 C151.87671875 192.84414063 151.7065625 193.45 151.53125 194.07421875 C147.24615836 208.88969515 140.57780823 221.86524246 131.84375 234.58203125 C130.00498527 237.22419666 130.00498527 237.22419666 128.4375 240.08203125 C127.97859375 240.79359375 127.5196875 241.50515625 127.046875 242.23828125 C126.386875 242.23828125 125.726875 242.23828125 125.046875 242.23828125 C124.799375 242.79515625 124.551875 243.35203125 124.296875 243.92578125 C122.81762682 246.66239038 121.11220061 248.91478994 119.046875 251.23828125 C118.386875 251.23828125 117.726875 251.23828125 117.046875 251.23828125 C116.840625 251.79515625 116.634375 252.35203125 116.421875 252.92578125 C114.47004468 256.20840496 112.10456506 257.94501371 109.046875 260.23828125 C108.386875 260.23828125 107.726875 260.23828125 107.046875 260.23828125 C107.046875 260.89828125 107.046875 261.55828125 107.046875 262.23828125 C105.396875 262.89828125 103.746875 263.55828125 102.046875 264.23828125 C102.046875 264.89828125 102.046875 265.55828125 102.046875 266.23828125 C96.63511029 270.23828125 96.63511029 270.23828125 94.046875 270.23828125 C94.046875 270.89828125 94.046875 271.55828125 94.046875 272.23828125 C91.4921875 273.96484375 91.4921875 273.96484375 88.171875 275.86328125 C86.53605469 276.81074219 86.53605469 276.81074219 84.8671875 277.77734375 C82.046875 279.23828125 82.046875 279.23828125 80.046875 279.23828125 C80.046875 279.89828125 80.046875 280.55828125 80.046875 281.23828125 C78.77847974 281.74443423 77.50704398 282.24297224 76.234375 282.73828125 C75.17283203 283.1559375 75.17283203 283.1559375 74.08984375 283.58203125 C72.046875 284.23828125 72.046875 284.23828125 69.046875 284.23828125 C69.046875 284.89828125 69.046875 285.55828125 69.046875 286.23828125 C62.50576709 288.81726432 55.87114925 290.95327638 49.109375 292.86328125 C48.39539551 293.06912842 47.68141602 293.27497559 46.94580078 293.48706055 C35.51258045 296.65383427 24.44321532 297.58724972 12.63964844 297.55395508 C10.31397123 297.55080441 7.98958281 297.57431062 5.6640625 297.59960938 C-4.56416109 297.64189461 -13.96421045 296.45772368 -23.953125 294.23828125 C-25.8901638 293.84019713 -27.82755716 293.44382491 -29.765625 293.05078125 C-32.03515625 292.5703125 -32.03515625 292.5703125 -33.953125 291.23828125 C-35.18989266 288.52096001 -36.12168679 286.07761654 -36.953125 283.23828125 C-37.15317139 282.55822021 -37.35321777 281.87815918 -37.55932617 281.17749023 C-46.03728931 249.84845046 -40.43373492 218.17489721 -29.953125 188.23828125 C-29.293125 188.23828125 -28.633125 188.23828125 -27.953125 188.23828125 C-27.83130859 186.99111328 -27.83130859 186.99111328 -27.70703125 185.71875 C-26.78587634 181.46616439 -25.06348905 178.28454888 -22.890625 174.55078125 C-22.4894043 173.85033691 -22.08818359 173.14989258 -21.67480469 172.42822266 C-17.37681802 165.0479269 -12.49920808 158.17217632 -6.953125 151.67578125 C-4.74168613 149.50609005 -4.74168613 149.50609005 -4.953125 147.23828125 C-5.943125 146.57828125 -6.933125 145.91828125 -7.953125 145.23828125 C-7.953125 144.57828125 -7.953125 143.91828125 -7.953125 143.23828125 C-8.613125 143.23828125 -9.273125 143.23828125 -9.953125 143.23828125 C-9.953125 142.24828125 -9.953125 141.25828125 -9.953125 140.23828125 C-10.613125 140.23828125 -11.273125 140.23828125 -11.953125 140.23828125 C-13.26245117 138.44091797 -13.26245117 138.44091797 -14.74609375 135.91796875 C-15.29096436 134.9964502 -15.83583496 134.07493164 -16.3972168 133.12548828 C-16.9725415 132.13145996 -17.54786621 131.13743164 -18.140625 130.11328125 C-18.72561768 129.11022949 -19.31061035 128.10717773 -19.91333008 127.07373047 C-31.890825 106.37792292 -31.890825 106.37792292 -33.953125 96.23828125 C-34.43560722 94.75330821 -34.93664306 93.27427385 -35.453125 91.80078125 C-36.9721722 87.32760709 -38.03997997 82.86916773 -38.953125 78.23828125 C-39.12481201 77.37323975 -39.29649902 76.50819824 -39.47338867 75.61694336 C-40.85825126 68.06261819 -41.26787588 60.78432332 -41.203125 53.11328125 C-41.19563232 51.93403076 -41.18813965 50.75478027 -41.18041992 49.53979492 C-40.98870347 33.83939589 -39.23891097 20.04655186 -33.953125 5.23828125 C-31.12080953 4.58769596 -28.28740299 3.94271412 -25.453125 3.30078125 C-24.66164063 3.11837891 -23.87015625 2.93597656 -23.0546875 2.74804688 C-22.26835938 2.57080078 -21.48203125 2.39355469 -20.671875 2.2109375 C-19.95966797 2.04859619 -19.24746094 1.88625488 -18.51367188 1.71899414 C-12.34551876 0.56099514 -6.26890115 0.06944383 0 0 Z " fill="#858585" transform="translate(1503.953125,173.76171875)"/>
<path d="M0 0 C1 2 1 2 0.29296875 4.40625 C-0.07183594 5.4271875 -0.43664063 6.448125 -0.8125 7.5 C-8.70964698 32.58505511 -7.37287007 63.01186046 1.23022461 87.70239258 C2.02880543 90.08597776 2.69227992 92.48679733 3.359375 94.91015625 C5.00660157 100.44761856 7.5134181 105.36689848 10.25 110.4375 C10.73509033 111.35184814 11.22018066 112.26619629 11.7199707 113.20825195 C14.8447811 119.03739468 18.13105246 124.66784519 21.85546875 130.13671875 C23 132 23 132 23 134 C23.66 134 24.32 134 25 134 C25 134.99 25 135.98 25 137 C25.66 137 26.32 137 27 137 C28.37310707 138.29233607 29.71034824 139.62437146 31 141 C29.45986033 144.43937925 27.40382355 147.11996859 25.0625 150.0625 C20.97330932 155.44615851 17.45483759 161.02910967 14.0625 166.875 C13.59013916 167.68332275 13.11777832 168.49164551 12.63110352 169.32446289 C10.26556909 173.46382632 8.30008108 177.37914038 7 182 C6.34 182 5.68 182 5 182 C4.731875 183.27746094 4.46375 184.55492187 4.1875 185.87109375 C3.24285866 190.12780063 2.06146796 194.27199925 0.79150391 198.44140625 C-7.33123383 225.34014541 -7.36569474 252.9149741 0 280 C0.15404297 280.73138184 0.30808594 281.46276367 0.46679688 282.21630859 C0.821433 284.16468327 0.821433 284.16468327 2.72265625 284.94140625 C16.84851034 288.69100692 30.18046793 290.55434566 44.75 290.4375 C45.92672775 290.43393494 45.92672775 290.43393494 47.12722778 290.43029785 C59.46087173 290.3719657 71.09797808 289.44416409 83 286 C83.66016113 285.81856445 84.32032227 285.63712891 85.00048828 285.45019531 C91.72913932 283.64471686 91.72913932 283.64471686 98.09375 280.8828125 C100 280 100 280 104 280 C104 279.34 104 278.68 104 278 C105.45706726 277.49632243 106.91570096 276.99717444 108.375 276.5 C109.59316406 276.08234375 109.59316406 276.08234375 110.8359375 275.65625 C113 275 113 275 115 275 C115 274.34 115 273.68 115 273 C117.5546875 271.2734375 117.5546875 271.2734375 120.875 269.375 C122.51082031 268.42753906 122.51082031 268.42753906 124.1796875 267.4609375 C127 266 127 266 129 266 C129 265.34 129 264.68 129 264 C134.41176471 260 134.41176471 260 137 260 C137 259.34 137 258.68 137 258 C141.10526316 254.92105263 141.10526316 254.92105263 144.125 255.1875 C146 256 146 256 149 258 C149 258.66 149 259.32 149 260 C149.7425 260.2475 150.485 260.495 151.25 260.75 C154.24530185 262.11150084 155.69278884 263.69278884 158 266 C159.97300116 267.05226728 161.97676387 268.04788888 164 269 C166.35262671 270.30175522 168.67395154 271.6508919 171 273 C171 273.66 171 274.32 171 275 C171.763125 275.144375 172.52625 275.28875 173.3125 275.4375 C176 276 176 276 179 277 C179 277.66 179 278.32 179 279 C179.75023437 279.17015625 180.50046875 279.3403125 181.2734375 279.515625 C186.20859068 280.68414993 190.92614793 281.86139899 195.5625 283.9375 C208.7827435 289.42076199 223.05518024 290.64748569 237.21704102 290.46655273 C239.69810328 290.4373753 242.17703867 290.44606037 244.65820312 290.45898438 C258.97823702 290.43960978 272.25400585 288.10632452 286 284 C284.45216031 289.72231645 282.7258729 295.00325479 279.8671875 300.2109375 C278.94334408 302.11688474 278.4458641 303.93446632 278 306 C277.34 306 276.68 306 276 306 C275.34 308.64 274.68 311.28 274 314 C273.34 314 272.68 314 272 314 C271.74863281 314.6909375 271.49726562 315.381875 271.23828125 316.09375 C269.81626687 319.43122224 268.07886774 322.40437708 266.1875 325.5 C265.52105469 326.6034375 264.85460938 327.706875 264.16796875 328.84375 C262.02271878 331.96692473 259.73505989 334.39164416 257 337 C255.88200562 338.25868581 254.77664452 339.52876887 253.6875 340.8125 C250.00554223 345.05159612 246.25354302 349.32337431 242 353 C241.34 353 240.68 353 240 353 C240 353.66 240 354.32 240 355 C238.3455812 356.36003823 236.62403955 357.63901205 234.875 358.875 C233.37259766 359.93847656 233.37259766 359.93847656 231.83984375 361.0234375 C230.90269531 361.67570312 229.96554687 362.32796875 229 363 C228.34128906 363.46664063 227.68257812 363.93328125 227.00390625 364.4140625 C223.27383094 367 223.27383094 367 221 367 C221 367.66 221 368.32 221 369 C178.08769327 389.49011803 136.74559559 396.81432061 90.73339844 381.23242188 C82.42630481 378.25198454 74.61224623 374.46289696 67 370 C67 369.34 67 368.68 67 368 C66.21625 367.814375 65.4325 367.62875 64.625 367.4375 C59.56948069 365.4327251 55.1687768 362.49320428 51 359 C51 358.34 51 357.68 51 357 C50.45730469 356.76023437 49.91460938 356.52046875 49.35546875 356.2734375 C40.3555886 351.40783065 33.6956523 343.93050084 27.9375 335.6640625 C26.14305299 333.02578808 26.14305299 333.02578808 24.10546875 331.20703125 C20.91919713 327.86706193 18.69867271 323.9973146 16.3125 320.0625 C15.81427734 319.26392578 15.31605469 318.46535156 14.80273438 317.64257812 C14.32771484 316.86462891 13.85269531 316.08667969 13.36328125 315.28515625 C12.71806519 314.23146851 12.71806519 314.23146851 12.05981445 313.15649414 C10.89221543 310.78068162 10.41124836 308.60571292 10 306 C9.34 306 8.68 306 8 306 C7.73445313 305.15695312 7.46890625 304.31390625 7.1953125 303.4453125 C6.84210938 302.34960938 6.48890625 301.25390625 6.125 300.125 C5.77695313 299.03445313 5.42890625 297.94390625 5.0703125 296.8203125 C4.18824769 293.91477277 4.18824769 293.91477277 2 292 C1.814375 291.05125 1.62875 290.1025 1.4375 289.125 C-0.44473324 285.03318862 -2.25599208 284.56855101 -6.3203125 282.984375 C-7.64675781 282.49710937 -7.64675781 282.49710937 -9 282 C-29.98918499 273.69787112 -47.27489299 262.16191554 -63 246 C-63.53753906 245.484375 -64.07507812 244.96875 -64.62890625 244.4375 C-66.12281281 242.99558555 -67.56559656 241.50111987 -69 240 C-69 239.34 -69 238.68 -69 238 C-69.66 238 -70.32 238 -71 238 C-71.93460051 236.68463632 -72.85553706 235.3579297 -73.71484375 233.9921875 C-75.88390859 230.62980736 -78.26921851 227.4166298 -80.609375 224.171875 C-82 222 -82 222 -82 220 C-82.66 220 -83.32 220 -84 220 C-85.25664978 217.09399739 -86 215.20395416 -86 212 C-86.99 211.67 -87.98 211.34 -89 211 C-90.24609375 208.41015625 -90.24609375 208.41015625 -91.4375 205.0625 C-92.86768653 201.11347749 -94.3179525 197.22259854 -96 193.375 C-97.97019182 188.48570765 -99.33318935 183.46147077 -100.6875 178.375 C-101.00944336 177.17496338 -101.00944336 177.17496338 -101.33789062 175.95068359 C-101.64049805 174.78013428 -101.64049805 174.78013428 -101.94921875 173.5859375 C-102.12799561 172.8954834 -102.30677246 172.2050293 -102.4909668 171.49365234 C-103.74563305 165.34729211 -104.17605891 159.22987008 -104.2734375 152.96875 C-104.28601089 152.22362152 -104.29858429 151.47849304 -104.3115387 150.71078491 C-104.54866137 133.26512092 -104.07223249 116.85197243 -99 100 C-98.75362793 99.16952148 -98.50725586 98.33904297 -98.25341797 97.48339844 C-93.12223558 80.8161535 -84.60508971 64.83272571 -74 51 C-73.2265625 49.88625 -73.2265625 49.88625 -72.4375 48.75 C-71.963125 48.1725 -71.48875 47.595 -71 47 C-70.34 47 -69.68 47 -69 47 C-68.73058594 46.41605469 -68.46117187 45.83210938 -68.18359375 45.23046875 C-63.88518741 37.13017165 -56.08874928 31.51460009 -49 26 C-48.20335937 25.37222656 -47.40671875 24.74445313 -46.5859375 24.09765625 C-41.28308824 20 -41.28308824 20 -39 20 C-39 19.34 -39 18.68 -39 18 C-29.3262965 11.03308794 -18.63924786 5.83878602 -7.171875 2.625 C-4.70529257 1.91519211 -2.35445567 1.02026413 0 0 Z " fill="#BDBDBD" transform="translate(1469,180)"/>
<path d="M0 0 C0.78969177 0.00054382 1.57938354 0.00108765 2.39300537 0.00164795 C33.91049588 0.10105214 61.53298066 7.79911024 87.75 25.375 C88.50410156 25.84292969 89.25820312 26.31085938 90.03515625 26.79296875 C95.62300176 30.31124185 100.35680225 34.49172355 105.1796875 38.9921875 C107.24140071 40.90350218 109.32842097 42.71794187 111.5 44.5 C116.01061487 48.32421696 120.85591726 52.69275178 122.75 58.375 C123.41 58.375 124.07 58.375 124.75 58.375 C126.37109375 60.60546875 126.37109375 60.60546875 128.1875 63.5625 C128.78433594 64.52542969 129.38117188 65.48835938 129.99609375 66.48046875 C131.1127005 68.32324292 132.22397777 70.16926473 133.328125 72.01953125 C134.52838776 74.00787862 135.78180695 75.9385569 137.0625 77.875 C149.21864802 97.38306988 157.05269906 122.31589041 156.8125 145.375 C156.80347656 146.509375 156.79445313 147.64375 156.78515625 148.8125 C156.76775391 150.0809375 156.76775391 150.0809375 156.75 151.375 C151.28262809 149.62692871 145.99175152 147.71705919 140.75 145.375 C140.75 144.715 140.75 144.055 140.75 143.375 C139.945625 143.24544922 139.945625 143.24544922 139.125 143.11328125 C133.75642467 142.15082284 128.77958277 140.7238481 123.625 138.9375 C96.5213414 130.04042946 62.18743538 130.05256275 35.24609375 139.60546875 C32.75 140.375 32.75 140.375 28.75 140.375 C28.75 141.035 28.75 141.695 28.75 142.375 C27.780625 142.6225 26.81125 142.87 25.8125 143.125 C18.62671497 145.19253976 12.19256308 148.53997406 5.890625 152.51953125 C2.98917847 153.67905094 1.72662833 153.33437373 -1.25 152.375 C-3.86629768 151.20381467 -6.39878925 149.89210105 -8.9375 148.5625 C-42.42739183 131.48091523 -81.0885942 128.45765407 -117.25 138.375 C-118.3028418 138.654646 -118.3028418 138.654646 -119.37695312 138.93994141 C-126.30354277 140.80547 -132.78530688 143.29457897 -139.25 146.375 C-141.60357376 147.45962083 -143.95777023 148.54289117 -146.3125 149.625 C-148.29195783 150.54103776 -150.27122638 151.45748518 -152.25 152.375 C-152.72888777 141.34284474 -151.40524149 131.15898809 -149.25 120.375 C-149.04503906 119.32570313 -148.84007812 118.27640625 -148.62890625 117.1953125 C-145.43293665 102.86307616 -139.08364433 89.29453426 -132.25 76.375 C-131.59 76.375 -130.93 76.375 -130.25 76.375 C-130.01539063 75.52679688 -129.78078125 74.67859375 -129.5390625 73.8046875 C-128.08233898 69.92892007 -126.0500387 66.81295913 -123.625 63.5 C-123.1813208 62.88576172 -122.7376416 62.27152344 -122.28051758 61.63867188 C-119.17067475 57.41717586 -115.83488991 53.65356347 -112.00390625 50.0625 C-110.30102814 48.42409612 -108.84291832 46.72380675 -107.375 44.875 C-106.67375 44.05 -105.9725 43.225 -105.25 42.375 C-104.59 42.375 -103.93 42.375 -103.25 42.375 C-103.25 41.715 -103.25 41.055 -103.25 40.375 C-93.61757052 31.24446063 -82.16195243 23.89395445 -70.6875 17.3125 C-70.00856689 16.91804688 -69.32963379 16.52359375 -68.63012695 16.1171875 C-65.15577173 14.17193205 -63.31979641 13.375 -59.25 13.375 C-59.25 12.715 -59.25 12.055 -59.25 11.375 C-52.56503328 8.68599091 -45.76771293 6.60071069 -38.8125 4.75 C-38.05090576 4.54415283 -37.28931152 4.33830566 -36.50463867 4.1262207 C-24.33707085 0.9555901 -12.52631471 -0.03248475 0 0 Z " fill="#B9B9B9" transform="translate(981.25,101.625)"/>
<path d="M0 0 C0.69482483 -0.00045319 1.38964966 -0.00090637 2.10552979 -0.00137329 C23.60481589 0.03953262 45.95635232 3.11364115 65.01171875 13.66796875 C65.7605835 14.08030762 66.50944824 14.49264648 67.28100586 14.91748047 C68.778835 15.75126401 70.26837147 16.60015847 71.74829102 17.46533203 C75.11318068 19.34487605 77.10505746 20.39565526 81.0234375 20.28125 C83.74437887 19.3971346 86.16027457 18.40068658 88.6875 17.0625 C89.54472656 16.6190625 90.40195312 16.175625 91.28515625 15.71875 C92.879705 14.87095283 94.47128975 14.01753495 96.05859375 13.15625 C99.79227006 11.18001301 102.45684538 9.83054317 106.8125 10.375 C106.8125 9.715 106.8125 9.055 106.8125 8.375 C139.68613421 -2.52543179 176.01725901 -3.32676613 208.8125 8.375 C210.80847413 8.99233674 212.80800042 9.59843397 214.8125 10.1875 C215.988125 10.53748047 215.988125 10.53748047 217.1875 10.89453125 C217.72375 11.05308594 218.26 11.21164063 218.8125 11.375 C218.8125 12.035 218.8125 12.695 218.8125 13.375 C219.59625 13.436875 220.38 13.49875 221.1875 13.5625 C226.16538793 14.6782335 230.33703694 16.97806227 234.8125 19.375 C235.67140749 47.49626741 230.00873917 73.21729906 215.76855469 97.7109375 C214.52500796 99.87539473 213.39689606 102.09568076 212.25 104.3125 C209.8768157 108.55149816 206.88476929 112.21514771 203.796875 115.953125 C201.52854554 118.72155859 199.41887365 121.58183307 197.33203125 124.48828125 C187.17944795 137.09418802 172.78406581 148.3542863 158.8125 156.375 C158.1525 156.375 157.4925 156.375 156.8125 156.375 C156.78333496 155.74335938 156.75416992 155.11171875 156.72412109 154.4609375 C155.70852553 134.53660336 153.39930912 112.20540933 143.69189453 94.30908203 C142.8125 92.375 142.8125 92.375 142.8125 88.375 C142.1525 88.375 141.4925 88.375 140.8125 88.375 C139.04787317 85.28690305 138.8125 84.14187864 138.8125 80.375 C138.1525 80.375 137.4925 80.375 136.8125 80.375 C135.4453125 78.3984375 135.4453125 78.3984375 133.9375 75.75 C132.18673288 72.7204863 130.43750719 69.7464389 128.4375 66.875 C126.8125 64.375 126.8125 64.375 126.8125 62.375 C126.1525 62.375 125.4925 62.375 124.8125 62.375 C123.5234375 60.9140625 123.5234375 60.9140625 122.1875 59 C121.74148438 58.37351562 121.29546875 57.74703125 120.8359375 57.1015625 C119.8125 55.375 119.8125 55.375 119.8125 53.375 C119.1525 53.375 118.4925 53.375 117.8125 53.375 C117.8125 52.715 117.8125 52.055 117.8125 51.375 C117.1525 51.375 116.4925 51.375 115.8125 51.375 C115.8125 50.715 115.8125 50.055 115.8125 49.375 C115.1525 49.375 114.4925 49.375 113.8125 49.375 C111.6875 47.5 111.6875 47.5 109.8125 45.375 C109.8125 44.715 109.8125 44.055 109.8125 43.375 C109.1525 43.375 108.4925 43.375 107.8125 43.375 C107.8125 42.715 107.8125 42.055 107.8125 41.375 C106.8225 41.045 105.8325 40.715 104.8125 40.375 C104.8125 39.715 104.8125 39.055 104.8125 38.375 C103.4925 38.045 102.1725 37.715 100.8125 37.375 C100.8125 36.715 100.8125 36.055 100.8125 35.375 C99.884375 34.9109375 99.884375 34.9109375 98.9375 34.4375 C97.5625 33.75 96.1875 33.0625 94.8125 32.375 C94.8125 31.715 94.8125 31.055 94.8125 30.375 C94.090625 30.106875 93.36875 29.83875 92.625 29.5625 C89.81483617 28.37598638 87.32833443 27.10014361 84.8125 25.375 C84.8125 24.715 84.8125 24.055 84.8125 23.375 C80.34410785 23.16221942 76.98987474 23.78361915 72.8125 25.375 C72.8125 26.035 72.8125 26.695 72.8125 27.375 C67.40073529 31.375 67.40073529 31.375 64.8125 31.375 C64.8125 32.035 64.8125 32.695 64.8125 33.375 C62.82649663 34.7290932 60.82432457 36.05957624 58.8125 37.375 C57.69875 38.48875 57.69875 38.48875 56.5625 39.625 C55.985 40.2025 55.4075 40.78 54.8125 41.375 C54.1525 41.375 53.4925 41.375 52.8125 41.375 C52.8125 42.035 52.8125 42.695 52.8125 43.375 C50.82989574 45.06232277 48.8292658 46.72866057 46.8125 48.375 C46.3175 49.365 46.3175 49.365 45.8125 50.375 C45.1525 50.375 44.4925 50.375 43.8125 50.375 C43.544375 50.94734375 43.27625 51.5196875 43 52.109375 C41.77117364 54.45384634 40.38727824 56.49904938 38.8125 58.625 C38.296875 59.33140625 37.78125 60.0378125 37.25 60.765625 C36.775625 61.29671875 36.30125 61.8278125 35.8125 62.375 C35.1525 62.375 34.4925 62.375 33.8125 62.375 C33.53664063 63.12136719 33.26078125 63.86773437 32.9765625 64.63671875 C31.91099044 67.14331612 30.78202634 69.00059376 29.1875 71.1875 C18.06237911 87.59096292 10.61075565 106.81386052 7.8125 126.375 C7.1525 126.375 6.4925 126.375 5.8125 126.375 C5.75191406 127.35597656 5.69132813 128.33695312 5.62890625 129.34765625 C5.04955136 138.69193961 4.44328305 148.03404247 3.8125 157.375 C3.06484375 156.89289063 2.3171875 156.41078125 1.546875 155.9140625 C0.56203125 155.28242188 -0.4228125 154.65078125 -1.4375 154 C-2.41203125 153.37351562 -3.3865625 152.74703125 -4.390625 152.1015625 C-6.62271615 150.72365148 -8.81837422 149.49187358 -11.1875 148.375 C-11.1875 147.715 -11.1875 147.055 -11.1875 146.375 C-11.9609375 146.0346875 -11.9609375 146.0346875 -12.75 145.6875 C-20.46623112 141.53260632 -26.11275923 135.69625816 -31.72265625 129.05859375 C-32.9644546 127.63135351 -34.28726351 126.27523649 -35.625 124.9375 C-37.8109887 122.7515113 -39.92353303 120.5391172 -42 118.25 C-42.60457031 117.58742188 -43.20914063 116.92484375 -43.83203125 116.2421875 C-45.1875 114.375 -45.1875 114.375 -45.1875 111.375 C-45.8475 111.375 -46.5075 111.375 -47.1875 111.375 C-47.51363281 110.77171875 -47.83976563 110.1684375 -48.17578125 109.546875 C-48.61277344 108.74765625 -49.04976562 107.9484375 -49.5 107.125 C-49.92925781 106.33609375 -50.35851562 105.5471875 -50.80078125 104.734375 C-52.1164899 102.3870646 -52.1164899 102.3870646 -53.66796875 100.4375 C-55.49653201 97.95554267 -56.81480634 95.38468621 -58.1875 92.625 C-58.6825 91.64015625 -59.1775 90.6553125 -59.6875 89.640625 C-61.09184317 86.58325288 -62.28932402 83.52321931 -63.44189453 80.36621094 C-64.12704411 78.53645325 -64.88639259 76.73493205 -65.65234375 74.9375 C-71.78027897 60.11342328 -74.37771353 44.13244394 -74.8125 28.125 C-74.86543213 27.02696045 -74.86543213 27.02696045 -74.91943359 25.90673828 C-74.9140625 23.859375 -74.9140625 23.859375 -74.1875 20.375 C-71.4453125 18.0390625 -71.4453125 18.0390625 -68.1875 16.375 C-67.01960937 15.74464844 -67.01960937 15.74464844 -65.828125 15.1015625 C-53.21068842 9.28764564 -39.81754429 5.03293967 -26.1875 2.375 C-25.43154541 2.20726074 -24.67559082 2.03952148 -23.89672852 1.86669922 C-15.93741345 0.21872558 -8.10748613 -0.02063004 0 0 Z " fill="#898989" transform="translate(903.1875,233.625)"/>
<path d="M0 0 C1.33804687 0.5878125 1.33804687 0.5878125 2.703125 1.1875 C8.88997797 3.95257395 14.96311476 6.922629 21 10 C21 10.66 21 11.32 21 12 C22.98 12.66 24.96 13.32 27 14 C27 14.66 27 15.32 27 16 C27.67804688 16.20625 28.35609375 16.4125 29.0546875 16.625 C33.0077801 18.47047559 35.88867406 21.11115327 39.125 24 C40.35554696 25.08472331 41.58727478 26.16810884 42.8203125 27.25 C43.35930176 27.72953125 43.89829102 28.2090625 44.45361328 28.703125 C46.18056144 30.19956124 46.18056144 30.19956124 49 32 C49 32.66 49 33.32 49 34 C49.99 34.33 50.98 34.66 52 35 C56 39.45714286 56 39.45714286 56 42 C56.99 42.33 57.98 42.66 59 43 C63.6629092 48.53421256 67.58140554 54.63434134 71 61 C71.36351562 61.62648438 71.72703125 62.25296875 72.1015625 62.8984375 C77.95783544 73.06190472 83.06387787 83.62009866 86 95 C85.46632813 94.85377197 84.93265625 94.70754395 84.3828125 94.55688477 C81.923375 93.88644338 79.46174006 93.22443455 77 92.5625 C76.16082031 92.33240234 75.32164062 92.10230469 74.45703125 91.86523438 C64.80803045 89.28468765 55.83712798 88.83869582 45.8659668 88.86962891 C43.8343951 88.87494273 41.80304895 88.86968298 39.77148438 88.86328125 C27.2714614 88.85339139 15.46862866 89.4402082 3.375 92.75 C2.37009521 93.02021973 1.36519043 93.29043945 0.32983398 93.56884766 C-6.4786415 95.452975 -12.75338668 97.67752596 -19 101 C-21.11227183 102.07404545 -23.22930528 103.13819117 -25.34790039 104.19970703 C-26.80091361 104.92981774 -28.25075966 105.66627318 -29.69702148 106.40966797 C-34.78121715 109 -34.78121715 109 -37 109 C-37 109.66 -37 110.32 -37 111 C-42.75 114 -42.75 114 -45 114 C-45 114.66 -45 115.32 -45 116 C-50.41176471 120 -50.41176471 120 -53 120 C-53.33 120.99 -53.66 121.98 -54 123 C-55.703125 123.9609375 -55.703125 123.9609375 -58 124 C-60.08420111 122.61662675 -61.86439937 121.24375395 -63.75 119.625 C-70.46840995 114.14955411 -77.63641199 110.01831046 -85.26123047 105.94140625 C-87.47602281 104.74227128 -89.64041982 103.46199428 -91.8125 102.1875 C-99.39042497 98.02957487 -107.6652426 95.73083082 -115.9375 93.375 C-116.65220459 93.16875 -117.36690918 92.9625 -118.10327148 92.75 C-130.27147294 89.38307711 -142.01847252 88.63398758 -154.5625 88.6875 C-155.35626038 88.68799347 -156.15002075 88.68848694 -156.96783447 88.68899536 C-168.90179887 88.71172586 -180.30923441 89.46481151 -192 92 C-193.99827491 92.34352366 -195.99770393 92.68074846 -198 93 C-197.50212213 86.79405753 -196.04094175 81.94583571 -193.4375 76.3125 C-193.08034912 75.52794434 -192.72319824 74.74338867 -192.35522461 73.93505859 C-187.04545481 62.52353754 -180.27189706 51.52469474 -172 42 C-171.34 42 -170.68 42 -170 42 C-169.731875 41.4225 -169.46375 40.845 -169.1875 40.25 C-167.97070811 37.94449957 -166.69666121 35.97943808 -165 34 C-164.34 34 -163.68 34 -163 34 C-162.67 33.01 -162.34 32.02 -162 31 C-160.3707816 29.49676685 -158.67152634 28.0685196 -156.9375 26.6875 C-155.9475 25.89859375 -154.9575 25.1096875 -153.9375 24.296875 C-152.968125 23.53890625 -151.99875 22.7809375 -151 22 C-150.195625 21.36578125 -149.39125 20.7315625 -148.5625 20.078125 C-143.28035714 16 -143.28035714 16 -141 16 C-141 15.34 -141 14.68 -141 14 C-124.47405078 4.1964708 -107.66384597 -3.9554801 -88.8125 -8.25 C-88.10053467 -8.41330811 -87.38856934 -8.57661621 -86.6550293 -8.74487305 C-58.55046093 -14.77577219 -26.28491672 -11.68218521 0 0 Z " fill="#B9B9B9" transform="translate(1669,86)"/>
<path d="M0 0 C7.03744209 0.39096901 11.85348336 2.68829922 18 6 C20.08017202 7.04796545 22.16357724 8.08953524 24.25 9.125 C26.16666667 10.08333333 28.08333333 11.04166667 30 12 C31.08796875 12.49242187 32.1759375 12.98484375 33.296875 13.4921875 C36 15 36 15 37 18 C37.680625 18.268125 38.36125 18.53625 39.0625 18.8125 C45.36840875 21.36169715 50.50747908 26.32871984 55.5546875 30.80078125 C57.00684436 32.09799092 57.00684436 32.09799092 59 33 C59 33.66 59 34.32 59 35 C59.66 35 60.32 35 61 35 C61 35.66 61 36.32 61 37 C61.5775 37.226875 62.155 37.45375 62.75 37.6875 C65.59739809 39.34848222 67.12067193 41.31524561 69 44 C69 44.66 69 45.32 69 46 C69.66 46 70.32 46 71 46 C71.2475 46.5775 71.495 47.155 71.75 47.75 C72.93990475 50.13449889 72.93990475 50.13449889 75.125 52.125 C77 54 77 54 77 56 C77.66 56 78.32 56 79 56 C79.43570312 56.88300781 79.87140625 57.76601562 80.3203125 58.67578125 C83.66435138 65.42429913 87.08392719 72.10746326 90.73828125 78.6953125 C91.36283203 79.83613281 91.36283203 79.83613281 92 81 C92.38542969 81.67804688 92.77085938 82.35609375 93.16796875 83.0546875 C94 85 94 85 94 89 C94.66 89 95.32 89 96 89 C97.38610251 93.65229088 98.70800355 98.32084832 100 103 C100.27157928 103.97692558 100.27157928 103.97692558 100.54864502 104.97358704 C103.4782943 115.72344431 104.66178476 125.75132274 104.5 136.875 C104.4947934 137.62269653 104.48958679 138.37039307 104.48422241 139.14074707 C104.27639883 164.8374011 100.19098596 188.19899167 88 211 C87.34 211 86.68 211 86 211 C85.67 212.65 85.34 214.3 85 216 C84.34 216 83.68 216 83 216 C82.9071875 216.99 82.9071875 216.99 82.8125 218 C81.69621505 222.1216675 79.66238434 225.65750502 77 229 C76.34 229 75.68 229 75 229 C74.7525 229.94875 74.505 230.8975 74.25 231.875 C73 235 73 235 70.875 236.375 C70.25625 236.58125 69.6375 236.7875 69 237 C69 237.66 69 238.32 69 239 C68.34 239 67.68 239 67 239 C67 239.66 67 240.32 67 241 C66.34 241 65.68 241 65 241 C65 241.66 65 242.32 65 243 C64.34 243 63.68 243 63 243 C63 243.99 63 244.98 63 246 C61.68 246.33 60.36 246.66 59 247 C59 247.66 59 248.32 59 249 C58.34 249 57.68 249 57 249 C57 249.66 57 250.32 57 251 C55.125 253.125 55.125 253.125 53 255 C52.34 255 51.68 255 51 255 C51 255.66 51 256.32 51 257 C50.01 257 49.02 257 48 257 C48 257.66 48 258.32 48 259 C47.195625 259.268125 46.39125 259.53625 45.5625 259.8125 C44.716875 260.204375 43.87125 260.59625 43 261 C42.67 261.99 42.34 262.98 42 264 C40.35 264.33 38.7 264.66 37 265 C37 265.66 37 266.32 37 267 C31.25 270 31.25 270 29 270 C29 270.66 29 271.32 29 272 C7.94061758 283 7.94061758 283 0 283 C1.80764959 270.38491351 1.80764959 270.38491351 3.0625 265.875 C9.42105881 239.59295692 5.5237412 206.42289667 -6 182 C-6.26651367 181.42749512 -6.53302734 180.85499023 -6.80761719 180.26513672 C-12.97578588 167.11860204 -20.13629463 154.99352446 -29.56640625 143.890625 C-31 142 -31 142 -31 140 C-29.68398052 138.64957478 -28.34756698 137.31894609 -27 136 C-24.52545072 132.76405095 -22.27254999 129.38005853 -20 126 C-19.43023438 125.16339844 -18.86046875 124.32679688 -18.2734375 123.46484375 C-9.30293302 109.8862034 -3.14630855 95.71232714 1 80 C1.21172852 79.21625 1.42345703 78.4325 1.64160156 77.625 C7.11466214 56.53073166 7.3405799 32.12785513 2 11 C1.58822443 8.83630655 1.19091767 6.66977615 0.8125 4.5 C0.65394531 3.6234375 0.49539063 2.746875 0.33203125 1.84375 C0.22246094 1.2353125 0.11289063 0.626875 0 0 Z " fill="#E2E2E2" transform="translate(1755,181)"/>
<path d="M0 0 C3.13115473 1.27565563 5.12984996 3.01823309 7.44921875 5.4453125 C10.12766079 8.13050124 13.01990703 10.57922659 15.87109375 13.078125 C18 15 18 15 20.5625 17.75 C23.18144175 20.1674847 25.59078679 21.42481243 28.83984375 22.8125 C31.29348305 24.16133607 33.23943333 25.90278749 35.35961914 27.71582031 C38.09386598 29.85633801 41.14124762 31.36579105 44.25 32.875 C44.93964844 33.21305664 45.62929687 33.55111328 46.33984375 33.89941406 C59.48272046 40.21719726 72.76407731 44.86780012 87 48 C88.26585937 48.36738281 89.53171875 48.73476563 90.8359375 49.11328125 C97.64633531 50.61294461 104.6806004 50.1480261 111.6081543 49.94335938 C114.03245777 49.87583675 116.45589035 49.83919961 118.88085938 49.8046875 C128.13604376 49.60116801 136.48079149 48.50629094 145.38452148 45.94189453 C149.28753023 44.92509341 152.99415759 44.42346925 157 44 C152.11655851 59.11277159 145.79071342 72.33758746 136.76171875 85.4140625 C134.95111498 87.99504681 134.95111498 87.99504681 133.39453125 90.8359375 C132.93433594 91.55007813 132.47414063 92.26421875 132 93 C131.34 93 130.68 93 130 93 C129.7525 93.556875 129.505 94.11375 129.25 94.6875 C127.77075182 97.42410913 126.06532561 99.67650869 124 102 C123.34 102 122.68 102 122 102 C121.79375 102.556875 121.5875 103.11375 121.375 103.6875 C119.42316968 106.97012371 117.05769006 108.70673246 114 111 C113.34 111 112.68 111 112 111 C112 111.66 112 112.32 112 113 C109.525 113.99 109.525 113.99 107 115 C107 115.66 107 116.32 107 117 C101.58823529 121 101.58823529 121 99 121 C99 121.66 99 122.32 99 123 C96.4453125 124.7265625 96.4453125 124.7265625 93.125 126.625 C92.03445313 127.25664062 90.94390625 127.88828125 89.8203125 128.5390625 C87 130 87 130 85 130 C85 130.66 85 131.32 85 132 C83.73160474 132.50615298 82.46016898 133.00469099 81.1875 133.5 C80.12595703 133.91765625 80.12595703 133.91765625 79.04296875 134.34375 C77 135 77 135 74 135 C74 135.66 74 136.32 74 137 C67.45889209 139.57898307 60.82427425 141.71499513 54.0625 143.625 C52.99153076 143.93377075 52.99153076 143.93377075 51.89892578 144.2487793 C40.46570545 147.41555302 29.39634032 148.34896847 17.59277344 148.31567383 C15.26709623 148.31252316 12.94270781 148.33602937 10.6171875 148.36132812 C0.38896391 148.40361336 -9.01108545 147.21944243 -19 145 C-20.9370388 144.60191588 -22.87443216 144.20554366 -24.8125 143.8125 C-27.08203125 143.33203125 -27.08203125 143.33203125 -29 142 C-30.23676766 139.28267876 -31.16856179 136.83933529 -32 134 C-32.20004639 133.31993896 -32.40009277 132.63987793 -32.60620117 131.93920898 C-41.08416431 100.61016921 -35.48060992 68.93661596 -25 39 C-24.34 39 -23.68 39 -23 39 C-22.91878906 38.16855469 -22.83757812 37.33710938 -22.75390625 36.48046875 C-21.83275134 32.22788314 -20.11036405 29.04626763 -17.9375 25.3125 C-17.5362793 24.61205566 -17.13505859 23.91161133 -16.72167969 23.18994141 C-11.89299989 14.89836496 -6.27355506 7.25379804 0 0 Z " fill="#8A8A8A" transform="translate(1499,323)"/>
<path d="M0 0 C2.35227047 0.92722778 4.65951764 1.57243347 7.10546875 2.203125 C18.49422575 5.53465328 30.73302208 12.16632525 40.41796875 18.953125 C40.41796875 19.613125 40.41796875 20.273125 40.41796875 20.953125 C41.11921875 21.200625 41.82046875 21.448125 42.54296875 21.703125 C45.81311423 23.12492738 48.55909075 24.82558788 51.41796875 26.953125 C51.41796875 27.613125 51.41796875 28.273125 51.41796875 28.953125 C52.07796875 28.953125 52.73796875 28.953125 53.41796875 28.953125 C53.41796875 29.613125 53.41796875 30.273125 53.41796875 30.953125 C53.97484375 31.18 54.53171875 31.406875 55.10546875 31.640625 C58.0765206 33.32689767 60.06319 35.483479 62.41796875 37.953125 C63.36671875 38.79875 64.31546875 39.644375 65.29296875 40.515625 C67.41796875 42.953125 67.41796875 42.953125 67.48046875 45.140625 C66.13348269 47.43842474 64.78155885 47.80714192 62.41796875 48.953125 C61.7331015 50.27720169 61.06926672 51.61221741 60.41796875 52.953125 C52.09359993 61.80915971 42.24134579 69.25537319 31.66796875 75.203125 C30.98887451 75.5856543 30.30978027 75.96818359 29.61010742 76.36230469 C26.68876699 77.94532987 24.78981463 78.953125 21.41796875 78.953125 C21.41796875 79.613125 21.41796875 80.273125 21.41796875 80.953125 C19.4181393 81.72440069 17.41809584 82.4951215 15.41796875 83.265625 C14.30421875 83.69488281 13.19046875 84.12414062 12.04296875 84.56640625 C10.84671875 85.02402344 9.65046875 85.48164063 8.41796875 85.953125 C7.79688232 86.19901367 7.1757959 86.44490234 6.53588867 86.69824219 C1.35544669 88.7141197 -3.88721193 90.20174658 -9.26953125 91.578125 C-10.09775391 91.7946875 -10.92597656 92.01125 -11.77929688 92.234375 C-14.04407545 92.82187561 -16.30701865 93.40655252 -18.58203125 93.953125 C-19.31607178 94.13254639 -20.0501123 94.31196777 -20.80639648 94.49682617 C-24.65221392 95.12905704 -28.46377601 95.22876029 -32.35546875 95.33984375 C-33.19743805 95.36536819 -34.03940735 95.39089264 -34.90689087 95.41719055 C-36.68362786 95.4690555 -38.46043698 95.51849892 -40.23730469 95.56567383 C-42.94121269 95.64018907 -45.64427021 95.73095497 -48.34765625 95.82226562 C-50.07939925 95.8707953 -51.81116981 95.91835313 -53.54296875 95.96484375 C-54.34423187 95.99390305 -55.145495 96.02296234 -55.97103882 96.05290222 C-60.9467464 96.16323378 -64.85890219 95.52737724 -69.58203125 93.953125 C-72.00222253 93.46032587 -74.42545352 93.03180197 -76.859375 92.61328125 C-80.56663466 91.71439046 -84.02910642 90.32835862 -87.58203125 88.953125 C-88.9550497 88.44866761 -90.32875376 87.94607254 -91.703125 87.4453125 C-104.80146383 82.57982727 -118.14536313 77.04229285 -129.08203125 68.15625 C-130.72141039 66.78306595 -130.72141039 66.78306595 -133.33203125 65.328125 C-135.84626788 63.79164706 -137.52601393 62.06788567 -139.58203125 59.953125 C-140.88742431 58.79920159 -142.20070055 57.65416611 -143.51953125 56.515625 C-146.6732631 53.77809196 -149.66929829 50.9490789 -152.58203125 47.953125 C-153.18015625 47.39625 -153.77828125 46.839375 -154.39453125 46.265625 C-155.58203125 44.953125 -155.58203125 44.953125 -155.58203125 42.953125 C-153.61355597 40.69302376 -151.83674424 39.09388744 -149.20703125 37.640625 C-146.77194305 36.07521116 -145.70076253 34.98036416 -143.95703125 32.765625 C-139.97960649 27.89275906 -134.88200816 24.2872608 -129.58203125 20.953125 C-128.92203125 20.953125 -128.26203125 20.953125 -127.58203125 20.953125 C-127.58203125 20.293125 -127.58203125 19.633125 -127.58203125 18.953125 C-122.5332149 15.37688009 -117.09399632 12.61095152 -111.58203125 9.828125 C-110.91816406 9.49151855 -110.25429687 9.15491211 -109.5703125 8.80810547 C-105.61790469 6.84451976 -101.64685681 5.17413552 -97.49804688 3.67236328 C-95.71201196 3.00191745 -93.96461923 2.23093172 -92.22265625 1.453125 C-66.06309272 -10.11976947 -26.57586905 -10.7750876 0 0 Z " fill="#5D5D5D" transform="translate(1655.58203125,278.046875)"/>
<path d="M0 0 C1.010625 0.20496094 2.02125 0.40992188 3.0625 0.62109375 C5.59444458 1.20013221 7.71391272 1.77273209 10 3 C12 6.1875 12 6.1875 13 10 C13.350625 11.19625 13.70125 12.3925 14.0625 13.625 C16.56465977 24.53478017 17.40804148 35.32547272 17.375 46.5 C17.37445618 47.19765472 17.37391235 47.89530945 17.37335205 48.61410522 C17.3300452 60.76444949 16.17540156 72.24569771 13 84 C12.78569336 84.81210937 12.57138672 85.62421875 12.35058594 86.4609375 C6.92749415 106.47980324 -2.93607679 123.24786901 -15 140 C-15.52078125 140.75410156 -16.0415625 141.50820313 -16.578125 142.28515625 C-17.04734375 142.85105469 -17.5165625 143.41695312 -18 144 C-18.66 144 -19.32 144 -20 144 C-20.33 144.66 -20.66 145.32 -21 146 C-21.50789063 145.32453125 -22.01578125 144.6490625 -22.5390625 143.953125 C-26.36606447 138.99378911 -29.63987034 135.2160778 -35 132 C-35 131.34 -35 130.68 -35 130 C-35.66 130 -36.32 130 -37 130 C-37 129.34 -37 128.68 -37 128 C-38.051875 127.62875 -38.051875 127.62875 -39.125 127.25 C-42.39514548 125.82819762 -45.141122 124.12753712 -48 122 C-48 121.34 -48 120.68 -48 120 C-48.825 119.773125 -49.65 119.54625 -50.5 119.3125 C-53.99596369 118.00151362 -56.69024431 116.37381797 -59.80078125 114.359375 C-67.08744595 109.85536201 -76.18041398 104.56228504 -84.75 103.5625 C-88.84741609 101.59258842 -89.03005524 100.2906787 -90.625 96.125 C-91.42839491 93.75394164 -92.2200423 91.37887097 -93 89 C-95.89095469 81.33897008 -99.35045236 74.37517121 -103.64453125 67.3984375 C-105 65 -105 65 -105 63 C-105.66 63 -106.32 63 -107 63 C-108.5078125 61.1015625 -108.5078125 61.1015625 -110.125 58.625 C-110.93324219 57.40683594 -110.93324219 57.40683594 -111.7578125 56.1640625 C-113 54 -113 54 -113 52 C-113.66 52 -114.32 52 -115 52 C-115 51.34 -115 50.68 -115 50 C-115.66 50 -116.32 50 -117 50 C-118.2615356 48.50155631 -119.45941543 46.94923574 -120.625 45.375 C-124.26580311 40.68063115 -128.04442621 37.24221051 -133 34 C-129.61127367 30.41193683 -126.23858668 27.54315201 -122 25 C-121.34 25 -120.68 25 -120 25 C-120 24.34 -120 23.68 -120 23 C-117.09451118 20.95830515 -115.59857954 20 -112 20 C-112 19.34 -112 18.68 -112 18 C-100.28125 12.140625 -100.28125 12.140625 -98.12988281 11.07006836 C-96.73305153 10.36829033 -95.34149891 9.65588363 -93.95605469 8.93188477 C-89.4877756 6.6176822 -85.0704589 4.87030232 -80.25 3.4375 C-79.55608154 3.22770508 -78.86216309 3.01791016 -78.1472168 2.80175781 C-76.10121196 2.1900535 -74.05162244 1.59255412 -72 1 C-70.92878906 0.68675781 -69.85757812 0.37351563 -68.75390625 0.05078125 C-47.93166084 -5.61795754 -20.9086327 -5.61919504 0 0 Z " fill="#A4A4A4" transform="translate(1744,177)"/>
<path d="M0 0 C1.32 0.33 2.64 0.66 4 1 C4 1.66 4 2.32 4 3 C4.825 3.0825 5.65 3.165 6.5 3.25 C9.44226906 3.88048623 11.10727513 4.47664805 13.671875 5.85546875 C17.91402788 8.02820744 22.22095025 9.59901988 26.75 11.0625 C27.54075928 11.31999023 28.33151855 11.57748047 29.14624023 11.84277344 C57.20376574 20.86279488 86.40700297 21.31340433 115.0625 14.625 C115.90675537 14.42817627 116.75101074 14.23135254 117.62084961 14.02856445 C125.93982622 11.96460545 133.7126799 8.88234729 141.2109375 4.734375 C143 4 143 4 147 4 C147 3.34 147 2.68 147 2 C148.98 1.34 150.96 0.68 153 0 C153.60524579 16.94688214 149.91254848 34.16281658 144 50 C143.72671875 50.74894531 143.4534375 51.49789062 143.171875 52.26953125 C137.72727152 66.55008021 130.08992206 82.30756091 120 94 C119.34 94 118.68 94 118 94 C116.79371992 96.33214148 115.8345262 98.49642139 115 101 C113.46875 102.5078125 113.46875 102.5078125 111.5 104.125 C108.43027158 106.71203261 105.63175643 109.39570715 102.875 112.3125 C97.22132824 118.04469498 90.71635394 122.60035105 84 127 C83.40219727 127.4129834 82.80439453 127.8259668 82.18847656 128.25146484 C77.71493216 131.14148582 77.71493216 131.14148582 74.39453125 130.484375 C71.73415896 128.83520458 69.19641209 127.12351467 66.6875 125.25 C65.73617187 124.54101562 64.78484375 123.83203125 63.8046875 123.1015625 C62.41636719 122.06128906 62.41636719 122.06128906 61 121 C60.17757812 120.40960938 59.35515625 119.81921875 58.5078125 119.2109375 C57.78335938 118.68757813 57.05890625 118.16421875 56.3125 117.625 C55.66925781 117.16351563 55.02601563 116.70203125 54.36328125 116.2265625 C53.91339844 115.82179688 53.46351563 115.41703125 53 115 C53 114.34 53 113.68 53 113 C52.43796875 112.7628125 51.8759375 112.525625 51.296875 112.28125 C48.48105958 110.71052303 46.52044584 108.78528536 44.25 106.5 C43.45078125 105.7059375 42.6515625 104.911875 41.828125 104.09375 C40 102 40 102 40 100 C39.34 100 38.68 100 38 100 C25.70261091 87.46148564 8 61.03197033 8 43 C7.34 43 6.68 43 6 43 C2.21085831 28.58038477 0.16771866 14.91171402 0 0 Z " fill="#8D8D8D" transform="translate(907,391)"/>
<path d="M0 0 C6.72876041 0.44858403 11.99983074 3.05281359 18 6 C19.16789062 6.56460937 20.33578125 7.12921875 21.5390625 7.7109375 C27.90303343 10.81496027 34.19040475 13.93328332 40 18 C40 18.66 40 19.32 40 20 C40.70125 20.2475 41.4025 20.495 42.125 20.75 C45.39514548 22.17180238 48.141122 23.87246288 51 26 C51 26.66 51 27.32 51 28 C51.66 28 52.32 28 53 28 C53 28.66 53 29.32 53 30 C53.556875 30.226875 54.11375 30.45375 54.6875 30.6875 C57.65855185 32.37377267 59.64522125 34.530354 62 37 C62.94875 37.845625 63.8975 38.69125 64.875 39.5625 C67 42 67 42 67.0625 44.1875 C65.71551394 46.48529974 64.3635901 46.85401692 62 48 C61.31513275 49.32407669 60.65129797 50.65909241 60 52 C51.67563118 60.85603471 41.82337704 68.30224819 31.25 74.25 C30.57090576 74.6325293 29.89181152 75.01505859 29.19213867 75.40917969 C26.27079824 76.99220487 24.37184588 78 21 78 C21 78.66 21 79.32 21 80 C18.95900065 80.7933855 16.9171691 81.5846303 14.875 82.375 C13.73804688 82.81585938 12.60109375 83.25671875 11.4296875 83.7109375 C4.86987522 86.17647059 4.86987522 86.17647059 2 87 C1.34 86.67 0.68 86.34 0 86 C0.27714844 84.96101563 0.55429688 83.92203125 0.83984375 82.8515625 C1.20611946 81.44280975 1.57198254 80.03394967 1.9375 78.625 C2.11990234 77.94566406 2.30230469 77.26632812 2.49023438 76.56640625 C5.14801325 66.22523026 5.21306821 55.78833965 5.24023438 45.17089844 C5.24989361 42.90001113 5.28099021 40.6300495 5.3125 38.359375 C5.38479804 28.2145355 4.21878513 18.90683657 2 9 C1.78867432 8.01563965 1.57734863 7.0312793 1.35961914 6.01708984 C0.9228647 4.00774655 0.46498201 2.00299942 0 0 Z " fill="#7B7B7B" transform="translate(1656,279)"/>
<path d="M0 0 C0 3 0 3 -1.72265625 4.98046875 C-2.88087891 6.07294922 -2.88087891 6.07294922 -4.0625 7.1875 C-7.79975351 10.78917491 -11.25442098 14.49462925 -14.58984375 18.46875 C-16 20 -16 20 -18 21 C-16.79618552 18.50638429 -15.54571278 16.31856917 -14 14 C-13.34 14 -12.68 14 -12 14 C-11.731875 13.4225 -11.46375 12.845 -11.1875 12.25 C-9.97070811 9.94449957 -8.69666121 7.97943808 -7 6 C-6.34 6 -5.68 6 -5 6 C-4.67 5.01 -4.34 4.02 -4 3 C-1.9375 1.3125 -1.9375 1.3125 0 0 Z " fill="#C5C5C5" transform="translate(1511,114)"/>
<path d="M0 0 C4.38889325 0.66498383 7.9811485 2.18757677 12 4 C12 4.33 12 4.66 12 5 C11.05125 5.309375 10.1025 5.61875 9.125 5.9375 C6.13919592 6.87394742 6.13919592 6.87394742 4 8 C3.566875 6.576875 3.566875 6.576875 3.125 5.125 C2.23174891 1.94788422 2.23174891 1.94788422 0 0 Z " fill="#C6C6C6" transform="translate(1467,464)"/>
<path d="M0 0 C1.32 0.33 2.64 0.66 4 1 C3.34 2.32 2.68 3.64 2 5 C1.34 5 0.68 5 0 5 C0 5.66 0 6.32 0 7 C-1.98 7 -3.96 7 -6 7 C-4.02 4.69 -2.04 2.38 0 0 Z " fill="#C2C2C2" transform="translate(798,276)"/>
<path d="M0 0 C0 2 0 4 0 6 C-0.66 6 -1.32 6 -2 6 C-2 6.66 -2 7.32 -2 8 C-2.99 8.33 -3.98 8.66 -5 9 C-5.66 8.34 -6.32 7.68 -7 7 C-2.25 1.125 -2.25 1.125 0 0 Z " fill="#C1C1C1" transform="translate(167,215)"/>
<path d="M0 0 C1.32 0 2.64 0 4 0 C3.125 5.75 3.125 5.75 2 8 C1.34 8 0.68 8 0 8 C0 5.36 0 2.72 0 0 Z " fill="#A4A4A4" transform="translate(401,384)"/>
<path d="M0 0 C0.66 0 1.32 0 2 0 C2.33 2.31 2.66 4.62 3 7 C2.34 6.67 1.68 6.34 1 6 C0.34 6.66 -0.32 7.32 -1 8 C-2.2077558 4.37673261 -1.54311128 3.35853631 0 0 Z " fill="#A7A7A7" transform="translate(403,256)"/>
<path d="M0 0 C1 3 1 3 0.22265625 5.04296875 C-0.16019531 5.75066406 -0.54304688 6.45835937 -0.9375 7.1875 C-1.31777344 7.90292969 -1.69804688 8.61835938 -2.08984375 9.35546875 C-2.54037109 10.16951172 -2.54037109 10.16951172 -3 11 C-3.99 10.67 -4.98 10.34 -6 10 C-4.02 6.7 -2.04 3.4 0 0 Z " fill="#939393" transform="translate(1486,340)"/>
<path d="M0 0 C-2 2 -2 2 -3.9453125 2.1953125 C-5.96354167 2.13020833 -7.98177083 2.06510417 -10 2 C-9.67 1.34 -9.34 0.68 -9 0 C-5.65506316 -0.99444068 -3.31044803 -1.10348268 0 0 Z " fill="#CACACA" transform="translate(991,522)"/>
<path d="M0 0 C2.64 0.33 5.28 0.66 8 1 C4.36576791 3.32590854 1.22911669 3.16265833 -3 3 C-2.01 2.67 -1.02 2.34 0 2 C0 1.34 0 0.68 0 0 Z " fill="#C9C9C9" transform="translate(928,539)"/>
<path d="M0 0 C0.99 0.33 1.98 0.66 3 1 C2.01 2.485 2.01 2.485 1 4 C0.34 3.67 -0.32 3.34 -1 3 C-1.33 3.99 -1.66 4.98 -2 6 C-2.66 5.67 -3.32 5.34 -4 5 C-2.68 3.35 -1.36 1.7 0 0 Z " fill="#C1C1C1" transform="translate(865,156)"/>
</svg>
