<svg width="145" height="145" viewBox="0 0 145 145" fill="none" xmlns="http://www.w3.org/2000/svg">
<rect width="145" height="145" rx="14" fill="#E9EDF8"/>
<path d="M15.8608 26V17.2727H21.5369V18.598H17.4418V20.9673H21.2429V22.2926H17.4418V24.6747H21.571V26H15.8608ZM24.6243 17.2727V26H23.0817V17.2727H24.6243ZM36.7255 20.2173H35.1317C35.0863 19.956 35.0025 19.7244 34.8803 19.5227C34.7582 19.3182 34.6062 19.1449 34.4244 19.0028C34.2425 18.8608 34.0352 18.7543 33.8022 18.6832C33.5721 18.6094 33.3235 18.5724 33.0565 18.5724C32.582 18.5724 32.1616 18.6918 31.7951 18.9304C31.4286 19.1662 31.1417 19.5128 30.9343 19.9702C30.7269 20.4247 30.6232 20.9801 30.6232 21.6364C30.6232 22.304 30.7269 22.8665 30.9343 23.3239C31.1445 23.7784 31.4315 24.1222 31.7951 24.3551C32.1616 24.5852 32.5806 24.7003 33.0522 24.7003C33.3136 24.7003 33.5579 24.6662 33.7852 24.598C34.0153 24.527 34.2212 24.4233 34.4031 24.2869C34.5877 24.1506 34.7425 23.983 34.8675 23.7841C34.9954 23.5852 35.0835 23.358 35.1317 23.1023L36.7255 23.1108C36.6658 23.5256 36.5366 23.9148 36.3377 24.2784C36.1417 24.642 35.8846 24.9631 35.5664 25.2415C35.2482 25.517 34.8761 25.733 34.4499 25.8892C34.0238 26.0426 33.5508 26.1193 33.0309 26.1193C32.2638 26.1193 31.5792 25.9418 30.9769 25.5866C30.3746 25.2315 29.9002 24.7188 29.5536 24.0483C29.207 23.3778 29.0337 22.5739 29.0337 21.6364C29.0337 20.696 29.2085 19.892 29.5579 19.2244C29.9073 18.554 30.3832 18.0412 30.9854 17.6861C31.5877 17.331 32.2695 17.1534 33.0309 17.1534C33.5167 17.1534 33.9684 17.2216 34.386 17.358C34.8036 17.4943 35.1758 17.6946 35.5025 17.9588C35.8292 18.2202 36.0977 18.5412 36.3079 18.9219C36.521 19.2997 36.6602 19.7315 36.7255 20.2173ZM39.9886 26.1321C39.5739 26.1321 39.2003 26.0582 38.8679 25.9105C38.5384 25.7599 38.277 25.5384 38.0838 25.2457C37.8935 24.9531 37.7983 24.5923 37.7983 24.1634C37.7983 23.794 37.8665 23.4886 38.0028 23.2472C38.1392 23.0057 38.3253 22.8125 38.5611 22.6676C38.7969 22.5227 39.0625 22.4134 39.358 22.3395C39.6563 22.2628 39.9645 22.2074 40.2827 22.1733C40.6662 22.1335 40.9773 22.098 41.2159 22.0668C41.4545 22.0327 41.6278 21.9815 41.7358 21.9134C41.8466 21.8423 41.902 21.733 41.902 21.5852V21.5597C41.902 21.2386 41.8068 20.9901 41.6165 20.8139C41.4261 20.6378 41.152 20.5497 40.794 20.5497C40.4162 20.5497 40.1165 20.6321 39.8949 20.7969C39.6761 20.9616 39.5284 21.1562 39.4517 21.3807L38.0114 21.1761C38.125 20.7784 38.3125 20.446 38.5739 20.179C38.8352 19.9091 39.1548 19.7074 39.5327 19.5739C39.9105 19.4375 40.3281 19.3693 40.7855 19.3693C41.1009 19.3693 41.4148 19.4062 41.7273 19.4801C42.0398 19.554 42.3253 19.6761 42.5838 19.8466C42.8423 20.0142 43.0497 20.2429 43.206 20.5327C43.3651 20.8224 43.4446 21.1847 43.4446 21.6193V26H41.9616V25.1009H41.9105C41.8168 25.2827 41.6847 25.4531 41.5142 25.6122C41.3466 25.7685 41.1349 25.8949 40.8793 25.9915C40.6264 26.0852 40.3295 26.1321 39.9886 26.1321ZM40.3892 24.9986C40.6989 24.9986 40.9673 24.9375 41.1946 24.8153C41.4219 24.6903 41.5966 24.5256 41.7188 24.321C41.8438 24.1165 41.9062 23.8935 41.9062 23.652V22.8807C41.858 22.9205 41.7756 22.9574 41.6591 22.9915C41.5455 23.0256 41.4176 23.0554 41.2756 23.081C41.1335 23.1065 40.9929 23.1293 40.8537 23.1491C40.7145 23.169 40.5938 23.1861 40.4915 23.2003C40.2614 23.2315 40.0554 23.2827 39.8736 23.3537C39.6918 23.4247 39.5483 23.5241 39.4432 23.652C39.3381 23.777 39.2855 23.9389 39.2855 24.1378C39.2855 24.4219 39.3892 24.6364 39.5966 24.7812C39.804 24.9261 40.0682 24.9986 40.3892 24.9986ZM44.9957 26V19.4545H46.5384V26H44.9957ZM45.7713 18.5256C45.527 18.5256 45.3168 18.4446 45.1406 18.2827C44.9645 18.1179 44.8764 17.9205 44.8764 17.6903C44.8764 17.4574 44.9645 17.2599 45.1406 17.098C45.3168 16.9332 45.527 16.8509 45.7713 16.8509C46.0185 16.8509 46.2287 16.9332 46.402 17.098C46.5781 17.2599 46.6662 17.4574 46.6662 17.6903C46.6662 17.9205 46.5781 18.1179 46.402 18.2827C46.2287 18.4446 46.0185 18.5256 45.7713 18.5256ZM48.1246 26V19.4545H49.6204V20.5455H49.6886C49.8079 20.1676 50.0124 19.8764 50.3022 19.6719C50.5948 19.4645 50.9286 19.3608 51.3036 19.3608C51.3888 19.3608 51.484 19.3651 51.5891 19.3736C51.6971 19.3793 51.7866 19.3892 51.8576 19.4034V20.8224C51.7923 20.7997 51.6886 20.7798 51.5465 20.7628C51.4073 20.7429 51.2724 20.733 51.1417 20.733C50.8604 20.733 50.6076 20.794 50.3832 20.9162C50.1616 21.0355 49.9869 21.2017 49.859 21.4148C49.7312 21.6278 49.6673 21.8736 49.6673 22.152V26H48.1246ZM55.468 26.1278C54.8288 26.1278 54.2749 25.9872 53.8061 25.706C53.3374 25.4247 52.9737 25.0312 52.7152 24.5256C52.4595 24.0199 52.3317 23.429 52.3317 22.7528C52.3317 22.0767 52.4595 21.4844 52.7152 20.9759C52.9737 20.4673 53.3374 20.0724 53.8061 19.7912C54.2749 19.5099 54.8288 19.3693 55.468 19.3693C56.1072 19.3693 56.6612 19.5099 57.13 19.7912C57.5987 20.0724 57.9609 20.4673 58.2166 20.9759C58.4751 21.4844 58.6044 22.0767 58.6044 22.7528C58.6044 23.429 58.4751 24.0199 58.2166 24.5256C57.9609 25.0312 57.5987 25.4247 57.13 25.706C56.6612 25.9872 56.1072 26.1278 55.468 26.1278ZM55.4766 24.892C55.8232 24.892 56.1129 24.7969 56.3459 24.6065C56.5788 24.4134 56.7521 24.1548 56.8658 23.831C56.9822 23.5071 57.0405 23.1463 57.0405 22.7486C57.0405 22.348 56.9822 21.9858 56.8658 21.6619C56.7521 21.3352 56.5788 21.0753 56.3459 20.8821C56.1129 20.6889 55.8232 20.5923 55.4766 20.5923C55.1214 20.5923 54.826 20.6889 54.5902 20.8821C54.3572 21.0753 54.1825 21.3352 54.0661 21.6619C53.9524 21.9858 53.8956 22.348 53.8956 22.7486C53.8956 23.1463 53.9524 23.5071 54.0661 23.831C54.1825 24.1548 54.3572 24.4134 54.5902 24.6065C54.826 24.7969 55.1214 24.892 55.4766 24.892Z" fill="black"/>
<path d="M15.799 41V33.7273H20.3587V34.6719H16.8963V36.8878H20.1207V37.8288H16.8963V40.0554H20.4013V41H15.799ZM24.0261 43.1591C23.5929 43.1591 23.22 43.1023 22.9075 42.9886C22.5974 42.875 22.344 42.7247 22.1475 42.5376C21.9511 42.3506 21.8043 42.1458 21.7072 41.9233L22.6199 41.5469C22.6838 41.651 22.769 41.7611 22.8755 41.8771C22.9844 41.9955 23.1312 42.0961 23.3159 42.179C23.5029 42.2618 23.7432 42.3033 24.0368 42.3033C24.4392 42.3033 24.7718 42.205 25.0346 42.0085C25.2974 41.8144 25.4288 41.5043 25.4288 41.0781V40.0057H25.3613C25.2974 40.1217 25.2051 40.2507 25.0843 40.3928C24.966 40.5348 24.8026 40.6579 24.5943 40.7621C24.3859 40.8662 24.1149 40.9183 23.7811 40.9183C23.3502 40.9183 22.9619 40.8177 22.6163 40.6165C22.273 40.4129 22.0008 40.1134 21.7995 39.718C21.6007 39.3203 21.5012 38.8314 21.5012 38.2514C21.5012 37.6714 21.5995 37.1742 21.796 36.7599C21.9949 36.3456 22.2671 36.0284 22.6127 35.8082C22.9584 35.5857 23.3502 35.4744 23.7882 35.4744C24.1267 35.4744 24.4002 35.5312 24.6085 35.6449C24.8168 35.7562 24.979 35.8864 25.095 36.0355C25.2134 36.1847 25.3045 36.3161 25.3684 36.4297H25.4466V35.5455H26.487V41.1207C26.487 41.5895 26.3781 41.9742 26.1603 42.2749C25.9425 42.5755 25.6478 42.7981 25.2761 42.9425C24.9068 43.0869 24.4901 43.1591 24.0261 43.1591ZM24.0154 40.0376C24.3208 40.0376 24.5789 39.9666 24.7896 39.8246C25.0027 39.6802 25.1636 39.4742 25.2725 39.2067C25.3838 38.9368 25.4395 38.6136 25.4395 38.2372C25.4395 37.8703 25.385 37.5471 25.2761 37.2678C25.1672 36.9884 25.0074 36.7706 24.7967 36.6143C24.586 36.4557 24.3256 36.3764 24.0154 36.3764C23.6958 36.3764 23.4295 36.4593 23.2164 36.625C23.0034 36.7884 22.8424 37.0109 22.7335 37.2926C22.627 37.5743 22.5737 37.8892 22.5737 38.2372C22.5737 38.5947 22.6281 38.9084 22.737 39.1783C22.8459 39.4482 23.0069 39.6589 23.22 39.8104C23.4354 39.9619 23.7006 40.0376 24.0154 40.0376ZM28.5822 43.0455C28.4236 43.0455 28.2792 43.0324 28.149 43.0064C28.0188 42.9827 27.9217 42.9567 27.8578 42.9283L28.1135 42.0582C28.3076 42.1103 28.4804 42.1328 28.6319 42.1257C28.7834 42.1186 28.9172 42.0618 29.0332 41.9553C29.1516 41.8487 29.2557 41.6747 29.3457 41.4332L29.4771 41.071L27.4814 35.5455H28.6177L29.9991 39.7784H30.0559L31.4373 35.5455H32.5772L30.3294 41.728C30.2252 42.0121 30.0926 42.2524 29.9316 42.4489C29.7707 42.6477 29.5789 42.7969 29.3564 42.8963C29.1338 42.9957 28.8758 43.0455 28.5822 43.0455ZM33.5751 43.0455V35.5455H34.612V36.4297H34.7008C34.7624 36.3161 34.8511 36.1847 34.9672 36.0355C35.0832 35.8864 35.2441 35.7562 35.4501 35.6449C35.6561 35.5312 35.9283 35.4744 36.2669 35.4744C36.7072 35.4744 37.1002 35.5857 37.4458 35.8082C37.7915 36.0308 38.0626 36.3516 38.2591 36.7706C38.4579 37.1896 38.5574 37.6939 38.5574 38.2834C38.5574 38.8729 38.4591 39.3783 38.2626 39.7997C38.0661 40.2187 37.7962 40.5419 37.4529 40.7692C37.1097 40.9941 36.7179 41.1065 36.2775 41.1065C35.9461 41.1065 35.675 41.0509 35.4643 40.9396C35.256 40.8284 35.0926 40.6982 34.9743 40.549C34.8559 40.3999 34.7647 40.2673 34.7008 40.1513H34.6369V43.0455H33.5751ZM34.6156 38.2727C34.6156 38.6562 34.6712 38.9924 34.7825 39.2812C34.8938 39.5701 35.0547 39.7962 35.2654 39.9595C35.4761 40.1205 35.7342 40.201 36.0396 40.201C36.3568 40.201 36.622 40.117 36.835 39.9489C37.0481 39.7784 37.2091 39.5476 37.318 39.2564C37.4293 38.9652 37.4849 38.6373 37.4849 38.2727C37.4849 37.9129 37.4305 37.5897 37.3216 37.3033C37.215 37.0168 37.054 36.7907 36.8386 36.625C36.6255 36.4593 36.3592 36.3764 36.0396 36.3764C35.7318 36.3764 35.4714 36.4557 35.2583 36.6143C35.0476 36.773 34.8878 36.9943 34.7789 37.2784C34.67 37.5625 34.6156 37.8939 34.6156 38.2727ZM42.2931 35.5455V36.3977H39.3137V35.5455H42.2931ZM40.1127 34.2386H41.1745V39.3984C41.1745 39.6044 41.2053 39.7595 41.2669 39.8636C41.3284 39.9654 41.4077 40.0353 41.5048 40.0732C41.6042 40.1087 41.7119 40.1264 41.8279 40.1264C41.9132 40.1264 41.9877 40.1205 42.0517 40.1087C42.1156 40.0968 42.1653 40.0874 42.2008 40.0803L42.3926 40.9574C42.331 40.9811 42.2434 41.0047 42.1298 41.0284C42.0162 41.0545 41.8741 41.0687 41.7037 41.071C41.4243 41.0758 41.1639 41.026 40.9224 40.9219C40.6809 40.8177 40.4856 40.6567 40.3365 40.4389C40.1873 40.2211 40.1127 39.9477 40.1127 39.6186V34.2386Z" fill="#B3B6BB"/>
<rect x="79" y="104" width="48" height="26" rx="13" fill="#346FF9"/>
<path d="M92.9439 121.409V112.318H93.5263V121.409H92.9439ZM94.7656 115.138C94.7277 114.802 94.5715 114.541 94.2969 114.357C94.0223 114.17 93.6766 114.076 93.2599 114.076C92.9616 114.076 92.7036 114.123 92.4858 114.218C92.268 114.31 92.0987 114.438 91.978 114.602C91.8596 114.763 91.8004 114.946 91.8004 115.152C91.8004 115.325 91.8407 115.474 91.9212 115.599C92.004 115.725 92.1117 115.83 92.2443 115.915C92.3793 115.998 92.5237 116.068 92.6776 116.125C92.8314 116.179 92.9794 116.224 93.1214 116.26L93.8317 116.445C94.0637 116.501 94.3016 116.578 94.5455 116.675C94.7893 116.772 95.0154 116.9 95.2237 117.059C95.4321 117.218 95.6001 117.414 95.728 117.648C95.8582 117.883 95.9233 118.163 95.9233 118.49C95.9233 118.902 95.8168 119.268 95.6037 119.587C95.393 119.907 95.0864 120.159 94.6839 120.344C94.2839 120.528 93.7997 120.621 93.2315 120.621C92.687 120.621 92.2159 120.534 91.8182 120.362C91.4205 120.189 91.1091 119.944 90.8842 119.626C90.6593 119.307 90.535 118.928 90.5114 118.49H91.6122C91.6335 118.753 91.7188 118.972 91.8679 119.147C92.0194 119.32 92.2124 119.449 92.4467 119.534C92.6835 119.617 92.9427 119.658 93.2244 119.658C93.5346 119.658 93.8104 119.61 94.0518 119.513C94.2957 119.413 94.4875 119.276 94.6271 119.101C94.7668 118.923 94.8366 118.716 94.8366 118.479C94.8366 118.264 94.7751 118.088 94.652 117.95C94.5313 117.813 94.3667 117.699 94.1584 117.609C93.9524 117.519 93.7192 117.44 93.4588 117.371L92.5994 117.137C92.017 116.978 91.5554 116.745 91.2145 116.438C90.8759 116.13 90.7067 115.723 90.7067 115.216C90.7067 114.797 90.8203 114.431 91.0476 114.119C91.2749 113.806 91.5826 113.563 91.9709 113.391C92.3591 113.215 92.7971 113.128 93.2848 113.128C93.7772 113.128 94.2116 113.214 94.5881 113.387C94.9669 113.56 95.2652 113.798 95.483 114.101C95.7008 114.402 95.8144 114.747 95.8239 115.138H94.7656ZM97.1351 120.5V119.705L99.5961 117.155C99.8588 116.878 100.075 116.635 100.246 116.427C100.419 116.216 100.548 116.016 100.633 115.827C100.718 115.637 100.761 115.436 100.761 115.223C100.761 114.982 100.704 114.773 100.59 114.598C100.477 114.42 100.322 114.284 100.125 114.19C99.9287 114.093 99.7073 114.044 99.4611 114.044C99.2007 114.044 98.9734 114.097 98.7793 114.204C98.5852 114.31 98.436 114.461 98.3319 114.655C98.2277 114.849 98.1756 115.076 98.1756 115.337H97.128C97.128 114.894 97.2298 114.507 97.4334 114.175C97.637 113.844 97.9164 113.587 98.2715 113.405C98.6266 113.22 99.0302 113.128 99.4824 113.128C99.9393 113.128 100.342 113.219 100.69 113.401C101.04 113.581 101.314 113.827 101.51 114.14C101.707 114.45 101.805 114.8 101.805 115.191C101.805 115.461 101.754 115.725 101.652 115.983C101.553 116.241 101.379 116.529 101.13 116.846C100.882 117.161 100.536 117.543 100.093 117.993L98.6479 119.506V119.559H101.922V120.5H97.1351ZM105.807 120.599C105.483 120.595 105.163 120.536 104.848 120.422C104.536 120.308 104.252 120.119 103.996 119.854C103.74 119.589 103.535 119.232 103.382 118.785C103.23 118.337 103.154 117.779 103.154 117.109C103.154 116.474 103.217 115.911 103.343 115.418C103.47 114.926 103.654 114.51 103.893 114.172C104.132 113.831 104.421 113.572 104.759 113.394C105.098 113.217 105.478 113.128 105.899 113.128C106.333 113.128 106.717 113.213 107.053 113.384C107.39 113.554 107.662 113.79 107.87 114.09C108.081 114.391 108.215 114.733 108.271 115.116H107.188C107.115 114.813 106.969 114.566 106.752 114.374C106.534 114.183 106.25 114.087 105.899 114.087C105.367 114.087 104.951 114.319 104.653 114.783C104.357 115.247 104.208 115.892 104.205 116.718H104.259C104.384 116.512 104.538 116.337 104.72 116.192C104.905 116.046 105.111 115.933 105.338 115.855C105.568 115.775 105.809 115.734 106.063 115.734C106.484 115.734 106.865 115.837 107.206 116.043C107.549 116.247 107.823 116.529 108.026 116.888C108.23 117.248 108.332 117.66 108.332 118.124C108.332 118.588 108.227 119.009 108.016 119.385C107.807 119.761 107.514 120.06 107.135 120.28C106.756 120.498 106.314 120.604 105.807 120.599ZM105.803 119.676C106.083 119.676 106.333 119.607 106.553 119.47C106.773 119.333 106.947 119.148 107.075 118.916C107.203 118.684 107.267 118.425 107.267 118.138C107.267 117.859 107.204 117.605 107.078 117.375C106.955 117.145 106.785 116.963 106.567 116.828C106.352 116.693 106.105 116.626 105.828 116.626C105.618 116.626 105.422 116.666 105.242 116.746C105.065 116.827 104.909 116.938 104.774 117.08C104.639 117.222 104.532 117.386 104.454 117.57C104.378 117.753 104.34 117.946 104.34 118.149C104.34 118.421 104.403 118.674 104.529 118.906C104.656 119.138 104.83 119.325 105.051 119.467C105.273 119.606 105.524 119.676 105.803 119.676ZM112.157 120.621C111.596 120.618 111.117 120.47 110.719 120.177C110.321 119.883 110.017 119.456 109.806 118.895C109.596 118.334 109.49 117.658 109.49 116.867C109.49 116.079 109.596 115.405 109.806 114.847C110.02 114.288 110.325 113.862 110.723 113.568C111.123 113.275 111.601 113.128 112.157 113.128C112.714 113.128 113.191 113.276 113.588 113.572C113.986 113.865 114.29 114.291 114.501 114.85C114.714 115.406 114.821 116.079 114.821 116.867C114.821 117.66 114.715 118.337 114.505 118.898C114.294 119.457 113.99 119.884 113.592 120.18C113.194 120.474 112.716 120.621 112.157 120.621ZM112.157 119.673C112.65 119.673 113.034 119.432 113.311 118.952C113.591 118.471 113.73 117.776 113.73 116.867C113.73 116.263 113.667 115.753 113.539 115.337C113.413 114.918 113.232 114.6 112.995 114.385C112.761 114.167 112.482 114.058 112.157 114.058C111.667 114.058 111.283 114.3 111.003 114.783C110.724 115.266 110.583 115.96 110.581 116.867C110.581 117.473 110.643 117.986 110.769 118.405C110.897 118.821 111.078 119.138 111.312 119.353C111.547 119.566 111.828 119.673 112.157 119.673Z" fill="white"/>
<rect x="17" y="104" width="47" height="26" rx="13" fill="white"/>
<path d="M28.799 113.227H30.1307L32.446 118.881H32.5312L34.8466 113.227H36.1783V120.5H35.1342V115.237H35.0668L32.9219 120.489H32.0554L29.9105 115.234H29.843V120.5H28.799V113.227ZM39.986 120.61C39.4746 120.61 39.0283 120.493 38.6472 120.259C38.266 120.024 37.9701 119.696 37.7594 119.275C37.5487 118.853 37.4434 118.361 37.4434 117.798C37.4434 117.232 37.5487 116.737 37.7594 116.313C37.9701 115.889 38.266 115.56 38.6472 115.326C39.0283 115.092 39.4746 114.974 39.986 114.974C40.4973 114.974 40.9436 115.092 41.3248 115.326C41.7059 115.56 42.0018 115.889 42.2125 116.313C42.4232 116.737 42.5286 117.232 42.5286 117.798C42.5286 118.361 42.4232 118.853 42.2125 119.275C42.0018 119.696 41.7059 120.024 41.3248 120.259C40.9436 120.493 40.4973 120.61 39.986 120.61ZM39.9895 119.719C40.321 119.719 40.5956 119.631 40.8134 119.456C41.0312 119.281 41.1922 119.048 41.2963 118.756C41.4029 118.465 41.4561 118.144 41.4561 117.794C41.4561 117.446 41.4029 117.126 41.2963 116.835C41.1922 116.542 41.0312 116.306 40.8134 116.129C40.5956 115.951 40.321 115.862 39.9895 115.862C39.6557 115.862 39.3787 115.951 39.1586 116.129C38.9408 116.306 38.7786 116.542 38.6721 116.835C38.5679 117.126 38.5158 117.446 38.5158 117.794C38.5158 118.144 38.5679 118.465 38.6721 118.756C38.7786 119.048 38.9408 119.281 39.1586 119.456C39.3787 119.631 39.6557 119.719 39.9895 119.719ZM43.7138 120.5V115.045H44.7401V115.912H44.7969C44.8963 115.618 45.0715 115.388 45.3224 115.219C45.5758 115.049 45.8622 114.964 46.1818 114.964C46.2481 114.964 46.3262 114.966 46.4162 114.971C46.5085 114.976 46.5807 114.982 46.6328 114.989V116.004C46.5902 115.992 46.5144 115.979 46.4055 115.965C46.2966 115.949 46.1877 115.94 46.0788 115.94C45.8279 115.94 45.6042 115.994 45.4077 116.1C45.2135 116.204 45.0597 116.35 44.946 116.537C44.8324 116.722 44.7756 116.932 44.7756 117.169V120.5H43.7138ZM49.7072 120.61C49.1698 120.61 48.707 120.495 48.3187 120.266C47.9328 120.034 47.6345 119.708 47.4238 119.289C47.2155 118.868 47.1113 118.374 47.1113 117.808C47.1113 117.25 47.2155 116.757 47.4238 116.331C47.6345 115.905 47.9281 115.572 48.3045 115.333C48.6833 115.094 49.126 114.974 49.6326 114.974C49.9404 114.974 50.2387 115.025 50.5275 115.127C50.8163 115.229 51.0756 115.389 51.3052 115.607C51.5349 115.824 51.716 116.107 51.8485 116.455C51.9811 116.801 52.0474 117.221 52.0474 117.716V118.092H47.7115V117.297H51.0069C51.0069 117.018 50.9501 116.77 50.8365 116.555C50.7228 116.337 50.563 116.165 50.3571 116.04C50.1535 115.914 49.9144 115.852 49.6397 115.852C49.3414 115.852 49.081 115.925 48.8585 116.072C48.6383 116.216 48.4679 116.406 48.3471 116.64C48.2288 116.872 48.1696 117.124 48.1696 117.396V118.018C48.1696 118.382 48.2335 118.692 48.3613 118.948C48.4915 119.204 48.6726 119.399 48.9047 119.534C49.1367 119.667 49.4077 119.733 49.7179 119.733C49.9191 119.733 50.1026 119.705 50.2683 119.648C50.434 119.589 50.5772 119.501 50.698 119.385C50.8187 119.269 50.911 119.126 50.975 118.955L51.9799 119.136C51.8994 119.432 51.755 119.692 51.5467 119.914C51.3407 120.134 51.0815 120.306 50.769 120.429C50.4589 120.55 50.1049 120.61 49.7072 120.61Z" fill="#346FF9"/>
<path d="M112.602 24.4375V23.4609L116.059 18H116.828V19.4375H116.34L113.867 23.3516V23.4141H118.605V24.4375H112.602ZM116.395 26V24.1406L116.402 23.6953V18H117.547V26H116.395ZM120.451 26.0742C120.238 26.0742 120.054 25.9987 119.9 25.8477C119.747 25.694 119.67 25.5091 119.67 25.293C119.67 25.0794 119.747 24.8971 119.9 24.7461C120.054 24.5924 120.238 24.5156 120.451 24.5156C120.665 24.5156 120.848 24.5924 121.002 24.7461C121.156 24.8971 121.232 25.0794 121.232 25.293C121.232 25.4362 121.196 25.5677 121.123 25.6875C121.053 25.8047 120.959 25.8984 120.842 25.9687C120.725 26.0391 120.594 26.0742 120.451 26.0742ZM125.284 26.1094C124.927 26.1042 124.576 26.0391 124.229 25.9141C123.886 25.7891 123.573 25.5807 123.292 25.2891C123.011 24.9974 122.785 24.6055 122.616 24.1133C122.45 23.6211 122.366 23.0065 122.366 22.2695C122.366 21.5716 122.435 20.9518 122.573 20.4102C122.714 19.8685 122.916 19.4115 123.179 19.0391C123.442 18.6641 123.759 18.3789 124.132 18.1836C124.504 17.9883 124.922 17.8906 125.386 17.8906C125.862 17.8906 126.285 17.9844 126.655 18.1719C127.025 18.3594 127.325 18.6185 127.554 18.9492C127.785 19.2799 127.933 19.6562 127.995 20.0781H126.804C126.723 19.7448 126.563 19.4727 126.323 19.2617C126.084 19.0508 125.771 18.9453 125.386 18.9453C124.8 18.9453 124.343 19.2005 124.015 19.7109C123.689 20.2214 123.525 20.931 123.522 21.8398H123.581C123.719 21.6133 123.888 21.4206 124.089 21.2617C124.292 21.1003 124.519 20.9766 124.769 20.8906C125.021 20.8021 125.287 20.7578 125.565 20.7578C126.029 20.7578 126.448 20.8711 126.823 21.0977C127.201 21.3216 127.502 21.6315 127.726 22.0273C127.95 22.4232 128.062 22.8763 128.062 23.3867C128.062 23.8971 127.946 24.3594 127.714 24.7734C127.485 25.1875 127.162 25.5156 126.745 25.7578C126.328 25.9974 125.841 26.1146 125.284 26.1094ZM125.28 25.0937C125.588 25.0937 125.862 25.0182 126.104 24.8672C126.347 24.7161 126.538 24.513 126.679 24.2578C126.819 24.0026 126.89 23.7174 126.89 23.4023C126.89 23.0951 126.821 22.8151 126.683 22.5625C126.547 22.3099 126.36 22.1094 126.12 21.9609C125.883 21.8125 125.612 21.7383 125.308 21.7383C125.076 21.7383 124.861 21.7826 124.663 21.8711C124.468 21.9596 124.296 22.082 124.147 22.2383C123.999 22.3945 123.882 22.5742 123.796 22.7773C123.713 22.9779 123.671 23.1901 123.671 23.4141C123.671 23.7135 123.74 23.9909 123.878 24.2461C124.019 24.5013 124.21 24.707 124.452 24.8633C124.697 25.0169 124.973 25.0937 125.28 25.0937Z" fill="#E4A102"/>
<path d="M103.5 16L104.735 19.8004H108.731L105.498 22.1492L106.733 25.9496L103.5 23.6008L100.267 25.9496L101.502 22.1492L98.2692 19.8004H102.265L103.5 16Z" fill="#E4A102"/>
<path d="M58.96 70.9712L50.5244 81.7687C49.4986 83.0818 50.4342 85 52.1005 85H90.352C92.0267 85 92.9598 83.0648 91.9169 81.7545L76.6261 62.543C75.8062 61.5129 74.232 61.5422 73.4511 62.6021L68.9028 68.7747C68.3694 69.4987 68.3847 70.4897 68.9403 71.1968L71.9055 74.9706C72.7803 76.084 72.568 77.699 71.4353 78.5485C70.3535 79.3599 68.8244 79.1743 67.9681 78.1277L62.084 70.936C61.2721 69.9437 59.7494 69.9608 58.96 70.9712Z" fill="#8A96AC"/>
</svg>
