<svg width="145" height="145" viewBox="0 0 145 145" fill="none" xmlns="http://www.w3.org/2000/svg">
<rect width="145" height="145" rx="14" fill="#E9EDF8"/>
<path d="M58.96 70.9712L50.5244 81.7687C49.4986 83.0818 50.4342 85 52.1005 85H90.352C92.0267 85 92.9598 83.0648 91.9169 81.7545L76.6261 62.543C75.8062 61.5129 74.232 61.5422 73.4511 62.6021L68.9028 68.7747C68.3694 69.4987 68.3847 70.4897 68.9403 71.1968L71.9055 74.9706C72.7803 76.084 72.568 77.699 71.4353 78.5485C70.3535 79.3599 68.8244 79.1743 67.9681 78.1277L62.084 70.936C61.2721 69.9437 59.7494 69.9608 58.96 70.9712Z" fill="#8A96AC"/>
</svg>
